<svg width="216" height="90" viewBox="0 0 216 90" fill="none" xmlns="http://www.w3.org/2000/svg">
<g clip-path="url(#clip0)">
<path d="M197.81 6.41574C197.81 14.5531 198.274 24.048 195.424 26.486C195.031 26.8066 194.179 27.1668 192.756 26.8462L191.938 31.5956C193.044 31.8508 194.191 31.8645 195.302 31.6358C196.413 31.407 197.463 30.9412 198.38 30.2697C202.188 27.3647 202.507 19.0532 202.507 10.9514H208.237L208.154 31.4571H212.87V6.3999L197.81 6.41574Z" fill="#008CFF"/>
<path d="M173.891 6.41577C173.891 14.5531 174.355 24.048 171.506 26.486C171.113 26.8066 170.26 27.1668 168.837 26.8462L168.02 31.5956C169.125 31.8508 170.272 31.8645 171.383 31.6358C172.494 31.4071 173.544 30.9413 174.461 30.2698C178.269 27.3647 178.588 19.0532 178.588 10.9515H184.337L184.298 31.4848H189.014L188.825 6.41577H173.891Z" fill="#008CFF"/>
<path d="M157.487 6.41577H152.645L143.535 31.5046H148.908L151.163 24.9385H158.965L161.221 31.5046H166.593L157.487 6.41577ZM152.409 21.2973L155.066 13.5676L157.723 21.2973H152.409Z" fill="#008CFF"/>
<path d="M133.533 31.4887H138.269V14.7153H133.533V31.4887Z" fill="#008CFF"/>
<path d="M126.809 6.3999V10.9871H144.958V6.3999H126.809Z" fill="#008CFF"/>
<path d="M124.14 6.3999H107.803V10.9871H124.14V6.3999Z" fill="#008CFF"/>
<path d="M123.036 16.6863H107.803V21.2378H123.036V16.6863Z" fill="#008CFF"/>
<path d="M107.803 26.9373V31.4888H124.352V26.9373H107.803Z" fill="#008CFF"/>
<path d="M103.566 6.18604L91.6464 19.4448L79.7224 6.18604H79.4395V31.4886H84.1713V17.9409L91.4695 25.8605H91.7879L99.1568 17.9409V31.4886H103.889V6.18604H103.566Z" fill="#008CFF"/>
<path d="M200.538 67.7505H205.702V49.4534H200.538V67.7505Z" fill="#F9F9F9"/>
<path d="M193.2 40.3821V45.3848H213V40.3821H193.2Z" fill="#F9F9F9"/>
<path d="M184.774 40.3821L184.778 51.943H189.943L189.939 40.3821H184.774Z" fill="#F9F9F9"/>
<path d="M173.824 51.6026V40.3821H168.66V56.5697H184.774V67.7506H189.938V51.6026H173.824Z" fill="#F9F9F9"/>
<path d="M168.66 67.7504H173.824L173.872 56.2014H168.707L168.66 67.7504Z" fill="#F9F9F9"/>
<path d="M156.198 40.3821H150.932L140.98 67.7625H146.844L149.568 59.8468H157.55L160.273 67.7625H166.137L156.198 40.3821ZM150.79 56.257L153.541 48.2028L156.292 56.257H150.79Z" fill="#F9F9F9"/>
<path d="M133.486 40.3821H123.421V45.3848H133.36C135.962 45.3848 137.593 47.0273 137.593 49.3743C137.593 51.7213 135.962 53.4034 133.36 53.4034H123.421V67.7625H128.585V58.3666H133.478C139.534 58.3666 142.91 54.3771 142.91 49.3743C142.91 44.3716 139.534 40.3821 133.478 40.3821H133.486Z" fill="#F9F9F9"/>
<path d="M110.966 40.3821H105.688L95.749 67.7625H101.609L104.317 59.8785H112.334L115.042 67.7625H120.906L110.966 40.394V40.3821ZM105.543 56.2847L108.325 48.183L111.112 56.2847H105.543Z" fill="#F9F9F9"/>
<path d="M79.459 67.7348H84.6232L84.4738 45.4086L94.1969 45.3492V40.3821L79.4512 40.5087L79.459 67.7348Z" fill="#F9F9F9"/>
<path fill-rule="evenodd" clip-rule="evenodd" d="M11.2283 31.18L11.2362 53.0234L26.6854 62.8943L42.622 52.6791L42.6063 44.3715L26.8819 54.4126L26.8898 41.1776L53.7521 23.9648L53.756 56.6607L26.6383 74L0 56.91L0.0157204 24.0282L11.2283 31.18Z" fill="#F9F9F9"/>
<path fill-rule="evenodd" clip-rule="evenodd" d="M26.854 17.1334L53.5709 0.106717L53.7399 0.656859L53.7438 18.2772L42.6334 25.3657L42.6216 20.1018L26.7911 30.1112L11.2161 20.1255L11.2043 25.3934L0.0664062 18.2614L0.0703364 0.641028V0.0671387L26.854 17.1334Z" fill="#008CFF"/>
<path fill-rule="evenodd" clip-rule="evenodd" d="M53.1074 0.407659L53.7402 1.04092L53.7441 0.569931V0L53.1074 0.407659Z" fill="#008CFF"/>
</g>
<path d="M0.9975 87.0665C0.611167 87.0665 0.300833 87.0317 0.0665 86.962L0.1995 85.613C0.326167 85.6573 0.459167 85.6795 0.5985 85.6795C0.858167 85.6795 1.06717 85.6003 1.2255 85.442C1.39017 85.2837 1.52 84.9765 1.615 84.5205C1.71633 84.0582 1.767 83.4343 1.767 82.649V80.274H6.897V87H5.2725V81.6515H3.325V82.5825C3.325 84.1975 3.14133 85.3502 2.774 86.0405C2.40667 86.7245 1.8145 87.0665 0.9975 87.0665ZM10.5624 87.152C9.82137 87.152 9.2007 86.9303 8.70037 86.487C8.20637 86.0373 7.95937 85.4262 7.95937 84.6535C7.95937 83.8935 8.20003 83.2823 8.68137 82.82C9.16903 82.3513 9.7802 82.117 10.5149 82.117C11.2242 82.117 11.7974 82.3482 12.2344 82.8105C12.6714 83.2665 12.8899 83.8935 12.8899 84.6915C12.8899 84.8625 12.8867 84.986 12.8804 85.062H9.45087C9.4762 85.3153 9.5997 85.5275 9.82137 85.6985C10.043 85.8695 10.2964 85.955 10.5814 85.955C11.0374 85.955 11.3857 85.7903 11.6264 85.461L12.7094 86.145C12.247 86.8163 11.5314 87.152 10.5624 87.152ZM9.45087 84.093H11.4554C11.4554 83.8333 11.373 83.618 11.2084 83.447C11.05 83.276 10.822 83.1905 10.5244 83.1905C10.233 83.1905 9.98603 83.2792 9.78337 83.4565C9.5807 83.6338 9.46987 83.846 9.45087 84.093ZM13.856 87V82.269H15.4235V83.941H16.9625V82.269H18.53V87H16.9625V85.138H15.4235V87H13.856ZM19.7472 87V82.269H21.2862V85.024H21.3052L22.9487 82.269H24.6017V87H23.0817V84.3115H23.0532L21.4382 87H19.7472ZM25.8145 87V82.269H27.382V83.941H28.921V82.269H30.4885V87H28.921V85.138H27.382V87H25.8145ZM31.7057 87V82.269H35.1732V83.466H33.2732V87H31.7057ZM35.9732 89.28V82.269H37.4552V82.8485H37.4837C37.6357 82.6395 37.8416 82.4685 38.1012 82.3355C38.3672 82.2025 38.6649 82.136 38.9942 82.136C39.6592 82.136 40.1976 82.3798 40.6092 82.8675C41.0272 83.3488 41.2362 83.9315 41.2362 84.6155C41.2362 85.3122 41.0304 85.9075 40.6187 86.4015C40.2134 86.8892 39.6687 87.133 38.9847 87.133C38.6934 87.133 38.4179 87.076 38.1582 86.962C37.8986 86.8417 37.6959 86.6802 37.5502 86.4775H37.5312V89.28H35.9732ZM38.6142 85.841C38.9626 85.841 39.2349 85.7207 39.4312 85.48C39.6276 85.2393 39.7257 84.9512 39.7257 84.6155C39.7257 84.2862 39.6276 84.0043 39.4312 83.77C39.2349 83.5293 38.9626 83.409 38.6142 83.409C38.2786 83.409 38.0031 83.5325 37.7877 83.7795C37.5787 84.0265 37.4742 84.3083 37.4742 84.625C37.4742 84.948 37.5787 85.233 37.7877 85.48C38.0031 85.7207 38.2786 85.841 38.6142 85.841ZM43.6419 87.114C43.3632 87.114 43.1004 87.0728 42.8534 86.9905C42.6127 86.9018 42.3974 86.7403 42.2074 86.506C42.0174 86.2717 41.9224 85.9803 41.9224 85.632C41.9224 84.568 42.9357 84.036 44.9624 84.036V83.96C44.9624 83.7383 44.8832 83.5705 44.7249 83.4565C44.5666 83.3362 44.3607 83.276 44.1074 83.276C43.6767 83.276 43.2872 83.4375 42.9389 83.7605L42.1504 82.915C42.7141 82.383 43.4171 82.117 44.2594 82.117C45.0384 82.117 45.5957 82.3165 45.9314 82.7155C46.2671 83.1082 46.4349 83.7415 46.4349 84.6155V87H45.0099V86.4965H44.9814C44.8674 86.6865 44.6869 86.8385 44.4399 86.9525C44.1929 87.0602 43.9269 87.114 43.6419 87.114ZM44.0314 86.069C44.3417 86.069 44.5824 85.9835 44.7534 85.8125C44.9244 85.6352 45.0099 85.3977 45.0099 85.1V84.9385H44.8104C43.8414 84.9385 43.3569 85.1538 43.3569 85.5845C43.3569 85.7492 43.4234 85.8727 43.5564 85.955C43.6894 86.031 43.8477 86.069 44.0314 86.069ZM47.0847 88.1875V85.7935H47.5312C47.9176 85.3058 48.1107 84.5332 48.1107 83.4755V82.269H52.4142V85.7935H53.0697V88.1875H51.7967V87H48.3577V88.1875H47.0847ZM49.1367 85.7935H50.8467V83.466H49.5737V83.865C49.5737 84.6693 49.4281 85.3122 49.1367 85.7935ZM56.2358 87.152C55.4695 87.152 54.8362 86.924 54.3358 86.468C53.8355 86.012 53.5853 85.4008 53.5853 84.6345C53.5853 83.8808 53.8355 83.2728 54.3358 82.8105C54.8425 82.3482 55.4727 82.117 56.2263 82.117C56.562 82.117 56.8913 82.1772 57.2143 82.2975C57.5437 82.4115 57.8002 82.5635 57.9838 82.7535L57.0813 83.7985C56.999 83.6845 56.8787 83.5927 56.7203 83.523C56.5683 83.4533 56.4132 83.4185 56.2548 83.4185C55.9318 83.4185 55.669 83.5388 55.4663 83.7795C55.2637 84.0138 55.1623 84.2988 55.1623 84.6345C55.1623 84.9702 55.2637 85.2552 55.4663 85.4895C55.669 85.7238 55.9382 85.841 56.2738 85.841C56.6412 85.841 56.923 85.7238 57.1193 85.4895L57.9838 86.544C57.5658 86.9493 56.9832 87.152 56.2358 87.152ZM58.6007 87V82.269H60.1682V84.2735H60.1967L61.7452 82.269H63.6357L61.7832 84.4825L63.7212 87H61.8117L60.1967 84.8625H60.1682V87H58.6007ZM64.2877 87V82.269H65.8267V85.024H65.8457L67.4892 82.269H69.1422V87H67.6222V84.3115H67.5937L65.9787 87H64.2877ZM72.7776 81.566C71.8719 81.566 71.3494 81.1512 71.2101 80.3215L71.9701 80.1695C72.0271 80.5432 72.2962 80.73 72.7776 80.73C73.2652 80.73 73.5312 80.5432 73.5756 80.1695L74.3356 80.3215C74.2722 80.7395 74.1012 81.053 73.8226 81.262C73.5502 81.4647 73.2019 81.566 72.7776 81.566ZM70.3551 87V82.269H71.8941V85.024H71.9131L73.5566 82.269H75.2096V87H73.6896V84.3115H73.6611L72.0461 87H70.3551ZM81.0585 87.1805C79.8931 87.1805 78.9811 86.8448 78.3225 86.1735L79.2915 85.119C79.6651 85.594 80.1718 85.8315 80.8115 85.8315C81.1218 85.8315 81.3878 85.7523 81.6095 85.594C81.8311 85.4357 81.942 85.2235 81.942 84.9575C81.942 84.3938 81.4955 84.112 80.6025 84.112H80.061V82.9435H80.6405C81.4068 82.9435 81.79 82.6807 81.79 82.155C81.79 81.9333 81.6918 81.7592 81.4955 81.6325C81.2991 81.4995 81.0775 81.433 80.8305 81.433C80.2668 81.433 79.814 81.6293 79.472 82.022L78.5315 81.0245C79.1395 80.4038 79.9533 80.0935 80.973 80.0935C81.714 80.0935 82.3061 80.255 82.7495 80.578C83.1928 80.901 83.4145 81.3443 83.4145 81.908C83.4145 82.3007 83.31 82.6332 83.101 82.9055C82.892 83.1778 82.626 83.3583 82.303 83.447V83.4755C82.6956 83.5832 83.0123 83.7763 83.253 84.055C83.4936 84.3273 83.614 84.6788 83.614 85.1095C83.614 85.5465 83.4841 85.9297 83.2245 86.259C82.9648 86.582 82.645 86.8163 82.265 86.962C81.885 87.1077 81.4828 87.1805 81.0585 87.1805ZM86.0301 87.114C85.7514 87.114 85.4886 87.0728 85.2416 86.9905C85.0009 86.9018 84.7856 86.7403 84.5956 86.506C84.4056 86.2717 84.3106 85.9803 84.3106 85.632C84.3106 84.568 85.3239 84.036 87.3506 84.036V83.96C87.3506 83.7383 87.2714 83.5705 87.1131 83.4565C86.9547 83.3362 86.7489 83.276 86.4956 83.276C86.0649 83.276 85.6754 83.4375 85.3271 83.7605L84.5386 82.915C85.1022 82.383 85.8052 82.117 86.6476 82.117C87.4266 82.117 87.9839 82.3165 88.3196 82.7155C88.6552 83.1082 88.8231 83.7415 88.8231 84.6155V87H87.3981V86.4965H87.3696C87.2556 86.6865 87.0751 86.8385 86.8281 86.9525C86.5811 87.0602 86.3151 87.114 86.0301 87.114ZM86.4196 86.069C86.7299 86.069 86.9706 85.9835 87.1416 85.8125C87.3126 85.6352 87.3981 85.3977 87.3981 85.1V84.9385H87.1986C86.2296 84.9385 85.7451 85.1538 85.7451 85.5845C85.7451 85.7492 85.8116 85.8727 85.9446 85.955C86.0776 86.031 86.2359 86.069 86.4196 86.069ZM89.9859 87V82.269H92.6079C93.7669 82.269 94.3464 82.6838 94.3464 83.5135C94.3464 83.7542 94.2768 83.9632 94.1374 84.1405C94.0044 84.3178 93.8239 84.4413 93.5959 84.511V84.53C93.8683 84.5807 94.0963 84.7042 94.2799 84.9005C94.4636 85.0968 94.5554 85.3438 94.5554 85.6415C94.5554 86.0912 94.3844 86.43 94.0424 86.658C93.7004 86.886 93.2634 87 92.7314 87H89.9859ZM91.5059 86.0405H92.2754C92.4844 86.0405 92.6554 85.9962 92.7884 85.9075C92.9278 85.8125 92.9974 85.6795 92.9974 85.5085C92.9974 85.1602 92.7504 84.986 92.2564 84.986H91.5059V86.0405ZM91.5059 84.1785H92.2659C92.4306 84.1785 92.5699 84.1373 92.6839 84.055C92.8043 83.9727 92.8644 83.8492 92.8644 83.6845C92.8644 83.3742 92.6428 83.219 92.1994 83.219H91.5059V84.1785ZM97.9276 87.152C97.1929 87.152 96.5722 86.9177 96.0656 86.449C95.5589 85.9803 95.3056 85.3692 95.3056 84.6155C95.3056 83.8618 95.5589 83.257 96.0656 82.801C96.5722 82.345 97.1929 82.117 97.9276 82.117C98.6686 82.117 99.2924 82.345 99.7991 82.801C100.306 83.257 100.559 83.8618 100.559 84.6155C100.559 85.3692 100.306 85.9803 99.7991 86.449C99.2924 86.9177 98.6686 87.152 97.9276 87.152ZM97.1106 85.48C97.3132 85.7207 97.5887 85.841 97.9371 85.841C98.2854 85.841 98.5577 85.7207 98.7541 85.48C98.9567 85.233 99.0581 84.9448 99.0581 84.6155C99.0581 84.2925 98.9567 84.0107 98.7541 83.77C98.5514 83.5293 98.2759 83.409 97.9276 83.409C97.5792 83.409 97.3069 83.5293 97.1106 83.77C96.9142 84.0043 96.8161 84.2862 96.8161 84.6155C96.8161 84.9448 96.9142 85.233 97.1106 85.48ZM100.921 88.1875V85.7935H101.368C101.754 85.3058 101.947 84.5332 101.947 83.4755V82.269H106.251V85.7935H106.906V88.1875H105.633V87H102.194V88.1875H100.921ZM102.973 85.7935H104.683V83.466H103.41V83.865C103.41 84.6693 103.265 85.3122 102.973 85.7935ZM110.12 87V80.274H112.428L113.958 84.587H113.996L115.459 80.274H117.805V87H116.219L116.257 82.2405H116.228L114.48 87H113.34L111.64 82.2405H111.611L111.649 87H110.12ZM121.473 87.152C120.732 87.152 120.111 86.9303 119.611 86.487C119.117 86.0373 118.87 85.4262 118.87 84.6535C118.87 83.8935 119.111 83.2823 119.592 82.82C120.08 82.3513 120.691 82.117 121.426 82.117C122.135 82.117 122.708 82.3482 123.145 82.8105C123.582 83.2665 123.801 83.8935 123.801 84.6915C123.801 84.8625 123.797 84.986 123.791 85.062H120.362C120.387 85.3153 120.51 85.5275 120.732 85.6985C120.954 85.8695 121.207 85.955 121.492 85.955C121.948 85.955 122.296 85.7903 122.537 85.461L123.62 86.145C123.158 86.8163 122.442 87.152 121.473 87.152ZM120.362 84.093H122.366C122.366 83.8333 122.284 83.618 122.119 83.447C121.961 83.276 121.733 83.1905 121.435 83.1905C121.144 83.1905 120.897 83.2792 120.694 83.4565C120.491 83.6338 120.381 83.846 120.362 84.093ZM125.653 87V83.466H124.237V82.269H128.636V83.466H127.22V87H125.653ZM130.747 87.114C130.468 87.114 130.205 87.0728 129.958 86.9905C129.718 86.9018 129.502 86.7403 129.312 86.506C129.122 86.2717 129.027 85.9803 129.027 85.632C129.027 84.568 130.041 84.036 132.067 84.036V83.96C132.067 83.7383 131.988 83.5705 131.83 83.4565C131.672 83.3362 131.466 83.276 131.212 83.276C130.782 83.276 130.392 83.4375 130.044 83.7605L129.255 82.915C129.819 82.383 130.522 82.117 131.364 82.117C132.143 82.117 132.701 82.3165 133.036 82.7155C133.372 83.1082 133.54 83.7415 133.54 84.6155V87H132.115V86.4965H132.086C131.972 86.6865 131.792 86.8385 131.545 86.9525C131.298 87.0602 131.032 87.114 130.747 87.114ZM131.136 86.069C131.447 86.069 131.687 85.9835 131.858 85.8125C132.029 85.6352 132.115 85.3977 132.115 85.1V84.9385H131.915C130.946 84.9385 130.462 85.1538 130.462 85.5845C130.462 85.7492 130.528 85.8727 130.661 85.955C130.794 86.031 130.953 86.069 131.136 86.069ZM134.997 87.057C134.592 87.057 134.307 87.0317 134.142 86.981L134.237 85.7935C134.313 85.8188 134.411 85.8315 134.532 85.8315C134.791 85.8315 134.988 85.7048 135.121 85.4515C135.26 85.1918 135.33 84.7168 135.33 84.0265V82.269H139.567V87H137.999V83.466H136.831V84.3115C136.831 85.3058 136.679 86.012 136.375 86.43C136.077 86.848 135.618 87.057 134.997 87.057ZM141.074 87.057C140.669 87.057 140.384 87.0317 140.219 86.981L140.314 85.7935C140.39 85.8188 140.488 85.8315 140.608 85.8315C140.868 85.8315 141.064 85.7048 141.197 85.4515C141.337 85.1918 141.406 84.7168 141.406 84.0265V82.269H145.643V87H144.076V83.466H142.907V84.3115C142.907 85.3058 142.755 86.012 142.451 86.43C142.154 86.848 141.695 87.057 141.074 87.057ZM149.241 87.152C148.506 87.152 147.885 86.9177 147.379 86.449C146.872 85.9803 146.619 85.3692 146.619 84.6155C146.619 83.8618 146.872 83.257 147.379 82.801C147.885 82.345 148.506 82.117 149.241 82.117C149.982 82.117 150.605 82.345 151.112 82.801C151.619 83.257 151.872 83.8618 151.872 84.6155C151.872 85.3692 151.619 85.9803 151.112 86.449C150.605 86.9177 149.982 87.152 149.241 87.152ZM148.424 85.48C148.626 85.7207 148.902 85.841 149.25 85.841C149.598 85.841 149.871 85.7207 150.067 85.48C150.27 85.233 150.371 84.9448 150.371 84.6155C150.371 84.2925 150.27 84.0107 150.067 83.77C149.864 83.5293 149.589 83.409 149.241 83.409C148.892 83.409 148.62 83.5293 148.424 83.77C148.227 84.0043 148.129 84.2862 148.129 84.6155C148.129 84.9448 148.227 85.233 148.424 85.48ZM152.858 87V82.269H154.426V84.2735H154.454L156.003 82.269H157.893L156.041 84.4825L157.979 87H156.069L154.454 84.8625H154.426V87H152.858ZM160.68 87.152C159.945 87.152 159.324 86.9177 158.818 86.449C158.311 85.9803 158.058 85.3692 158.058 84.6155C158.058 83.8618 158.311 83.257 158.818 82.801C159.324 82.345 159.945 82.117 160.68 82.117C161.421 82.117 162.044 82.345 162.551 82.801C163.058 83.257 163.311 83.8618 163.311 84.6155C163.311 85.3692 163.058 85.9803 162.551 86.449C162.044 86.9177 161.421 87.152 160.68 87.152ZM159.863 85.48C160.065 85.7207 160.341 85.841 160.689 85.841C161.037 85.841 161.31 85.7207 161.506 85.48C161.709 85.233 161.81 84.9448 161.81 84.6155C161.81 84.2925 161.709 84.0107 161.506 83.77C161.303 83.5293 161.028 83.409 160.68 83.409C160.331 83.409 160.059 83.5293 159.863 83.77C159.666 84.0043 159.568 84.2862 159.568 84.6155C159.568 84.9448 159.666 85.233 159.863 85.48ZM164.297 87V82.269H165.865V83.941H167.404V82.269H168.971V87H167.404V85.138H165.865V87H164.297ZM172.602 87.152C171.835 87.152 171.202 86.924 170.702 86.468C170.201 86.012 169.951 85.4008 169.951 84.6345C169.951 83.8808 170.201 83.2728 170.702 82.8105C171.208 82.3482 171.838 82.117 172.592 82.117C172.928 82.117 173.257 82.1772 173.58 82.2975C173.909 82.4115 174.166 82.5635 174.35 82.7535L173.447 83.7985C173.365 83.6845 173.244 83.5927 173.086 83.523C172.934 83.4533 172.779 83.4185 172.621 83.4185C172.298 83.4185 172.035 83.5388 171.832 83.7795C171.629 84.0138 171.528 84.2988 171.528 84.6345C171.528 84.9702 171.629 85.2552 171.832 85.4895C172.035 85.7238 172.304 85.841 172.64 85.841C173.007 85.841 173.289 85.7238 173.485 85.4895L174.35 86.544C173.932 86.9493 173.349 87.152 172.602 87.152ZM176.131 87V83.466H174.715V82.269H179.114V83.466H177.698V87H176.131ZM179.911 89.28V82.269H181.393V82.8485H181.422C181.574 82.6395 181.78 82.4685 182.039 82.3355C182.305 82.2025 182.603 82.136 182.932 82.136C183.597 82.136 184.136 82.3798 184.547 82.8675C184.965 83.3488 185.174 83.9315 185.174 84.6155C185.174 85.3122 184.968 85.9075 184.557 86.4015C184.151 86.8892 183.607 87.133 182.923 87.133C182.631 87.133 182.356 87.076 182.096 86.962C181.837 86.8417 181.634 86.6802 181.488 86.4775H181.469V89.28H179.911ZM182.552 85.841C182.901 85.841 183.173 85.7207 183.369 85.48C183.566 85.2393 183.664 84.9512 183.664 84.6155C183.664 84.2862 183.566 84.0043 183.369 83.77C183.173 83.5293 182.901 83.409 182.552 83.409C182.217 83.409 181.941 83.5325 181.726 83.7795C181.517 84.0265 181.412 84.3083 181.412 84.625C181.412 84.948 181.517 85.233 181.726 85.48C181.941 85.7207 182.217 85.841 182.552 85.841ZM186.744 89.28C186.453 89.28 186.168 89.2452 185.889 89.1755L186.06 87.8645C186.244 87.9215 186.411 87.95 186.563 87.95C186.791 87.95 186.959 87.8993 187.067 87.798C187.181 87.703 187.279 87.5415 187.361 87.3135L187.513 86.924L185.537 82.269H187.266L188.321 85.309H188.349L189.29 82.269H190.943L188.824 87.7125C188.622 88.2445 188.365 88.6372 188.055 88.8905C187.745 89.1502 187.308 89.28 186.744 89.28ZM191.545 87V82.269H193.113V84.2735H193.141L194.69 82.269H196.58L194.728 84.4825L196.666 87H194.756L193.141 84.8625H193.113V87H191.545ZM201.308 88.1875V87H197.232V82.269H198.8V85.7935H200.358V82.269H201.925V85.7935H202.581V88.1875H201.308ZM203.327 87V82.269H204.866V85.024H204.885L206.529 82.269H208.182V87H206.662V84.3115H206.633L205.018 87H203.327ZM211.817 81.566C210.911 81.566 210.389 81.1512 210.25 80.3215L211.01 80.1695C211.067 80.5432 211.336 80.73 211.817 80.73C212.305 80.73 212.571 80.5432 212.615 80.1695L213.375 80.3215C213.312 80.7395 213.141 81.053 212.862 81.262C212.59 81.4647 212.241 81.566 211.817 81.566ZM209.395 87V82.269H210.934V85.024H210.953L212.596 82.269H214.249V87H212.729V84.3115H212.701L211.086 87H209.395Z" fill="#F9F9F9"/>
<defs>
<clipPath id="clip0">
<rect width="213" height="74" fill="white"/>
</clipPath>
</defs>
</svg>
