<svg width="72" height="26" viewBox="0 0 72 26" fill="none" xmlns="http://www.w3.org/2000/svg">
<g clip-path="url(#clip0)">
<path d="M66.8525 2.16819C66.8525 4.91832 67.0093 8.12724 66.0463 8.9512C65.9135 9.05955 65.6252 9.18127 65.1444 9.07293L64.8682 10.6781C65.2418 10.7643 65.6294 10.7689 66.0049 10.6916C66.3804 10.6143 66.7351 10.4569 67.0451 10.23C68.3322 9.24815 68.4398 6.43918 68.4398 3.70109H70.3763L70.3484 10.6312H71.9423V2.16284L66.8525 2.16819Z" fill="#008CFF"/>
<path d="M58.7686 2.16821C58.7686 4.91833 58.9253 8.12726 57.9623 8.95122C57.8295 9.05957 57.5413 9.18129 57.0604 9.07295L56.7842 10.6781C57.1578 10.7643 57.5454 10.7689 57.9209 10.6916C58.2964 10.6143 58.6511 10.4569 58.9611 10.23C60.2482 9.24817 60.3558 6.43919 60.3558 3.70111H62.299L62.2857 10.6406H63.8796L63.8158 2.16821H58.7686Z" fill="#008CFF"/>
<path d="M53.225 2.16821H51.5886L48.5098 10.6473H50.3255L51.0879 8.42822H53.7244L54.4868 10.6473H56.3025L53.225 2.16821ZM51.5089 7.19762L52.4068 4.58527L53.3047 7.19762H51.5089Z" fill="#008CFF"/>
<path d="M45.1289 10.6419H46.7294V4.97314H45.1289V10.6419Z" fill="#008CFF"/>
<path d="M42.8564 2.16284V3.71313H48.9902V2.16284H42.8564Z" fill="#008CFF"/>
<path d="M41.9551 2.16284H36.4336V3.71313H41.9551V2.16284Z" fill="#008CFF"/>
<path d="M41.5818 5.6394H36.4336V7.17765H41.5818V5.6394Z" fill="#008CFF"/>
<path d="M36.4336 9.10376V10.642H42.0268V9.10376H36.4336Z" fill="#008CFF"/>
<path d="M35.0017 2.09058L30.9731 6.57156L26.9433 2.09058H26.8477V10.6419H28.4468V6.06327L30.9134 8.73983H31.021L33.5114 6.06327V10.6419H35.1106V2.09058H35.0017Z" fill="#008CFF"/>
<path d="M67.7744 22.8971H69.5197V16.7134H67.7744V22.8971Z" fill="#F9F9F9"/>
<path d="M65.2949 13.6477V15.3384H71.9866V13.6477H65.2949Z" fill="#F9F9F9"/>
<path d="M62.4473 13.6477L62.4486 17.5549H64.1939L64.1926 13.6477H62.4473Z" fill="#F9F9F9"/>
<path d="M58.7463 17.4398V13.6477H57.001V19.1185H62.4467V22.8973H64.192V17.4398H58.7463Z" fill="#F9F9F9"/>
<path d="M57.001 22.897H58.7463L58.7622 18.9939H57.0169L57.001 22.897Z" fill="#F9F9F9"/>
<path d="M52.7894 13.6477H51.0096L47.6465 22.9013H49.6282L50.5487 20.2261H53.2463L54.1668 22.9013H56.1485L52.7894 13.6477ZM50.9618 19.0129L51.8915 16.2908L52.8213 19.0129H50.9618Z" fill="#F9F9F9"/>
<path d="M45.1135 13.6477H41.7119V15.3384H45.071C45.9503 15.3384 46.5015 15.8935 46.5015 16.6868C46.5015 17.48 45.9503 18.0484 45.071 18.0484H41.7119V22.9013H43.4572V19.7258H45.1109C47.1577 19.7258 48.2986 18.3775 48.2986 16.6868C48.2986 14.996 47.1577 13.6477 45.1109 13.6477H45.1135Z" fill="#F9F9F9"/>
<path d="M37.5023 13.6477H35.7185L32.3594 22.9013H34.3398L35.2549 20.2368H37.9645L38.8797 22.9013H40.8614L37.5023 13.6517V13.6477ZM35.6693 19.0222L36.6097 16.2841L37.5514 19.0222H35.6693Z" fill="#F9F9F9"/>
<path d="M26.8542 22.8919H28.5995L28.549 15.3465L31.8351 15.3264V13.6477L26.8516 13.6905L26.8542 22.8919Z" fill="#F9F9F9"/>
<path fill-rule="evenodd" clip-rule="evenodd" d="M3.79475 10.5376L3.79741 17.9198L9.01869 21.2558L14.4047 17.8035L14.3993 14.9958L9.0851 18.3893L9.08775 13.9164L18.1662 8.09912L18.1675 19.1491L9.00275 25.0092L0 19.2334L0.00531292 8.12052L3.79475 10.5376Z" fill="#F9F9F9"/>
<path fill-rule="evenodd" clip-rule="evenodd" d="M9.07666 5.79096L18.106 0.0365694L18.1631 0.222497L18.1644 6.17753L14.4095 8.57318L14.4055 6.79417L9.05541 10.177L3.79163 6.80219L3.78764 8.58255L0.0234375 6.17218L0.0247657 0.217147V0.0231934L9.07666 5.79096Z" fill="#008CFF"/>
<path fill-rule="evenodd" clip-rule="evenodd" d="M17.9482 0.137774L18.1621 0.351791L18.1634 0.192616V0L17.9482 0.137774Z" fill="#008CFF"/>
</g>
<defs>
<clipPath id="clip0">
<rect width="71.9861" height="25.0093" fill="white"/>
</clipPath>
</defs>
</svg>
