<svg width="163" height="56" viewBox="0 0 163 56" fill="none" xmlns="http://www.w3.org/2000/svg">
<g clip-path="url(#clip0)">
<path d="M151.376 4.855C151.376 11.013 151.731 18.1983 149.551 20.0433C149.25 20.2859 148.597 20.5585 147.508 20.3159L146.883 23.91C147.729 24.1031 148.606 24.1135 149.457 23.9404C150.307 23.7673 151.11 23.4148 151.812 22.9067C154.726 20.7082 154.97 14.4185 154.97 8.28742H159.355L159.292 23.8052H162.901V4.84302L151.376 4.855Z" fill="#008CFF"/>
<path d="M133.071 4.85498C133.071 11.013 133.426 18.1983 131.246 20.0433C130.945 20.2859 130.292 20.5585 129.204 20.3159L128.578 23.91C129.424 24.1031 130.302 24.1135 131.152 23.9404C132.002 23.7673 132.805 23.4148 133.507 22.9066C136.422 20.7082 136.665 14.4184 136.665 8.2874H141.065L141.035 23.8261H144.644L144.5 4.85498H133.071Z" fill="#008CFF"/>
<path d="M120.519 4.85498H116.813L109.842 23.8411H113.953L115.679 18.8722H121.649L123.376 23.8411H127.487L120.519 4.85498ZM116.633 16.1167L118.666 10.2672L120.699 16.1167H116.633Z" fill="#008CFF"/>
<path d="M102.188 23.8291H105.812V11.1357H102.188V23.8291Z" fill="#008CFF"/>
<path d="M97.041 4.84302V8.31438H110.93V4.84302H97.041Z" fill="#008CFF"/>
<path d="M95.0004 4.84302H82.498V8.31438H95.0004V4.84302Z" fill="#008CFF"/>
<path d="M94.1553 12.6274H82.498V16.0718H94.1553V12.6274Z" fill="#008CFF"/>
<path d="M82.498 20.385V23.8294H95.1628V20.385H82.498Z" fill="#008CFF"/>
<path d="M79.2543 4.68115L70.1325 14.7148L61.0076 4.68115H60.791V23.829H64.4121V13.5767L69.9971 19.57H70.2407L75.8799 13.5767V23.829H79.501V4.68115H79.2543Z" fill="#008CFF"/>
<path d="M153.463 51.2706H157.415V37.4241H153.463V51.2706Z" fill="#F9F9F9"/>
<path d="M147.848 30.5596V34.3454H163V30.5596H147.848Z" fill="#F9F9F9"/>
<path d="M141.4 30.5596L141.403 39.3084H145.355L145.352 30.5596H141.4Z" fill="#F9F9F9"/>
<path d="M133.02 39.0508V30.5596H129.068V42.8097H141.399V51.2709H145.351V39.0508H133.02Z" fill="#F9F9F9"/>
<path d="M129.068 51.2706H133.02L133.056 42.5308H129.104L129.068 51.2706Z" fill="#F9F9F9"/>
<path d="M119.532 30.5596H115.502L107.887 51.2799H112.374L114.458 45.2896H120.567L122.651 51.2799H127.138L119.532 30.5596ZM115.394 42.573L117.499 36.4779L119.604 42.573H115.394Z" fill="#F9F9F9"/>
<path d="M102.152 30.5596H94.4492V34.3454H102.055C104.046 34.3454 105.294 35.5884 105.294 37.3645C105.294 39.1406 104.046 40.4136 102.055 40.4136H94.4492V51.2799H98.4011V44.1695H102.146C106.78 44.1695 109.364 41.1504 109.364 37.3645C109.364 33.5787 106.78 30.5596 102.146 30.5596H102.152Z" fill="#F9F9F9"/>
<path d="M84.9167 30.5596H80.8776L73.2715 51.2799H77.7557L79.8279 45.3136H85.9633L88.0355 51.2799H92.5228L84.9167 30.5686V30.5596ZM80.7663 42.594L82.8956 36.463L85.028 42.594H80.7663Z" fill="#F9F9F9"/>
<path d="M60.8068 51.2589H64.7587L64.6444 34.3634L72.0851 34.3185V30.5596L60.8008 30.6554L60.8068 51.2589Z" fill="#F9F9F9"/>
<path fill-rule="evenodd" clip-rule="evenodd" d="M8.59256 23.5956L8.59858 40.1258L20.4212 47.5956L32.6168 39.8652L32.6048 33.5784L20.5716 41.1771L20.5776 31.1613L41.1342 18.1355L41.1372 42.8783L20.3852 56L0 43.067L0.0120302 18.1834L8.59256 23.5956Z" fill="#F9F9F9"/>
<path fill-rule="evenodd" clip-rule="evenodd" d="M20.5522 12.967L40.9975 0.0819533L41.1268 0.498277L41.1298 13.8326L32.6275 19.1969L32.6184 15.2134L20.5041 22.7881L8.58514 15.2313L8.57612 19.2179L0.0527344 13.8206L0.0557419 0.486296V0.052002L20.5522 12.967Z" fill="#008CFF"/>
<path fill-rule="evenodd" clip-rule="evenodd" d="M40.6406 0.308499L41.1248 0.78772L41.1278 0.431299V0L40.6406 0.308499Z" fill="#008CFF"/>
</g>
<defs>
<clipPath id="clip0">
<rect width="163" height="56" fill="white"/>
</clipPath>
</defs>
</svg>
