<svg width="57" height="44" viewBox="0 0 57 44" fill="none" xmlns="http://www.w3.org/2000/svg">
<path d="M36.1427 42.6657L36.2074 42.7816L36.276 42.7433L36.2754 42.6647L36.1427 42.6657ZM36.0553 31.279L36.188 31.278L36.1876 31.2168L36.1408 31.1775L36.0553 31.279ZM19.2529 17.1337L19.3384 17.0321L19.3169 17.014L19.2898 17.0062L19.2529 17.1337ZM2.11066 12.1722L2.14757 12.0447L2.0882 12.0275L2.03684 12.0619L2.11066 12.1722ZM1.57761 12.5289L1.50379 12.4185L1.26679 12.5771L1.54071 12.6564L1.57761 12.5289ZM18.6526 17.4706L18.7381 17.369L18.7165 17.3509L18.6895 17.343L18.6526 17.4706ZM35.4567 31.6133L35.5895 31.6123L35.589 31.5511L35.5422 31.5117L35.4567 31.6133ZM35.5441 43L35.4113 43.001L35.4131 43.2252L35.6088 43.1159L35.5441 43ZM55.5919 20.0818L55.6609 20.1952L55.8193 20.0989L55.677 19.98L55.5919 20.0818ZM38.5877 5.87276L38.6728 5.77089L38.6514 5.75299L38.6246 5.74523L38.5877 5.87276ZM21.732 1L21.7689 0.872468L21.7084 0.854986L21.6566 0.890745L21.732 1ZM20.9832 1.51691L20.9077 1.40766L20.6772 1.56676L20.9463 1.64446L20.9832 1.51691ZM21.1055 1.55223L21.0687 1.67978L21.1293 1.69728L21.1811 1.66132L21.1055 1.55223ZM21.3117 1.40922L21.3486 1.28169L21.288 1.26416L21.2361 1.30013L21.3117 1.40922ZM38.1709 6.28457L38.256 6.18271L38.2346 6.1648L38.2078 6.15704L38.1709 6.28457ZM55.0624 20.404L54.9772 20.5059L55.0502 20.5669L55.1314 20.5174L55.0624 20.404ZM1 24.398L0.867346 24.3929L0.855453 24.6998L1.08715 24.4982L1 24.398ZM1.69296 23.795L1.78011 23.8951L1.82355 23.8573L1.82563 23.7998L1.69296 23.795ZM2.11066 12.242L2.24333 12.2468L2.25287 11.9829L2.03539 12.1326L2.11066 12.242ZM1.45353 12.6943L1.37826 12.5849L1.32345 12.6227L1.32087 12.6891L1.45353 12.6943ZM7.56609 27.9346L7.43334 27.9344L7.43308 28.0807L7.57875 28.0667L7.56609 27.9346ZM8.3578 27.8588L8.37046 27.9909L8.49032 27.9794L8.49055 27.859L8.3578 27.8588ZM8.37965 16.6762L8.5124 16.6765L8.51261 16.5678L8.40606 16.5461L8.37965 16.6762ZM7.58619 16.5151L7.61261 16.385L7.45372 16.3528L7.45344 16.5149L7.58619 16.5151ZM27.7791 16.4505L27.6463 16.4503L27.646 16.5966L27.7917 16.5827L27.7791 16.4505ZM28.5717 16.3747L28.5843 16.5068L28.7042 16.4954L28.7044 16.375L28.5717 16.3747ZM28.5935 5.1913L28.7263 5.19156L28.7265 5.08286L28.6199 5.06121L28.5935 5.1913ZM27.8009 5.03019L27.8274 4.9001L27.6685 4.8678L27.6682 5.02994L27.8009 5.03019ZM28.008 38.7958L27.8753 38.7957L27.8752 38.8765L27.947 38.9137L28.008 38.7958ZM28.8006 39.2059L28.7396 39.3238L28.9332 39.424L28.9334 39.2059L28.8006 39.2059ZM28.8058 28.6281L28.9386 28.6282L28.9386 28.5635L28.8877 28.5236L28.8058 28.6281ZM28.0133 28.0078L28.0951 27.9033L27.8806 27.7354L27.8805 28.0077L28.0133 28.0078ZM48.2201 27.3057L48.0874 27.3056L48.0873 27.3864L48.1591 27.4236L48.2201 27.3057ZM49.0127 27.7158L48.9517 27.8337L49.1453 27.9339L49.1455 27.7158L49.0127 27.7158ZM49.0188 17.1397L49.1516 17.1398L49.1516 17.0751L49.1006 17.0352L49.0188 17.1397ZM48.2262 16.5194L48.3081 16.4149L48.0936 16.2471L48.0935 16.5194L48.2262 16.5194ZM1.76986 14.5336L1.80541 14.4057L1.63711 14.359V14.5336H1.76986ZM13.5808 17.816L13.6468 17.7008L13.6323 17.6926L13.6163 17.6881L13.5808 17.816ZM21.9033 22.5828L21.9882 22.4807L21.9793 22.4734L21.9693 22.4676L21.9033 22.5828ZM35.7355 34.0807H35.8682V34.0184L35.8203 33.9786L35.7355 34.0807ZM35.7355 34.5692L35.6504 34.6711L35.8682 34.8528V34.5692H35.7355ZM21.7425 22.8955L21.8276 22.7936L21.8185 22.786L21.8082 22.7802L21.7425 22.8955ZM13.4986 18.2063L13.5643 18.0909L13.5501 18.0828L13.5344 18.0785L13.4986 18.2063ZM1.76986 14.9239H1.63711V15.0246L1.73408 15.0517L1.76986 14.9239ZM7.13878 9.37571L7.17425 9.24778L7.08441 9.22287L7.03049 9.29892L7.13878 9.37571ZM18.5364 12.5358L18.6024 12.4206L18.5879 12.4123L18.5719 12.4078L18.5364 12.5358ZM26.8589 17.3026L26.9438 17.2005L26.9349 17.1931L26.9249 17.1874L26.8589 17.3026ZM40.6919 28.8004L40.7686 28.9088L40.9098 28.8089L40.7768 28.6983L40.6919 28.8004ZM26.7016 17.6144L26.7866 17.5125L26.7776 17.5049L26.7673 17.499L26.7016 17.6144ZM18.4577 12.9252L18.5234 12.8098L18.5091 12.8016L18.4932 12.7972L18.4577 12.9252ZM6.89323 9.72204L6.78494 9.64525L6.67557 9.7995L6.8578 9.84997L6.89323 9.72204ZM14.7657 5.12152L14.8013 4.99361L14.633 4.94683V5.12152H14.7657ZM26.5758 8.40391L26.6418 8.28871L26.6273 8.28045L26.6113 8.276L26.5758 8.40391ZM34.8992 13.1707L34.9841 13.0686L34.9752 13.0612L34.9652 13.0555L34.8992 13.1707ZM48.7313 24.6694H48.8641V24.6071L48.8162 24.5673L48.7313 24.6694ZM48.7313 25.1579L48.6463 25.2598L48.8641 25.4416V25.1579H48.7313ZM34.7401 13.4843L34.8252 13.3824L34.8161 13.3748L34.8058 13.3689L34.7401 13.4843ZM26.4971 8.79504L26.5628 8.67965L26.5486 8.6716L26.5329 8.66721L26.4971 8.79504ZM14.7657 5.5092H14.633V5.60988L14.7299 5.63703L14.7657 5.5092ZM21.9828 3.04525L22.0184 2.91734L21.8501 2.87057V3.04525H21.9828ZM33.7938 6.32764L33.8597 6.21245L33.8453 6.20419L33.8293 6.19974L33.7938 6.32764ZM42.1163 11.0944L42.2003 10.9917L42.1918 10.9847L42.1823 10.9792L42.1163 11.0944ZM55.6671 22.1719L55.7996 22.1791L55.8033 22.1118L55.7511 22.0691L55.6671 22.1719ZM55.6321 22.8146L55.5471 22.9165L55.7503 23.086L55.7647 22.8218L55.6321 22.8146ZM41.9581 11.4072L42.0432 11.3052L42.0341 11.2976L42.0238 11.2918L41.9581 11.4072ZM33.7142 6.71533L33.7799 6.59995L33.7657 6.59187L33.75 6.58747L33.7142 6.71533ZM21.9828 3.43638H21.8501V3.53712L21.9471 3.56423L21.9828 3.43638ZM1.0568 23.7553L1.12224 23.6398L0.924046 23.5276V23.7553H1.0568ZM14.3559 31.2893L14.486 31.3158L14.5052 31.2213L14.4213 31.1738L14.3559 31.2893ZM14.2764 31.6805L14.2117 31.7964L14.3703 31.8849L14.4065 31.7069L14.2764 31.6805ZM1.0568 24.3024H0.924046V24.3804L0.992103 24.4183L1.0568 24.3024ZM21.2698 12.267L21.3352 12.1515L21.137 12.0392V12.267H21.2698ZM34.5689 19.801L34.699 19.8274L34.7182 19.733L34.6343 19.6855L34.5689 19.801ZM34.4894 20.1921L34.4247 20.308L34.5833 20.3965L34.6194 20.2185L34.4894 20.1921ZM21.2698 12.814H21.137V12.892L21.2051 12.93L21.2698 12.814ZM21.2811 35.0059L21.3428 34.8884L21.1494 34.787L21.1484 35.0053L21.2811 35.0059ZM35.6891 42.5598L35.8192 42.5862L35.8391 42.4885L35.7508 42.4422L35.6891 42.5598ZM35.6096 42.9509L35.5487 43.0689L35.7047 43.1494L35.7397 42.9773L35.6096 42.9509ZM21.2785 35.5539L21.1458 35.5532L21.1454 35.6345L21.2176 35.6718L21.2785 35.5539ZM41.4915 23.515L41.5533 23.3975L41.3587 23.2952V23.515H41.4915ZM55.695 30.9844L55.8251 31.0108L55.845 30.9132L55.7568 30.8669L55.695 30.9844ZM55.6155 31.3755L55.5545 31.4934L55.7106 31.5742L55.7456 31.4019L55.6155 31.3755ZM41.4915 24.0664L41.3588 24.0678L41.3596 24.1476L41.4305 24.1843L41.4915 24.0664ZM13.5362 18.1201L13.6025 18.0051L13.4008 17.8888L13.4035 18.1217L13.5362 18.1201ZM13.6891 31.2506L13.5564 31.2521L13.5572 31.3176L13.6095 31.3568L13.6891 31.2506ZM14.3236 31.7261L14.2439 31.8324L14.4577 31.9926L14.4563 31.7254L14.3236 31.7261ZM14.2537 18.5337L14.3864 18.533L14.386 18.4567L14.3199 18.4187L14.2537 18.5337ZM33.7492 6.62918L33.8155 6.51416L33.6137 6.39787L33.6165 6.63072L33.7492 6.62918ZM33.9021 19.7596L33.7694 19.7612L33.7701 19.8266L33.8225 19.8658L33.9021 19.7596ZM34.5365 20.2352L34.4569 20.3414L34.6707 20.5017L34.6693 20.2345L34.5365 20.2352ZM34.4666 7.04271L34.5994 7.042L34.599 6.96576L34.5329 6.92769L34.4666 7.04271ZM21.1361 22.4898L21.2024 22.3748L21.0008 22.2585L21.0033 22.4912L21.1361 22.4898ZM21.2811 35.5539L21.1484 35.5553L21.1493 35.6352L21.2203 35.6719L21.2811 35.5539ZM21.9225 35.8847L21.8617 36.0027L22.0565 36.1031L22.0553 35.884L21.9225 35.8847ZM21.8535 22.9033L21.9863 22.9026L21.9859 22.8264L21.9198 22.7883L21.8535 22.9033ZM41.3491 11.0023L41.4156 10.8874L41.2138 10.7705L41.2163 11.0037L41.3491 11.0023ZM42.132 24.3972L42.0711 24.5151L42.2659 24.6158L42.2648 24.3965L42.132 24.3972ZM42.063 11.4158L42.1957 11.4151L42.1953 11.339L42.1295 11.3009L42.063 11.4158ZM14.0527 22.5828L14.1168 22.4666L13.9588 22.3795L13.9226 22.5562L14.0527 22.5828ZM21.4245 26.6466L21.5486 26.6935L21.5893 26.5859L21.4885 26.5304L21.4245 26.6466ZM21.3056 26.9611L21.2422 27.0777L21.3759 27.1505L21.4298 27.008L21.3056 26.9611ZM13.9731 22.9714L13.8431 22.9447L13.8234 23.041L13.9097 23.088L13.9731 22.9714ZM34.2691 11.0953L34.3332 10.979L34.1748 10.8917L34.139 11.069L34.2691 11.0953ZM41.6409 15.1582L41.7653 15.2046L41.8054 15.0973L41.705 15.042L41.6409 15.1582ZM41.523 15.4744L41.4595 15.591L41.5939 15.6641L41.6473 15.5208L41.523 15.4744ZM34.1905 11.4847L34.0604 11.4584L34.041 11.5545L34.127 11.6013L34.1905 11.4847ZM2.06435 12.2032L1.99877 12.0878L1.83711 12.1796L1.97647 12.3027L2.06435 12.2032ZM21.6945 1.04997L21.7221 0.920118L21.6727 0.909627L21.6289 0.934544L21.6945 1.04997ZM22.4075 1.2016L22.4733 1.31689L22.7759 1.1442L22.4351 1.07175L22.4075 1.2016ZM2.48379 12.5737L2.39591 12.6732L2.46711 12.7361L2.5496 12.689L2.48379 12.5737ZM18.3931 17.1268L18.3271 17.0116L18.1676 17.1029L18.3044 17.2256L18.3931 17.1268ZM38.0905 5.85381L38.119 5.72414L38.069 5.71316L38.0245 5.73859L38.0905 5.85381ZM38.8044 6.0106L38.8706 6.1257L39.1682 5.95459L38.8329 5.88094L38.8044 6.0106ZM18.8125 17.5033L18.7238 17.6021L18.7954 17.6663L18.8787 17.6184L18.8125 17.5033ZM35.5773 31.5271L35.5109 31.4122L35.4437 31.451L35.4445 31.5286L35.5773 31.5271ZM55.5264 19.9948L55.5962 19.8819L55.5287 19.8401L55.4599 19.8799L55.5264 19.9948ZM56 20.2877L56.0664 20.4027L56.2587 20.2916L56.0698 20.1748L56 20.2877ZM35.5834 32.0776L35.4507 32.0791L35.4532 32.3061L35.6498 32.1926L35.5834 32.0776ZM35.7783 42.0437L35.7122 41.9286L35.6479 41.9655L35.6456 42.0395L35.7783 42.0437ZM55.2791 30.8439L55.3489 30.731L55.2816 30.6894L55.213 30.7288L55.2791 30.8439ZM55.7527 31.1369L55.8191 31.2518L56.0115 31.1408L55.8225 31.024L55.7527 31.1369ZM35.7582 42.6752L35.6255 42.671L35.6179 42.9094L35.8245 42.7902L35.7582 42.6752ZM1.665 23.2901L1.5986 23.1752L1.53972 23.2092L1.53291 23.2768L1.665 23.2901ZM21.5782 11.788L21.689 11.7148L21.6201 11.6105L21.5118 11.673L21.5782 11.788ZM21.795 12.1162L21.8617 12.231L21.9832 12.1604L21.9057 12.0431L21.795 12.1162ZM1.60907 23.8458L1.47699 23.8325L1.45095 24.0912L1.67577 23.9606L1.60907 23.8458ZM55.8951 20.4049L56.0279 20.4072L56.0301 20.2751L55.8981 20.2722L55.8951 20.4049ZM55.7125 31.0102L55.7863 31.1205L55.844 31.0819L55.8452 31.0125L55.7125 31.0102ZM55.4731 31.1705L55.3403 31.171L55.3413 31.4184L55.5469 31.2808L55.4731 31.1705ZM55.4311 20.3946L55.4341 20.2618L55.2978 20.2588L55.2984 20.3951L55.4311 20.3946ZM22.0047 1.32135L22.1374 1.324L22.1401 1.1916L22.0077 1.18863L22.0047 1.32135ZM21.7819 12.4875L21.8547 12.5985L21.9132 12.5601L21.9146 12.4902L21.7819 12.4875ZM21.5442 12.6435H21.4114V12.8893L21.617 12.7545L21.5442 12.6435ZM21.5442 1.31101L21.5471 1.17829L21.4114 1.17524V1.31101H21.5442ZM48.9611 24.367L49.0939 24.3703L49.0971 24.2373L48.9641 24.2343L48.9611 24.367ZM48.699 35.1559L48.7718 35.2668L48.83 35.2287L48.8317 35.1591L48.699 35.1559ZM48.4613 35.3118L48.3286 35.3113L48.3277 35.5582L48.5341 35.4228L48.4613 35.3118ZM48.498 24.3567L48.501 24.224L48.3657 24.2209L48.3653 24.3562L48.498 24.3567ZM15.0724 5.28262L15.2052 5.28528L15.2078 5.15262L15.0752 5.14989L15.0724 5.28262ZM14.8487 16.4505L14.9216 16.5615L14.9801 16.5231L14.9815 16.4532L14.8487 16.4505ZM14.6111 16.6064H14.4783V16.8523L14.6839 16.7174L14.6111 16.6064ZM14.6111 5.27314L14.6138 5.14042L14.4783 5.13763V5.27314H14.6111ZM42.0289 28.3283L42.1616 28.3316L42.1649 28.1983L42.0316 28.1956L42.0289 28.3283ZM41.7668 39.0215L41.8399 39.1323L41.8978 39.0941L41.8995 39.0247L41.7668 39.0215ZM41.5291 39.1783L41.3963 39.1779L41.3955 39.4254L41.6022 39.2891L41.5291 39.1783ZM41.5649 28.3188L41.5676 28.1861L41.4326 28.1833L41.4321 28.3184L41.5649 28.3188ZM8.14021 9.24475L8.27294 9.24741L8.2756 9.11475L8.14294 9.11203L8.14021 9.24475ZM7.91651 20.4135L7.98961 20.5243L8.04784 20.4859L8.04923 20.4162L7.91651 20.4135ZM7.67882 20.5703H7.54607V20.8169L7.75192 20.6811L7.67882 20.5703ZM7.67882 9.23528L7.68155 9.10255L7.54607 9.09977V9.23528H7.67882ZM55.2747 31.1825L55.1434 31.2021L55.1959 31.5546L55.3868 31.2536L55.2747 31.1825ZM55.4731 30.8698L55.5852 30.9409L55.6107 30.9006L55.6048 30.8532L55.4731 30.8698ZM54.2444 21.0976L54.3762 21.081L54.352 20.8892L54.1817 20.9806L54.2444 21.0976ZM53.8075 21.3319L53.7448 21.2149L53.6624 21.2591L53.6762 21.3514L53.8075 21.3319ZM21.3851 12.0955L21.2538 12.1151L21.3063 12.4676L21.4972 12.1666L21.3851 12.0955ZM21.5835 11.7828L21.6956 11.8539L21.7212 11.8136L21.7152 11.7662L21.5835 11.7828ZM20.3549 2.01401L20.4866 1.99744L20.4625 1.80566L20.2921 1.89702L20.3549 2.01401ZM19.9179 2.24834L19.8552 2.13135L19.7729 2.17551L19.7866 2.26791L19.9179 2.24834ZM48.3425 35.1412L48.2112 35.1608L48.2637 35.5132L48.4546 35.2123L48.3425 35.1412ZM48.5408 34.8285L48.6529 34.8996L48.6785 34.8593L48.6725 34.8119L48.5408 34.8285ZM47.3113 25.0597L47.443 25.0431L47.4189 24.8514L47.2486 24.9427L47.3113 25.0597ZM46.8744 25.294L46.8117 25.177L46.7293 25.2212L46.7431 25.3136L46.8744 25.294ZM14.4529 16.0577L14.3216 16.0772L14.3741 16.4297L14.565 16.1288L14.4529 16.0577ZM14.6513 15.7449L14.7634 15.816L14.7889 15.7757L14.783 15.7283L14.6513 15.7449ZM13.4217 5.97614L13.5535 5.95957L13.5293 5.7678L13.359 5.85915L13.4217 5.97614ZM12.9848 6.21048L12.9221 6.09349L12.8397 6.13765L12.8535 6.23005L12.9848 6.21048ZM41.4094 39.1033L41.2781 39.1229L41.3306 39.4754L41.5215 39.1744L41.4094 39.1033ZM41.6077 38.7906L41.7198 38.8617L41.7454 38.8214L41.7394 38.774L41.6077 38.7906ZM39.9422 29.2562L39.8794 29.1392L39.7971 29.1833L39.8109 29.2757L39.9422 29.2562ZM7.0715 20.18L6.94019 20.1996L6.99271 20.5521L7.1836 20.2511L7.0715 20.18ZM7.26986 19.8673L7.38196 19.9384L7.40753 19.8981L7.40158 19.8507L7.26986 19.8673ZM6.04123 10.0985L6.17295 10.082L6.14882 9.89017L5.97848 9.98153L6.04123 10.0985ZM5.60431 10.3329L5.54156 10.2159L5.45923 10.26L5.473 10.3524L5.60431 10.3329ZM21.5975 4.37285L21.7256 4.3383L21.6801 4.16922L21.5296 4.25877L21.5975 4.37285ZM20.6362 4.9449L20.5683 4.83082L20.5139 4.86324L20.5048 4.92598L20.6362 4.9449ZM20.5969 5.21801L20.4655 5.19909L20.4277 5.46196L20.6606 5.33446L20.5969 5.21801ZM21.6674 4.63217L21.7311 4.74863L21.8227 4.69848L21.7956 4.59762L21.6674 4.63217ZM14.6644 8.33499L14.7927 8.30094L14.7476 8.13098L14.5965 8.22091L14.6644 8.33499ZM13.7031 8.90704L13.6352 8.79296L13.581 8.82526L13.5718 8.88777L13.7031 8.90704ZM13.6629 9.181L13.5316 9.16173L13.4929 9.42539L13.7267 9.29746L13.6629 9.181ZM14.7334 8.59517L14.7971 8.71162L14.8884 8.66168L14.8617 8.56112L14.7334 8.59517ZM7.73125 12.298L7.85946 12.2635L7.81398 12.0943L7.66336 12.1839L7.73125 12.298ZM6.77002 12.87L6.70213 12.756L6.64762 12.7884L6.63861 12.8512L6.77002 12.87ZM6.7307 13.144L6.59929 13.1251L6.56157 13.3879L6.79443 13.2605L6.7307 13.144ZM7.80116 12.5582L7.86489 12.6746L7.95645 12.6245L7.92937 12.5237L7.80116 12.5582ZM24.1482 21.4732L24.0735 21.5829L24.142 21.6295L24.214 21.5885L24.1482 21.4732ZM42.0464 11.2762L42.1121 11.3916L42.3036 11.2825L42.1176 11.1642L42.0464 11.2762ZM41.6969 11.0539L41.7681 10.9419L41.7008 10.8992L41.6315 10.9384L41.6969 11.0539ZM23.7524 21.2035L23.687 21.088L23.5012 21.1931L23.6776 21.3132L23.7524 21.2035ZM30.6925 26.9404L30.6182 27.0504L30.6862 27.0963L30.7577 27.056L30.6925 26.9404ZM48.8458 16.709L48.911 16.8246L49.104 16.7158L48.917 16.5969L48.8458 16.709ZM48.4963 16.4867L48.5675 16.3747L48.5006 16.3321L48.4314 16.3708L48.4963 16.4867ZM30.2931 26.6707L30.2283 26.5549L30.0402 26.6601L30.2188 26.7808L30.2931 26.6707ZM10.9225 15.0626L10.8486 15.1729L10.9167 15.2185L10.9879 15.1781L10.9225 15.0626ZM28.7333 4.98626L28.7987 5.1018L29.0777 4.94397L28.7688 4.85833L28.7333 4.98626ZM28.23 4.84669L28.2654 4.71876L28.2127 4.70414L28.165 4.73095L28.23 4.84669ZM10.5214 14.7938L10.4564 14.6781L10.2681 14.7838L10.4475 14.9041L10.5214 14.7938ZM5.68994 13.5265L5.61582 13.6366L5.6839 13.6825L5.75533 13.642L5.68994 13.5265ZM23.3583 3.5277L23.4237 3.64324L23.7026 3.4854L23.3937 3.39978L23.3583 3.5277ZM22.8549 3.38814L22.8904 3.26021L22.8376 3.24558L22.7899 3.2724L22.8549 3.38814ZM5.29059 13.2577L5.22556 13.142L5.03772 13.2475L5.21647 13.3678L5.29059 13.2577ZM36.2754 42.6647L36.188 31.278L35.9225 31.28L36.0099 42.6667L36.2754 42.6647ZM36.1408 31.1775L19.3384 17.0321L19.1674 17.2353L35.9698 31.3806L36.1408 31.1775ZM19.2898 17.0062L2.14757 12.0447L2.07375 12.2997L19.216 17.2612L19.2898 17.0062ZM2.03684 12.0619L1.50379 12.4185L1.65144 12.6392L2.18449 12.2825L2.03684 12.0619ZM1.54071 12.6564L18.6157 17.5981L18.6895 17.343L1.61452 12.4013L1.54071 12.6564ZM18.5671 17.5721L35.3712 31.7148L35.5422 31.5117L18.7381 17.369L18.5671 17.5721ZM35.324 31.6143L35.4113 43.001L35.6768 42.999L35.5895 31.6123L35.324 31.6143ZM35.6088 43.1159L36.2074 42.7816L36.0779 42.5498L35.4794 42.8841L35.6088 43.1159ZM55.677 19.98L38.6728 5.77089L38.5026 5.97463L55.5068 20.1837L55.677 19.98ZM38.6246 5.74523L21.7689 0.872468L21.6952 1.12753L38.5508 6.00029L38.6246 5.74523ZM21.6566 0.890745L20.9077 1.40766L21.0586 1.62617L21.8075 1.10925L21.6566 0.890745ZM20.9463 1.64446L21.0687 1.67978L21.1423 1.42469L21.02 1.38937L20.9463 1.64446ZM21.1811 1.66132L21.3874 1.51831L21.2361 1.30013L21.0298 1.44315L21.1811 1.66132ZM21.2748 1.53675L38.134 6.4121L38.2078 6.15704L21.3486 1.28169L21.2748 1.53675ZM38.0857 6.38642L54.9772 20.5059L55.1475 20.3022L38.256 6.18271L38.0857 6.38642ZM55.1314 20.5174L55.6609 20.1952L55.5229 19.9684L54.9934 20.2906L55.1314 20.5174ZM1.08715 24.4982L1.78011 23.8951L1.60581 23.6948L0.91285 24.2979L1.08715 24.4982ZM1.82563 23.7998L2.24333 12.2468L1.97799 12.2372L1.56029 23.7902L1.82563 23.7998ZM2.03539 12.1326L1.37826 12.5849L1.52879 12.8036L2.18593 12.3513L2.03539 12.1326ZM1.32087 12.6891L0.867346 24.3929L1.13265 24.4032L1.58618 12.6994L1.32087 12.6891ZM7.57875 28.0667L8.37046 27.9909L8.34515 27.7266L7.55344 27.8024L7.57875 28.0667ZM8.49055 27.859L8.5124 16.6765L8.24689 16.676L8.22505 27.8585L8.49055 27.859ZM8.40606 16.5461L7.61261 16.385L7.55978 16.6452L8.35323 16.8063L8.40606 16.5461ZM7.45344 16.5149L7.43334 27.9344L7.69885 27.9348L7.71895 16.5154L7.45344 16.5149ZM27.7917 16.5827L28.5843 16.5068L28.559 16.2425L27.7664 16.3184L27.7917 16.5827ZM28.7044 16.375L28.7263 5.19156L28.4607 5.19104L28.4389 16.3744L28.7044 16.375ZM28.6199 5.06121L27.8274 4.9001L27.7745 5.16029L28.5671 5.32139L28.6199 5.06121ZM27.6682 5.02994L27.6463 16.4503L27.9118 16.4508L27.9337 5.03045L27.6682 5.02994ZM27.947 38.9137L28.7396 39.3238L28.8616 39.088L28.069 38.6779L27.947 38.9137ZM28.9334 39.2059L28.9386 28.6282L28.6731 28.628L28.6678 39.2058L28.9334 39.2059ZM28.8877 28.5236L28.0951 27.9033L27.9314 28.1124L28.724 28.7327L28.8877 28.5236ZM27.8805 28.0077L27.8753 38.7957L28.1408 38.7958L28.146 28.0079L27.8805 28.0077ZM48.1591 27.4236L48.9517 27.8337L49.0737 27.5979L48.2811 27.1878L48.1591 27.4236ZM49.1455 27.7158L49.1516 17.1398L48.8861 17.1397L48.88 27.7157L49.1455 27.7158ZM49.1006 17.0352L48.3081 16.4149L48.1444 16.624L48.937 17.2443L49.1006 17.0352ZM48.0935 16.5194L48.0874 27.3056L48.3529 27.3058L48.359 16.5195L48.0935 16.5194ZM1.73431 14.6615L13.5452 17.9439L13.6163 17.6881L1.80541 14.4057L1.73431 14.6615ZM13.5148 17.9312L21.8373 22.698L21.9693 22.4676L13.6468 17.7008L13.5148 17.9312ZM21.8185 22.6849L35.6506 34.1828L35.8203 33.9786L21.9882 22.4807L21.8185 22.6849ZM35.6027 34.0807V34.5692H35.8682V34.0807H35.6027ZM35.8205 34.4672L21.8276 22.7936L21.6575 22.9975L35.6504 34.6711L35.8205 34.4672ZM21.8082 22.7802L13.5643 18.0909L13.433 18.3217L21.6769 23.0109L21.8082 22.7802ZM13.5344 18.0785L1.80564 14.7961L1.73408 15.0517L13.4629 18.3341L13.5344 18.0785ZM1.90261 14.9239V14.5336H1.63711V14.9239H1.90261ZM7.10331 9.50363L18.5009 12.6637L18.5719 12.4078L7.17425 9.24778L7.10331 9.50363ZM18.4704 12.651L26.7929 17.4178L26.9249 17.1874L18.6024 12.4206L18.4704 12.651ZM26.7741 17.4046L40.6071 28.9025L40.7768 28.6983L26.9438 17.2005L26.7741 17.4046ZM40.6152 28.6921L40.3024 28.9135L40.4558 29.1302L40.7686 28.9088L40.6152 28.6921ZM40.4641 28.9199L26.7866 17.5125L26.6166 17.7164L40.2941 29.1238L40.4641 28.9199ZM26.7673 17.499L18.5234 12.8098L18.3921 13.0406L26.636 17.7298L26.7673 17.499ZM18.4932 12.7972L6.92867 9.5941L6.8578 9.84997L18.4223 13.0531L18.4932 12.7972ZM7.00153 9.79882L7.24708 9.45249L7.03049 9.29892L6.78494 9.64525L7.00153 9.79882ZM14.7302 5.24942L26.5402 8.53182L26.6113 8.276L14.8013 4.99361L14.7302 5.24942ZM26.5098 8.51911L34.8332 13.2859L34.9652 13.0555L26.6418 8.28871L26.5098 8.51911ZM34.8143 13.2728L48.6465 24.7715L48.8162 24.5673L34.9841 13.0686L34.8143 13.2728ZM48.5986 24.6694V25.1579H48.8641V24.6694H48.5986ZM48.8164 25.056L34.8252 13.3824L34.6551 13.5862L48.6463 25.2598L48.8164 25.056ZM34.8058 13.3689L26.5628 8.67965L26.4315 8.91043L34.6745 13.5997L34.8058 13.3689ZM26.5329 8.66721L14.8015 5.38137L14.7299 5.63703L26.4613 8.92287L26.5329 8.66721ZM14.8985 5.5092V5.12152H14.633V5.5092H14.8985ZM21.9473 3.17316L33.7582 6.45555L33.8293 6.19974L22.0184 2.91734L21.9473 3.17316ZM33.7278 6.44284L42.0503 11.2096L42.1823 10.9792L33.8597 6.21245L33.7278 6.44284ZM42.0323 11.1972L55.583 22.2747L55.7511 22.0691L42.2003 10.9917L42.0323 11.1972ZM55.5345 22.1647L55.4995 22.8074L55.7647 22.8218L55.7996 22.1791L55.5345 22.1647ZM55.7171 22.7126L42.0432 11.3052L41.8731 11.5091L55.5471 22.9165L55.7171 22.7126ZM42.0238 11.2918L33.7799 6.59995L33.6486 6.8307L41.8925 11.5225L42.0238 11.2918ZM33.75 6.58747L22.0186 3.30853L21.9471 3.56423L33.6785 6.84318L33.75 6.58747ZM22.1156 3.43638V3.04525H21.8501V3.43638H22.1156ZM0.991365 23.8709L14.2905 31.4049L14.4213 31.1738L1.12224 23.6398L0.991365 23.8709ZM14.2258 31.2629L14.1463 31.654L14.4065 31.7069L14.486 31.3158L14.2258 31.2629ZM14.3411 31.5646L1.1215 24.1865L0.992103 24.4183L14.2117 31.7964L14.3411 31.5646ZM1.18955 24.3024V23.7553H0.924046V24.3024H1.18955ZM21.2043 12.3825L34.5034 19.9165L34.6343 19.6855L21.3352 12.1515L21.2043 12.3825ZM34.4388 19.7745L34.3593 20.1656L34.6194 20.2185L34.699 19.8274L34.4388 19.7745ZM34.554 20.0762L21.3345 12.6981L21.2051 12.93L34.4247 20.308L34.554 20.0762ZM21.4025 12.814V12.267H21.137V12.814H21.4025ZM21.2195 35.1235L35.6275 42.6773L35.7508 42.4422L21.3428 34.8884L21.2195 35.1235ZM35.5591 42.5333L35.4795 42.9244L35.7397 42.9773L35.8192 42.5862L35.5591 42.5333ZM35.6705 42.8329L21.3394 35.4359L21.2176 35.6718L35.5487 43.0689L35.6705 42.8329ZM21.4113 35.5545L21.4139 35.0066L21.1484 35.0053L21.1458 35.5532L21.4113 35.5545ZM41.4297 23.6325L55.6332 31.1019L55.7568 30.8669L41.5533 23.3975L41.4297 23.6325ZM55.5649 30.9579L55.4854 31.349L55.7456 31.4019L55.8251 31.0108L55.5649 30.9579ZM55.6765 31.2576L41.5525 23.9485L41.4305 24.1843L55.5545 31.4934L55.6765 31.2576ZM41.6243 24.0664V23.515H41.3587V24.0664H41.6243ZM13.4035 18.1217L13.5564 31.2521L13.8219 31.249L13.669 18.1186L13.4035 18.1217ZM13.6095 31.3568L14.2439 31.8324L14.4032 31.6199L13.7688 31.1444L13.6095 31.3568ZM14.4563 31.7254L14.3864 18.533L14.1209 18.5344L14.1908 31.7268L14.4563 31.7254ZM14.3199 18.4187L13.6025 18.0051L13.4699 18.2352L14.1874 18.6487L14.3199 18.4187ZM33.6165 6.63072L33.7694 19.7612L34.0349 19.7581L33.8819 6.62763L33.6165 6.63072ZM33.8225 19.8658L34.4569 20.3414L34.6162 20.129L33.9818 19.6534L33.8225 19.8658ZM34.6693 20.2345L34.5994 7.042L34.3339 7.04341L34.4038 20.2359L34.6693 20.2345ZM34.5329 6.92769L33.8155 6.51416L33.6829 6.74419L34.4003 7.15772L34.5329 6.92769ZM21.0033 22.4912L21.1484 35.5553L21.4139 35.5524L21.2688 22.4883L21.0033 22.4912ZM21.2203 35.6719L21.8617 36.0027L21.9834 35.7667L21.342 35.4359L21.2203 35.6719ZM22.0553 35.884L21.9863 22.9026L21.7208 22.904L21.7898 35.8854L22.0553 35.884ZM21.9198 22.7883L21.2024 22.3748L21.0698 22.6048L21.7872 23.0183L21.9198 22.7883ZM41.2163 11.0037L41.3588 24.0678L41.6242 24.0649L41.4818 11.0008L41.2163 11.0037ZM41.4306 24.1843L42.0711 24.5151L42.1929 24.2792L41.5524 23.9484L41.4306 24.1843ZM42.2648 24.3965L42.1957 11.4151L41.9302 11.4165L41.9993 24.3979L42.2648 24.3965ZM42.1295 11.3009L41.4156 10.8874L41.2825 11.1171L41.9965 11.5307L42.1295 11.3009ZM13.9886 22.6991L21.3604 26.7629L21.4885 26.5304L14.1168 22.4666L13.9886 22.6991ZM21.3003 26.5997L21.1814 26.9141L21.4298 27.008L21.5486 26.6935L21.3003 26.5997ZM21.3691 26.8445L14.0366 22.8548L13.9097 23.088L21.2422 27.0777L21.3691 26.8445ZM14.1032 22.998L14.1827 22.6094L13.9226 22.5562L13.8431 22.9447L14.1032 22.998ZM34.2051 11.2116L41.5768 15.2745L41.705 15.042L34.3332 10.979L34.2051 11.2116ZM41.5165 15.1118L41.3986 15.428L41.6473 15.5208L41.7653 15.2046L41.5165 15.1118ZM41.5864 15.3578L34.2539 11.3681L34.127 11.6013L41.4595 15.591L41.5864 15.3578ZM34.3206 11.511L34.3993 11.1216L34.139 11.069L34.0604 11.4584L34.3206 11.511ZM2.12993 12.3186L21.76 1.16539L21.6289 0.934544L1.99877 12.0878L2.12993 12.3186ZM21.6669 1.17982L22.3799 1.33145L22.4351 1.07175L21.7221 0.920118L21.6669 1.17982ZM22.3417 1.0863L2.41799 12.4584L2.5496 12.689L22.4733 1.31689L22.3417 1.0863ZM2.57167 12.4742L2.15223 12.1037L1.97647 12.3027L2.39591 12.6732L2.57167 12.4742ZM18.459 17.242L38.1564 5.96903L38.0245 5.73859L18.3271 17.0116L18.459 17.242ZM38.062 5.98347L38.7759 6.14027L38.8329 5.88094L38.119 5.72414L38.062 5.98347ZM38.7383 5.89551L18.7464 17.3882L18.8787 17.6184L38.8706 6.1257L38.7383 5.89551ZM18.9012 17.4045L18.4817 17.028L18.3044 17.2256L18.7238 17.6021L18.9012 17.4045ZM35.6437 31.6421L55.5928 20.1097L55.4599 19.8799L35.5109 31.4122L35.6437 31.6421ZM55.4565 20.1077L55.9302 20.4006L56.0698 20.1748L55.5962 19.8819L55.4565 20.1077ZM55.9336 20.1728L35.517 31.9627L35.6498 32.1926L56.0664 20.4027L55.9336 20.1728ZM35.7162 32.0762L35.71 31.5257L35.4445 31.5286L35.4507 32.0791L35.7162 32.0762ZM35.8444 42.1588L55.3452 30.9591L55.213 30.7288L35.7122 41.9286L35.8444 42.1588ZM55.2092 30.9568L55.6829 31.2498L55.8225 31.024L55.3489 30.731L55.2092 30.9568ZM55.6863 31.0219L35.6918 42.5602L35.8245 42.7902L55.8191 31.2518L55.6863 31.0219ZM35.8909 42.6794L35.911 42.0479L35.6456 42.0395L35.6255 42.671L35.8909 42.6794ZM1.7314 23.4051L21.6446 11.9029L21.5118 11.673L1.5986 23.1752L1.7314 23.4051ZM21.4675 11.8611L21.6842 12.1893L21.9057 12.0431L21.689 11.7148L21.4675 11.8611ZM21.7283 12.0014L1.54237 23.731L1.67577 23.9606L21.8617 12.231L21.7283 12.0014ZM1.74116 23.8591L1.79708 23.3034L1.53291 23.2768L1.47699 23.8325L1.74116 23.8591ZM55.7624 20.4026L55.5798 31.0079L55.8452 31.0125L56.0279 20.4072L55.7624 20.4026ZM55.6387 30.8999L55.3992 31.0601L55.5469 31.2808L55.7863 31.1205L55.6387 30.8999ZM55.6058 31.1699L55.5639 20.394L55.2984 20.3951L55.3403 31.171L55.6058 31.1699ZM55.4282 20.5273L55.8922 20.5376L55.8981 20.2722L55.4341 20.2618L55.4282 20.5273ZM21.872 1.3187L21.6491 12.4849L21.9146 12.4902L22.1374 1.324L21.872 1.3187ZM21.709 12.3765L21.4713 12.5325L21.617 12.7545L21.8547 12.5985L21.709 12.3765ZM21.6769 12.6435V1.31101H21.4114V12.6435H21.6769ZM21.5412 1.44373L22.0017 1.45407L22.0077 1.18863L21.5471 1.17829L21.5412 1.44373ZM48.8284 24.3638L48.5663 35.1526L48.8317 35.1591L49.0939 24.3703L48.8284 24.3638ZM48.6262 35.0449L48.3885 35.2008L48.5341 35.4228L48.7718 35.2668L48.6262 35.0449ZM48.5941 35.3122L48.6308 24.3571L48.3653 24.3562L48.3286 35.3113L48.5941 35.3122ZM48.495 24.4894L48.9582 24.4997L48.9641 24.2343L48.501 24.224L48.495 24.4894ZM14.9397 5.27996L14.716 16.4479L14.9815 16.4532L15.2052 5.28528L14.9397 5.27996ZM14.7759 16.3395L14.5382 16.4954L14.6839 16.7174L14.9216 16.5615L14.7759 16.3395ZM14.7438 16.6064V5.27314H14.4783V16.6064H14.7438ZM14.6083 5.40587L15.0697 5.41535L15.0752 5.14989L14.6138 5.14042L14.6083 5.40587ZM41.8962 28.325L41.634 39.0182L41.8995 39.0247L42.1616 28.3316L41.8962 28.325ZM41.6937 38.9107L41.456 39.0675L41.6022 39.2891L41.8399 39.1323L41.6937 38.9107ZM41.6618 39.1787L41.6977 28.3193L41.4321 28.3184L41.3963 39.1779L41.6618 39.1787ZM41.5622 28.4516L42.0262 28.461L42.0316 28.1956L41.5676 28.1861L41.5622 28.4516ZM8.00749 9.2421L7.78378 20.4109L8.04923 20.4162L8.27294 9.24741L8.00749 9.2421ZM7.84341 20.3027L7.60572 20.4595L7.75192 20.6811L7.98961 20.5243L7.84341 20.3027ZM7.81157 20.5703V9.23528H7.54607V20.5703H7.81157ZM7.67609 9.368L8.13749 9.37748L8.14294 9.11203L7.68155 9.10255L7.67609 9.368ZM55.3868 31.2536L55.5852 30.9409L55.361 30.7987L55.1626 31.1114L55.3868 31.2536ZM55.6048 30.8532L54.3762 21.081L54.1127 21.1141L55.3413 30.8863L55.6048 30.8532ZM54.1817 20.9806L53.7448 21.2149L53.8703 21.4489L54.3072 21.2145L54.1817 20.9806ZM53.6762 21.3514L55.1434 31.2021L55.406 31.163L53.9388 21.3123L53.6762 21.3514ZM21.4972 12.1666L21.6956 11.8539L21.4714 11.7117L21.273 12.0244L21.4972 12.1666ZM21.7152 11.7662L20.4866 1.99744L20.2231 2.03058L21.4518 11.7994L21.7152 11.7662ZM20.2921 1.89702L19.8552 2.13135L19.9807 2.36533L20.4176 2.131L20.2921 1.89702ZM19.7866 2.26791L21.2538 12.1151L21.5164 12.076L20.0492 2.22878L19.7866 2.26791ZM48.4546 35.2123L48.6529 34.8996L48.4287 34.7574L48.2304 35.0701L48.4546 35.2123ZM48.6725 34.8119L47.443 25.0431L47.1796 25.0763L48.4091 34.8451L48.6725 34.8119ZM47.2486 24.9427L46.8117 25.177L46.9371 25.411L47.3741 25.1767L47.2486 24.9427ZM46.7431 25.3136L48.2112 35.1608L48.4738 35.1216L47.0057 25.2744L46.7431 25.3136ZM14.565 16.1288L14.7634 15.816L14.5392 15.6738L14.3408 15.9866L14.565 16.1288ZM14.783 15.7283L13.5535 5.95957L13.29 5.99272L14.5195 15.7615L14.783 15.7283ZM13.359 5.85915L12.9221 6.09349L13.0476 6.32747L13.4845 6.09313L13.359 5.85915ZM12.8535 6.23005L14.3216 16.0772L14.5842 16.0381L13.1161 6.1909L12.8535 6.23005ZM41.5215 39.1744L41.7198 38.8617L41.4956 38.7195L41.2973 39.0322L41.5215 39.1744ZM41.7394 38.774L40.5108 29.0053L40.2474 29.0384L41.476 38.8072L41.7394 38.774ZM40.3163 28.9048L39.8794 29.1392L40.0049 29.3731L40.4418 29.1388L40.3163 28.9048ZM39.8109 29.2757L41.2781 39.1229L41.5407 39.0838L40.0735 29.2366L39.8109 29.2757ZM7.1836 20.2511L7.38196 19.9384L7.15776 19.7962L6.95939 20.1089L7.1836 20.2511ZM7.40158 19.8507L6.17295 10.082L5.90951 10.1151L7.13814 19.8839L7.40158 19.8507ZM5.97848 9.98153L5.54156 10.2159L5.66705 10.4498L6.10397 10.2155L5.97848 9.98153ZM5.473 10.3524L6.94019 20.1996L7.2028 20.1605L5.73561 10.3133L5.473 10.3524ZM21.5296 4.25877L20.5683 4.83082L20.7041 5.05898L21.6654 4.48693L21.5296 4.25877ZM20.5048 4.92598L20.4655 5.19909L20.7283 5.23693L20.7676 4.96382L20.5048 4.92598ZM20.6606 5.33446L21.7311 4.74863L21.6036 4.51572L20.5332 5.10155L20.6606 5.33446ZM21.7956 4.59762L21.7256 4.3383L21.4693 4.40741L21.5392 4.66673L21.7956 4.59762ZM14.5965 8.22091L13.6352 8.79296L13.771 9.02112L14.7323 8.44907L14.5965 8.22091ZM13.5718 8.88777L13.5316 9.16173L13.7943 9.20027L13.8345 8.92631L13.5718 8.88777ZM13.7267 9.29746L14.7971 8.71162L14.6697 8.47871L13.5992 9.06455L13.7267 9.29746ZM14.8617 8.56112L14.7927 8.30094L14.536 8.36903L14.6051 8.62921L14.8617 8.56112ZM7.66336 12.1839L6.70213 12.756L6.83791 12.9841L7.79914 12.4121L7.66336 12.1839ZM6.63861 12.8512L6.59929 13.1251L6.8621 13.1629L6.90143 12.8889L6.63861 12.8512ZM6.79443 13.2605L7.86489 12.6746L7.73743 12.4417L6.66696 13.0275L6.79443 13.2605ZM7.92937 12.5237L7.85946 12.2635L7.60305 12.3324L7.67295 12.5926L7.92937 12.5237ZM24.214 21.5885L42.1121 11.3916L41.9807 11.1609L24.0825 21.3578L24.214 21.5885ZM42.1176 11.1642L41.7681 10.9419L41.6256 11.166L41.9752 11.3882L42.1176 11.1642ZM41.6315 10.9384L23.687 21.088L23.8177 21.3191L41.7622 11.1695L41.6315 10.9384ZM23.6776 21.3132L24.0735 21.5829L24.223 21.3635L23.8271 21.0938L23.6776 21.3132ZM30.7577 27.056L48.911 16.8246L48.7806 16.5933L30.6273 26.8247L30.7577 27.056ZM48.917 16.5969L48.5675 16.3747L48.425 16.5987L48.7746 16.821L48.917 16.5969ZM48.4314 16.3708L30.2283 26.5549L30.358 26.7866L48.5611 16.6026L48.4314 16.3708ZM30.2188 26.7808L30.6182 27.0504L30.7668 26.8304L30.3674 26.5607L30.2188 26.7808ZM10.9879 15.1781L28.7987 5.1018L28.6679 4.87071L10.8572 14.9471L10.9879 15.1781ZM28.7688 4.85833L28.2654 4.71876L28.1945 4.97462L28.6978 5.11418L28.7688 4.85833ZM28.165 4.73095L10.4564 14.6781L10.5865 14.9096L28.295 4.96243L28.165 4.73095ZM10.4475 14.9041L10.8486 15.1729L10.9964 14.9523L10.5954 14.6835L10.4475 14.9041ZM5.75533 13.642L23.4237 3.64324L23.2929 3.41217L5.62456 13.411L5.75533 13.642ZM23.3937 3.39978L22.8904 3.26021L22.8195 3.51606L23.3228 3.65563L23.3937 3.39978ZM22.7899 3.2724L5.22556 13.142L5.35563 13.3735L22.92 3.50387L22.7899 3.2724ZM5.21647 13.3678L5.61582 13.6366L5.76407 13.4164L5.36472 13.1476L5.21647 13.3678Z" fill="white"/>
</svg>
