<svg width="92" height="65" viewBox="0 0 92 65" fill="none" xmlns="http://www.w3.org/2000/svg">
<path fill-rule="evenodd" clip-rule="evenodd" d="M5.09309 32.9601C4.73839 36.2689 5.15052 34.2706 4.1247 34.6932C3.50988 33.0601 3.41979 33.6454 5.09309 32.9601ZM41.2391 54.7458L73.5498 32.5975C75.991 30.8965 82.5412 25.7987 84.9498 25.1055C85.5061 32.7242 86.4452 30.3819 88.3584 32.8375C80.1383 38.6152 71.8697 44.0529 63.5753 49.9012C59.4675 52.8074 55.3811 55.527 51.1607 58.4051C49.636 59.4423 46.2365 62.3045 44.7557 62.1378C41.9068 61.8245 41.3269 57.9985 41.2413 54.7431L41.2391 54.7458ZM38.0175 51.8449C39.1154 50.2599 57.498 38.1793 60.5282 36.0636L77.8378 24.159C80.3905 22.3526 81.0954 21.2088 83.7348 23.7791C82.8115 25.2455 50.5166 46.9124 43.9529 51.5076C41.3528 53.3367 40.7031 54.5338 38.0175 51.8449ZM35.387 51.0144C35.2632 51.7276 35.1618 52.6315 34.9974 53.2487C34.9524 53.414 34.8037 53.8859 34.7486 54.0312C34.1416 55.6176 34.6619 54.4245 34.2171 55.0577C31.5574 53.5033 31.447 52.5168 31.3738 48.0616L52.9939 33.0641C56.7042 30.6245 59.9753 28.1983 63.6699 25.7241C66.0346 24.1443 72.533 19.1585 74.7884 18.44L75.8593 24.4269C72.685 25.9667 69.0963 28.8648 65.8837 31.0698C62.6001 33.3281 59.204 35.6024 55.7831 37.982C52.3621 40.3615 49.4524 42.3292 45.9685 44.7288C42.8752 46.8618 38.7618 50.2519 35.3837 51.0117L35.387 51.0144ZM21.3937 40.9601C23.8777 39.8763 49.0167 22.1433 53.8024 18.9225C55.7898 17.5894 62.9165 12.257 64.7599 11.7238C65.458 13.3235 65.6472 15.2205 65.7868 17.3082C63.9345 19.2372 39.8676 35.2891 35.5469 38.2926C33.3838 39.7963 27.6984 44.5408 25.5758 43.7796L24.8146 48.3042C21.4489 47.0871 21.611 45.5393 21.3937 40.9601ZM28.2119 44.8261C29.7884 43.269 32.0517 42.0799 33.9446 40.7455C35.9906 39.3071 37.7923 38.0979 39.7144 36.7728L62.7904 20.9262C69.4341 16.467 71.2358 13.4008 73.8752 17.4121L39.273 41.0734C35.065 44.0596 31.2443 47.8083 29.1386 46.0059C28.0644 45.0874 28.7186 45.8006 28.2085 44.8261H28.2119ZM18.2306 38.3499C18.2982 38.2472 18.4153 37.97 18.4559 38.0606L52.066 14.6939C60.0204 9.2842 60.7478 7.00192 63.8726 10.2867L58.5802 14.314C56.6265 15.6284 54.9002 16.8789 52.8114 18.2587L30.0158 33.9306C22.1898 39.411 21.4579 41.2374 18.2306 38.3486V38.3499ZM14.6115 41.432C10.542 39.9523 11.694 34.4639 11.7356 34.3839C13.5103 32.5376 19.7305 28.7369 22.3328 26.9865C26.1479 24.4176 29.3976 22.1993 32.9841 19.6304C36.5705 17.0615 40.0376 14.7793 43.6601 12.2983C46.8659 10.1081 51.5514 6.36736 54.7302 4.82229C55.5353 6.18339 55.7763 8.97092 55.9689 10.68L18.7621 36.2622C18.055 36.7195 16.3873 37.1301 15.8705 37.6607C15.1678 38.3806 15.2162 40.1256 14.6093 41.4334L14.6115 41.432ZM31.2556 15.4245C35.2654 12.7729 38.8147 10.1321 42.7908 7.48184C50.3555 2.44137 51.0661 0.149761 54.1379 3.67849C44.1161 11.0559 30.2951 19.9957 19.5684 27.4824L10.9192 33.1388C9.94972 33.1628 8.83606 32.0723 8.28993 31.3364L31.2556 15.4245ZM0 34.0346L5.87682 38.3419L7.03214 33.856C12.775 36.0236 6.51078 41.7346 16.1373 45.0367L16.9368 40.5655C20.4535 41.7013 19.1641 43.6983 20.2981 47.327C20.9241 49.3267 24.0444 51.0757 25.9711 51.8596L26.855 47.311C30.7308 48.7521 29.0576 49.9279 30.1543 53.9659C30.6689 55.8669 33.9907 57.7439 35.583 58.4984L36.834 54.1632C42.6737 56.948 36.1877 61.4846 45.1566 65C45.2298 65 91.3244 34.1226 92 32.4189C90.8807 31.4857 88.5216 30.2646 87.8562 29.3648C86.6175 27.693 87.2729 24.9948 86.2876 23.1085C85.7077 21.9994 82.9612 20.2397 82.101 20.249C80.8071 20.2583 79.4165 22.1993 77.5934 22.5619C77.2939 21.0209 77.1531 19.6264 76.866 18.0667C76.4099 15.6018 76.3153 15.9471 74.6601 14.7486C70.8979 12.0344 71.461 14.4273 67.95 15.7604C67.0615 14.0047 67.3543 13.1182 66.905 10.9919C66.4129 8.6603 66.2136 9.03091 64.5403 7.86711C60.8874 5.33421 61.3457 7.7338 57.8775 9.10823C56.5195 4.44236 57.7548 2.18541 53.4859 0.3004C51.307 -0.662102 50.9073 0.928293 49.2779 1.70683C46.777 2.90662 48.1913 0.724328 45.1667 2.72932L15.1453 23.3311C12.3077 25.2748 1.44809 32.2096 0 34.0346Z" fill="white"/>
</svg>
