<svg width="21" height="17" viewBox="0 0 21 17" fill="none" xmlns="http://www.w3.org/2000/svg">
<path d="M13.5619 16.1067L13.6274 16.2223L13.6953 16.1838L13.6947 16.1057L13.5619 16.1067ZM13.5307 11.9783L13.6634 11.9773L13.663 11.9167L13.6169 11.8773L13.5307 11.9783ZM7.52461 6.84959L7.61081 6.74864L7.58923 6.73021L7.562 6.72222L7.52461 6.84959ZM1.39701 5.0507L1.43441 4.92333L1.3743 4.90568L1.32246 4.94086L1.39701 5.0507ZM1.20647 5.18002L1.13192 5.07018L0.899143 5.22816L1.16908 5.3074L1.20647 5.18002ZM7.31001 6.97173L7.39621 6.87076L7.37463 6.85234L7.34741 6.84435L7.31001 6.97173ZM13.3167 12.0995L13.4495 12.0984L13.449 12.0378L13.4029 11.9985L13.3167 12.0995ZM13.348 16.2279L13.2152 16.2289L13.2169 16.4547L13.4134 16.3434L13.348 16.2279ZM20.5142 7.91849L20.5839 8.03147L20.7395 7.93544L20.6 7.81722L20.5142 7.91849ZM14.4359 2.76672L14.5218 2.66545L14.5003 2.64725L14.4733 2.63933L14.4359 2.76672ZM8.41078 1L8.44813 0.87261L8.38691 0.854657L8.33464 0.89125L8.41078 1ZM8.14308 1.18742L8.06695 1.07867L7.84057 1.23715L8.10577 1.31482L8.14308 1.18742ZM8.18681 1.20022L8.1495 1.32763L8.21088 1.3456L8.26319 1.30881L8.18681 1.20022ZM8.26053 1.14837L8.2979 1.02098L8.23649 1.00297L8.18415 1.03979L8.26053 1.14837ZM14.2869 2.91603L14.3728 2.81477L14.3513 2.79656L14.3243 2.78864L14.2869 2.91603ZM20.3249 8.03532L20.239 8.13658L20.3126 8.19892L20.3946 8.14829L20.3249 8.03532ZM1 9.48343L0.867343 9.47836L0.855512 9.78804L1.08785 9.58295L1 9.48343ZM1.2477 9.26477L1.33556 9.3643L1.37834 9.32653L1.38037 9.2695L1.2477 9.26477ZM1.39701 5.076L1.52968 5.08073L1.53916 4.81486L1.32102 4.96715L1.39701 5.076ZM1.16212 5.24L1.08612 5.13114L1.03198 5.16894L1.02946 5.23493L1.16212 5.24ZM3.34708 10.7657L3.21433 10.7654L3.21408 10.912L3.35992 10.8978L3.34708 10.7657ZM3.63008 10.7382L3.64292 10.8703L3.76261 10.8587L3.76284 10.7384L3.63008 10.7382ZM3.63789 6.68373L3.77065 6.68399L3.77086 6.57557L3.66467 6.5537L3.63789 6.68373ZM3.35427 6.62532L3.38105 6.49529L3.2218 6.4625L3.22152 6.62509L3.35427 6.62532ZM10.5723 6.60189L10.4396 6.60164L10.4393 6.74818L10.5851 6.73402L10.5723 6.60189ZM10.8556 6.5744L10.8685 6.70654L10.9882 6.69492L10.9884 6.57466L10.8556 6.5744ZM10.8634 2.51964L10.9962 2.51989L10.9964 2.41151L10.8902 2.38962L10.8634 2.51964ZM10.5801 2.46123L10.6069 2.33121L10.4477 2.29837L10.4474 2.46098L10.5801 2.46123ZM10.6542 14.7036L10.5214 14.7035L10.5214 14.7838L10.5925 14.8212L10.6542 14.7036ZM10.9375 14.8523L10.8758 14.9698L11.0701 15.0718L11.0702 14.8524L10.9375 14.8523ZM10.9393 11.0171L11.0721 11.0172L11.0721 10.953L11.0219 10.9131L10.9393 11.0171ZM10.656 10.7922L10.7386 10.6882L10.5234 10.5174L10.5233 10.7922L10.656 10.7922ZM17.8791 10.5376L17.7463 10.5376L17.7463 10.6179L17.8174 10.6552L17.8791 10.5376ZM18.1624 10.6863L18.1007 10.8039L18.295 10.9059L18.2951 10.6864L18.1624 10.6863ZM18.1646 6.85178L18.2973 6.85186L18.2974 6.7877L18.2471 6.7478L18.1646 6.85178ZM17.8813 6.62688L17.9638 6.5229L17.7487 6.35212L17.7485 6.62681L17.8813 6.62688ZM1.27519 5.90689L1.31121 5.77911L1.14244 5.73154V5.90689H1.27519ZM5.49707 7.09698L5.56376 6.9822L5.54924 6.97376L5.53309 6.96921L5.49707 7.09698ZM8.472 8.82528L8.55757 8.72379L8.54871 8.71631L8.53869 8.71049L8.472 8.82528ZM13.4164 12.9941H13.5491V12.9323L13.5019 12.8926L13.4164 12.9941ZM13.4164 13.1712L13.3306 13.2725L13.5491 13.4574V13.1712H13.4164ZM8.41453 8.93867L8.50028 8.83733L8.49119 8.82963L8.48087 8.82368L8.41453 8.93867ZM5.46771 7.23848L5.53405 7.1235L5.51979 7.11527L5.50396 7.11078L5.46771 7.23848ZM1.27519 6.04839H1.14244V6.1487L1.23894 6.17609L1.27519 6.04839ZM3.19434 4.03678L3.23028 3.90898L3.13954 3.88346L3.08553 3.96072L3.19434 4.03678ZM7.26847 5.18252L7.33516 5.06773L7.32061 5.05928L7.30441 5.05472L7.26847 5.18252ZM10.2434 6.91082L10.329 6.80932L10.3201 6.80185L10.3101 6.79603L10.2434 6.91082ZM15.1881 11.0796L15.2655 11.1874L15.404 11.088L15.2737 10.9781L15.1881 11.0796ZM10.1872 7.02389L10.2729 6.92254L10.2638 6.91485L10.2535 6.9089L10.1872 7.02389ZM7.24036 5.32371L7.3067 5.20872L7.29229 5.2004L7.27626 5.1959L7.24036 5.32371ZM3.10657 4.16235L2.99776 4.08629L2.89062 4.23957L3.07066 4.29015L3.10657 4.16235ZM5.92063 2.49434L5.95665 2.36656L5.78788 2.31899V2.49434H5.92063ZM10.1422 3.68443L10.2089 3.56964L10.1944 3.56121L10.1782 3.55666L10.1422 3.68443ZM13.1174 5.41273L13.203 5.31124L13.1941 5.30376L13.1841 5.29794L13.1174 5.41273ZM18.0618 9.58182H18.1946V9.52011L18.1474 9.48033L18.0618 9.58182ZM18.0618 9.75893L17.976 9.86026L18.1946 10.0452V9.75893H18.0618ZM13.0606 5.52643L13.1463 5.4251L13.1373 5.4174L13.1269 5.41145L13.0606 5.52643ZM10.1141 3.82625L10.1804 3.71126L10.1662 3.70304L10.1504 3.69855L10.1141 3.82625ZM5.92063 2.6349H5.78788V2.73519L5.88435 2.7626L5.92063 2.6349ZM8.50042 1.74155L8.53644 1.61377L8.36767 1.5662V1.74155H8.50042ZM12.7223 2.93164L12.789 2.81686L12.7745 2.80842L12.7583 2.80387L12.7223 2.93164ZM15.6972 4.65994L15.782 4.55775L15.7735 4.5507L15.7639 4.54515L15.6972 4.65994ZM20.541 8.67628L20.6736 8.68339L20.6772 8.61671L20.6258 8.57409L20.541 8.67628ZM20.5285 8.90931L20.4428 9.01065L20.6468 9.18327L20.6611 8.91641L20.5285 8.90931ZM15.6407 4.77333L15.7264 4.67199L15.7174 4.6643L15.7071 4.65836L15.6407 4.77333ZM12.6939 3.07221L12.7602 2.95723L12.746 2.94899L12.7301 2.94449L12.6939 3.07221ZM8.50042 1.88336H8.36767V1.98371L8.46422 2.01108L8.50042 1.88336ZM1.0203 9.2504L1.08644 9.1353L0.88755 9.02101V9.2504H1.0203ZM5.77413 11.982L5.9043 12.0081L5.92306 11.9145L5.84027 11.8669L5.77413 11.982ZM5.74571 12.1238L5.68031 12.2393L5.83984 12.3297L5.87587 12.1499L5.74571 12.1238ZM1.0203 9.44875H0.88755V9.52615L0.954904 9.56428L1.0203 9.44875ZM8.24554 5.08506L8.31168 4.96996L8.11278 4.85567V5.08506H8.24554ZM12.9994 7.81667L13.1295 7.84276L13.1483 7.74913L13.0655 7.70156L12.9994 7.81667ZM12.9709 7.95848L12.9055 8.074L13.0651 8.16432L13.1011 7.98457L12.9709 7.95848ZM8.24554 5.28341H8.11278V5.36081L8.18014 5.39894L8.24554 5.28341ZM8.2496 13.3295L8.31193 13.2123L8.11788 13.1091L8.11685 13.3289L8.2496 13.3295ZM13.3998 16.0683L13.53 16.0944L13.5494 15.9975L13.4621 15.9511L13.3998 16.0683ZM13.3714 16.2101L13.3098 16.3277L13.4667 16.4099L13.5016 16.2362L13.3714 16.2101ZM8.24866 13.5282L8.11591 13.5276L8.11553 13.6083L8.18709 13.6458L8.24866 13.5282ZM15.4739 9.16326L15.5364 9.04612L15.3411 8.94199V9.16326H15.4739ZM20.551 11.8714L20.6812 11.8975L20.7006 11.8007L20.6135 11.7543L20.551 11.8714ZM20.5226 12.0132L20.4609 12.1308L20.6179 12.2132L20.6528 12.0393L20.5226 12.0132ZM15.4739 9.36317L15.3411 9.36459L15.342 9.44387L15.4122 9.48071L15.4739 9.36317ZM5.48114 7.20725L5.54814 7.09264L5.3457 6.97429L5.34839 7.20877L5.48114 7.20725ZM5.5358 11.9679L5.40306 11.9695L5.4038 12.0344L5.45545 12.0736L5.5358 11.9679ZM5.76258 12.1404L5.68223 12.246L5.89674 12.4091L5.89533 12.1397L5.76258 12.1404ZM5.73759 7.35718L5.87034 7.35649L5.86994 7.28079L5.80459 7.24258L5.73759 7.35718ZM12.7064 3.04097L12.7734 2.92637L12.5709 2.80801L12.5736 3.04249L12.7064 3.04097ZM12.761 7.80167L12.6283 7.8032L12.629 7.86808L12.6807 7.90735L12.761 7.80167ZM12.9878 7.9741L12.9075 8.07977L13.122 8.24287L13.1206 7.9734L12.9878 7.9741ZM12.9628 3.1909L13.0956 3.19021L13.0952 3.11451L13.0298 3.0763L12.9628 3.1909ZM8.19775 8.79155L8.26475 8.67694L8.06244 8.55866L8.065 8.793L8.19775 8.79155ZM8.2496 13.5282L8.11685 13.5296L8.11772 13.609L8.18806 13.6458L8.2496 13.5282ZM8.47887 13.6481L8.41733 13.7658L8.61278 13.868L8.61162 13.6474L8.47887 13.6481ZM8.4542 8.94148L8.58695 8.94078L8.58655 8.86508L8.5212 8.82687L8.4542 8.94148ZM15.423 4.62652L15.4902 4.51206L15.2877 4.39307L15.2902 4.62794L15.423 4.62652ZM15.7029 9.48311L15.6413 9.60071L15.8368 9.70313L15.8356 9.48242L15.7029 9.48311ZM15.6782 4.77645L15.8109 4.77575L15.8105 4.70024L15.7454 4.66199L15.6782 4.77645ZM5.66574 8.82528L5.73053 8.70941L5.57162 8.62056L5.53561 8.79902L5.66574 8.82528ZM8.30083 10.2987L8.42522 10.345L8.46497 10.2384L8.36561 10.1828L8.30083 10.2987ZM8.25834 10.4127L8.1942 10.5289L8.32899 10.6033L8.38274 10.4591L8.25834 10.4127ZM5.63732 8.96616L5.50719 8.9399L5.48793 9.03534L5.57317 9.08238L5.63732 8.96616ZM12.8922 4.66025L12.957 4.54438L12.7977 4.4553L12.762 4.63433L12.8922 4.66025ZM15.5273 6.13335L15.6519 6.17918L15.691 6.07279L15.5921 6.01747L15.5273 6.13335ZM15.4851 6.24799L15.421 6.36421L15.5564 6.43892L15.6097 6.29382L15.4851 6.24799ZM12.8641 4.80144L12.7339 4.77552L12.715 4.87075L12.8 4.91767L12.8641 4.80144ZM1.38046 5.06195L1.31417 4.94693L1.1553 5.03848L1.29188 5.16083L1.38046 5.06195ZM8.39735 1.01812L8.42533 0.888347L8.37536 0.877568L8.33106 0.903097L8.39735 1.01812ZM8.65223 1.07309L8.71875 1.18798L9.01618 1.01578L8.68022 0.943323L8.65223 1.07309ZM1.53039 5.19626L1.44181 5.29514L1.51355 5.35941L1.5969 5.31115L1.53039 5.19626ZM7.21724 6.8471L7.1506 6.73228L6.99387 6.82326L7.12787 6.94526L7.21724 6.8471ZM14.2582 2.75984L14.287 2.63027L14.2364 2.61899L14.1915 2.64503L14.2582 2.75984ZM14.5134 2.81669L14.5803 2.93138L14.8729 2.76076L14.5422 2.68712L14.5134 2.81669ZM7.36718 6.9836L7.27781 7.08176L7.34986 7.14737L7.43405 7.09828L7.36718 6.9836ZM13.3598 12.0682L13.2927 11.9537L13.2262 11.9927L13.2271 12.0697L13.3598 12.0682ZM20.4907 7.88695L20.5613 7.77449L20.4931 7.73169L20.4236 7.77243L20.4907 7.88695ZM20.66 7.99315L20.7271 8.1077L20.9161 7.99704L20.7306 7.88069L20.66 7.99315ZM13.362 12.2678L13.2293 12.2693L13.2318 12.498L13.4291 12.3824L13.362 12.2678ZM13.4317 15.8812L13.3649 15.7665L13.3013 15.8035L13.299 15.8771L13.4317 15.8812ZM20.4023 11.8205L20.4729 11.7081L20.4049 11.6654L20.3355 11.7058L20.4023 11.8205ZM20.5716 11.9267L20.6387 12.0413L20.8277 11.9306L20.6422 11.8143L20.5716 11.9267ZM13.4245 16.1102L13.2918 16.106L13.2843 16.3461L13.4916 16.2247L13.4245 16.1102ZM1.23771 9.08173L1.1706 8.96719L1.11228 9.00136L1.1056 9.06862L1.23771 9.08173ZM8.3558 4.91139L8.46706 4.83897L8.39797 4.73283L8.28869 4.79685L8.3558 4.91139ZM8.43327 5.0304L8.50067 5.14477L8.62024 5.0743L8.54453 4.95798L8.43327 5.0304ZM1.21772 9.2832L1.08561 9.27009L1.05978 9.53038L1.28512 9.39757L1.21772 9.2832ZM20.6226 8.03563L20.7553 8.03788L20.7575 7.90589L20.6255 7.90291L20.6226 8.03563ZM20.5573 11.8808L20.6318 11.9906L20.6888 11.9519L20.69 11.8831L20.5573 11.8808ZM20.4717 11.9389L20.3389 11.9394L20.3399 12.1888L20.5462 12.0487L20.4717 11.9389ZM20.4567 8.03188L20.4597 7.89916L20.3234 7.89608L20.3239 8.03239L20.4567 8.03188ZM8.50823 1.11651L8.64096 1.11912L8.64356 0.986804L8.51126 0.983792L8.50823 1.11651ZM8.42858 5.16503L8.50213 5.27555L8.55994 5.23707L8.56131 5.16764L8.42858 5.16503ZM8.34362 5.22157H8.21087V5.46937L8.41716 5.33209L8.34362 5.22157ZM8.34362 1.11276L8.34664 0.980043L8.21087 0.976952V1.11276H8.34362ZM18.144 9.47218L18.2767 9.47536L18.2799 9.34247L18.147 9.33946L18.144 9.47218ZM18.0503 13.3839L18.1238 13.4944L18.1813 13.4561L18.183 13.3871L18.0503 13.3839ZM17.9653 13.4404L17.8325 13.44L17.8317 13.6888L18.0388 13.5509L17.9653 13.4404ZM17.9784 9.46843L17.9814 9.33571L17.8461 9.33265L17.8457 9.46799L17.9784 9.46843ZM6.03027 2.55275L6.163 2.55537L6.16562 2.42279L6.03303 2.42002L6.03027 2.55275ZM5.9503 6.60189L6.02385 6.71241L6.08166 6.67394L6.08303 6.60451L5.9503 6.60189ZM5.86534 6.65843H5.73259V6.90623L5.93889 6.76895L5.86534 6.65843ZM5.86534 2.54931L5.86811 2.41659L5.73259 2.41376V2.54931H5.86534ZM15.666 10.9084L15.7987 10.9116L15.8019 10.7785L15.6687 10.7757L15.666 10.9084ZM15.5723 14.7854L15.6461 14.8958L15.7033 14.8575L15.705 14.7887L15.5723 14.7854ZM15.4873 14.8423L15.3546 14.8419L15.3538 15.0914L15.5612 14.9526L15.4873 14.8423ZM15.5001 10.905L15.5029 10.7723L15.3678 10.7695L15.3674 10.9046L15.5001 10.905ZM3.55231 3.9893L3.68503 3.99192L3.68765 3.85934L3.55507 3.85657L3.55231 3.9893ZM3.47234 8.03875L3.54617 8.14909L3.6037 8.11059L3.60507 8.04138L3.47234 8.03875ZM3.38738 8.0956H3.25463V8.34416L3.4612 8.20594L3.38738 8.0956ZM3.38738 3.98586L3.39014 3.85314L3.25463 3.85032V3.98586H3.38738ZM20.4008 11.9433L20.2694 11.9626L20.3219 12.3198L20.5133 12.0137L20.4008 11.9433ZM20.4717 11.8299L20.5842 11.9003L20.6092 11.8603L20.6034 11.8136L20.4717 11.8299ZM20.0325 8.28677L20.1642 8.27044L20.1403 8.07702L19.9691 8.17015L20.0325 8.28677ZM19.8763 8.37173L19.8129 8.25512L19.7315 8.29938L19.745 8.39102L19.8763 8.37173ZM8.28677 5.0229L8.15543 5.0422L8.2079 5.39941L8.39933 5.09329L8.28677 5.0229ZM8.35768 4.90952L8.47023 4.9799L8.49522 4.93995L8.48942 4.89318L8.35768 4.90952ZM7.91849 1.36765L8.05024 1.35131L8.02626 1.1579L7.85506 1.25103L7.91849 1.36765ZM7.76231 1.45261L7.69888 1.336L7.61751 1.38026L7.63097 1.47191L7.76231 1.45261ZM17.9228 13.3786L17.7915 13.3979L17.844 13.755L18.0354 13.449L17.9228 13.3786ZM17.9937 13.2652L18.1063 13.3356L18.1313 13.2956L18.1255 13.2488L17.9937 13.2652ZM17.5542 9.72332L17.686 9.70697L17.662 9.51358L17.4908 9.6067L17.5542 9.72332ZM17.398 9.80828L17.3346 9.69167L17.2532 9.73594L17.2667 9.82759L17.398 9.80828ZM5.80881 6.45945L5.67746 6.47876L5.72996 6.83592L5.92136 6.52984L5.80881 6.45945ZM5.87971 6.34607L5.99227 6.41645L6.01726 6.37649L6.01146 6.32972L5.87971 6.34607ZM5.44022 2.8042L5.57196 2.78785L5.54797 2.59446L5.37678 2.68758L5.44022 2.8042ZM5.28404 2.88916L5.2206 2.77255L5.13922 2.81682L5.1527 2.90847L5.28404 2.88916ZM15.4445 14.8151L15.3132 14.8344L15.3657 15.1916L15.5571 14.8855L15.4445 14.8151ZM15.5154 14.7017L15.628 14.7721L15.653 14.7322L15.6472 14.6854L15.5154 14.7017ZM14.9201 11.2448L14.8566 11.1282L14.7753 11.1725L14.7887 11.2641L14.9201 11.2448ZM3.17029 7.9541L3.03894 7.9734L3.09142 8.33061L3.28285 8.02449L3.17029 7.9541ZM3.24119 7.84072L3.35375 7.9111L3.37874 7.87115L3.37294 7.82438L3.24119 7.84072ZM2.80201 4.29885L2.93376 4.28251L2.90978 4.0891L2.73857 4.18224L2.80201 4.29885ZM2.64583 4.38381L2.58239 4.2672L2.50103 4.31146L2.51449 4.40311L2.64583 4.38381ZM8.36267 2.2229L8.49097 2.1888L8.44553 2.01782L8.29407 2.10924L8.36267 2.2229ZM8.01908 2.4303L7.95047 2.31665L7.8965 2.34923L7.88764 2.41165L8.01908 2.4303ZM8.00502 2.52932L7.87358 2.51066L7.83607 2.77494L8.06945 2.64539L8.00502 2.52932ZM8.38766 2.31692L8.45209 2.43299L8.54253 2.38278L8.51596 2.28282L8.38766 2.31692ZM5.8844 3.65945L6.01283 3.62585L5.96787 3.45399L5.81579 3.54579L5.8844 3.65945ZM5.5408 3.86685L5.47219 3.7532L5.41841 3.78567L5.40941 3.84785L5.5408 3.86685ZM5.52643 3.96619L5.39504 3.94718L5.3567 4.21224L5.59086 4.08226L5.52643 3.96619ZM5.90907 3.75378L5.9735 3.86985L6.06358 3.81985L6.03751 3.72018L5.90907 3.75378ZM3.40612 5.09631L3.53445 5.06231L3.48911 4.89115L3.33752 4.98266L3.40612 5.09631ZM3.06252 5.30372L2.99392 5.19006L2.93992 5.22266L2.93108 5.28512L3.06252 5.30372ZM3.04847 5.40305L2.91702 5.38445L2.87964 5.6486L3.1129 5.51912L3.04847 5.40305ZM3.43111 5.19064L3.49554 5.30671L3.5859 5.25655L3.55944 5.15665L3.43111 5.19064ZM9.27446 8.42296L9.19899 8.53218L9.26812 8.57994L9.34088 8.5379L9.27446 8.42296ZM15.6722 4.72585L15.7387 4.84079L15.9268 4.73207L15.7442 4.61429L15.6722 4.72585ZM15.5473 4.64526L15.6193 4.5337L15.5513 4.48989L15.4812 4.53011L15.5473 4.64526ZM9.13296 8.32519L9.06689 8.21004L8.88434 8.31477L9.05749 8.43441L9.13296 8.32519ZM11.6137 10.4052L11.5387 10.5147L11.6074 10.5618L11.6796 10.5205L11.6137 10.4052ZM18.1027 6.6956L18.1686 6.81085L18.3583 6.70244L18.1747 6.58404L18.1027 6.6956ZM17.9778 6.61501L18.0497 6.50345L17.9822 6.45988L17.9123 6.49955L17.9778 6.61501ZM11.471 10.3074L11.4055 10.192L11.2206 10.2969L11.396 10.417L11.471 10.3074ZM4.54686 6.09868L4.47224 6.20847L4.54091 6.25515L4.61294 6.21382L4.54686 6.09868ZM10.9134 2.4453L10.9795 2.56044L11.2537 2.40309L10.9494 2.3175L10.9134 2.4453ZM10.7335 2.39469L10.7694 2.2669L10.716 2.25187L10.6678 2.27935L10.7335 2.39469ZM4.40349 6.00122L4.33777 5.88587L4.15274 5.9913L4.32886 6.11101L4.40349 6.00122ZM2.67644 5.54174L2.60159 5.65138L2.67034 5.69831L2.74253 5.65687L2.67644 5.54174ZM8.99208 1.91647L9.05817 2.0316L9.3323 1.87425L9.02802 1.78867L8.99208 1.91647ZM8.81216 1.86587L8.8481 1.73807L8.79466 1.72304L8.74643 1.75053L8.81216 1.86587ZM2.53369 5.44428L2.46796 5.32894L2.28339 5.43414L2.45884 5.55392L2.53369 5.44428ZM13.6947 16.1057L13.6634 11.9773L13.3979 11.9793L13.4292 16.1077L13.6947 16.1057ZM13.6169 11.8773L7.61081 6.74864L7.4384 6.95055L13.4445 12.0792L13.6169 11.8773ZM7.562 6.72222L1.43441 4.92333L1.35962 5.17808L7.48721 6.97697L7.562 6.72222ZM1.32246 4.94086L1.13192 5.07018L1.28102 5.28987L1.47156 5.16055L1.32246 4.94086ZM1.16908 5.3074L7.27262 7.09911L7.34741 6.84435L1.24386 5.05264L1.16908 5.3074ZM7.22382 7.07269L13.2305 12.2004L13.4029 11.9985L7.39621 6.87076L7.22382 7.07269ZM13.184 12.1005L13.2152 16.2289L13.4807 16.2269L13.4495 12.0984L13.184 12.1005ZM13.4134 16.3434L13.6274 16.2223L13.4965 15.9912L13.2825 16.1124L13.4134 16.3434ZM20.6 7.81722L14.5218 2.66545L14.3501 2.86799L20.4283 8.01977L20.6 7.81722ZM14.4733 2.63933L8.44813 0.87261L8.37342 1.12739L14.3986 2.89411L14.4733 2.63933ZM8.33464 0.89125L8.06695 1.07867L8.21922 1.29617L8.48691 1.10875L8.33464 0.89125ZM8.10577 1.31482L8.1495 1.32763L8.22412 1.07282L8.18039 1.06001L8.10577 1.31482ZM8.26319 1.30881L8.33691 1.25695L8.18415 1.03979L8.11044 1.09164L8.26319 1.30881ZM8.22317 1.27576L14.2496 3.04341L14.3243 2.78864L8.2979 1.02098L8.22317 1.27576ZM14.2011 3.01728L20.239 8.13658L20.4107 7.93406L14.3728 2.81477L14.2011 3.01728ZM20.3946 8.14829L20.5839 8.03147L20.4444 7.80552L20.2551 7.92235L20.3946 8.14829ZM1.08785 9.58295L1.33556 9.3643L1.15985 9.16525L0.912147 9.3839L1.08785 9.58295ZM1.38037 9.2695L1.52968 5.08073L1.26434 5.07128L1.11503 9.26004L1.38037 9.2695ZM1.32102 4.96715L1.08612 5.13114L1.23811 5.34885L1.473 5.18486L1.32102 4.96715ZM1.02946 5.23493L0.867343 9.47836L1.13266 9.48849L1.29477 5.24506L1.02946 5.23493ZM3.35992 10.8978L3.64292 10.8703L3.61725 10.6061L3.33425 10.6335L3.35992 10.8978ZM3.76284 10.7384L3.77065 6.68399L3.50514 6.68347L3.49733 10.7379L3.76284 10.7384ZM3.66467 6.5537L3.38105 6.49529L3.32749 6.75534L3.61111 6.81375L3.66467 6.5537ZM3.22152 6.62509L3.21433 10.7654L3.47984 10.7659L3.48702 6.62555L3.22152 6.62509ZM10.5851 6.73402L10.8685 6.70654L10.8428 6.44227L10.5595 6.46976L10.5851 6.73402ZM10.9884 6.57466L10.9962 2.51989L10.7307 2.51938L10.7229 6.57415L10.9884 6.57466ZM10.8902 2.38962L10.6069 2.33121L10.5533 2.59125L10.8366 2.64966L10.8902 2.38962ZM10.4474 2.46098L10.4396 6.60164L10.7051 6.60214L10.7129 2.46148L10.4474 2.46098ZM10.5925 14.8212L10.8758 14.9698L10.9992 14.7347L10.7158 14.5861L10.5925 14.8212ZM11.0702 14.8524L11.0721 11.0172L10.8066 11.0171L10.8047 14.8522L11.0702 14.8524ZM11.0219 10.9131L10.7386 10.6882L10.5735 10.8962L10.8568 11.1211L11.0219 10.9131ZM10.5233 10.7922L10.5214 14.7035L10.7869 14.7037L10.7888 10.7923L10.5233 10.7922ZM17.8174 10.6552L18.1007 10.8039L18.2241 10.5688L17.9408 10.4201L17.8174 10.6552ZM18.2951 10.6864L18.2973 6.85186L18.0318 6.8517L18.0296 10.6863L18.2951 10.6864ZM18.2471 6.7478L17.9638 6.5229L17.7987 6.73086L18.082 6.95576L18.2471 6.7478ZM17.7485 6.62681L17.7463 10.5376L18.0118 10.5377L18.014 6.62695L17.7485 6.62681ZM1.23917 6.03466L5.46105 7.22476L5.53309 6.96921L1.31121 5.77911L1.23917 6.03466ZM5.43038 7.21177L8.40531 8.94007L8.53869 8.71049L5.56376 6.9822L5.43038 7.21177ZM8.38643 8.92677L13.3308 13.0956L13.5019 12.8926L8.55757 8.72379L8.38643 8.92677ZM13.2836 12.9941V13.1712H13.5491V12.9941H13.2836ZM13.5021 13.0698L8.50028 8.83733L8.32877 9.04001L13.3306 13.2725L13.5021 13.0698ZM8.48087 8.82368L5.53405 7.1235L5.40136 7.35347L8.34818 9.05366L8.48087 8.82368ZM5.50396 7.11078L1.31144 5.92068L1.23894 6.17609L5.43146 7.36619L5.50396 7.11078ZM1.40794 6.04839V5.90689H1.14244V6.04839H1.40794ZM3.1584 4.16457L7.23253 5.31032L7.30441 5.05472L3.23028 3.90898L3.1584 4.16457ZM7.20178 5.29731L10.1767 7.02561L10.3101 6.79603L7.33516 5.06773L7.20178 5.29731ZM10.1578 7.01231L15.1025 11.1811L15.2737 10.9781L10.329 6.80932L10.1578 7.01231ZM15.1107 10.9718L14.9988 11.052L15.1537 11.2677L15.2655 11.1874L15.1107 10.9718ZM15.162 11.0585L10.2729 6.92254L10.1014 7.12524L14.9905 11.2612L15.162 11.0585ZM10.2535 6.9089L7.3067 5.20872L7.17402 5.4387L10.1208 7.13888L10.2535 6.9089ZM7.27626 5.1959L3.14247 4.03454L3.07066 4.29015L7.20445 5.45151L7.27626 5.1959ZM3.21537 4.2384L3.30315 4.11284L3.08553 3.96072L2.99776 4.08629L3.21537 4.2384ZM5.88461 2.62211L10.1062 3.81221L10.1782 3.55666L5.95665 2.36656L5.88461 2.62211ZM10.0755 3.79923L13.0508 5.52752L13.1841 5.29794L10.2089 3.56964L10.0755 3.79923ZM13.0319 5.51422L17.9762 9.68331L18.1474 9.48033L13.203 5.31124L13.0319 5.51422ZM17.9291 9.58182V9.75893H18.1946V9.58182H17.9291ZM18.1476 9.65759L13.1463 5.4251L12.9748 5.62777L17.976 9.86026L18.1476 9.65759ZM13.1269 5.41145L10.1804 3.71126L10.0477 3.94123L12.9942 5.64142L13.1269 5.41145ZM10.1504 3.69855L5.95691 2.5072L5.88435 2.7626L10.0778 3.95395L10.1504 3.69855ZM6.05338 2.6349V2.49434H5.78788V2.6349H6.05338ZM8.46441 1.86932L12.6863 3.05942L12.7583 2.80387L8.53644 1.61377L8.46441 1.86932ZM12.6556 3.04643L15.6305 4.77473L15.7639 4.54515L12.789 2.81686L12.6556 3.04643ZM15.6125 4.76213L20.4563 8.77848L20.6258 8.57409L15.782 4.55775L15.6125 4.76213ZM20.4085 8.66918L20.396 8.9022L20.6611 8.91641L20.6736 8.68339L20.4085 8.66918ZM20.6143 8.80796L15.7264 4.67199L15.5549 4.87467L20.4428 9.01065L20.6143 8.80796ZM15.7071 4.65836L12.7602 2.95723L12.6275 3.18718L15.5743 4.8883L15.7071 4.65836ZM12.7301 2.94449L8.53663 1.75564L8.46422 2.01108L12.6577 3.19993L12.7301 2.94449ZM8.63318 1.88336V1.74155H8.36767V1.88336H8.63318ZM0.954163 9.36551L5.70799 12.0971L5.84027 11.8669L1.08644 9.1353L0.954163 9.36551ZM5.64397 11.9559L5.61554 12.0977L5.87587 12.1499L5.9043 12.0081L5.64397 11.9559ZM5.81111 12.0083L1.0857 9.33323L0.954904 9.56428L5.68031 12.2393L5.81111 12.0083ZM1.15306 9.44875V9.2504H0.88755V9.44875H1.15306ZM8.1794 5.20017L12.9332 7.93177L13.0655 7.70156L8.31168 4.96996L8.1794 5.20017ZM12.8692 7.79057L12.8408 7.93239L13.1011 7.98457L13.1295 7.84276L12.8692 7.79057ZM13.0363 7.84295L8.31094 5.16789L8.18014 5.39894L12.9055 8.074L13.0363 7.84295ZM8.37829 5.28341V5.08506H8.11278V5.28341H8.37829ZM8.18727 13.4467L13.3375 16.1855L13.4621 15.9511L8.31193 13.2123L8.18727 13.4467ZM13.2697 16.0422L13.2412 16.184L13.5016 16.2362L13.53 16.0944L13.2697 16.0422ZM13.433 16.0925L8.31023 13.4106L8.18709 13.6458L13.3098 16.3277L13.433 16.0925ZM8.38141 13.5288L8.38235 13.3302L8.11685 13.3289L8.11591 13.5276L8.38141 13.5288ZM15.4114 9.28039L20.4885 11.9886L20.6135 11.7543L15.5364 9.04612L15.4114 9.28039ZM20.4209 11.8453L20.3924 11.9872L20.6528 12.0393L20.6812 11.8975L20.4209 11.8453ZM20.5843 11.8957L15.5356 9.24562L15.4122 9.48071L20.4609 12.1308L20.5843 11.8957ZM15.6066 9.36317V9.16326H15.3411V9.36317H15.6066ZM5.34839 7.20877L5.40306 11.9695L5.66855 11.9664L5.61388 7.20572L5.34839 7.20877ZM5.45545 12.0736L5.68223 12.246L5.84293 12.0347L5.61615 11.8623L5.45545 12.0736ZM5.89533 12.1397L5.87034 7.35649L5.60484 7.35787L5.62982 12.1411L5.89533 12.1397ZM5.80459 7.24258L5.54814 7.09264L5.41413 7.32185L5.67058 7.47179L5.80459 7.24258ZM12.5736 3.04249L12.6283 7.8032L12.8938 7.80015L12.8391 3.03945L12.5736 3.04249ZM12.6807 7.90735L12.9075 8.07977L13.0682 7.86842L12.8414 7.696L12.6807 7.90735ZM13.1206 7.9734L13.0956 3.19021L12.8301 3.1916L12.8551 7.97479L13.1206 7.9734ZM13.0298 3.0763L12.7734 2.92637L12.6394 3.15557L12.8958 3.30551L13.0298 3.0763ZM8.065 8.793L8.11685 13.5296L8.38234 13.5267L8.33049 8.79009L8.065 8.793ZM8.18806 13.6458L8.41733 13.7658L8.54041 13.5305L8.31114 13.4106L8.18806 13.6458ZM8.61162 13.6474L8.58695 8.94078L8.32144 8.94217L8.34612 13.6488L8.61162 13.6474ZM8.5212 8.82687L8.26475 8.67694L8.13074 8.90615L8.38719 9.05608L8.5212 8.82687ZM15.2902 4.62794L15.3411 9.36459L15.6066 9.36174L15.5557 4.62509L15.2902 4.62794ZM15.4123 9.48076L15.6413 9.60071L15.7645 9.36552L15.5355 9.24557L15.4123 9.48076ZM15.8356 9.48242L15.8109 4.77575L15.5454 4.77715L15.5701 9.48381L15.8356 9.48242ZM15.7454 4.66199L15.4902 4.51206L15.3557 4.74098L15.6109 4.89091L15.7454 4.66199ZM5.60095 8.94115L8.23604 10.4146L8.36561 10.1828L5.73053 8.70941L5.60095 8.94115ZM8.17643 10.2523L8.13395 10.3664L8.38274 10.4591L8.42522 10.345L8.17643 10.2523ZM8.32249 10.2965L5.70146 8.84993L5.57317 9.08238L8.1942 10.5289L8.32249 10.2965ZM5.76745 8.99241L5.79587 8.85154L5.53561 8.79902L5.50719 8.9399L5.76745 8.99241ZM12.8274 4.77613L15.4625 6.24923L15.5921 6.01747L12.957 4.54438L12.8274 4.77613ZM15.4027 6.08752L15.3605 6.20215L15.6097 6.29382L15.6519 6.17918L15.4027 6.08752ZM15.5493 6.13176L12.9283 4.68521L12.8 4.91767L15.421 6.36421L15.5493 6.13176ZM12.9943 4.82736L13.0224 4.68618L12.762 4.63433L12.7339 4.77552L12.9943 4.82736ZM1.44674 5.17697L8.46363 1.13314L8.33106 0.903097L1.31417 4.94693L1.44674 5.17697ZM8.36936 1.14789L8.62424 1.20286L8.68022 0.943323L8.42533 0.888347L8.36936 1.14789ZM8.58572 0.958204L1.46388 5.08138L1.5969 5.31115L8.71875 1.18798L8.58572 0.958204ZM1.61897 5.09738L1.46904 4.96307L1.29188 5.16083L1.44181 5.29514L1.61897 5.09738ZM7.28389 6.96191L14.3248 2.87466L14.1915 2.64503L7.1506 6.73228L7.28389 6.96191ZM14.2293 2.88942L14.4845 2.94627L14.5422 2.68712L14.287 2.63027L14.2293 2.88942ZM14.4465 2.70201L7.30031 6.86892L7.43405 7.09828L14.5803 2.93138L14.4465 2.70201ZM7.45655 6.88543L7.30661 6.74893L7.12787 6.94526L7.27781 7.08176L7.45655 6.88543ZM13.427 12.1827L20.5579 8.00147L20.4236 7.77243L13.2927 11.9537L13.427 12.1827ZM20.4202 7.9994L20.5895 8.10561L20.7306 7.88069L20.5613 7.77449L20.4202 7.9994ZM20.5929 7.8786L13.2949 12.1533L13.4291 12.3824L20.7271 8.1077L20.5929 7.8786ZM13.4948 12.2664L13.4926 12.0668L13.2271 12.0697L13.2293 12.2693L13.4948 12.2664ZM13.4985 15.9959L20.4692 11.9352L20.3355 11.7058L13.3649 15.7665L13.4985 15.9959ZM20.3318 11.933L20.5011 12.0392L20.6422 11.8143L20.4729 11.7081L20.3318 11.933ZM20.5046 11.8121L13.3574 15.9956L13.4916 16.2247L20.6387 12.0413L20.5046 11.8121ZM13.5572 16.1143L13.5644 15.8854L13.299 15.8771L13.2918 16.106L13.5572 16.1143ZM1.30482 9.19627L8.42291 5.02593L8.28869 4.79685L1.1706 8.96719L1.30482 9.19627ZM8.24454 4.98381L8.32201 5.10282L8.54453 4.95798L8.46706 4.83897L8.24454 4.98381ZM8.36586 4.91603L1.15031 9.16884L1.28512 9.39757L8.50067 5.14477L8.36586 4.91603ZM1.34982 9.29631L1.36981 9.09484L1.1056 9.06862L1.08561 9.27009L1.34982 9.29631ZM20.4898 8.03338L20.4245 11.8785L20.69 11.8831L20.7553 8.03788L20.4898 8.03338ZM20.4827 11.771L20.3971 11.8291L20.5462 12.0487L20.6318 11.9906L20.4827 11.771ZM20.6044 11.9384L20.5894 8.03137L20.3239 8.03239L20.3389 11.9394L20.6044 11.9384ZM20.4537 8.1646L20.6196 8.16835L20.6255 7.90291L20.4597 7.89916L20.4537 8.1646ZM8.37551 1.1139L8.29585 5.16242L8.56131 5.16764L8.64096 1.11912L8.37551 1.1139ZM8.35504 5.05451L8.27007 5.11105L8.41716 5.33209L8.50213 5.27555L8.35504 5.05451ZM8.47637 5.22157V1.11276H8.21087V5.22157H8.47637ZM8.3406 1.24548L8.50521 1.24923L8.51126 0.983792L8.34664 0.980043L8.3406 1.24548ZM18.0112 9.469L17.9175 13.3807L18.183 13.3871L18.2767 9.47536L18.0112 9.469ZM17.9767 13.2734L17.8917 13.3299L18.0388 13.5509L18.1238 13.4944L17.9767 13.2734ZM18.098 13.4409L18.1112 9.46887L17.8457 9.46799L17.8325 13.44L18.098 13.4409ZM17.9754 9.60115L18.141 9.6049L18.147 9.33946L17.9814 9.33571L17.9754 9.60115ZM5.89754 2.55013L5.81758 6.59927L6.08303 6.60451L6.163 2.55537L5.89754 2.55013ZM5.87676 6.49137L5.7918 6.54791L5.93889 6.76895L6.02385 6.71241L5.87676 6.49137ZM5.9981 6.65843V2.54931H5.73259V6.65843H5.9981ZM5.86258 2.68204L6.0275 2.68547L6.03303 2.42002L5.86811 2.41659L5.86258 2.68204ZM15.5333 10.9052L15.4396 14.7822L15.705 14.7887L15.7987 10.9116L15.5333 10.9052ZM15.4985 14.6751L15.4135 14.732L15.5612 14.9526L15.6461 14.8958L15.4985 14.6751ZM15.6201 14.8427L15.6329 10.9054L15.3674 10.9046L15.3546 14.8419L15.6201 14.8427ZM15.4974 11.0377L15.6632 11.0411L15.6687 10.7757L15.5029 10.7723L15.4974 11.0377ZM3.41958 3.98668L3.33961 8.03613L3.60507 8.04138L3.68503 3.99192L3.41958 3.98668ZM3.39852 7.92842L3.31355 7.98527L3.4612 8.20594L3.54617 8.14909L3.39852 7.92842ZM3.52013 8.0956V3.98586H3.25463V8.0956H3.52013ZM3.38461 4.11859L3.54954 4.12202L3.55507 3.85657L3.39014 3.85314L3.38461 4.11859ZM20.5133 12.0137L20.5842 11.9003L20.3591 11.7595L20.2882 11.8729L20.5133 12.0137ZM20.6034 11.8136L20.1642 8.27044L19.9008 8.3031L20.3399 11.8462L20.6034 11.8136ZM19.9691 8.17015L19.8129 8.25512L19.9398 8.48835L20.0959 8.40338L19.9691 8.17015ZM19.745 8.39102L20.2694 11.9626L20.5321 11.924L20.0077 8.35244L19.745 8.39102ZM8.39933 5.09329L8.47023 4.9799L8.24512 4.83913L8.17421 4.95252L8.39933 5.09329ZM8.48942 4.89318L8.05024 1.35131L7.78675 1.38399L8.22593 4.92585L8.48942 4.89318ZM7.85506 1.25103L7.69888 1.336L7.82575 1.56923L7.98193 1.48426L7.85506 1.25103ZM7.63097 1.47191L8.15543 5.0422L8.41811 5.00361L7.89366 1.43332L7.63097 1.47191ZM18.0354 13.449L18.1063 13.3356L17.8812 13.1948L17.8103 13.3082L18.0354 13.449ZM18.1255 13.2488L17.686 9.70697L17.4225 9.73967L17.862 13.2815L18.1255 13.2488ZM17.4908 9.6067L17.3346 9.69167L17.4615 9.9249L17.6177 9.83993L17.4908 9.6067ZM17.2667 9.82759L17.7915 13.3979L18.0542 13.3593L17.5294 9.78898L17.2667 9.82759ZM5.92136 6.52984L5.99227 6.41645L5.76715 6.27568L5.69625 6.38907L5.92136 6.52984ZM6.01146 6.32972L5.57196 2.78785L5.30848 2.82055L5.74797 6.36241L6.01146 6.32972ZM5.37678 2.68758L5.2206 2.77255L5.34748 3.00578L5.50366 2.92082L5.37678 2.68758ZM5.1527 2.90847L5.67746 6.47876L5.94015 6.44015L5.41538 2.86986L5.1527 2.90847ZM15.5571 14.8855L15.628 14.7721L15.4029 14.6314L15.332 14.7447L15.5571 14.8855ZM15.6472 14.6854L15.208 11.1435L14.9445 11.1762L15.3837 14.7181L15.6472 14.6854ZM15.0128 11.0433L14.8566 11.1282L14.9835 11.3614L15.1397 11.2765L15.0128 11.0433ZM14.7887 11.2641L15.3132 14.8344L15.5759 14.7958L15.0514 11.2255L14.7887 11.2641ZM3.28285 8.02449L3.35375 7.9111L3.12864 7.77033L3.05773 7.88372L3.28285 8.02449ZM3.37294 7.82438L2.93376 4.28251L2.67027 4.31519L3.10945 7.85705L3.37294 7.82438ZM2.73857 4.18224L2.58239 4.2672L2.70927 4.50043L2.86545 4.41547L2.73857 4.18224ZM2.51449 4.40311L3.03894 7.9734L3.30163 7.93481L2.77718 4.36452L2.51449 4.40311ZM8.29407 2.10924L7.95047 2.31665L8.08768 2.54396L8.43128 2.33655L8.29407 2.10924ZM7.88764 2.41165L7.87358 2.51066L8.13646 2.54798L8.15051 2.44896L7.88764 2.41165ZM8.06945 2.64539L8.45209 2.43299L8.32323 2.20085L7.94059 2.41325L8.06945 2.64539ZM8.51596 2.28282L8.49097 2.1888L8.23437 2.257L8.25936 2.35102L8.51596 2.28282ZM5.81579 3.54579L5.47219 3.7532L5.6094 3.98051L5.953 3.7731L5.81579 3.54579ZM5.40941 3.84785L5.39504 3.94718L5.65782 3.98519L5.67219 3.88586L5.40941 3.84785ZM5.59086 4.08226L5.9735 3.86985L5.84464 3.63771L5.462 3.85012L5.59086 4.08226ZM6.03751 3.72018L6.01283 3.62585L5.75596 3.69304L5.78064 3.78738L6.03751 3.72018ZM3.33752 4.98266L2.99392 5.19006L3.13113 5.41737L3.47473 5.20996L3.33752 4.98266ZM2.93108 5.28512L2.91702 5.38445L3.17991 5.42165L3.19397 5.32232L2.93108 5.28512ZM3.1129 5.51912L3.49554 5.30671L3.36668 5.07457L2.98404 5.28698L3.1129 5.51912ZM3.55944 5.15665L3.53445 5.06231L3.27779 5.1303L3.30278 5.22464L3.55944 5.15665ZM9.34088 8.5379L15.7387 4.84079L15.6058 4.61091L9.20803 8.30802L9.34088 8.5379ZM15.7442 4.61429L15.6193 4.5337L15.4753 4.75682L15.6003 4.83741L15.7442 4.61429ZM15.4812 4.53011L9.06689 8.21004L9.19902 8.44034L15.6134 4.76041L15.4812 4.53011ZM9.05749 8.43441L9.19899 8.53218L9.34992 8.31374L9.20842 8.21597L9.05749 8.43441ZM11.6796 10.5205L18.1686 6.81085L18.0368 6.58035L11.5478 10.29L11.6796 10.5205ZM18.1747 6.58404L18.0497 6.50345L17.9058 6.72657L18.0308 6.80716L18.1747 6.58404ZM17.9123 6.49955L11.4055 10.192L11.5365 10.4229L18.0433 6.73047L17.9123 6.49955ZM11.396 10.417L11.5387 10.5147L11.6887 10.2957L11.546 10.1979L11.396 10.417ZM4.61294 6.21382L10.9795 2.56044L10.8473 2.33015L4.48079 5.98353L4.61294 6.21382ZM10.9494 2.3175L10.7694 2.2669L10.6976 2.52249L10.8775 2.57309L10.9494 2.3175ZM10.6678 2.27935L4.33777 5.88587L4.46921 6.11657L10.7992 2.51004L10.6678 2.27935ZM4.32886 6.11101L4.47224 6.20847L4.62149 5.98889L4.47812 5.89143L4.32886 6.11101ZM2.74253 5.65687L9.05817 2.0316L8.92599 1.80133L2.61036 5.4266L2.74253 5.65687ZM9.02802 1.78867L8.8481 1.73807L8.77622 1.99366L8.95614 2.04426L9.02802 1.78867ZM8.74643 1.75053L2.46796 5.32894L2.59943 5.55962L8.8779 1.9812L8.74643 1.75053ZM2.45884 5.55392L2.60159 5.65138L2.7513 5.4321L2.60855 5.33464L2.45884 5.55392Z" fill="white"/>
</svg>
