<svg width="59" height="65" viewBox="0 0 59 65" fill="none" xmlns="http://www.w3.org/2000/svg">
<path d="M42.3377 1.30349L42.3377 1.30346C42.0999 1.04628 41.7708 0.9 41.4261 0.9H18.4577C15.8282 0.9 13.6959 3.1258 13.6959 5.85322V22.7077H4.48773C2.50559 22.7077 0.9 24.3854 0.9 26.4392V44.6186C0.9 46.6724 2.50559 48.35 4.48773 48.35H13.6959V59.1553C13.6959 61.8782 15.8284 64.1 18.4577 64.1H53.3383C55.9675 64.1 58.1 61.8795 58.1 59.158V18.8892C58.1 18.5513 57.9743 18.2258 57.7483 17.9812L57.6784 18.0458L57.7483 17.9811L42.3377 1.30349ZM9.94946 40.9808V37.1551H11.165C12.0804 37.1551 12.786 37.1054 13.2778 37.0039L13.2797 37.0035C13.6493 36.9195 14.0103 36.7487 14.3625 36.4935C14.7202 36.2345 15.0127 35.8795 15.2415 35.4323C15.4733 34.9793 15.5865 34.4254 15.5865 33.7754C15.5863 32.9317 15.3894 32.2336 14.9874 31.6893C14.5893 31.1501 14.0916 30.7962 13.4954 30.6336C13.107 30.5252 12.2931 30.4738 11.0695 30.4738H7.83191H7.73191V30.5738V40.9808V41.0808H7.83191H9.84946H9.94946V40.9808ZM12.2566 32.5035L12.2574 32.5037C12.5629 32.5611 12.8131 32.7037 13.0114 32.9323L13.0114 32.9324C13.2067 33.1574 13.3074 33.4453 13.3074 33.8038C13.3075 34.0941 13.2358 34.3443 13.0955 34.5582C12.955 34.7724 12.7612 34.9299 12.511 35.0316C12.3901 35.0806 12.2015 35.1203 11.9386 35.1472C11.6773 35.174 11.3493 35.1875 10.9536 35.1875H9.94946V32.4344H10.8241C11.5528 32.4344 12.027 32.4583 12.2566 32.5035ZM22.7543 30.6769L22.754 30.6769C22.3036 30.54 21.6579 30.4738 20.8233 30.4738H17.1358H17.0358V30.5738V40.9808V41.0808H17.1358H20.9323C21.6827 41.0808 22.2898 41.0071 22.7494 40.8556L22.7497 40.8555C23.3561 40.6531 23.8435 40.3691 24.2069 40.0004C24.6833 39.5188 25.0471 38.8917 25.3009 38.1228L25.2059 38.0915L25.3009 38.1228C25.5096 37.4901 25.6126 36.7407 25.6126 35.8767C25.6126 34.895 25.5029 34.0639 25.2805 33.3858C25.0586 32.7091 24.7338 32.1344 24.3052 31.6636C23.8753 31.1915 23.3577 30.8622 22.7543 30.6769ZM22.6256 38.6221L22.6256 38.6222C22.4236 38.8126 22.1677 38.9496 21.8545 39.0311L21.8541 39.0313C21.6177 39.094 21.2221 39.1273 20.6596 39.1273H19.2533V32.4344H20.0598C20.8838 32.4344 21.4245 32.4679 21.6932 32.5311L21.6941 32.5313C22.0553 32.6129 22.3492 32.7681 22.5798 32.9949C22.8105 33.2219 22.9942 33.542 23.1271 33.9618C23.2588 34.3779 23.3269 34.9835 23.3269 35.7845C23.3269 36.5848 23.2589 37.2093 23.1264 37.6624C22.9922 38.1213 22.8227 38.4364 22.6256 38.6221ZM19.2533 32.3344H19.1533V32.4344L19.2533 32.3344ZM34.0872 32.4344H34.1872V32.3344V30.5738V30.4738H34.0872H27.2371H27.1371V30.5738V40.9808V41.0808H27.2371H29.2546H29.3546V40.9808V36.6582H33.426H33.526V36.5582V34.7977V34.6977H33.426H29.3546V32.4344H34.0872ZM41.8143 17.8615V4.52628L54.1365 17.8615H41.8143ZM4.48773 45.727C3.90634 45.727 3.42661 45.2335 3.42661 44.6186V26.4392C3.42661 25.8243 3.90646 25.3308 4.48773 25.3308H35.9001C36.4815 25.3308 36.9612 25.8243 36.9612 26.4392V44.6186C36.9612 45.2335 36.4814 45.727 35.9001 45.727H4.48773ZM55.5734 59.158C55.5734 60.4399 54.5673 61.477 53.3382 61.477H18.4577C17.2286 61.477 16.2224 60.4389 16.2224 59.1554V48.35H35.9001C37.8822 48.35 39.4878 46.6724 39.4878 44.6186V26.4392C39.4878 24.3854 37.8822 22.7077 35.9001 22.7077H16.2224V5.85322C16.2224 4.56455 17.229 3.52304 18.4577 3.52304H39.2877V19.173C39.2877 19.8935 39.8496 20.4846 40.551 20.4846H55.5734V59.158Z" fill="white" stroke="white" stroke-width="0.2"/>
</svg>
