<svg width="89" height="80" viewBox="0 0 89 80" fill="none" xmlns="http://www.w3.org/2000/svg">
<path fill-rule="evenodd" clip-rule="evenodd" d="M0.375804 2.31649C1.03868 0.903834 2.47051 0 4.0455 0H84.9545C86.5295 0 87.9613 0.903834 88.6242 2.31649C89.2871 3.72915 89.0605 5.39379 88.0435 6.5829L56.6364 43.3046V76C56.6364 77.3863 55.9104 78.6738 54.7177 79.4026C53.5251 80.1314 52.0358 80.1977 50.7817 79.5777L34.5999 71.5777C33.2294 70.9001 32.3637 69.5151 32.3637 68V43.3046L0.95652 6.5829C-0.0604962 5.39379 -0.287076 3.72915 0.375804 2.31649ZM12.7647 8L39.4981 39.2571C40.1157 39.9792 40.4546 40.8943 40.4546 41.84V65.5279L48.5455 69.5279V41.84C48.5455 40.8943 48.8843 39.9792 49.5019 39.2571L76.2353 8H12.7647Z" fill="white"/>
</svg>
