<svg width="32" height="19" viewBox="0 0 32 19" fill="none" xmlns="http://www.w3.org/2000/svg">
<path fill-rule="evenodd" clip-rule="evenodd" d="M1.71626 9.40189C1.59673 10.3457 1.73561 9.77569 1.38993 9.89624C1.18275 9.43041 1.15239 9.59734 1.71626 9.40189ZM13.8966 15.6162L24.7846 9.29845C25.6072 8.81323 27.8145 7.35908 28.6262 7.16135C28.8136 9.33458 29.1301 8.66645 29.7747 9.3669C27.0048 11.015 24.2184 12.5661 21.4234 14.2343C20.0392 15.0633 18.6622 15.8391 17.24 16.6601C16.7262 16.9559 15.5806 17.7724 15.0817 17.7248C14.1216 17.6355 13.9262 16.5441 13.8974 15.6155L13.8966 15.6162ZM12.811 14.7888C13.181 14.3366 19.3755 10.8906 20.3966 10.2872L26.2295 6.89135C27.0898 6.37609 27.3273 6.04982 28.2167 6.78298C27.9056 7.20127 17.0229 13.3818 14.8111 14.6926C13.935 15.2143 13.716 15.5558 12.811 14.7888ZM11.9246 14.5519C11.8829 14.7553 11.8487 15.0131 11.7933 15.1892C11.7782 15.2363 11.7281 15.371 11.7095 15.4124C11.5049 15.8649 11.6803 15.5246 11.5304 15.7052C10.6341 15.2618 10.5969 14.9804 10.5723 13.7096L17.8577 9.43155C19.108 8.73566 20.2103 8.04357 21.4553 7.33779C22.2521 6.88717 24.4419 5.46497 25.202 5.26L25.5628 6.96779C24.4932 7.407 23.2839 8.2337 22.2013 8.86267C21.0948 9.50684 19.9504 10.1556 18.7976 10.8344C17.6448 11.5131 16.6643 12.0744 15.4903 12.7589C14.448 13.3673 13.0618 14.3343 11.9235 14.5511L11.9246 14.5519ZM7.20919 11.6839C8.04626 11.3747 16.5175 6.31639 18.1302 5.39766C18.7999 5.01739 21.2014 3.49632 21.8226 3.34421C22.0579 3.80053 22.1216 4.34165 22.1687 4.93715C21.5445 5.4874 13.4345 10.0662 11.9785 10.923C11.2496 11.3519 9.33373 12.7053 8.61847 12.4881L8.36196 13.7788C7.22778 13.4316 7.28242 12.9901 7.20919 11.6839ZM9.50676 12.7867C10.038 12.3425 10.8007 12.0033 11.4385 11.6227C12.128 11.2123 12.7351 10.8674 13.3829 10.4895L21.1589 5.9692C23.3977 4.69721 24.0048 3.82259 24.8943 4.96682L13.2341 11.7162C11.8161 12.568 10.5286 13.6373 9.81905 13.1232C9.45705 12.8612 9.67751 13.0646 9.50562 12.7867H9.50676ZM6.14331 10.9393C6.16608 10.91 6.20554 10.8309 6.2192 10.8568L17.545 4.19145C20.2255 2.64832 20.4706 1.9973 21.5236 2.93428L19.7402 4.08307C19.0818 4.45802 18.5001 4.81471 17.7962 5.20829L10.1146 9.67872C7.47746 11.242 7.23081 11.763 6.14331 10.9389V10.9393ZM4.92375 11.8185C3.55242 11.3964 3.9406 9.83083 3.95464 9.80801C4.55265 9.28134 6.64874 8.1972 7.52565 7.6979C8.81123 6.96513 9.90632 6.33236 11.1149 5.59958C12.3234 4.8668 13.4918 4.21579 14.7124 3.50811C15.7927 2.88332 17.3716 1.81629 18.4428 1.37556C18.7141 1.76381 18.7953 2.55896 18.8602 3.04646L6.32241 10.3438C6.08411 10.4742 5.52215 10.5914 5.34798 10.7427C5.1112 10.9481 5.12752 11.4458 4.923 11.8189L4.92375 11.8185ZM10.5324 4.39984C11.8836 3.64348 13.0797 2.89017 14.4195 2.1342C16.9687 0.6964 17.2081 0.0427194 18.2432 1.04929C14.8661 3.1537 10.2087 5.70378 6.5941 7.83936L3.67953 9.45284C3.35283 9.45969 2.97755 9.14863 2.79352 8.93872L10.5324 4.39984ZM0 9.70838L1.98035 10.937L2.36967 9.65743C4.30487 10.2757 2.19398 11.9048 5.43791 12.8467L5.70732 11.5713C6.89235 11.8953 6.45787 12.4649 6.83998 13.5C7.05096 14.0704 8.10241 14.5694 8.75165 14.793L9.04952 13.4955C10.3556 13.9065 9.79173 14.2419 10.1613 15.3938C10.3347 15.936 11.4541 16.4715 11.9906 16.6867L12.4122 15.4501C14.38 16.2444 12.1944 17.5385 15.2167 18.5413C15.2414 18.5413 30.7742 9.73348 31.0019 9.2475C30.6247 8.98131 29.8298 8.63298 29.6055 8.3763C29.1881 7.89945 29.409 7.12978 29.0769 6.5917C28.8815 6.27532 27.956 5.77336 27.6661 5.77603C27.2302 5.77869 26.7615 6.33236 26.1472 6.43579C26.0463 5.9962 25.9988 5.59844 25.9021 5.15353C25.7484 4.45041 25.7165 4.5489 25.1587 4.20704C23.891 3.43281 24.0807 4.11539 22.8976 4.49566C22.5982 3.99485 22.6969 3.74197 22.5455 3.13544C22.3796 2.47035 22.3125 2.57607 21.7486 2.24409C20.5177 1.52158 20.6721 2.20607 19.5034 2.59812C19.0458 1.26718 19.462 0.623389 18.0235 0.0856893C17.2893 -0.188865 17.1546 0.264796 16.6055 0.486873C15.7628 0.829114 16.2394 0.206615 15.2202 0.778538L5.10361 6.65521C4.1474 7.20964 0.487974 9.1878 0 9.70838Z" fill="white"/>
</svg>
