<svg width="40" height="40" viewBox="0 0 40 40" fill="none" xmlns="http://www.w3.org/2000/svg">
<path d="M0 0H38C39.1046 0 40 0.895431 40 2V38C40 39.1046 39.1046 40 38 40H0V0Z" fill="#F3F3F3"/>
<path fill-rule="evenodd" clip-rule="evenodd" d="M14.8333 28.5C14.8333 27.5795 15.5795 26.8333 16.5 26.8333C17.4205 26.8333 18.1667 27.5795 18.1667 28.5C18.1667 29.4205 17.4205 30.1667 16.5 30.1667C15.5795 30.1667 14.8333 29.4205 14.8333 28.5Z" fill="#072754"/>
<path fill-rule="evenodd" clip-rule="evenodd" d="M24 28.5C24 27.5795 24.7462 26.8333 25.6667 26.8333C26.5871 26.8333 27.3333 27.5795 27.3333 28.5C27.3333 29.4205 26.5871 30.1667 25.6667 30.1667C24.7462 30.1667 24 29.4205 24 28.5Z" fill="#072754"/>
<path fill-rule="evenodd" clip-rule="evenodd" d="M9 11.8333C9 11.3731 9.3731 11 9.83333 11H13.1667C13.5639 11 13.9058 11.2803 13.9838 11.6698L14.6837 15.1667H28.1667C28.415 15.1667 28.6504 15.2774 28.8087 15.4688C28.9671 15.6602 29.0318 15.9121 28.9852 16.1561L27.6507 23.154C27.5364 23.7295 27.2233 24.2465 26.7663 24.6144C26.3115 24.9805 25.743 25.1758 25.1595 25.1667H17.0739C16.4903 25.1758 15.9218 24.9805 15.4671 24.6144C15.0102 24.2466 14.6972 23.7299 14.5828 23.1547L13.1907 16.1993C13.185 16.1763 13.1803 16.1529 13.1766 16.1292L12.4836 12.6667H9.83333C9.3731 12.6667 9 12.2936 9 11.8333ZM15.0173 16.8333L16.2174 22.8293C16.2555 23.0211 16.3598 23.1935 16.5122 23.3161C16.6645 23.4387 16.8552 23.5039 17.0507 23.5001L17.0667 23.5H25.1667L25.1826 23.5001C25.3782 23.5039 25.5688 23.4387 25.7212 23.3161C25.8728 23.194 25.9769 23.0228 26.0154 22.832L27.1594 16.8333H15.0173Z" fill="#072754"/>
</svg>
