<svg width="50" height="50" viewBox="0 0 50 50" fill="none" xmlns="http://www.w3.org/2000/svg">
<path d="M0 0H48C49.1046 0 50 0.895431 50 2V48C50 49.1046 49.1046 50 48 50H0V0Z" fill="#F3F3F3"/>
<path fill-rule="evenodd" clip-rule="evenodd" d="M28.7803 15.3878C27.984 15.3878 27.2204 15.7041 26.6574 16.2671L17.4674 25.4571C16.5291 26.3955 16.002 27.6681 16.002 28.995C16.002 30.322 16.5291 31.5946 17.4674 32.5329C18.4057 33.4712 19.6783 33.9984 21.0053 33.9984C22.3323 33.9984 23.6049 33.4712 24.5432 32.5329L33.7332 23.3429C34.1237 22.9524 34.7569 22.9524 35.1474 23.3429C35.5379 23.7335 35.5379 24.3666 35.1474 24.7571L25.9574 33.9471C24.644 35.2605 22.8627 35.9984 21.0053 35.9984C19.1479 35.9984 17.3666 35.2605 16.0532 33.9471C14.7398 32.6338 14.002 30.8524 14.002 28.995C14.002 27.1376 14.7398 25.3563 16.0532 24.0429L25.2432 14.8529C26.1813 13.9148 27.4536 13.3878 28.7803 13.3878C30.107 13.3878 31.3793 13.9148 32.3174 14.8529C33.2555 15.791 33.7825 17.0634 33.7825 18.39C33.7825 19.7167 33.2555 20.989 32.3174 21.9271L23.1174 31.1171C22.5546 31.68 21.7912 31.9962 20.9953 31.9962C20.1993 31.9962 19.436 31.68 18.8732 31.1171C18.3104 30.5543 17.9942 29.791 17.9942 28.995C17.9942 28.1991 18.3104 27.4358 18.8732 26.8729L27.3636 18.3925C27.7544 18.0022 28.3875 18.0026 28.7778 18.3934C29.1681 18.7841 29.1677 19.4173 28.777 19.8076L20.2874 28.2871C20.0999 28.4749 19.9942 28.7297 19.9942 28.995C19.9942 29.2606 20.0997 29.5152 20.2874 29.7029C20.4751 29.8907 20.7298 29.9962 20.9953 29.9962C21.2608 29.9962 21.5154 29.8907 21.7032 29.7029L30.9032 20.5129C31.466 19.9499 31.7825 19.1861 31.7825 18.39C31.7825 17.5938 31.4662 16.8302 30.9032 16.2671C30.3402 15.7041 29.5765 15.3878 28.7803 15.3878Z" fill="black"/>
</svg>
