<svg width="50" height="50" viewBox="0 0 50 50" fill="none" xmlns="http://www.w3.org/2000/svg">
<path d="M0 2C0 0.895432 0.89543 0 2 0H48C49.1046 0 50 0.895431 50 2V48C50 49.1046 49.1046 50 48 50H2C0.895432 50 0 49.1046 0 48V2Z" fill="#008CFF"/>
<path fill-rule="evenodd" clip-rule="evenodd" d="M18.5833 35.913C18.5833 34.7604 19.5534 33.8261 20.75 33.8261C21.9466 33.8261 22.9167 34.7604 22.9167 35.913C22.9167 37.0656 21.9466 38 20.75 38C19.5534 38 18.5833 37.0656 18.5833 35.913Z" fill="white"/>
<path fill-rule="evenodd" clip-rule="evenodd" d="M30.5 35.913C30.5 34.7604 31.47 33.8261 32.6667 33.8261C33.8633 33.8261 34.8333 34.7604 34.8333 35.913C34.8333 37.0656 33.8633 38 32.6667 38C31.47 38 30.5 37.0656 30.5 35.913Z" fill="white"/>
<path fill-rule="evenodd" clip-rule="evenodd" d="M11 15.0435C11 14.4672 11.485 14 12.0833 14H16.4167C16.933 14 17.3776 14.351 17.4789 14.8387L18.3888 19.2174H35.9167C36.2395 19.2174 36.5456 19.3561 36.7514 19.5957C36.9572 19.8353 37.0413 20.1509 36.9808 20.4563L35.2459 29.2189C35.0973 29.9396 34.6903 30.5869 34.0961 31.0476C33.5049 31.506 32.7659 31.7506 32.0073 31.7391H21.496C20.7374 31.7506 19.9984 31.506 19.4072 31.0476C18.8133 30.5871 18.4064 29.9401 18.2576 29.2198L16.4479 20.5105C16.4405 20.4817 16.4344 20.4524 16.4296 20.4227L15.5287 16.087H12.0833C11.485 16.087 11 15.6198 11 15.0435ZM18.8225 21.3043L20.3826 28.8124C20.4321 29.0526 20.5678 29.2683 20.7658 29.4219C20.9639 29.5755 21.2117 29.6571 21.4659 29.6524L21.4867 29.6522H32.0167L32.0374 29.6524C32.2916 29.6571 32.5394 29.5755 32.7375 29.4219C32.9346 29.2691 33.07 29.0546 33.1201 28.8157L34.6072 21.3043H18.8225Z" fill="white"/>
</svg>
