<svg width="30" height="26" viewBox="0 0 30 26" fill="none" xmlns="http://www.w3.org/2000/svg">
<path d="M5.13669 15.9275C5.1783 15.9342 5.21335 15.9342 5.24591 15.9342H5.24827C5.46094 15.9342 5.66789 15.8574 5.82964 15.71C5.82977 15.7099 5.8299 15.7098 5.83003 15.7097L10.6585 11.3967L10.6588 11.3964C11.0137 11.0764 11.0463 10.5314 10.7233 10.1726L10.7227 10.1719C10.4003 9.82018 9.85226 9.78813 9.49112 10.1079L9.49067 10.1083L6.45263 12.8315C6.54356 7.18886 11.1945 2.63047 16.9012 2.63047C22.6647 2.63047 27.3569 7.27994 27.3569 13C27.3569 18.7201 22.6704 23.3695 16.907 23.3695C14.1157 23.3695 11.4893 22.2915 9.51935 20.332L9.51925 20.3319C9.17737 19.9928 8.62872 19.9928 8.28683 20.3319C7.9445 20.6715 7.9445 21.217 8.28683 21.5566C10.5917 23.8426 13.6517 25.1 16.907 25.1C23.6252 25.1 29.1 19.6767 29.1 13C29.1 6.32328 23.6251 0.9 16.9012 0.9C10.2731 0.9 4.86437 6.17538 4.71153 12.7155L2.49681 9.40744C2.4968 9.40743 2.49679 9.40741 2.49678 9.4074C2.23172 9.0099 1.68991 8.90164 1.29005 9.1639C0.8894 9.42668 0.779326 9.96523 1.04452 10.363L1.04464 10.3632L4.51939 15.5498L4.51947 15.5499C4.66162 15.7614 4.88709 15.8953 5.13669 15.9275ZM5.13669 15.9275C5.13606 15.9274 5.13543 15.9273 5.1348 15.9272L5.15111 15.8285L5.1385 15.9277C5.1379 15.9277 5.13729 15.9276 5.13669 15.9275Z" fill="#008CFF" stroke="#008CFF" stroke-width="0.2"/>
<path d="M22.3378 14.6375L22.338 14.6364L23.1387 10.2551C23.1742 10.0607 23.1251 9.85893 23.0028 9.70466C22.8802 9.55006 22.6962 9.4587 22.5 9.4587H14.5342L14.1376 7.39109C14.0781 7.08095 13.8146 6.85 13.5 6.85H11.5C11.1351 6.85 10.85 7.15683 10.85 7.52174C10.85 7.88665 11.1351 8.19348 11.5 8.19348H12.9662L13.3581 10.2367C13.3607 10.2535 13.3639 10.27 13.3676 10.2864L14.2023 14.638C14.2023 14.638 14.2023 14.6381 14.2023 14.6381C14.2773 15.0312 14.4826 15.3856 14.7838 15.6386C15.0834 15.8904 15.459 16.0256 15.8455 16.0196H20.6945C21.081 16.0256 21.4566 15.8904 21.7562 15.6386C22.0576 15.3855 22.2629 15.0309 22.3378 14.6375ZM20.7 14.8261L20.7096 14.8262L15.3304 14.4062C15.3533 14.5263 15.4159 14.6342 15.5073 14.711C15.5987 14.7877 15.7131 14.8285 15.8304 14.8262L15.84 14.8261H20.7ZM15.4777 14.3779L14.7919 10.8022H21.7157L21.062 14.3793C21.0619 14.3796 21.0619 14.3798 21.0618 14.3801C21.045 14.4663 21 14.5425 20.9362 14.5961C20.8721 14.65 20.7929 14.6778 20.7126 14.6762L20.7111 14.6762L20.7015 14.6761V14.6761H20.7L15.84 14.6761L15.8385 14.6761L15.8289 14.6762V14.6762L15.8274 14.6762C15.7471 14.6778 15.6679 14.65 15.6038 14.5961C15.5395 14.5421 15.4943 14.4652 15.4778 14.3781L15.4777 14.3779ZM15.5 16.763C14.8589 16.763 14.35 17.3035 14.35 17.9565C14.35 18.6096 14.8589 19.15 15.5 19.15C16.1411 19.15 16.65 18.6096 16.65 17.9565C16.65 17.3035 16.1411 16.763 15.5 16.763ZM21 16.763C20.3589 16.763 19.85 17.3035 19.85 17.9565C19.85 18.6096 20.3589 19.15 21 19.15C21.6411 19.15 22.15 18.6096 22.15 17.9565C22.15 17.3035 21.6411 16.763 21 16.763Z" fill="#008CFF" stroke="#008CFF" stroke-width="0.3" stroke-linecap="round" stroke-linejoin="round"/>
</svg>
