<svg width="21" height="25" viewBox="0 0 21 25" fill="none" xmlns="http://www.w3.org/2000/svg">
<path fill-rule="evenodd" clip-rule="evenodd" d="M0.988515 1.11351C1.62145 0.480579 2.47989 0.125 3.375 0.125H12.375C12.6734 0.125 12.9595 0.243526 13.1705 0.454505L19.9205 7.2045C20.1315 7.41548 20.25 7.70163 20.25 8V21.5C20.25 22.3951 19.8944 23.2536 19.2615 23.8865C18.6286 24.5194 17.7701 24.875 16.875 24.875H3.375C2.47989 24.875 1.62145 24.5194 0.988515 23.8865C0.355579 23.2535 0 22.3951 0 21.5V3.5C0 2.60489 0.355579 1.74645 0.988515 1.11351ZM3.375 2.375C3.07663 2.375 2.79048 2.49353 2.5795 2.7045C2.36853 2.91548 2.25 3.20163 2.25 3.5V21.5C2.25 21.7984 2.36853 22.0845 2.5795 22.2955C2.79048 22.5065 3.07663 22.625 3.375 22.625H16.875C17.1734 22.625 17.4595 22.5065 17.6705 22.2955C17.8815 22.0845 18 21.7984 18 21.5V8.46599L11.909 2.375H3.375Z" fill="#05162E"/>
<path fill-rule="evenodd" clip-rule="evenodd" d="M12.375 0.125C12.9963 0.125 13.5 0.62868 13.5 1.25V6.875H19.125C19.7463 6.875 20.25 7.37868 20.25 8C20.25 8.62132 19.7463 9.125 19.125 9.125H12.375C11.7537 9.125 11.25 8.62132 11.25 8V1.25C11.25 0.62868 11.7537 0.125 12.375 0.125Z" fill="#05162E"/>
<path fill-rule="evenodd" clip-rule="evenodd" d="M4.5 13.625C4.5 13.0037 5.00368 12.5 5.625 12.5H14.625C15.2463 12.5 15.75 13.0037 15.75 13.625C15.75 14.2463 15.2463 14.75 14.625 14.75H5.625C5.00368 14.75 4.5 14.2463 4.5 13.625Z" fill="#05162E"/>
<path fill-rule="evenodd" clip-rule="evenodd" d="M4.5 18.125C4.5 17.5037 5.00368 17 5.625 17H14.625C15.2463 17 15.75 17.5037 15.75 18.125C15.75 18.7463 15.2463 19.25 14.625 19.25H5.625C5.00368 19.25 4.5 18.7463 4.5 18.125Z" fill="#05162E"/>
<path fill-rule="evenodd" clip-rule="evenodd" d="M4.5 9.125C4.5 8.50368 5.00368 8 5.625 8H7.875C8.49632 8 9 8.50368 9 9.125C9 9.74632 8.49632 10.25 7.875 10.25H5.625C5.00368 10.25 4.5 9.74632 4.5 9.125Z" fill="#05162E"/>
</svg>
