<svg width="30" height="25" viewBox="0 0 30 25" fill="none" xmlns="http://www.w3.org/2000/svg">
<path fill-rule="evenodd" clip-rule="evenodd" d="M4.09099 2.77778C3.34412 2.77778 2.72737 3.40595 2.72737 4.16667V20.8333C2.72737 21.594 3.34412 22.2222 4.09099 22.2222H25.909C26.6559 22.2222 27.2726 21.594 27.2726 20.8333V4.16667C27.2726 3.40595 26.6559 2.77778 25.909 2.77778H4.09099ZM0.000117126 4.16667C0.000117126 1.87183 1.8379 0 4.09099 0H25.909C28.1621 0 29.9999 1.87183 29.9999 4.16667V20.8333C29.9999 23.1282 28.1621 25 25.909 25H4.09099C1.8379 25 0.000117126 23.1282 0.000117126 20.8333V4.16667Z" fill="#05162E"/>
<path fill-rule="evenodd" clip-rule="evenodd" d="M0.246617 3.37019C0.678497 2.74179 1.52876 2.58896 2.14573 3.02884L15 12.1935L27.8543 3.02884C28.4712 2.58896 29.3215 2.74179 29.7534 3.37019C30.1853 3.99859 30.0352 4.86461 29.4182 5.30449L15.782 15.0267C15.3125 15.3615 14.6875 15.3615 14.218 15.0267L0.581755 5.30449C-0.0352168 4.86461 -0.185263 3.99859 0.246617 3.37019Z" fill="#05162E"/>
</svg>
