<svg width="29" height="25" viewBox="0 0 29 25" fill="none" xmlns="http://www.w3.org/2000/svg">
<path fill-rule="evenodd" clip-rule="evenodd" d="M0 1.20833C0 0.540989 0.540989 0 1.20833 0H19.3333C20.0007 0 20.5417 0.540989 20.5417 1.20833V16.9167C20.5417 17.584 20.0007 18.125 19.3333 18.125H1.20833C0.540989 18.125 0 17.584 0 16.9167V1.20833ZM2.41667 2.41667V15.7083H18.125V2.41667H2.41667Z" fill="#05162E"/>
<path fill-rule="evenodd" clip-rule="evenodd" d="M18.125 7.25C18.125 6.58266 18.666 6.04167 19.3333 6.04167H24.1667C24.4871 6.04167 24.7945 6.16897 25.0211 6.39558L28.6461 10.0206C28.8727 10.2472 29 10.5545 29 10.875V16.9167C29 17.584 28.459 18.125 27.7917 18.125H19.3333C18.666 18.125 18.125 17.584 18.125 16.9167V7.25ZM20.5417 8.45833V15.7083H26.5833V11.3755L23.6662 8.45833H20.5417Z" fill="#05162E"/>
<path fill-rule="evenodd" clip-rule="evenodd" d="M6.64583 18.125C5.64482 18.125 4.83333 18.9365 4.83333 19.9375C4.83333 20.9385 5.64482 21.75 6.64583 21.75C7.64685 21.75 8.45833 20.9385 8.45833 19.9375C8.45833 18.9365 7.64685 18.125 6.64583 18.125ZM2.41667 19.9375C2.41667 17.6018 4.31013 15.7083 6.64583 15.7083C8.98154 15.7083 10.875 17.6018 10.875 19.9375C10.875 22.2732 8.98154 24.1667 6.64583 24.1667C4.31013 24.1667 2.41667 22.2732 2.41667 19.9375Z" fill="#05162E"/>
<path fill-rule="evenodd" clip-rule="evenodd" d="M22.3542 18.125C21.3532 18.125 20.5417 18.9365 20.5417 19.9375C20.5417 20.9385 21.3532 21.75 22.3542 21.75C23.3552 21.75 24.1667 20.9385 24.1667 19.9375C24.1667 18.9365 23.3552 18.125 22.3542 18.125ZM18.125 19.9375C18.125 17.6018 20.0185 15.7083 22.3542 15.7083C24.6899 15.7083 26.5833 17.6018 26.5833 19.9375C26.5833 22.2732 24.6899 24.1667 22.3542 24.1667C20.0185 24.1667 18.125 22.2732 18.125 19.9375Z" fill="#05162E"/>
</svg>
