<svg width="42" height="41" viewBox="0 0 42 41" fill="none" xmlns="http://www.w3.org/2000/svg">
<path fill-rule="evenodd" clip-rule="evenodd" d="M27.7142 5.91811C24.4641 4.46997 20.833 4.11121 17.3624 4.89535C13.8918 5.67949 10.7676 7.56451 8.45586 10.2693C6.14409 12.974 4.76858 16.3536 4.53447 19.904C4.30036 23.4544 5.22019 26.9854 7.15679 29.9703C9.09338 32.9552 11.943 35.2341 15.2806 36.4672C18.6182 37.7002 22.265 37.8214 25.677 36.8125C29.0891 35.8037 32.0837 33.7189 34.2141 30.8691C36.3445 28.0193 37.4967 24.5572 37.4987 20.9991V19.3135C37.4987 18.301 38.3195 17.4802 39.332 17.4802C40.3446 17.4802 41.1654 18.301 41.1654 19.3135V21.0002C41.1629 25.3489 39.7547 29.5815 37.1509 33.0646C34.547 36.5476 30.887 39.0957 26.7167 40.3287C22.5464 41.5618 18.0892 41.4137 14.0099 39.9066C9.93059 38.3995 6.44775 35.6142 4.0808 31.966C1.71385 28.3177 0.58961 24.0021 0.875746 19.6628C1.16188 15.3234 2.84307 11.1928 5.66856 7.88697C8.49406 4.58114 12.3125 2.27723 16.5543 1.31884C20.7962 0.360442 25.2342 0.79892 29.2065 2.56888C30.1314 2.98097 30.5471 4.06479 30.135 4.98966C29.7229 5.91453 28.6391 6.33021 27.7142 5.91811Z" fill="#27AE60"/>
<path fill-rule="evenodd" clip-rule="evenodd" d="M40.6264 5.03646C41.3428 5.75207 41.3433 6.91287 40.6277 7.62919L22.2944 25.9809C21.9506 26.325 21.4842 26.5184 20.9979 26.5185C20.5115 26.5186 20.045 26.3254 19.701 25.9815L14.201 20.4815C13.4851 19.7655 13.4851 18.6047 14.201 17.8888C14.917 17.1728 16.0778 17.1728 16.7938 17.8888L20.9967 22.0918L38.0337 5.03776C38.7493 4.32144 39.9101 4.32086 40.6264 5.03646Z" fill="#27AE60"/>
</svg>
