<svg width="30" height="25" viewBox="0 0 30 25" fill="none" xmlns="http://www.w3.org/2000/svg">
<path fill-rule="evenodd" clip-rule="evenodd" d="M1.83058 16.8306C3.00268 15.6585 4.5924 15 6.25 15H15C16.6576 15 18.2473 15.6585 19.4194 16.8306C20.5915 18.0027 21.25 19.5924 21.25 21.25V23.75C21.25 24.4404 20.6904 25 20 25C19.3096 25 18.75 24.4404 18.75 23.75V21.25C18.75 20.2554 18.3549 19.3016 17.6516 18.5984C16.9484 17.8951 15.9946 17.5 15 17.5H6.25C5.25544 17.5 4.30161 17.8951 3.59835 18.5984C2.89509 19.3016 2.5 20.2554 2.5 21.25V23.75C2.5 24.4404 1.94036 25 1.25 25C0.559644 25 0 24.4404 0 23.75V21.25C0 19.5924 0.658481 18.0027 1.83058 16.8306Z" fill="#05162E"/>
<path fill-rule="evenodd" clip-rule="evenodd" d="M10.625 2.5C8.55393 2.5 6.875 4.17893 6.875 6.25C6.875 8.32107 8.55393 10 10.625 10C12.6961 10 14.375 8.32107 14.375 6.25C14.375 4.17893 12.6961 2.5 10.625 2.5ZM4.375 6.25C4.375 2.79822 7.17322 0 10.625 0C14.0768 0 16.875 2.79822 16.875 6.25C16.875 9.70178 14.0768 12.5 10.625 12.5C7.17322 12.5 4.375 9.70178 4.375 6.25Z" fill="#05162E"/>
<path fill-rule="evenodd" clip-rule="evenodd" d="M29.6339 7.86612C30.122 8.35427 30.122 9.14573 29.6339 9.63388L24.6339 14.6339C24.1457 15.122 23.3543 15.122 22.8661 14.6339L20.3661 12.1339C19.878 11.6457 19.878 10.8543 20.3661 10.3661C20.8543 9.87796 21.6457 9.87796 22.1339 10.3661L23.75 11.9822L27.8661 7.86612C28.3543 7.37796 29.1457 7.37796 29.6339 7.86612Z" fill="#05162E"/>
</svg>
