<svg width="25" height="25" viewBox="0 0 25 25" fill="none" xmlns="http://www.w3.org/2000/svg">
<path fill-rule="evenodd" clip-rule="evenodd" d="M4.04297 2.83341C3.7225 2.83341 3.41515 2.96072 3.18855 3.18733C2.96194 3.41393 2.83464 3.72128 2.83464 4.04175V20.9584C2.83464 21.2789 2.96194 21.5862 3.18855 21.8128C3.41515 22.0394 3.7225 22.1667 4.04297 22.1667H20.9596C21.2801 22.1667 21.5875 22.0394 21.8141 21.8128C22.0407 21.5862 22.168 21.2789 22.168 20.9584V8.16726L16.8341 2.83341H4.04297ZM1.47971 1.47849C2.15953 0.798666 3.08156 0.416748 4.04297 0.416748H17.3346C17.6551 0.416748 17.9625 0.544054 18.1891 0.770661L24.2307 6.81233C24.4573 7.03893 24.5846 7.34628 24.5846 7.66675V20.9584C24.5846 21.9198 24.2027 22.8419 23.5229 23.5217C22.8431 24.2015 21.921 24.5834 20.9596 24.5834H4.04297C3.08156 24.5834 2.15953 24.2015 1.47971 23.5217C0.799887 22.8419 0.417969 21.9198 0.417969 20.9584V4.04175C0.417969 3.08034 0.799887 2.15831 1.47971 1.47849Z" fill="#05162E"/>
<path fill-rule="evenodd" clip-rule="evenodd" d="M5.2513 13.7084C5.2513 13.0411 5.79229 12.5001 6.45964 12.5001H18.543C19.2103 12.5001 19.7513 13.0411 19.7513 13.7084V23.3751C19.7513 24.0424 19.2103 24.5834 18.543 24.5834C17.8756 24.5834 17.3346 24.0424 17.3346 23.3751V14.9167H7.66797V23.3751C7.66797 24.0424 7.12698 24.5834 6.45964 24.5834C5.79229 24.5834 5.2513 24.0424 5.2513 23.3751V13.7084Z" fill="#05162E"/>
<path fill-rule="evenodd" clip-rule="evenodd" d="M6.45964 0.416748C7.12698 0.416748 7.66797 0.957737 7.66797 1.62508V6.45842H16.1263C16.7936 6.45842 17.3346 6.9994 17.3346 7.66675C17.3346 8.33409 16.7936 8.87508 16.1263 8.87508H6.45964C5.79229 8.87508 5.2513 8.33409 5.2513 7.66675V1.62508C5.2513 0.957737 5.79229 0.416748 6.45964 0.416748Z" fill="#05162E"/>
</svg>
