<svg width="41" height="42" viewBox="0 0 41 42" fill="none" xmlns="http://www.w3.org/2000/svg">
<path d="M32.9237 0H3.10605C1.39333 0 0 1.37993 0 3.07617V6.3566C0 8.05284 1.39333 9.43277 3.10605 9.43277C3.4492 9.43277 3.72726 9.15731 3.72726 8.81754C3.72726 8.47776 3.4492 8.2023 3.10605 8.2023C2.07848 8.2023 1.24242 7.37436 1.24242 6.3566V3.07617C1.24242 2.05841 2.07848 1.23047 3.10605 1.23047H32.9237C33.9513 1.23047 34.7873 2.05841 34.7873 3.07617V6.3566C34.7873 7.37436 33.9513 8.2023 32.9237 8.2023C32.5805 8.2023 32.3025 8.47776 32.3025 8.81754C32.3025 9.15731 32.5805 9.43277 32.9237 9.43277C34.6364 9.43277 36.0297 8.05284 36.0297 6.3566V3.07617C36.0297 1.37993 34.6364 0 32.9237 0Z" fill="#008CFF"/>
<path d="M37.8938 23.5436H31.0602V5.33194H32.0956C32.4387 5.33194 32.7168 5.05648 32.7168 4.7167C32.7168 4.37693 32.4387 4.10147 32.0956 4.10147H3.93433C3.59117 4.10147 3.31312 4.37693 3.31312 4.7167C3.31312 5.05648 3.59117 5.33194 3.93433 5.33194H4.96943V38.9237C4.96943 38.9247 4.96959 38.9258 4.96959 38.9269C4.97142 40.6217 6.364 42 8.07573 42H32.9239C34.6367 42 36.0302 40.62 36.0302 38.9237V33.7975H40.3788C40.7219 33.7975 41 33.5221 41 33.1823V26.62C41 24.9236 39.6066 23.5436 37.8938 23.5436ZM8.07573 40.7695C7.04808 40.7695 6.21193 39.9415 6.21193 38.9237C6.21193 38.9232 6.21185 38.9226 6.21185 38.9221V5.33194H29.8177V38.9237C29.8177 39.6158 30.0498 40.255 30.4408 40.7695H8.07573ZM34.7876 26.62C34.7876 26.621 34.7877 26.622 34.7877 26.6231V38.9237C34.7877 39.9415 33.9516 40.7695 32.9239 40.7695C31.8963 40.7695 31.0602 39.9415 31.0602 38.9237V24.7741H35.4105C35.0196 25.2886 34.7876 25.9279 34.7876 26.62ZM39.7576 32.5671H36.0302V26.6198C36.0302 26.6191 36.0301 26.6184 36.0301 26.6177C36.0313 25.601 36.8669 24.7741 37.8938 24.7741C38.9214 24.7741 39.7576 25.6021 39.7576 26.62V32.5671Z" fill="#008CFF"/>
<path d="M23.6059 19.7048C23.6054 19.6925 23.6054 19.6803 23.6041 19.6678L23.604 19.6669C23.604 19.6665 23.604 19.6659 23.6039 19.6654L22.7758 11.4645C22.7759 11.4646 22.7758 11.4643 22.7758 11.4645C22.7695 11.4018 22.7536 11.3414 22.7299 11.2857C22.7254 11.2754 22.7201 11.2656 22.7151 11.2555C22.7112 11.2478 22.7078 11.2397 22.7036 11.2321C22.6965 11.2191 22.6885 11.2067 22.6805 11.1944C22.6778 11.1901 22.6753 11.1856 22.6726 11.1815C22.6645 11.1697 22.6557 11.1587 22.647 11.1477C22.6434 11.1432 22.6402 11.1384 22.6365 11.134C22.6286 11.1245 22.62 11.1156 22.6114 11.1066C22.6062 11.1012 22.6015 11.0953 22.5961 11.0901C22.5887 11.0828 22.5806 11.0761 22.5729 11.0693C22.5659 11.0629 22.5591 11.0563 22.5517 11.0503C22.5451 11.045 22.538 11.0402 22.5312 11.0351C22.5221 11.0283 22.5131 11.0213 22.5037 11.0149C22.4975 11.0108 22.4908 11.0073 22.4845 11.0034C22.4739 10.9969 22.4635 10.9902 22.4525 10.9844C22.4449 10.9803 22.4369 10.977 22.4292 10.9732C22.419 10.9683 22.4091 10.963 22.3986 10.9587C22.383 10.9521 22.3668 10.9465 22.3506 10.9413C22.3478 10.9404 22.3451 10.9392 22.3422 10.9382C22.2836 10.9201 22.2216 10.9105 22.1576 10.9106H20.2939V9.88505C20.2939 8.64113 19.2721 7.62919 18.0161 7.62919C16.7602 7.62919 15.7384 8.64113 15.7384 9.88505V10.9106H13.8747C13.8747 10.9106 13.8746 10.9106 13.8747 10.9106C13.8108 10.9106 13.7485 10.9202 13.69 10.9382C13.6882 10.9388 13.6866 10.9396 13.6847 10.9401C13.6673 10.9456 13.6501 10.9518 13.6334 10.9588C13.6258 10.962 13.6188 10.9657 13.6114 10.9692C13.6007 10.9742 13.5897 10.9789 13.5793 10.9845C13.5714 10.9887 13.5641 10.9936 13.5565 10.998C13.547 11.0037 13.5373 11.009 13.528 11.0152C13.5218 11.0193 13.516 11.0241 13.5101 11.0284C13.4999 11.0357 13.4896 11.0428 13.4799 11.0507C13.4759 11.0539 13.4724 11.0575 13.4685 11.0609C13.4572 11.0706 13.4461 11.0802 13.4356 11.0906C13.4336 11.0925 13.4319 11.0948 13.4299 11.0967C13.4179 11.1089 13.4062 11.1213 13.3953 11.1345C13.3948 11.1349 13.3945 11.1354 13.3942 11.1359C13.3693 11.1658 13.3473 11.198 13.3283 11.2325C13.3277 11.2336 13.3272 11.235 13.3266 11.2361C13.3179 11.2523 13.3096 11.2689 13.3023 11.2861C13.2785 11.3417 13.2628 11.4016 13.2565 11.4642C13.2565 11.464 13.2565 11.4643 13.2565 11.4642L12.4284 19.6655C12.4283 19.666 12.4283 19.6665 12.4282 19.667L12.4282 19.6679C12.4269 19.6803 12.4267 19.6926 12.4263 19.7049C12.426 19.713 12.4251 19.721 12.4251 19.7291C12.4251 19.729 12.4251 19.7293 12.4251 19.7291C12.4251 19.7921 12.4347 19.8537 12.4529 19.9116C12.4557 19.9208 12.4595 19.9294 12.4628 19.9384C12.4663 19.9481 12.4695 19.958 12.4735 19.9675C12.479 19.9806 12.4856 19.993 12.4919 20.0056C12.4945 20.0107 12.4967 20.016 12.4995 20.021C12.5061 20.0331 12.5136 20.0447 12.521 20.0563C12.5242 20.0615 12.5271 20.0668 12.5304 20.0719C12.5372 20.0817 12.5446 20.091 12.5518 20.1004C12.5567 20.1067 12.5611 20.1134 12.5662 20.1194C12.5722 20.1266 12.5788 20.1333 12.5852 20.1403C12.5922 20.1481 12.5991 20.1561 12.6066 20.1636C12.6114 20.1682 12.6165 20.1724 12.6214 20.1769C12.6311 20.186 12.6406 20.1951 12.6509 20.2035C12.6544 20.2064 12.6583 20.2088 12.6618 20.2117C12.6739 20.2211 12.6861 20.2305 12.6988 20.2391C12.7021 20.2412 12.7055 20.2431 12.7089 20.2452C12.7223 20.2538 12.7359 20.2623 12.75 20.27C12.7553 20.2728 12.761 20.2751 12.7663 20.2778C12.7788 20.2841 12.7912 20.2905 12.8041 20.2959C12.8604 20.3194 12.9208 20.3351 12.9842 20.3413C12.984 20.3413 12.9843 20.3413 12.9842 20.3413C13.0052 20.3434 13.0264 20.3445 13.0471 20.3445C13.0475 20.3445 13.0477 20.3444 13.048 20.3444H22.9842C22.9846 20.3444 22.9849 20.3445 22.9851 20.3445C23.0058 20.3445 23.0267 20.3435 23.0477 20.3414C23.0475 20.3414 23.0478 20.3414 23.0477 20.3414C23.111 20.3352 23.1719 20.3195 23.2282 20.2959C23.2409 20.2905 23.2533 20.2841 23.2655 20.278C23.2711 20.2752 23.2769 20.2729 23.2823 20.27C23.2964 20.2623 23.31 20.2539 23.3234 20.2452C23.3267 20.2431 23.3302 20.2412 23.3335 20.2391C23.3463 20.2306 23.3585 20.2211 23.3704 20.2117C23.374 20.2089 23.3778 20.2065 23.3814 20.2035C23.3917 20.1951 23.4012 20.186 23.411 20.1769C23.4159 20.1724 23.4211 20.1682 23.4258 20.1636C23.4332 20.1561 23.44 20.1481 23.4472 20.1403C23.4535 20.1333 23.4601 20.1266 23.466 20.1194C23.4712 20.1133 23.4756 20.1067 23.4805 20.1004C23.4877 20.091 23.4952 20.0817 23.5018 20.0719C23.5052 20.0668 23.508 20.0615 23.5113 20.0563C23.5187 20.0447 23.5263 20.0331 23.5328 20.021C23.5355 20.0162 23.5376 20.011 23.5401 20.0061C23.5466 19.9933 23.5531 19.9806 23.5588 19.9675C23.5626 19.9585 23.5656 19.9491 23.569 19.9398C23.5725 19.9304 23.5764 19.9212 23.5794 19.9116C23.5976 19.8537 23.6072 19.7925 23.6072 19.7294C23.6072 19.7295 23.6072 19.7293 23.6072 19.7294C23.6072 19.7212 23.6063 19.7129 23.6059 19.7048ZM16.9807 9.88497C16.9807 9.31953 17.4451 8.85958 18.0161 8.85958C18.587 8.85958 19.0514 9.31953 19.0514 9.88497V10.9105H16.9807V9.88497ZM13.7327 19.1138L14.4368 12.1409H15.7383V12.3461C15.7383 12.6859 16.0163 12.9613 16.3595 12.9613C16.7027 12.9613 16.9807 12.6858 16.9807 12.3461V12.1409H19.0514V12.3461C19.0514 12.6858 19.3295 12.9613 19.6726 12.9613C20.0158 12.9613 20.2938 12.6858 20.2938 12.3461V12.1409H21.5953L22.2993 19.1138H13.7327Z" fill="#008CFF"/>
<path d="M27.1278 23.461H8.90555C8.56239 23.461 8.28434 23.7365 8.28434 24.0763C8.28434 24.416 8.56239 24.6915 8.90555 24.6915H27.1278C27.4709 24.6915 27.749 24.416 27.749 24.0763C27.749 23.7365 27.4709 23.461 27.1278 23.461Z" fill="#008CFF"/>
<path d="M18.0152 27.5627H8.90401C8.56085 27.5627 8.2828 27.8382 8.2828 28.1779C8.2828 28.5177 8.56085 28.7932 8.90401 28.7932H18.0152C18.3583 28.7932 18.6364 28.5177 18.6364 28.1779C18.6364 27.8382 18.3583 27.5627 18.0152 27.5627Z" fill="#008CFF"/>
<path d="M27.1261 27.5627H25.4696C25.1264 27.5627 24.8484 27.8382 24.8484 28.1779C24.8484 28.5177 25.1264 28.7932 25.4696 28.7932H27.1261C27.4693 28.7932 27.7474 28.5177 27.7474 28.1779C27.7474 27.8382 27.4693 27.5627 27.1261 27.5627Z" fill="#008CFF"/>
<path d="M14.7017 31.6643H8.904C8.56085 31.6643 8.2828 31.9398 8.2828 32.2796C8.2828 32.6193 8.56085 32.8948 8.904 32.8948H14.7017C15.0449 32.8948 15.3229 32.6193 15.3229 32.2796C15.3229 31.9398 15.0449 31.6643 14.7017 31.6643Z" fill="#008CFF"/>
<path d="M27.1261 31.6643H25.4696C25.1264 31.6643 24.8484 31.9398 24.8484 32.2796C24.8484 32.6193 25.1264 32.8948 25.4696 32.8948H27.1261C27.4693 32.8948 27.7474 32.6193 27.7474 32.2796C27.7474 31.9398 27.4693 31.6643 27.1261 31.6643Z" fill="#008CFF"/>
<path d="M19.6719 35.7659H8.90401C8.56085 35.7659 8.2828 36.0414 8.2828 36.3812C8.2828 36.7209 8.56085 36.9964 8.90401 36.9964H19.6719C20.015 36.9964 20.2931 36.7209 20.2931 36.3812C20.2931 36.0414 20.015 35.7659 19.6719 35.7659Z" fill="#008CFF"/>
<path d="M27.1261 35.7659H25.4696C25.1264 35.7659 24.8484 36.0414 24.8484 36.3812C24.8484 36.7209 25.1264 36.9964 25.4696 36.9964H27.1261C27.4693 36.9964 27.7474 36.7209 27.7474 36.3812C27.7474 36.0414 27.4693 35.7659 27.1261 35.7659Z" fill="#008CFF"/>
</svg>
