<svg width="56" height="45" viewBox="0 0 56 45" fill="none" xmlns="http://www.w3.org/2000/svg">
<path d="M42.8439 1.06225L4.38124 10.3835C1.96902 10.9711 0.492866 13.467 1.0909 15.9467L6.83245 39.6383C7.43602 42.1167 9.89099 43.6598 12.3046 43.0779L18.7436 41.5174C19.1256 41.4248 19.358 41.0304 19.2632 40.639C19.1681 40.2467 18.7811 40.0033 18.3991 40.0959L11.9601 41.6564C11.1641 41.8493 10.3343 41.7093 9.62394 41.2644C8.91489 40.8172 8.4142 40.1208 8.216 39.303L4.94336 25.799L49.4014 15.0247L52.6741 28.5287C52.8723 29.3466 52.7467 30.1947 52.3203 30.9171C51.8924 31.6378 51.2188 32.1422 50.4228 32.3351L21.1671 39.4251C20.7852 39.5176 20.5525 39.9112 20.6475 40.3035C20.7424 40.6949 21.1297 40.9391 21.5116 40.8466L50.7673 33.7566C53.1795 33.169 54.6556 30.6732 54.0576 28.1934L48.316 4.50187C47.7125 2.02346 45.2575 0.480338 42.8439 1.06225ZM48.3679 10.7602L37.9913 13.2749C37.6092 13.3675 37.3766 13.7608 37.4718 14.1533C37.5669 14.5458 37.9536 14.789 38.3358 14.6964L48.7124 12.1816L49.0569 13.6032L4.59887 24.3775L3.56529 20.1126L14.8645 17.3743C15.2466 17.2817 15.4791 16.8884 15.384 16.4959C15.2889 16.1034 14.9021 15.8602 14.52 15.9528L3.2208 18.6911L2.87635 17.2698L47.3344 6.49558L48.3679 10.7602ZM46.9899 5.07409L2.53186 15.8483L2.47444 15.6114C2.27625 14.7936 2.40281 13.9462 2.82823 13.2231C3.25678 12.5011 3.92973 11.9979 4.72573 11.805L43.1884 2.48375C43.9835 2.29106 44.8131 2.43014 45.5246 2.87576C46.2344 3.32279 46.7343 4.01934 46.9325 4.83717L46.9899 5.07409Z" fill="#008CFF"/>
<path d="M11.9735 27.6069C10.8292 27.8842 10.13 29.0663 10.4149 30.242C10.6999 31.4177 11.8627 32.1486 13.007 31.8713C14.1513 31.594 14.8505 30.4119 14.5656 29.2361C14.2806 28.0604 13.1178 27.3295 11.9735 27.6069ZM12.6625 30.4498C12.281 30.5423 11.8935 30.2987 11.7985 29.9067C11.7035 29.5148 11.9365 29.1208 12.318 29.0283C12.6995 28.9359 13.087 29.1795 13.182 29.5714C13.277 29.9634 13.044 30.3574 12.6625 30.4498Z" fill="#008CFF"/>
<path d="M18.8857 31.9516C17.7414 32.2289 17.0422 33.4111 17.3271 34.5868C17.612 35.7625 18.7749 36.4934 19.9192 36.2161C21.0635 35.9388 21.7627 34.7567 21.4778 33.5809C21.1928 32.4052 20.03 31.6743 18.8857 31.9516ZM19.5747 34.7946C19.1932 34.8871 18.8056 34.6435 18.7107 34.2515C18.6157 33.8596 18.8487 33.4656 19.2302 33.3731C19.6117 33.2807 19.9992 33.5243 20.0942 33.9162C20.1892 34.3082 19.9562 34.7022 19.5747 34.7946Z" fill="#008CFF"/>
<path d="M19.4309 26.0198C19.0935 25.8077 18.6555 25.9138 18.4525 26.2569L12.2181 36.7977C12.0152 37.1408 12.1243 37.5909 12.4616 37.8029C12.6304 37.909 12.8242 37.9354 13.0013 37.8925C13.1783 37.8496 13.3386 37.7373 13.4401 37.5658L19.6745 27.025C19.8774 26.682 19.7683 26.2319 19.4309 26.0198Z" fill="#008CFF"/>
<path d="M45.8219 21.4103L25.5302 26.3279C25.1481 26.4205 24.9156 26.8138 25.0107 27.2063C25.1058 27.5988 25.4926 27.842 25.8747 27.7494L46.1664 22.8318C46.5485 22.7391 46.781 22.3459 46.6859 21.9534C46.5908 21.5608 46.204 21.3177 45.8219 21.4103Z" fill="#008CFF"/>
<path d="M36.5947 27.6598L26.4489 30.1186C26.0667 30.2112 25.8342 30.6045 25.9294 30.997C26.0245 31.3895 26.4112 31.6327 26.7934 31.5401L36.9392 29.0813C37.3214 28.9887 37.5539 28.5954 37.4587 28.2029C37.3636 27.8104 36.9769 27.5672 36.5947 27.6598Z" fill="#008CFF"/>
</svg>
