<svg width="46" height="41" viewBox="0 0 46 41" fill="none" xmlns="http://www.w3.org/2000/svg">
<path d="M24.9319 33.8755C24.6423 33.0796 23.8788 32.5451 23.0323 32.5451C22.7966 32.5451 22.5641 32.5862 22.3411 32.6673C21.2938 33.0486 20.7519 34.2109 21.133 35.2582C21.4226 36.054 22.1861 36.5886 23.0326 36.5886C23.2684 36.5886 23.5009 36.5474 23.7238 36.4664C24.7712 36.0852 25.3131 34.9229 24.9319 33.8755ZM23.263 35.2C23.1883 35.2272 23.1108 35.241 23.0327 35.241C22.7504 35.241 22.4959 35.0627 22.3993 34.7974C22.2723 34.4482 22.4529 34.0607 22.802 33.9337C22.8766 33.9065 22.9542 33.8927 23.0323 33.8927C23.3144 33.8927 23.569 34.071 23.6656 34.3365C23.7927 34.6855 23.6121 35.0729 23.263 35.2Z" fill="#008CFF"/>
<path d="M45.9591 27.662L45.0372 25.1293C44.9741 24.956 44.8472 24.8246 44.6929 24.7513C44.6915 24.7506 44.6902 24.7498 44.6888 24.7492C44.6788 24.7444 44.6683 24.7407 44.6579 24.7365C44.6482 24.7326 44.6387 24.7281 44.6288 24.7246C44.6265 24.7237 44.624 24.7231 44.6215 24.7224C44.4811 24.6743 44.324 24.6717 44.1737 24.7265L41.9703 25.5279L37.2831 12.649C37.283 12.6487 37.2827 12.6484 37.2826 12.6481L35.4396 7.58383C35.3425 7.31879 35.0883 7.14081 34.8062 7.14081C34.728 7.14081 34.6498 7.15429 34.5762 7.18124C34.2267 7.30792 34.0461 7.69604 34.1728 8.04464L35.7864 12.4768L27.1332 15.6261C27.1334 15.6261 27.1331 15.6261 27.1332 15.6261C27.1329 15.6262 27.1323 15.6265 27.132 15.6265L21.8566 17.5465L18.3225 7.83844L22.9663 6.14849L23.965 8.89177C24.0611 9.15681 24.3154 9.33568 24.5975 9.33568C24.6765 9.33568 24.7538 9.32221 24.8284 9.29426L28.2055 8.06521C28.3744 8.00412 28.5091 7.88013 28.5855 7.71752C28.6419 7.59659 28.6604 7.46479 28.6416 7.33604C28.6415 7.33532 28.6415 7.3346 28.6414 7.33398C28.6388 7.31646 28.635 7.29885 28.631 7.28151C28.6298 7.27657 28.6292 7.27189 28.628 7.26695C28.6225 7.24512 28.6159 7.22347 28.6081 7.20191L27.6097 4.45854L32.2525 2.76886L33.251 5.51187C33.348 5.7769 33.6023 5.95569 33.8844 5.95569C33.9625 5.95569 34.0407 5.94221 34.1153 5.91436C34.4639 5.78768 34.6444 5.40037 34.5178 5.05097L33.2887 1.67385C33.2038 1.44197 32.9986 1.27675 32.7595 1.23901C32.7254 1.23362 32.6905 1.23084 32.6553 1.23084C32.5772 1.23084 32.499 1.24431 32.4253 1.27127L26.5187 3.4213C26.5177 3.42166 26.5166 3.42175 26.5156 3.42211C26.5138 3.42274 26.5122 3.42364 26.5104 3.42427L23.1444 4.64955C23.1424 4.65027 23.1405 4.65045 23.1385 4.65117C23.1352 4.65242 23.132 4.65404 23.1287 4.6553L17.2288 6.80282C17.0599 6.86392 16.9251 6.9879 16.8487 7.15052C16.7724 7.31403 16.7643 7.49722 16.8263 7.66622L24.6616 29.1951C24.1747 29.0463 23.6634 28.9627 23.1398 28.9526L13.4089 2.21687C12.7735 0.471301 10.8365 -0.431893 9.09079 0.203299C9.09106 0.203209 9.09052 0.203389 9.09079 0.203299L0.444993 3.32158C0.445172 3.32149 0.444903 3.32167 0.444993 3.32158C0.444543 3.32176 0.443645 3.32203 0.443106 3.32221C0.427563 3.32787 0.412829 3.3346 0.398005 3.34125C0.392344 3.34377 0.386415 3.34583 0.380845 3.34853C0.36629 3.35545 0.352454 3.36353 0.338618 3.37144C0.332958 3.37468 0.326939 3.37746 0.321368 3.38096C0.308071 3.38905 0.295673 3.39803 0.283095 3.40693C0.277525 3.41088 0.271595 3.41448 0.266205 3.41852C0.254525 3.42741 0.243654 3.43703 0.232603 3.44664C0.227033 3.45158 0.221013 3.45598 0.215623 3.46101C0.205201 3.47054 0.195678 3.48105 0.185975 3.4912C0.180674 3.49686 0.175014 3.50198 0.169893 3.50773C0.160729 3.51806 0.152373 3.52912 0.143838 3.53999C0.138987 3.5461 0.133686 3.55203 0.129104 3.5584C0.121377 3.56901 0.114549 3.58015 0.107452 3.5912C0.10287 3.59838 0.0978383 3.60521 0.0935259 3.61249C0.0870572 3.62345 0.0814869 3.63495 0.0756471 3.64627C0.0716041 3.65409 0.067112 3.66172 0.0633385 3.66972C0.0581276 3.68086 0.053905 3.69236 0.0492332 3.70377C0.0457293 3.71249 0.0417762 3.72075 0.0387215 3.72956C0.0347684 3.7407 0.0317137 3.7522 0.0283895 3.76352C0.0256044 3.77286 0.02237 3.78211 0.0199443 3.79164C0.0171591 3.80278 0.0152724 3.81428 0.0130263 3.8256C0.0110498 3.83548 0.00862402 3.84536 0.00709668 3.85534C0.00529982 3.86684 0.00467092 3.87852 0.00350295 3.89011C0.00251468 3.90017 0.000987343 3.91023 0.000448284 3.92038C-0.000180619 3.93224 0.000268597 3.9441 0.000268597 3.95596C0.000268597 3.96611 -0.000270462 3.97626 0.000178754 3.98642C0.000717813 3.99846 0.00242483 4.01058 0.0035928 4.02262C0.00458107 4.0326 0.00512013 4.04266 0.00655762 4.05272C0.00835449 4.06467 0.0112295 4.07662 0.0136552 4.08857C0.0157216 4.09872 0.017249 4.10896 0.0197646 4.11912C0.0227294 4.13106 0.026952 4.14283 0.0306356 4.15469C0.0336903 4.16449 0.036116 4.17446 0.0396199 4.18425C0.0395301 4.18407 0.0397098 4.18443 0.0396199 4.18425C0.0397098 4.1847 0.0400692 4.18569 0.0402488 4.18614L0.96213 6.71882C0.969048 6.73787 0.978571 6.75521 0.986927 6.77326C0.993485 6.78728 0.998786 6.80219 1.00624 6.81558C1.01675 6.83454 1.02942 6.85143 1.04155 6.86913C1.04919 6.88018 1.05566 6.89231 1.06392 6.90282C1.07839 6.92142 1.09492 6.93795 1.11109 6.95466C1.11864 6.96247 1.12529 6.97137 1.13319 6.97883C1.15143 6.99599 1.17146 7.0109 1.19132 7.02581C1.19851 7.03129 1.20498 7.03767 1.21234 7.0427C1.23382 7.05753 1.25682 7.07002 1.27982 7.08214C1.28664 7.08574 1.29293 7.09041 1.29985 7.09382C1.32339 7.10532 1.3481 7.11422 1.3728 7.12284C1.37999 7.12536 1.38673 7.12895 1.39401 7.13129C1.41934 7.13929 1.4454 7.14441 1.47163 7.14944C1.47882 7.15078 1.48583 7.1533 1.4931 7.15438C1.52671 7.15968 1.56094 7.16229 1.59544 7.16229C1.61448 7.16229 1.63362 7.16139 1.65284 7.15986C1.6568 7.1595 1.66066 7.15869 1.66461 7.15833C1.67989 7.15671 1.69507 7.15501 1.71034 7.1524C1.71735 7.15114 1.72436 7.14926 1.73137 7.14782C1.7435 7.1453 1.75563 7.14297 1.76766 7.13973C1.78051 7.13641 1.79318 7.13201 1.80594 7.12779C1.81196 7.1259 1.81798 7.12428 1.82391 7.12212C1.82427 7.12203 1.82534 7.12159 1.8257 7.1215C1.82543 7.12159 1.82597 7.12141 1.8257 7.1215L9.83936 4.23106L19.3414 30.3371C17.6465 31.8197 16.9406 34.2476 17.7559 36.4875C18.5605 38.6981 20.6811 40.1834 23.0327 40.1834C23.687 40.1834 24.333 40.0691 24.9528 39.8435C26.3622 39.3305 27.4874 38.2995 28.1213 36.9402C28.4582 36.2176 28.6331 35.4484 28.6477 34.6745L45.5563 28.5257C45.5608 28.5241 45.5652 28.5219 45.5696 28.5202C45.5867 28.5135 45.6037 28.5068 45.62 28.4989C45.6269 28.4956 45.6333 28.4915 45.6401 28.4879C45.6534 28.481 45.6667 28.4743 45.6794 28.4665C45.6865 28.462 45.6932 28.4568 45.7002 28.4523C45.7117 28.4445 45.7235 28.4371 45.7344 28.4288C45.7379 28.4261 45.741 28.4231 45.7444 28.4204C45.7582 28.4093 45.772 28.3983 45.7848 28.3863C45.787 28.384 45.789 28.3817 45.7911 28.3797C45.8047 28.3665 45.818 28.3533 45.8305 28.3393C45.833 28.3365 45.8351 28.3334 45.8376 28.3305C45.8492 28.3169 45.8607 28.303 45.8712 28.2886C45.8723 28.287 45.8732 28.2853 45.8743 28.2837C45.8857 28.2676 45.8967 28.2513 45.9067 28.2343C45.9085 28.2312 45.9099 28.2279 45.9117 28.2248C45.9206 28.2091 45.9291 28.1934 45.9368 28.1772C45.9397 28.1708 45.9421 28.164 45.9447 28.1576C45.9505 28.1443 45.9563 28.131 45.9613 28.1173C45.9646 28.1079 45.967 28.0982 45.9699 28.0887C45.9733 28.0776 45.9772 28.0666 45.98 28.0554C45.9841 28.0388 45.9872 28.0219 45.99 28.005C45.9907 28.0005 45.992 27.9962 45.9926 27.9918C46.0087 27.8844 45.9989 27.7713 45.9591 27.662ZM26.3436 4.91944L27.1113 7.02986L25.0007 7.79802L24.2325 5.68769L26.3436 4.91944ZM30.338 15.8941L31.1062 18.0044L28.995 18.7727L28.227 16.6624L30.338 15.8941ZM22.3179 18.8129L26.9609 17.1232L27.9596 19.8665C28.0557 20.1315 28.31 20.3102 28.593 20.3102C28.6711 20.3102 28.7484 20.2959 28.823 20.2689L32.2001 19.0398C32.5496 18.9132 32.7302 18.5259 32.6026 18.1764L31.604 15.4333L36.2477 13.7433L40.7044 25.9878L27.2603 30.8768C27.0079 30.5885 26.728 30.3267 26.4243 30.0964L22.3179 18.8129ZM10.8762 3.13857C10.8722 3.12779 10.8673 3.11763 10.8629 3.10703C10.8585 3.0967 10.8545 3.08601 10.8496 3.07586C10.8452 3.0666 10.84 3.05816 10.8353 3.04926C10.8293 3.03821 10.8237 3.02689 10.8172 3.01629C10.8127 3.00901 10.8076 3.00236 10.8028 2.99527C10.7952 2.98377 10.7878 2.97209 10.7795 2.96122C10.7752 2.95547 10.7702 2.95035 10.7657 2.94469C10.7564 2.9331 10.7471 2.92151 10.737 2.91063C10.7329 2.90623 10.7284 2.90228 10.7241 2.89797C10.713 2.88665 10.7019 2.87533 10.6901 2.86481C10.6867 2.86185 10.683 2.85924 10.6796 2.85637C10.6665 2.84514 10.6532 2.83409 10.6392 2.82403C10.6373 2.82259 10.6351 2.82151 10.6331 2.81998C10.6175 2.80884 10.6015 2.79824 10.585 2.78845C10.5837 2.78773 10.5824 2.7871 10.5811 2.78647C10.4891 2.73301 10.3849 2.70148 10.2771 2.69582C10.2761 2.69582 10.2752 2.69591 10.2742 2.69582C10.2534 2.69483 10.2324 2.69474 10.2113 2.69573C10.2074 2.69591 10.2036 2.69663 10.1997 2.6969C10.1816 2.69807 10.1634 2.6995 10.1453 2.7022C10.1366 2.70355 10.1279 2.7057 10.1192 2.70741C10.1059 2.70983 10.0925 2.71208 10.0792 2.71541C10.0641 2.71918 10.0491 2.7243 10.0341 2.72906C10.0275 2.73122 10.0208 2.73283 10.0141 2.73517C10.0138 2.73526 10.0126 2.73571 10.0122 2.7358C10.0125 2.73571 10.0119 2.73589 10.0122 2.7358L1.99856 5.62624L1.53758 4.35981L9.54944 1.47009C9.54926 1.47009 9.54962 1.47 9.54944 1.47009C9.54989 1.46991 9.55078 1.46964 9.55132 1.46946C10.5989 1.08825 11.761 1.63019 12.1422 2.67767L21.7585 29.0985C21.5402 29.1495 21.3241 29.2129 21.1113 29.2904C20.8968 29.3685 20.6911 29.4597 20.4923 29.5603L10.8762 3.13857ZM26.8997 36.3704C26.418 37.4035 25.5628 38.1871 24.4917 38.577C24.02 38.7486 23.529 38.8357 23.0326 38.8357C21.2453 38.8357 19.6336 37.7067 19.0221 36.0264C18.2173 33.8154 19.3615 31.3616 21.5726 30.5567C22.0443 30.3851 22.5352 30.298 23.0318 30.298C24.8189 30.298 26.4307 31.427 27.0422 33.1074C27.4321 34.1785 27.3815 35.3374 26.8997 36.3704ZM28.5002 33.294C28.4489 33.0762 28.3862 32.8601 28.3085 32.6466C28.2309 32.4332 28.1406 32.2267 28.0394 32.0275L44.0012 26.2231L44.4622 27.4895L28.5002 33.294Z" fill="#008CFF"/>
</svg>
