<svg width="46" height="42" viewBox="0 0 46 42" fill="none" xmlns="http://www.w3.org/2000/svg">
<path d="M43.9786 17.5377H43.3051V8.07582C43.3051 5.65811 41.3907 3.69114 39.0376 3.69114H20.5317L8.04675 0.0261737C8.04316 0.0251583 8.03947 0.0246043 8.03588 0.0235889C8.0322 0.0225735 8.02869 0.0210967 8.02501 0.0201737C8.01746 0.0182352 8.01 0.0173122 8.00255 0.0156506C7.99096 0.0131583 7.97937 0.0105737 7.96778 0.00863527C7.95727 0.00688144 7.94693 0.00577374 7.93642 0.00448144C7.9242 0.00300453 7.91207 0.00171222 7.89995 0.00097376C7.89006 0.000419917 7.88027 0.000327538 7.87039 0.000142924C7.85781 -4.16906e-05 7.84532 -0.000133974 7.83283 0.000419869C7.82358 0.000789098 7.81432 0.00171211 7.80516 0.00245057C7.79231 0.00355825 7.77947 0.00475838 7.7668 0.00669683C7.75817 0.00798913 7.74964 0.00965064 7.7411 0.0112199C7.72799 0.0136198 7.71505 0.0162043 7.7022 0.0194351C7.6942 0.0214658 7.68639 0.0237736 7.67848 0.0260813C7.66536 0.0299582 7.65243 0.0339274 7.63949 0.0385427C7.63221 0.0412196 7.62502 0.0440813 7.61775 0.0470351C7.60472 0.0522043 7.59178 0.0576503 7.57911 0.0636502C7.57238 0.066881 7.56582 0.0703887 7.55917 0.0738041C7.5465 0.0803579 7.53401 0.0870041 7.52179 0.094481C7.51542 0.0982656 7.50931 0.102327 7.50302 0.106389C7.49098 0.114142 7.47912 0.122081 7.46762 0.130665C7.4616 0.135096 7.45576 0.139896 7.44983 0.144604C7.43878 0.153373 7.42782 0.162327 7.41731 0.171834C7.41138 0.177188 7.40572 0.182819 7.39997 0.188357C7.39008 0.197957 7.38029 0.207557 7.37095 0.217711C7.36511 0.22408 7.35963 0.230726 7.35397 0.237372C7.34543 0.247434 7.33699 0.257588 7.32899 0.268203C7.32324 0.275865 7.31785 0.283711 7.31237 0.291557C7.30527 0.301803 7.29826 0.312141 7.29179 0.322757C7.28622 0.331803 7.2811 0.341218 7.27598 0.350541C7.27032 0.360787 7.26466 0.371125 7.25954 0.381741C7.25451 0.392079 7.25002 0.402695 7.24544 0.41331C7.24094 0.423741 7.23654 0.434171 7.23259 0.444879C7.22845 0.45614 7.22486 0.467679 7.22118 0.47931C7.21884 0.486787 7.21597 0.493802 7.21381 0.501371C7.21273 0.505155 7.21228 0.508848 7.21129 0.51254C7.21031 0.516325 7.20887 0.519925 7.20797 0.523709L6.43747 3.69095H4.26802C1.9196 3.69095 0.0084453 5.64999 0.000718749 8.06105C0.000628905 8.06604 0 8.07074 0 8.07564V32.0755C0 32.4577 0.302773 32.7678 0.673827 32.7678C1.04578 32.7678 1.34765 32.4577 1.34765 32.0755V11.2688C2.11168 12.0069 3.13896 12.4605 4.26802 12.4605H39.0376C39.0384 12.4605 39.0391 12.4604 39.0399 12.4604C40.6488 12.4617 41.9575 13.807 41.9575 15.4605V20.307H34.5443C34.5439 20.307 34.5435 20.3071 34.5431 20.3071C34.5236 20.3071 34.5042 20.3083 34.4848 20.31C34.4634 20.312 34.4422 20.3151 34.4213 20.3191C34.4182 20.3196 34.4151 20.3199 34.412 20.3206C34.3944 20.3242 34.3771 20.329 34.36 20.3339C34.3562 20.335 34.3523 20.3358 34.3486 20.337C34.3334 20.3418 34.3185 20.3475 34.3037 20.3533C34.2981 20.3555 34.2923 20.3574 34.2866 20.3598C34.2742 20.365 34.2623 20.3712 34.2503 20.3772C34.2424 20.3811 34.2344 20.3847 34.2267 20.3889C34.2174 20.3939 34.2086 20.3998 34.1996 20.4053C34.1896 20.4114 34.1795 20.4173 34.1698 20.4239C34.1632 20.4284 34.1572 20.4334 34.1509 20.4382C34.1394 20.4466 34.1278 20.455 34.1168 20.4644C34.1121 20.4684 34.1077 20.473 34.1031 20.4771C34.0913 20.4876 34.0796 20.4981 34.0684 20.5095C34.0619 20.5162 34.0559 20.5236 34.0497 20.5306C34.041 20.5403 34.032 20.5498 34.0238 20.5602C34.0098 20.5776 33.9968 20.5957 33.9846 20.6145C33.9843 20.6147 33.9841 20.6151 33.9839 20.6155L30.3903 26.154C30.3652 26.1926 30.344 26.2335 30.3272 26.276C30.3209 26.2919 30.3157 26.3081 30.3106 26.3241C30.3091 26.329 30.3071 26.3337 30.3057 26.3386C30.3006 26.3557 30.2968 26.3729 30.2931 26.3901C30.2921 26.3946 30.2909 26.3991 30.29 26.4036C30.287 26.4191 30.285 26.4347 30.2831 26.4503C30.2823 26.4569 30.2811 26.4636 30.2804 26.4703C30.2792 26.4832 30.2789 26.4959 30.2785 26.5087C30.278 26.5185 30.2772 26.5283 30.2772 26.5382C30.2772 26.5477 30.278 26.5572 30.2784 26.5667C30.2788 26.5798 30.2792 26.593 30.2804 26.6061C30.2811 26.6125 30.2822 26.6189 30.283 26.6252C30.285 26.6411 30.287 26.657 30.29 26.6728C30.2909 26.6771 30.2921 26.6813 30.2931 26.6857C30.2968 26.703 30.3007 26.7204 30.3058 26.7377C30.3072 26.7425 30.3092 26.7473 30.3107 26.7522C30.3158 26.7683 30.321 26.7845 30.3273 26.8003C30.3442 26.8428 30.3654 26.8838 30.3906 26.9225L33.9841 32.4601C33.9842 32.4604 33.9844 32.4606 33.9846 32.4609C33.9991 32.4829 34.0149 32.504 34.0316 32.5242C34.0371 32.5309 34.0429 32.537 34.0486 32.5433C34.06 32.5561 34.0718 32.5685 34.0841 32.5804C34.0914 32.5874 34.0986 32.5943 34.106 32.6008C34.1191 32.6124 34.1327 32.6232 34.1466 32.6337C34.1529 32.6384 34.1589 32.6436 34.1653 32.648C34.1855 32.6621 34.2064 32.6751 34.2281 32.6869C34.2335 32.6899 34.2392 32.6924 34.2447 32.6952C34.2619 32.704 34.2795 32.7122 34.2976 32.7195C34.3046 32.7224 34.3116 32.725 34.3187 32.7276C34.3359 32.7338 34.3533 32.7394 34.3711 32.7443C34.3784 32.7462 34.3856 32.7482 34.3929 32.7501C34.4112 32.7544 34.4297 32.7577 34.4485 32.7605C34.4553 32.7615 34.462 32.7629 34.4688 32.7637C34.492 32.7664 34.5156 32.7679 34.5395 32.7681C34.5414 32.7681 34.5432 32.7685 34.5452 32.7685C34.5456 32.7685 34.546 32.7684 34.5465 32.7684H41.9578V37.6152C41.9578 39.2696 40.6478 40.6154 39.0378 40.6154H4.26838C2.65838 40.6154 1.34846 39.2696 1.34846 37.6152C1.34846 37.6116 1.34801 37.6081 1.34792 37.6045V34.8451C1.34792 34.4639 1.04605 34.1528 0.674096 34.1528C0.303042 34.1528 0.000269531 34.4639 0.000269531 34.8451V37.6152C0.000269531 37.6224 0.00107812 37.6294 0.00134765 37.6365C0.0125781 40.0445 1.9222 42 4.26838 42H39.0378C41.3908 42 43.3051 40.0334 43.3054 37.616C43.3054 37.6159 43.3054 37.6158 43.3054 37.6156V32.7684H43.9789C45.0933 32.7684 46 31.8368 46 30.6918V19.6142C45.9997 18.4692 45.093 17.5377 43.9786 17.5377ZM8.34647 1.55413L20.2363 5.04455C20.2368 5.04473 20.2374 5.04482 20.238 5.04501L28.2068 7.38426H6.9282L8.34647 1.55413ZM41.9574 12.2671C41.1935 11.5292 40.1664 11.0757 39.0376 11.0757C39.0364 11.0757 39.0353 11.0759 39.0341 11.0759H4.26802C2.65793 11.0759 1.34801 9.73006 1.34801 8.07582C1.34801 6.42158 2.65793 5.07575 4.26802 5.07575H6.10065L5.53913 7.38426H4.2682C3.89607 7.38426 3.59437 7.69422 3.59437 8.07656C3.59437 8.4589 3.89607 8.76886 4.2682 8.76886H6.06291C6.06381 8.76886 6.0648 8.76905 6.06579 8.76905C6.06651 8.76905 6.06723 8.76886 6.06786 8.76886H33.0156C33.0165 8.76886 33.0173 8.76905 33.0181 8.76905C33.0189 8.76905 33.0196 8.76886 33.0203 8.76886H38.1383C38.5105 8.76886 38.8122 8.4589 38.8122 8.07656C38.8122 7.69422 38.5105 7.38426 38.1383 7.38426H33.1122L25.2483 5.07575H39.0375C40.6475 5.07575 41.9574 6.42158 41.9574 8.07582V12.2671ZM44.6521 30.6914C44.6521 31.073 44.3499 31.3834 43.9786 31.3834H34.9049L31.7605 26.5378L34.9049 21.6915H43.9786C43.988 21.6915 43.9972 21.6904 44.0066 21.69C44.2326 21.6868 44.4497 21.6454 44.6521 21.5718V30.6914ZM43.9786 20.3062C43.9739 20.3062 43.9694 20.3068 43.9647 20.3069H43.3051V18.9223H43.9786C44.3499 18.9223 44.6521 19.2327 44.6521 19.6142C44.6521 19.9957 44.3499 20.3062 43.9786 20.3062Z" fill="#008CFF"/>
<path d="M37.2401 23.9993C35.8777 23.9993 34.7694 25.1381 34.7694 26.5378C34.7694 27.9376 35.8777 29.0763 37.2401 29.0763C38.6025 29.0763 39.7108 27.9376 39.7108 26.5378C39.7108 25.1381 38.6025 23.9993 37.2401 23.9993ZM37.2401 27.6916C36.6208 27.6916 36.117 27.1741 36.117 26.5378C36.117 25.9015 36.6208 25.3839 37.2401 25.3839C37.8594 25.3839 38.3631 25.9015 38.3631 26.5378C38.3631 27.1741 37.8594 27.6916 37.2401 27.6916Z" fill="#008CFF"/>
</svg>
