<svg width="50" height="42" viewBox="0 0 50 42" fill="none" xmlns="http://www.w3.org/2000/svg">
<path d="M11.0457 32.5055C9.32797 32.5055 7.93042 33.8898 7.93042 35.5915C7.93042 37.2933 9.32797 38.6776 11.0457 38.6776C12.7634 38.6776 14.1609 37.2933 14.1609 35.5915C14.1609 33.8899 12.7634 32.5055 11.0457 32.5055ZM11.0457 36.9943C10.2648 36.9943 9.62964 36.3651 9.62964 35.5915C9.62964 34.818 10.2648 34.1888 11.0457 34.1888C11.8265 34.1888 12.4617 34.818 12.4617 35.5915C12.4617 36.3651 11.8264 36.9943 11.0457 36.9943Z" fill="#008CFF"/>
<path d="M37.4954 32.5055C35.7777 32.5055 34.3801 33.8898 34.3801 35.5915C34.3801 37.2933 35.7777 38.6776 37.4954 38.6776C39.2131 38.6776 40.6106 37.2933 40.6106 35.5915C40.6106 33.8899 39.2131 32.5055 37.4954 32.5055ZM37.4954 36.9943C36.7145 36.9943 36.0794 36.3651 36.0794 35.5915C36.0794 34.818 36.7145 34.1888 37.4954 34.1888C38.2762 34.1888 38.9114 34.818 38.9114 35.5915C38.9114 36.3651 38.2762 36.9943 37.4954 36.9943Z" fill="#008CFF"/>
<path fill-rule="evenodd" clip-rule="evenodd" d="M38.6285 13.4281H34.0772V0.914485C34.0792 0.891817 34.0795 0.869485 34.0797 0.847153L34.0799 0.841542C34.0799 0.500953 33.8725 0.199865 33.5676 0.0693527L33.5599 0.0657619C33.541 0.0579065 33.5214 0.0511729 33.5017 0.0446641C33.4943 0.0423074 33.4873 0.0393896 33.4799 0.0371451C33.4656 0.0328523 33.451 0.0293588 33.4363 0.0258745L33.4309 0.0245765C33.4193 0.0218832 33.4082 0.018629 33.3966 0.0163846C33.3822 0.0135791 33.3672 0.0117838 33.3525 0.00965166C33.3387 0.00763169 33.3251 0.00527471 33.3111 0.00404029L33.3042 0.00314216C33.2893 0.00179551 33.2746 0.00202002 33.2597 0.00145892C33.2498 0.00112226 33.24 0 33.23 0H33.2194H33.2168H17.8427C17.3737 0 16.993 0.377061 16.993 0.841654C16.993 1.30512 17.3737 1.68331 17.8427 1.68331H32.304L32.3044 21.2238L32.304 21.2282L32.1861 25.772H1.78566L2.01997 1.68331H14.4442C14.9121 1.68331 15.2938 1.30512 15.2938 0.841654C15.2938 0.377061 14.9121 0 14.4442 0H1.24886L1.24761 0.000112159C0.84852 -6.16419e-08 0.502331 0.278308 0.418615 0.664122C0.418049 0.666928 0.41703 0.66962 0.416464 0.672426C0.412159 0.693411 0.409327 0.714845 0.406495 0.736392C0.405702 0.743237 0.404229 0.749746 0.403549 0.756591L0.402983 0.760519L0.00475788 35.5043L0.00441837 35.5074L0.00407887 35.5106C0.00294605 35.5223 0.00305911 35.5337 0.00237942 35.5454C0.00158645 35.5609 0 35.576 0 35.5918L0.000113487 35.5939C0.000113487 35.6155 0.00170042 35.6369 0.00328636 35.6582C0.00396605 35.665 0.00373889 35.672 0.00453186 35.6787C0.00679749 35.7005 0.0105358 35.7219 0.0145006 35.7433C0.0156334 35.7495 0.0162004 35.7559 0.0174465 35.7621C0.0207317 35.7783 0.0253755 35.7939 0.0296803 35.8097C0.0326256 35.8208 0.0350051 35.8321 0.0384035 35.843C0.039423 35.8461 0.0407817 35.849 0.041688 35.8521C0.0828092 35.9773 0.152591 36.0898 0.24367 36.1816C0.245369 36.1833 0.246728 36.1852 0.248427 36.1867C0.25749 36.1957 0.267345 36.2038 0.27686 36.2123C0.335427 36.2655 0.401584 36.3106 0.473971 36.346C0.489038 36.3534 0.503878 36.3611 0.519284 36.3675C0.523929 36.3696 0.528913 36.3709 0.53367 36.3727C0.554967 36.3811 0.576379 36.3892 0.598469 36.396C0.600508 36.3966 0.602432 36.3969 0.604471 36.3976C0.62962 36.405 0.654995 36.4115 0.680937 36.4168C0.684335 36.4175 0.687847 36.4177 0.691133 36.4184C0.715828 36.423 0.740636 36.4269 0.765898 36.4294L0.767484 36.4296C0.795351 36.4323 0.822993 36.4336 0.850407 36.4336L0.851653 36.4335H4.6339C5.05157 39.5704 7.76637 42 11.0453 42C14.324 42 17.0388 39.5704 17.4565 36.4335H31.0842C31.5019 39.5704 34.2166 42 37.4955 42C40.7742 42 43.4892 39.5704 43.907 36.4335H47.6901L47.6919 36.4336C47.7203 36.4336 47.7481 36.4319 47.7758 36.4293C47.7808 36.4288 47.7855 36.4278 47.7905 36.4272C47.8126 36.4247 47.8346 36.4216 47.8561 36.4174C47.8654 36.4156 47.8743 36.4131 47.8835 36.411C47.9001 36.4072 47.9169 36.4031 47.9332 36.3983C47.9423 36.3956 47.9511 36.3926 47.96 36.3896L47.966 36.3875C47.9799 36.3828 47.9938 36.3779 48.0075 36.3724C48.0193 36.3678 48.0305 36.3627 48.042 36.3577C48.0544 36.3519 48.0669 36.3461 48.079 36.3399C48.0906 36.3341 48.1017 36.328 48.1128 36.3218C48.1244 36.315 48.136 36.3081 48.1474 36.3009C48.1581 36.2941 48.1687 36.2873 48.1789 36.2801C48.1897 36.2727 48.2001 36.2648 48.2105 36.2568L48.2127 36.2552C48.222 36.2479 48.2314 36.2407 48.2404 36.2331C48.2521 36.2233 48.2631 36.2131 48.2742 36.2027C48.2819 36.1954 48.2899 36.1882 48.2974 36.1806C48.3092 36.1687 48.3204 36.1561 48.3316 36.1434C48.3376 36.1366 48.3439 36.13 48.3496 36.123C48.3621 36.1077 48.3734 36.092 48.3848 36.0762C48.3886 36.0707 48.3929 36.0656 48.3967 36.0599C48.4105 36.0394 48.4235 36.0183 48.4355 35.9965L48.4379 35.9925C48.4507 35.9692 48.4625 35.9452 48.473 35.9206C48.476 35.9135 48.4782 35.9062 48.481 35.8991C48.488 35.8817 48.4948 35.8643 48.5005 35.8463C48.5043 35.8346 48.507 35.8226 48.5103 35.8108C48.514 35.7968 48.518 35.7829 48.5212 35.7686C48.524 35.7559 48.5258 35.7429 48.528 35.73C48.5299 35.7187 48.5324 35.7076 48.5338 35.696C48.5699 35.4101 49.2352 30.1224 49.5323 26.7032L49.5331 26.6933C49.6186 25.7077 49.6735 24.8777 49.6735 24.3696C49.6735 18.3365 44.7187 13.4281 38.6285 13.4281ZM38.3047 15.1116H34.0772V20.1611H37.8608L38.3047 15.1116ZM6.27581 35.5916C6.27581 38.197 8.41547 40.3166 11.0455 40.3166C13.6755 40.3166 15.8151 38.197 15.8151 35.5916C15.8151 32.9863 13.6755 30.8667 11.0455 30.8667C8.41558 30.8667 6.27581 32.9863 6.27581 35.5916ZM32.726 35.5916C32.726 38.197 34.8655 40.3166 37.4955 40.3166C40.1255 40.3166 42.2652 38.197 42.2652 35.5916C42.2652 32.9863 40.1255 30.8667 37.4955 30.8667C34.8656 30.8667 32.726 32.9863 32.726 35.5916ZM43.9072 34.7497H46.9394C47.1182 33.2944 47.5177 29.9709 47.7649 27.3819C45.8187 27.0642 44.6738 25.7619 43.6482 24.5947C42.4054 23.1801 41.2314 21.844 38.6283 21.844H34.0772L33.8114 26.6863C33.8113 26.6883 33.8108 26.6902 33.8106 26.6922C33.8093 26.7064 33.8069 26.72 33.8048 26.734C33.8028 26.7474 33.8012 26.7609 33.7986 26.7741C33.796 26.7877 33.7924 26.801 33.7891 26.8143C33.7857 26.8276 33.7826 26.8409 33.7789 26.8539C33.7752 26.8663 33.7707 26.8783 33.7666 26.8903C33.7617 26.9039 33.757 26.9174 33.7515 26.9307C33.747 26.9419 33.7419 26.9526 33.7369 26.9635C33.7304 26.977 33.7243 26.9905 33.7172 27.0037C33.7126 27.0127 33.7074 27.0214 33.7023 27.0301L33.7003 27.0336C33.6927 27.0468 33.6848 27.0599 33.6765 27.0725C33.6702 27.082 33.6637 27.0912 33.657 27.1004C33.6482 27.1126 33.6392 27.1247 33.6298 27.1365C33.6226 27.1455 33.6151 27.1542 33.6075 27.163C33.5978 27.1741 33.5879 27.185 33.5777 27.1955C33.5693 27.2042 33.5607 27.2126 33.5521 27.2208C33.5419 27.2305 33.5314 27.24 33.5206 27.2492C33.5111 27.2574 33.5015 27.2653 33.4917 27.2731C33.4809 27.2815 33.47 27.2896 33.4588 27.2974C33.4482 27.3048 33.4378 27.3122 33.4268 27.3193C33.4155 27.3265 33.4039 27.3333 33.3923 27.3401L33.3887 27.3421C33.3784 27.3479 33.3683 27.3537 33.3579 27.3591C33.3458 27.3654 33.3333 27.3711 33.3207 27.3769L33.3184 27.3779C33.3076 27.383 33.2969 27.388 33.2858 27.3925C33.272 27.3981 33.2577 27.4029 33.2434 27.4078C33.2324 27.4117 33.2217 27.4157 33.2103 27.4191C33.1938 27.424 33.1768 27.4279 33.1598 27.432C33.1505 27.4342 33.1414 27.4368 33.132 27.4387C33.1102 27.443 33.0881 27.4461 33.0659 27.4487C33.0607 27.4494 33.0556 27.4505 33.0504 27.4509C33.0225 27.4537 32.9943 27.4553 32.9659 27.4553L32.9646 27.4549H1.78566V34.7497H4.63402C5.05157 31.6126 7.76659 29.1828 11.0455 29.1828C14.3245 29.1828 17.0393 31.6125 17.4568 34.7497H31.0844C31.5019 31.6126 34.2169 29.1828 37.4957 29.1828C40.7747 29.1828 43.4896 31.6125 43.9072 34.7497ZM44.9298 23.49C45.8708 24.561 46.6476 25.4403 47.9101 25.6953C47.9504 25.1436 47.9742 24.6853 47.9742 24.3698C47.9742 19.7269 44.506 15.8724 40.0015 15.2124L39.5619 20.2116C42.3162 20.5162 43.7529 22.1507 44.9298 23.49Z" fill="#008CFF"/>
<path fill-rule="evenodd" clip-rule="evenodd" d="M11.0457 36.9943C10.2648 36.9943 9.62964 36.3651 9.62964 35.5915C9.62964 34.818 10.2648 34.1888 11.0457 34.1888C11.8265 34.1888 12.4617 34.818 12.4617 35.5915C12.4617 36.3651 11.8264 36.9943 11.0457 36.9943ZM11.0457 32.5055C9.32797 32.5055 7.93042 33.8898 7.93042 35.5915C7.93042 37.2933 9.32797 38.6776 11.0457 38.6776C12.7634 38.6776 14.1609 37.2933 14.1609 35.5915C14.1609 33.8899 12.7634 32.5055 11.0457 32.5055ZM37.4954 36.9943C36.7145 36.9943 36.0794 36.3651 36.0794 35.5915C36.0794 34.818 36.7145 34.1888 37.4954 34.1888C38.2762 34.1888 38.9114 34.818 38.9114 35.5915C38.9114 36.3651 38.2762 36.9943 37.4954 36.9943ZM37.4954 32.5055C35.7777 32.5055 34.3801 33.8898 34.3801 35.5915C34.3801 37.2933 35.7777 38.6776 37.4954 38.6776C39.2131 38.6776 40.6106 37.2933 40.6106 35.5915C40.6106 33.8899 39.2131 32.5055 37.4954 32.5055Z" fill="#008CFF"/>
</svg>
