<svg width="15" height="15" viewBox="0 0 15 15" fill="none" xmlns="http://www.w3.org/2000/svg">
<g opacity="0.5">
<path fill-rule="evenodd" clip-rule="evenodd" d="M7.5 1.36364C4.11098 1.36364 1.36364 4.11098 1.36364 7.5C1.36364 10.889 4.11098 13.6364 7.5 13.6364C10.889 13.6364 13.6364 10.889 13.6364 7.5C13.6364 4.11098 10.889 1.36364 7.5 1.36364ZM0 7.5C0 3.35786 3.35786 0 7.5 0C11.6421 0 15 3.35786 15 7.5C15 11.6421 11.6421 15 7.5 15C3.35786 15 0 11.6421 0 7.5Z" fill="white"/>
<path fill-rule="evenodd" clip-rule="evenodd" d="M7.5 2.72727C7.87656 2.72727 8.18182 3.03253 8.18182 3.40909V7.07861L10.5322 8.2538C10.869 8.4222 11.0055 8.83175 10.8371 9.16855C10.6687 9.50536 10.2592 9.64188 9.92235 9.47347L7.19508 8.10984C6.96409 7.99434 6.81818 7.75825 6.81818 7.5V3.40909C6.81818 3.03253 7.12344 2.72727 7.5 2.72727Z" fill="white"/>
</g>
</svg>
