<svg width="14" height="16" viewBox="0 0 14 16" fill="none" xmlns="http://www.w3.org/2000/svg">
<g opacity="0.5">
<path fill-rule="evenodd" clip-rule="evenodd" d="M7 1.33334C5.51479 1.33334 4.09041 1.89525 3.0402 2.89545C1.99 3.89565 1.4 5.25222 1.4 6.66672C1.4 8.73211 2.81102 10.7362 4.35817 12.2916C5.11743 13.0549 5.87907 13.6797 6.45167 14.114C6.66478 14.2756 6.85092 14.4102 7 14.5152C7.14908 14.4102 7.33522 14.2756 7.54833 14.114C8.12093 13.6797 8.88257 13.0549 9.64183 12.2916C11.189 10.7362 12.6 8.73211 12.6 6.66672C12.6 5.25222 12.01 3.89565 10.9598 2.89545C9.90959 1.89525 8.48521 1.33334 7 1.33334ZM7 15.3334C6.61171 15.8882 6.61133 15.8879 6.61133 15.8879L6.60933 15.8866L6.60467 15.8837L6.58862 15.8733C6.57499 15.8645 6.55555 15.8518 6.53069 15.8354C6.48097 15.8027 6.40952 15.7549 6.31945 15.6929C6.13938 15.5691 5.88445 15.3883 5.57958 15.1571C4.97093 14.6955 4.15757 14.0287 3.34183 13.2086C1.73898 11.5973 0 9.26803 0 6.66672C4.17233e-08 4.89859 0.737498 3.20289 2.05025 1.95264C3.36301 0.702384 5.14348 0 7 0C8.85651 0 10.637 0.702384 11.9497 1.95264C13.2625 3.20289 14 4.89859 14 6.66672C14 9.26803 12.261 11.5973 10.6582 13.2086C9.84243 14.0287 9.02907 14.6955 8.42042 15.1571C8.11555 15.3883 7.86062 15.5691 7.68055 15.6929C7.59048 15.7549 7.51903 15.8027 7.46931 15.8354C7.44445 15.8518 7.42501 15.8645 7.41138 15.8733L7.39533 15.8837L7.39067 15.8866L7.38919 15.8876C7.38919 15.8876 7.38829 15.8882 7 15.3334ZM7 15.3334L7.38829 15.8882C7.15316 16.0374 6.84646 16.0372 6.61133 15.8879L7 15.3334Z" fill="white"/>
<path fill-rule="evenodd" clip-rule="evenodd" d="M7 5.33337C6.2268 5.33337 5.6 5.93033 5.6 6.66672C5.6 7.4031 6.2268 8.00006 7 8.00006C7.7732 8.00006 8.4 7.4031 8.4 6.66672C8.4 5.93033 7.7732 5.33337 7 5.33337ZM4.2 6.66672C4.2 5.19395 5.4536 4.00003 7 4.00003C8.5464 4.00003 9.8 5.19395 9.8 6.66672C9.8 8.13949 8.5464 9.3334 7 9.3334C5.4536 9.3334 4.2 8.13949 4.2 6.66672Z" fill="white"/>
</g>
</svg>
