<svg width="15" height="18" viewBox="0 0 15 18" fill="none" xmlns="http://www.w3.org/2000/svg">
<path opacity="0.5" d="M14.4718 7.52344H13.2042C12.9125 7.52344 12.6761 7.75951 12.6761 8.05078V9.04422C12.4389 8.92955 12.1739 8.86418 11.8941 8.86006C12.0971 8.5177 12.178 8.13208 12.1292 7.72256L11.4716 2.2077C11.3215 0.949081 10.1476 0 8.74078 0H6.25922C4.85242 0 3.67848 0.949081 3.52828 2.2077L2.87068 7.72256C2.82199 8.13208 2.90287 8.5177 3.10574 8.86006C2.82612 8.86418 2.56107 8.92955 2.32394 9.04422V8.05078C2.32394 7.75951 2.08737 7.52344 1.79577 7.52344H0.528169C0.236438 7.52344 0 7.75951 0 8.05078C0 8.34206 0.236438 8.57812 0.528169 8.57812H1.26761V10.4591C1.26761 10.4902 1.27077 10.5202 1.276 10.5498C1.27063 10.6068 1.26761 10.6643 1.26761 10.7227C1.26761 11.7502 2.1047 12.5859 3.1338 12.5859H6.97183V15.2224H3.80295C2.98746 15.2224 2.32394 15.8849 2.32394 16.6991V17.4724C2.32394 17.7637 2.56038 17.9997 2.85211 17.9997C3.14384 17.9997 3.38028 17.7637 3.38028 17.4724V16.6991C3.38028 16.4664 3.56982 16.2771 3.80295 16.2771H6.97183V17.4727C6.97183 17.7639 7.20827 18 7.5 18C7.79173 18 8.02817 17.7639 8.02817 17.4727V16.2771H11.197C11.43 16.2771 11.6197 16.4664 11.6197 16.6991V17.4727C11.6197 17.7639 11.8562 18 12.1479 18C12.4396 18 12.6761 17.7639 12.6761 17.4727V16.6991C12.6761 15.8849 12.0125 15.2224 11.197 15.2224H8.02817V12.5859H11.8662C12.8952 12.5859 13.7324 11.75 13.7324 10.7227C13.7324 10.6643 13.7294 10.6066 13.724 10.5498C13.7292 10.5202 13.7324 10.4902 13.7324 10.4591V8.57812H14.4718C14.7636 8.57812 15 8.34206 15 8.05078C15 7.75951 14.7636 7.52344 14.4718 7.52344ZM3.91959 7.84726L4.57719 2.3324C4.66412 1.604 5.38719 1.05469 6.25922 1.05469H8.74078C9.61281 1.05469 10.3359 1.60387 10.4228 2.3324L11.0804 7.84726C11.1116 8.10915 11.0287 8.32585 10.8198 8.52924C10.5946 8.74828 10.3049 8.85938 9.95874 8.85938H5.04126C4.69507 8.85938 4.4054 8.74828 4.18038 8.52924C3.97131 8.32585 3.88851 8.10915 3.91959 7.84726ZM11.8662 11.5312H3.1338C2.6872 11.5312 2.32394 11.1686 2.32394 10.7227C2.32394 10.2767 2.6872 9.91406 3.1338 9.91406H11.8662C12.3128 9.91406 12.6761 10.2767 12.6761 10.7227C12.6761 11.1686 12.3128 11.5312 11.8662 11.5312Z" fill="white"/>
</svg>
