<svg width="15" height="15" viewBox="0 0 15 15" fill="none" xmlns="http://www.w3.org/2000/svg">
<path opacity="0.5" d="M12.4259 15C12.3601 15 12.2944 15 12.2286 15C10.1248 14.7391 8.02093 14.0217 6.24581 12.913C4.60217 11.8696 3.15578 10.4348 2.10385 8.80435C0.920435 7.04348 0.197236 4.95652 0 2.86957C0 2.34783 0.131491 1.82609 0.460217 1.43478C0.788944 1.04348 1.24916 0.782609 1.77512 0.717391C1.84087 0.717391 1.90661 0.717391 1.97236 0.717391H3.94472C4.9309 0.717391 5.78559 1.43478 5.91708 2.41304C5.98282 3 6.11431 3.58696 6.31155 4.1087C6.57453 4.82609 6.3773 5.6087 5.85133 6.19565L5.39112 6.65217C6.18006 7.82609 7.16624 8.86957 8.4154 9.65217L8.87562 9.19565C9.40158 8.67391 10.2563 8.47826 10.9795 8.73913C11.5054 8.93478 12.0971 9.06522 12.6888 9.13043C13.675 9.26087 14.3982 10.1087 14.3982 11.087V13.0435C14.3982 13.5652 14.201 14.087 13.8065 14.413C13.412 14.7391 12.9518 15 12.4259 15ZM3.94472 2.02174H1.97236C1.77512 2.02174 1.57789 2.15217 1.4464 2.28261C1.38065 2.41304 1.31491 2.54348 1.31491 2.73913C1.51214 4.63043 2.1696 6.45652 3.22152 8.08696C4.2077 9.58696 5.45686 10.8913 6.969 11.8043C8.61264 12.8478 10.4535 13.5 12.3601 13.6957C12.6231 13.6957 12.7546 13.6304 12.8861 13.5C13.0176 13.3696 13.0833 13.2391 13.0833 13.0435V11.087C13.0833 10.7609 12.8203 10.5 12.4916 10.4348C11.8342 10.3696 11.1767 10.1739 10.5193 9.91304C10.2563 9.84783 9.99329 9.84783 9.79605 10.0435L8.94136 10.8913C8.74413 11.087 8.4154 11.1522 8.15242 11.0217C6.3773 10.0435 4.9309 8.6087 3.94472 6.84783C3.87897 6.58696 3.94472 6.26087 4.14196 6.06522L4.99664 5.21739C5.12813 5.08696 5.19388 4.76087 5.12813 4.56522C4.86515 3.91304 4.73366 3.26087 4.60217 2.6087C4.60217 2.28261 4.27345 2.02174 3.94472 2.02174ZM11.7684 6.58696C11.4397 6.58696 11.1767 6.3913 11.111 6.06522C10.9137 5.02174 10.059 4.23913 9.00711 3.97826C8.67838 3.91304 8.4154 3.58696 8.48115 3.19565C8.54689 2.86957 8.87562 2.6087 9.27009 2.67391C10.848 3 12.0971 4.17391 12.3601 5.73913C12.4259 6.06522 12.2286 6.45652 11.8342 6.52174C11.8342 6.52174 11.8342 6.58696 11.7684 6.58696ZM14.3982 6.52174C14.0695 6.52174 13.8065 6.26087 13.7408 5.93478C13.4778 3.52174 11.5712 1.63043 9.07285 1.30435C8.74413 1.23913 8.48115 0.913044 8.48115 0.586957C8.48115 0.26087 8.87562 0 9.20434 0C12.2944 0.326087 14.6612 2.67391 14.9899 5.73913C15.0557 6.06522 14.7927 6.3913 14.3982 6.45652C14.464 6.52174 14.3982 6.52174 14.3982 6.52174Z" fill="white"/>
</svg>
