<svg width="82" height="28" viewBox="0 0 82 28" fill="none" xmlns="http://www.w3.org/2000/svg">
<path d="M75.688 2.42738C75.688 5.50636 75.8655 9.09901 74.7752 10.0215C74.6249 10.1428 74.2985 10.2791 73.7542 10.1578L73.4414 11.9549C73.8644 12.0514 74.3032 12.0566 74.7283 11.97C75.1535 11.8835 75.5551 11.7073 75.9061 11.4532C77.3632 10.354 77.485 7.20909 77.485 4.14358H79.6775L79.6459 11.9024H81.4505V2.42139L75.688 2.42738Z" fill="#008CFF"/>
<path d="M66.5357 2.42725C66.5357 5.50623 66.7131 9.09888 65.6229 10.0214C65.4725 10.1427 65.1462 10.279 64.6018 10.1577L64.2891 11.9547C64.712 12.0513 65.1509 12.0565 65.576 11.9699C66.0011 11.8834 66.4027 11.7071 66.7537 11.453C68.2109 10.3538 68.3327 7.20895 68.3327 4.14345H70.5327L70.5177 11.9128H72.3222L72.25 2.42725H66.5357Z" fill="#008CFF"/>
<path d="M60.2583 2.42725H58.4057L54.9199 11.9203H56.9756L57.8387 9.43583H60.8237L61.6869 11.9203H63.7425L60.2583 2.42725ZM58.3154 8.05807L59.332 5.13334L60.3485 8.05807H58.3154Z" fill="#008CFF"/>
<path d="M51.0938 11.914H52.9058V5.56738H51.0938V11.914Z" fill="#008CFF"/>
<path d="M48.5205 2.42139V4.15706H55.4649V2.42139H48.5205Z" fill="#008CFF"/>
<path d="M47.5002 2.42139H41.249V4.15706H47.5002V2.42139Z" fill="#008CFF"/>
<path d="M47.0776 6.31396H41.249V8.03616H47.0776V6.31396Z" fill="#008CFF"/>
<path d="M41.249 10.1924V11.9146H47.5814V10.1924H41.249Z" fill="#008CFF"/>
<path d="M39.6271 2.34033L35.0662 7.35716L30.5038 2.34033H30.3955V11.9142H32.206V6.78809L34.9985 9.78471H35.1203L37.9399 6.78809V11.9142H39.7504V2.34033H39.6271Z" fill="#008CFF"/>
<path d="M76.7314 25.6351H78.7074V18.7119H76.7314V25.6351Z" fill="#072754"/>
<path d="M73.9238 15.2798V17.1727H81.4998V15.2798H73.9238Z" fill="#072754"/>
<path d="M70.7002 15.2798L70.7017 19.6542H72.6777L72.6762 15.2798H70.7002Z" fill="#072754"/>
<path d="M66.5092 19.5254V15.2798H64.5332V21.4048H70.6987V25.6354H72.6746V19.5254H66.5092Z" fill="#072754"/>
<path d="M64.5332 25.635H66.5092L66.5272 21.2651H64.5512L64.5332 25.635Z" fill="#072754"/>
<path d="M59.766 15.2798H57.7509L53.9434 25.6399H56.187L57.2291 22.6448H60.2833L61.3254 25.6399H63.569L59.766 15.2798ZM57.6968 21.2865L58.7494 18.239L59.802 21.2865H57.6968Z" fill="#072754"/>
<path d="M51.0758 15.2798H47.2246V17.1727H51.0276C52.0231 17.1727 52.6472 17.7942 52.6472 18.6822C52.6472 19.5703 52.0231 20.2068 51.0276 20.2068H47.2246V25.6399H49.2006V22.0847H51.0728C53.3901 22.0847 54.6818 20.5752 54.6818 18.6822C54.6818 16.7893 53.3901 15.2798 51.0728 15.2798H51.0758Z" fill="#072754"/>
<path d="M42.4583 15.2798H40.4388L36.6357 25.6399H38.8779L39.914 22.6568H42.9816L44.0177 25.6399H46.2614L42.4583 15.2843V15.2798ZM40.3831 21.297L41.4478 18.2315L42.514 21.297H40.3831Z" fill="#072754"/>
<path d="M30.4034 25.6294H32.3793L32.3222 17.1817L36.0425 17.1592V15.2798L30.4004 15.3277L30.4034 25.6294Z" fill="#072754"/>
<path fill-rule="evenodd" clip-rule="evenodd" d="M4.29626 11.7979L4.29927 20.063L10.2106 23.7979L16.3084 19.9327L16.3023 16.7893L10.2858 20.5886L10.2888 15.5808L20.567 9.06787L20.5685 21.4392L10.1925 28L0 21.5336L0.00601507 9.09183L4.29626 11.7979Z" fill="#072754"/>
<path fill-rule="evenodd" clip-rule="evenodd" d="M10.2751 6.48336L20.4977 0.0408545L20.5623 0.249015L20.5638 6.91615L16.3127 9.59828L16.3082 7.60653L10.251 11.3939L4.29158 7.61552L4.28707 9.60877L0.0253906 6.91016L0.0268944 0.243025V0.0258789L10.2751 6.48336Z" fill="#008CFF"/>
<path fill-rule="evenodd" clip-rule="evenodd" d="M20.3193 0.154249L20.5614 0.393858L20.5629 0.215649V0L20.3193 0.154249Z" fill="#008CFF"/>
</svg>
