<svg width="17" height="16" viewBox="0 0 17 16" fill="none" xmlns="http://www.w3.org/2000/svg">
<path fill-rule="evenodd" clip-rule="evenodd" d="M4.95833 14.6087C4.95833 13.8403 5.5926 13.2174 6.375 13.2174C7.1574 13.2174 7.79166 13.8403 7.79166 14.6087C7.79166 15.3771 7.1574 16 6.375 16C5.5926 16 4.95833 15.3771 4.95833 14.6087Z" fill="#072754"/>
<path fill-rule="evenodd" clip-rule="evenodd" d="M12.75 14.6087C12.75 13.8403 13.3843 13.2174 14.1667 13.2174C14.9491 13.2174 15.5833 13.8403 15.5833 14.6087C15.5833 15.3771 14.9491 16 14.1667 16C13.3843 16 12.75 15.3771 12.75 14.6087Z" fill="#072754"/>
<path fill-rule="evenodd" clip-rule="evenodd" d="M0 0.695652C0 0.311454 0.317132 0 0.708333 0H3.54167C3.87928 0 4.16996 0.234007 4.23622 0.559126L4.83114 3.47826H16.2917C16.5028 3.47826 16.7029 3.57073 16.8374 3.73047C16.972 3.89021 17.027 4.10058 16.9875 4.30423L15.8531 10.146C15.756 10.6264 15.4898 11.0579 15.1013 11.3651C14.7148 11.6707 14.2316 11.8337 13.7355 11.8261H6.86279C6.36676 11.8337 5.88356 11.6707 5.497 11.3651C5.10867 11.058 4.84262 10.6267 4.74536 10.1466L3.56206 4.34031C3.55726 4.32111 3.55327 4.30159 3.55013 4.28179L2.96106 1.3913H0.708333C0.317132 1.3913 0 1.07985 0 0.695652ZM5.11468 4.86957L6.13476 9.87491C6.16715 10.035 6.25585 10.1789 6.38535 10.2813C6.51484 10.3837 6.67688 10.438 6.84309 10.4349L6.85667 10.4348H13.7417L13.7552 10.4349C13.9214 10.438 14.0835 10.3837 14.213 10.2813C14.3419 10.1794 14.4304 10.0364 14.4631 9.87714L15.4355 4.86957H5.11468Z" fill="#072754"/>
</svg>
