<svg width="21" height="26" viewBox="0 0 21 26" fill="none" xmlns="http://www.w3.org/2000/svg">
<path fill-rule="evenodd" clip-rule="evenodd" d="M3.31579 5.90909C2.70537 5.90909 2.21053 6.43821 2.21053 7.09091V22.4545C2.21053 23.1072 2.70537 23.6364 3.31579 23.6364H17.6842C18.2946 23.6364 18.7895 23.1072 18.7895 22.4545V7.09091C18.7895 6.43821 18.2946 5.90909 17.6842 5.90909H3.31579ZM0 7.09091C0 5.13281 1.48453 3.54545 3.31579 3.54545H17.6842C19.5155 3.54545 21 5.13281 21 7.09091V22.4545C21 24.4126 19.5155 26 17.6842 26H3.31579C1.48453 26 0 24.4126 0 22.4545V7.09091Z" fill="black"/>
<path d="M5.52632 1.18182C5.52632 0.529118 6.02116 0 6.63158 0C7.242 0 7.73684 0.529118 7.73684 1.18182V5.90909C7.73684 6.56179 7.242 7.09091 6.63158 7.09091C6.02116 7.09091 5.52632 6.56179 5.52632 5.90909V1.18182Z" fill="black"/>
<path d="M13.2632 1.18182C13.2632 0.529118 13.758 0 14.3684 0C14.9788 0 15.4737 0.529118 15.4737 1.18182V5.90909C15.4737 6.56179 14.9788 7.09091 14.3684 7.09091C13.758 7.09091 13.2632 6.56179 13.2632 5.90909V1.18182Z" fill="black"/>
<path d="M4.42105 11.8182C4.42105 11.1655 4.9159 10.6364 5.52632 10.6364C6.13674 10.6364 6.63158 11.1655 6.63158 11.8182C6.63158 12.4709 6.13674 13 5.52632 13C4.9159 13 4.42105 12.4709 4.42105 11.8182Z" fill="black"/>
<path d="M7.73684 11.8182C7.73684 11.1655 8.23168 10.6364 8.8421 10.6364C9.45252 10.6364 9.94737 11.1655 9.94737 11.8182C9.94737 12.4709 9.45252 13 8.8421 13C8.23168 13 7.73684 12.4709 7.73684 11.8182Z" fill="black"/>
<path d="M11.0526 11.8182C11.0526 11.1655 11.5475 10.6364 12.1579 10.6364C12.7683 10.6364 13.2632 11.1655 13.2632 11.8182C13.2632 12.4709 12.7683 13 12.1579 13C11.5475 13 11.0526 12.4709 11.0526 11.8182Z" fill="black"/>
<path d="M14.3684 11.8182C14.3684 11.1655 14.8633 10.6364 15.4737 10.6364C16.0841 10.6364 16.5789 11.1655 16.5789 11.8182C16.5789 12.4709 16.0841 13 15.4737 13C14.8633 13 14.3684 12.4709 14.3684 11.8182Z" fill="black"/>
<path d="M4.42105 15.3636C4.42105 14.7109 4.9159 14.1818 5.52632 14.1818C6.13674 14.1818 6.63158 14.7109 6.63158 15.3636C6.63158 16.0163 6.13674 16.5455 5.52632 16.5455C4.9159 16.5455 4.42105 16.0163 4.42105 15.3636Z" fill="black"/>
<path d="M7.73684 15.3636C7.73684 14.7109 8.23168 14.1818 8.8421 14.1818C9.45252 14.1818 9.94737 14.7109 9.94737 15.3636C9.94737 16.0163 9.45252 16.5455 8.8421 16.5455C8.23168 16.5455 7.73684 16.0163 7.73684 15.3636Z" fill="black"/>
<path d="M11.0526 15.3636C11.0526 14.7109 11.5475 14.1818 12.1579 14.1818C12.7683 14.1818 13.2632 14.7109 13.2632 15.3636C13.2632 16.0163 12.7683 16.5455 12.1579 16.5455C11.5475 16.5455 11.0526 16.0163 11.0526 15.3636Z" fill="black"/>
<path d="M14.3684 15.3636C14.3684 14.7109 14.8633 14.1818 15.4737 14.1818C16.0841 14.1818 16.5789 14.7109 16.5789 15.3636C16.5789 16.0163 16.0841 16.5455 15.4737 16.5455C14.8633 16.5455 14.3684 16.0163 14.3684 15.3636Z" fill="black"/>
<path d="M4.42105 18.9091C4.42105 18.2564 4.9159 17.7273 5.52632 17.7273C6.13674 17.7273 6.63158 18.2564 6.63158 18.9091C6.63158 19.5618 6.13674 20.0909 5.52632 20.0909C4.9159 20.0909 4.42105 19.5618 4.42105 18.9091Z" fill="black"/>
<path d="M7.73684 18.9091C7.73684 18.2564 8.23168 17.7273 8.8421 17.7273C9.45252 17.7273 9.94737 18.2564 9.94737 18.9091C9.94737 19.5618 9.45252 20.0909 8.8421 20.0909C8.23168 20.0909 7.73684 19.5618 7.73684 18.9091Z" fill="black"/>
<path d="M11.0526 18.9091C11.0526 18.2564 11.5475 17.7273 12.1579 17.7273C12.7683 17.7273 13.2632 18.2564 13.2632 18.9091C13.2632 19.5618 12.7683 20.0909 12.1579 20.0909C11.5475 20.0909 11.0526 19.5618 11.0526 18.9091Z" fill="black"/>
<path d="M14.3684 18.9091C14.3684 18.2564 14.8633 17.7273 15.4737 17.7273C16.0841 17.7273 16.5789 18.2564 16.5789 18.9091C16.5789 19.5618 16.0841 20.0909 15.4737 20.0909C14.8633 20.0909 14.3684 19.5618 14.3684 18.9091Z" fill="black"/>
</svg>
