<svg width="11" height="11" viewBox="0 0 11 11" fill="none" xmlns="http://www.w3.org/2000/svg">
<path d="M9.1123 11C9.06409 11 9.01587 11 8.96766 11C7.42484 10.8087 5.88201 10.2826 4.58026 9.46957C3.37493 8.70435 2.31424 7.65217 1.54282 6.45652C0.674985 5.16522 0.14464 3.63478 0 2.10435C0 1.72174 0.0964264 1.33913 0.337493 1.05217C0.578559 0.765217 0.916051 0.573913 1.30176 0.526087C1.34997 0.526087 1.39818 0.526087 1.4464 0.526087H2.89279C3.61599 0.526087 4.24276 1.05217 4.33919 1.76957C4.3874 2.2 4.48383 2.63043 4.62847 3.01304C4.82132 3.53913 4.67668 4.11304 4.29098 4.54348L3.95349 4.87826C4.53204 5.73913 5.25524 6.50435 6.17129 7.07826L6.50879 6.74348C6.89449 6.36087 7.52126 6.21739 8.05161 6.4087C8.43731 6.55217 8.87123 6.64783 9.30515 6.69565C10.0284 6.7913 10.5587 7.41304 10.5587 8.13043V9.56522C10.5587 9.94783 10.4141 10.3304 10.1248 10.5696C9.8355 10.8087 9.49801 11 9.1123 11ZM2.89279 1.48261H1.4464C1.30176 1.48261 1.15712 1.57826 1.06069 1.67391C1.01248 1.76957 0.964265 1.86522 0.964265 2.0087C1.1089 3.39565 1.59104 4.73478 2.36245 5.93044C3.08565 7.03044 4.0017 7.98696 5.1106 8.65652C6.31593 9.42174 7.6659 9.9 9.06409 10.0435C9.25694 10.0435 9.35337 9.99565 9.44979 9.9C9.54622 9.80435 9.59443 9.7087 9.59443 9.56522V8.13043C9.59443 7.8913 9.40158 7.7 9.16051 7.65217C8.67838 7.60435 8.19625 7.46087 7.71412 7.26957C7.52126 7.22174 7.32841 7.22174 7.18377 7.36522L6.557 7.98696C6.41236 8.13043 6.17129 8.17826 5.97844 8.08261C4.67668 7.36522 3.61599 6.31304 2.89279 5.02174C2.84458 4.83043 2.89279 4.5913 3.03743 4.44783L3.66421 3.82609C3.76063 3.73043 3.80885 3.4913 3.76063 3.34783C3.56778 2.86957 3.47135 2.3913 3.37493 1.91304C3.37493 1.67391 3.13386 1.48261 2.89279 1.48261ZM8.63017 4.83043C8.3891 4.83043 8.19625 4.68696 8.14804 4.44783C8.0034 3.68261 7.37662 3.1087 6.60521 2.91739C6.36415 2.86957 6.17129 2.63043 6.21951 2.34348C6.26772 2.10435 6.50879 1.91304 6.79807 1.96087C7.95518 2.2 8.87123 3.06087 9.06409 4.2087C9.1123 4.44783 8.96766 4.73478 8.67838 4.78261C8.67838 4.78261 8.67838 4.83043 8.63017 4.83043ZM10.5587 4.78261C10.3176 4.78261 10.1248 4.5913 10.0766 4.35217C9.88371 2.58261 8.48553 1.19565 6.65343 0.956522C6.41236 0.908696 6.21951 0.669565 6.21951 0.430435C6.21951 0.191304 6.50879 0 6.74985 0C9.01587 0.23913 10.7516 1.96087 10.9926 4.2087C11.0408 4.44783 10.848 4.68696 10.5587 4.73478C10.6069 4.78261 10.5587 4.78261 10.5587 4.78261Z" fill="white"/>
</svg>
