<svg width="16" height="16" viewBox="0 0 16 16" fill="none" xmlns="http://www.w3.org/2000/svg">
<path d="M13.2543 16C13.1841 16 13.114 16 13.0439 16C10.7998 15.7217 8.55566 14.9565 6.66219 13.7739C4.90898 12.6609 3.36616 11.1304 2.24411 9.3913C0.981797 7.51304 0.210385 5.28696 0 3.06087C0 2.50435 0.140257 1.94783 0.490898 1.53043C0.84154 1.11304 1.33244 0.834783 1.89347 0.765217C1.96359 0.765217 2.03372 0.765217 2.10385 0.765217H4.2077C5.25963 0.765217 6.17129 1.53043 6.31155 2.57391C6.38168 3.2 6.52193 3.82609 6.73232 4.38261C7.01283 5.14783 6.80245 5.98261 6.24142 6.6087L5.75052 7.09565C6.59206 8.34783 7.64399 9.46087 8.97643 10.2957L9.46733 9.8087C10.0284 9.25217 10.94 9.04348 11.7114 9.32174C12.2725 9.53044 12.9036 9.66957 13.5348 9.73913C14.5867 9.87826 15.3581 10.7826 15.3581 11.8261V13.913C15.3581 14.4696 15.1477 15.0261 14.727 15.3739C14.3062 15.7217 13.8153 16 13.2543 16ZM4.2077 2.15652H2.10385C1.89347 2.15652 1.68308 2.29565 1.54282 2.43478C1.47269 2.57391 1.40257 2.71304 1.40257 2.92174C1.61295 4.93913 2.31424 6.88696 3.43629 8.62609C4.48821 10.2261 5.82065 11.6174 7.4336 12.5913C9.18681 13.7043 11.1504 14.4 13.1841 14.6087C13.4646 14.6087 13.6049 14.5391 13.7452 14.4C13.8854 14.2609 13.9555 14.1217 13.9555 13.913V11.8261C13.9555 11.4783 13.675 11.2 13.3244 11.1304C12.6231 11.0609 11.9218 10.8522 11.2205 10.5739C10.94 10.5043 10.6595 10.5043 10.4491 10.713L9.53745 11.6174C9.32707 11.8261 8.97643 11.8957 8.69591 11.7565C6.80245 10.713 5.25963 9.18261 4.2077 7.30435C4.13757 7.02609 4.2077 6.67826 4.41809 6.46957L5.32975 5.56522C5.47001 5.42609 5.54014 5.07826 5.47001 4.86957C5.1895 4.17391 5.04924 3.47826 4.90898 2.78261C4.90898 2.43478 4.55834 2.15652 4.2077 2.15652ZM12.553 7.02609C12.2023 7.02609 11.9218 6.81739 11.8517 6.46957C11.6413 5.35652 10.7296 4.52174 9.60758 4.24348C9.25694 4.17391 8.97643 3.82609 9.04656 3.4087C9.11668 3.06087 9.46733 2.78261 9.8881 2.85217C11.5712 3.2 12.9036 4.45217 13.1841 6.12174C13.2543 6.46957 13.0439 6.88696 12.6231 6.95652C12.6231 6.95652 12.6231 7.02609 12.553 7.02609ZM15.3581 6.95652C15.0075 6.95652 14.727 6.67826 14.6568 6.33044C14.3763 3.75652 12.3426 1.73913 9.67771 1.3913C9.32707 1.32174 9.04656 0.973913 9.04656 0.626087C9.04656 0.278261 9.46733 0 9.81797 0C13.114 0.347826 15.6386 2.85217 15.9893 6.12174C16.0594 6.46957 15.7789 6.81739 15.3581 6.88696C15.4282 6.95652 15.3581 6.95652 15.3581 6.95652Z" fill="#072754"/>
</svg>
