<svg width="20" height="17" viewBox="0 0 20 17" fill="none" xmlns="http://www.w3.org/2000/svg">
<path fill-rule="evenodd" clip-rule="evenodd" d="M1.22039 11.2204C2.00179 10.439 3.0616 10 4.16667 10H10C11.1051 10 12.1649 10.439 12.9463 11.2204C13.7277 12.0018 14.1667 13.0616 14.1667 14.1667V15.8333C14.1667 16.2936 13.7936 16.6667 13.3333 16.6667C12.8731 16.6667 12.5 16.2936 12.5 15.8333V14.1667C12.5 13.5036 12.2366 12.8677 11.7678 12.3989C11.2989 11.9301 10.663 11.6667 10 11.6667H4.16667C3.50363 11.6667 2.86774 11.9301 2.3989 12.3989C1.93006 12.8677 1.66667 13.5036 1.66667 14.1667V15.8333C1.66667 16.2936 1.29357 16.6667 0.833333 16.6667C0.373096 16.6667 0 16.2936 0 15.8333V14.1667C0 13.0616 0.438987 12.0018 1.22039 11.2204Z" fill="#F9F9F9"/>
<path fill-rule="evenodd" clip-rule="evenodd" d="M7.08333 1.66667C5.70262 1.66667 4.58333 2.78595 4.58333 4.16667C4.58333 5.54738 5.70262 6.66667 7.08333 6.66667C8.46404 6.66667 9.58333 5.54738 9.58333 4.16667C9.58333 2.78595 8.46404 1.66667 7.08333 1.66667ZM2.91667 4.16667C2.91667 1.86548 4.78215 0 7.08333 0C9.38452 0 11.25 1.86548 11.25 4.16667C11.25 6.46785 9.38452 8.33333 7.08333 8.33333C4.78215 8.33333 2.91667 6.46785 2.91667 4.16667Z" fill="#F9F9F9"/>
<path fill-rule="evenodd" clip-rule="evenodd" d="M19.7559 5.24408C20.0814 5.56951 20.0814 6.09715 19.7559 6.42259L16.4226 9.75592C16.0972 10.0814 15.5695 10.0814 15.2441 9.75592L13.5774 8.08926C13.252 7.76382 13.252 7.23618 13.5774 6.91074C13.9028 6.58531 14.4305 6.58531 14.7559 6.91074L15.8333 7.98816L18.5774 5.24408C18.9028 4.91864 19.4305 4.91864 19.7559 5.24408Z" fill="#F9F9F9"/>
</svg>
