<svg width="16" height="9" viewBox="0 0 16 9" fill="none" xmlns="http://www.w3.org/2000/svg">
<path d="M15.6145 0.692306C15.7815 0.307691 15.6145 0.0769219 15.1135 0.0769219H13.36C12.9425 0.0769219 12.692 0.307693 12.6085 0.538462C12.6085 0.538462 11.69 2.53846 10.4375 3.84615C10.02 4.23077 9.85299 4.30769 9.60249 4.30769C9.43549 4.30769 9.35199 4.15385 9.35199 3.84615V0.615384C9.35199 0.230769 9.18499 0 8.85099 0H6.09549C5.84499 0 5.67799 0.153846 5.67799 0.384615C5.67799 0.769231 6.34599 0.846153 6.34599 2V4.46154C6.34599 5 6.179 5.07692 6.012 5.07692C5.4275 5.07692 3.9245 3.07692 3.0895 0.769231C2.9225 0.307692 2.7555 0.153847 2.338 0.153847H0.584503C0.0835037 0.153847 0 0.384615 0 0.615384C0 0.999999 0.584502 3.15385 2.7555 6C4.2585 7.92308 6.2625 9 8.09949 9C9.18499 9 9.35199 8.76923 9.35199 8.38461V6.76923C9.35199 6.30769 9.51899 6.23077 9.76949 6.23077C10.02 6.23077 10.4375 6.38461 11.523 7.30769C12.7755 8.46154 12.9425 8.92308 13.6105 8.92308H15.364C15.865 8.92308 16.1155 8.69231 15.9485 8.23077C15.7815 7.76923 15.2805 7.07692 14.4455 6.30769C14.028 5.84615 13.4435 5.38462 13.193 5.15385C12.9425 4.84615 13.026 4.69231 13.193 4.46154C13.193 4.46154 15.4475 1.61538 15.6145 0.692306Z" fill="white"/>
</svg>
