<svg width="14" height="11" viewBox="0 0 14 11" fill="none" xmlns="http://www.w3.org/2000/svg">
<path d="M13.6111 1.74835C13.4815 1.09272 12.963 0.582781 12.3796 0.364238C11.2778 0 6.93519 0 6.93519 0C6.93519 0 2.59259 0 1.49074 0.364238C0.907408 0.509934 0.453704 1.09272 0.25926 1.74835C3.6701e-07 2.98676 0 5.46358 0 5.46358C0 5.46358 0 8.01324 0.324074 9.25165C0.453704 9.90728 0.972223 10.4172 1.55556 10.6358C2.65741 11 7 11 7 11C7 11 11.3426 11 12.4444 10.6358C13.0278 10.4901 13.4815 9.90728 13.6759 9.25165C14 8.01324 14 5.46358 14 5.46358C14 5.46358 13.9352 2.98676 13.6111 1.74835ZM5.63889 7.86755V3.2053L9.2037 5.53642L5.63889 7.86755Z" fill="white"/>
</svg>
