<svg width="15" height="15" viewBox="0 0 15 15" fill="none" xmlns="http://www.w3.org/2000/svg">
<path d="M1.92532 0H13.0748C14.1337 0 15 0.783921 15 1.92515V13.0749C15 14.2161 14.1337 15 13.0748 15H1.92532C0.866173 15 0 14.2161 0 13.0749V1.92515C0 0.783921 0.866173 0 1.92532 0ZM10.927 1.66656C10.5555 1.66656 10.2519 1.97028 10.2519 2.34191V3.95826C10.2519 4.32974 10.5555 4.63361 10.927 4.63361H12.6223C12.9938 4.63361 13.2977 4.32974 13.2977 3.95826V2.34191C13.2977 1.97028 12.9938 1.66656 12.6223 1.66656H10.927ZM13.3048 6.34345H11.9846C12.1095 6.75127 12.1771 7.18327 12.1771 7.63022C12.1771 10.1252 10.0893 12.1477 7.51432 12.1477C4.93952 12.1477 2.85202 10.1252 2.85202 7.63022C2.85202 7.18297 2.91948 6.75112 3.04454 6.34345H1.66689V12.6797C1.66689 13.0075 1.93518 13.276 2.26323 13.276H12.7087C13.0368 13.276 13.3051 13.0077 13.3051 12.6797V6.34345H13.3048ZM7.51417 4.54844C5.85051 4.54844 4.50166 5.85523 4.50166 7.46743C4.50166 9.07963 5.85051 10.3864 7.51417 10.3864C9.17798 10.3864 10.527 9.07963 10.527 7.46743C10.527 5.85523 9.17813 4.54844 7.51417 4.54844Z" fill="#F9F9F9"/>
</svg>
