<svg width="17" height="17" viewBox="0 0 17 17" fill="none" xmlns="http://www.w3.org/2000/svg">
<path d="M13.2252 12.1646C12.9324 11.8717 12.4575 11.8717 12.1646 12.1646C11.8717 12.4575 11.8717 12.9324 12.1646 13.2252L13.2252 12.1646ZM15.4697 16.5303C15.7626 16.8232 16.2374 16.8232 16.5303 16.5303C16.8232 16.2374 16.8232 15.7626 16.5303 15.4697L15.4697 16.5303ZM13.9788 7.86441C13.9788 11.2413 11.2413 13.9788 7.86441 13.9788V15.4788C12.0697 15.4788 15.4788 12.0697 15.4788 7.86441H13.9788ZM7.86441 13.9788C4.48751 13.9788 1.75 11.2413 1.75 7.86441H0.25C0.25 12.0697 3.65909 15.4788 7.86441 15.4788V13.9788ZM1.75 7.86441C1.75 4.48751 4.48751 1.75 7.86441 1.75V0.25C3.65909 0.25 0.25 3.65909 0.25 7.86441H1.75ZM7.86441 1.75C11.2413 1.75 13.9788 4.48751 13.9788 7.86441H15.4788C15.4788 3.65909 12.0697 0.25 7.86441 0.25V1.75ZM12.1646 13.2252L15.4697 16.5303L16.5303 15.4697L13.2252 12.1646L12.1646 13.2252Z" fill="#072754"/>
</svg>
