<svg width="64" height="44" viewBox="0 0 64 44" fill="none" xmlns="http://www.w3.org/2000/svg">
<path d="M62.4526 9.58804C62.4526 9.58804 61.8469 5.29028 59.9802 3.39568C57.6171 0.912755 54.966 0.902784 53.7547 0.75321C45.0568 0.125 32.0099 0.125 32.0099 0.125H31.9801C31.9801 0.125 18.9333 0.125 10.2354 0.75321C9.02403 0.902784 6.37296 0.912755 4.00983 3.39568C2.14316 5.29028 1.53748 9.58804 1.53748 9.58804C1.53748 9.58804 0.921875 14.6337 0.921875 19.6893V24.4258C0.921875 29.4714 1.54741 34.517 1.54741 34.517C1.54741 34.517 2.15309 38.8148 4.01976 40.7094C6.38289 43.1923 9.4907 43.1125 10.8708 43.3718C15.8354 43.8504 32 44 32 44C32 44 45.0568 43.9801 53.7547 43.3518C54.966 43.2023 57.6171 43.1923 59.9802 40.7094C61.8469 38.8148 62.4526 34.517 62.4526 34.517C62.4526 34.517 63.0781 29.4714 63.0781 24.4258V19.6893C63.0781 14.6337 62.4526 9.58804 62.4526 9.58804Z" fill="#FC0D1C"/>
<path d="M25.585 12.6194V30.1494L42.3751 21.4143L25.585 12.6194Z" fill="#EAEAEA"/>
</svg>
