<svg width="13" height="11" viewBox="0 0 13 11" fill="none" xmlns="http://www.w3.org/2000/svg">
<path fill-rule="evenodd" clip-rule="evenodd" d="M1.77276 1.22222C1.44912 1.22222 1.18186 1.49862 1.18186 1.83333V9.16667C1.18186 9.50138 1.44912 9.77778 1.77276 9.77778H11.2272C11.5509 9.77778 11.8181 9.50138 11.8181 9.16667V1.83333C11.8181 1.49862 11.5509 1.22222 11.2272 1.22222H1.77276ZM5.07561e-05 1.83333C5.07561e-05 0.823604 0.796422 0 1.77276 0H11.2272C12.2036 0 12.9999 0.823604 12.9999 1.83333V9.16667C12.9999 10.1764 12.2036 11 11.2272 11H1.77276C0.796422 11 5.07561e-05 10.1764 5.07561e-05 9.16667V1.83333Z" fill="#F9F9F9"/>
<path fill-rule="evenodd" clip-rule="evenodd" d="M0.106867 1.48288C0.294015 1.20639 0.662462 1.13914 0.929817 1.33269L6.5 5.36515L12.0702 1.33269C12.3375 1.13914 12.706 1.20639 12.8931 1.48288C13.0803 1.75938 13.0153 2.14043 12.7479 2.33398L6.83886 6.61175C6.6354 6.75905 6.3646 6.75905 6.16114 6.61175L0.252094 2.33398C-0.0152606 2.14043 -0.0802806 1.75938 0.106867 1.48288Z" fill="#F9F9F9"/>
</svg>
