<svg width="12" height="11" viewBox="0 0 12 11" fill="none" xmlns="http://www.w3.org/2000/svg">
<path fill-rule="evenodd" clip-rule="evenodd" d="M5.68496 1C3.1161 1 1.03363 3.01472 1.03363 5.5C1.03363 7.98528 3.1161 10 5.68496 10C8.25381 10 10.3363 7.98528 10.3363 5.5C10.3363 3.01472 8.25381 1 5.68496 1ZM0 5.5C0 2.46243 2.54524 0 5.68496 0C8.82467 0 11.3699 2.46243 11.3699 5.5C11.3699 8.53757 8.82467 11 5.68496 11C2.54524 11 0 8.53757 0 5.5Z" fill="#05162E"/>
<path fill-rule="evenodd" clip-rule="evenodd" d="M5.68496 2C5.97038 2 6.20177 2.22386 6.20177 2.5V5.19098L7.98334 6.05279C8.23863 6.17628 8.34211 6.47662 8.21447 6.72361C8.08682 6.9706 7.77638 7.07071 7.52109 6.94721L5.45383 5.94721C5.27874 5.86252 5.16814 5.68939 5.16814 5.5V2.5C5.16814 2.22386 5.39953 2 5.68496 2Z" fill="#05162E"/>
</svg>
