<svg width="22" height="23" viewBox="0 0 22 23" fill="none" xmlns="http://www.w3.org/2000/svg">
<path fill-rule="evenodd" clip-rule="evenodd" d="M14.7803 2.38782C13.984 2.38782 13.2204 2.70412 12.6574 3.26715L3.4674 12.4571C2.52909 13.3955 2.00195 14.6681 2.00195 15.995C2.00195 17.322 2.52909 18.5946 3.4674 19.5329C4.4057 20.4712 5.67832 20.9984 7.00529 20.9984C8.33226 20.9984 9.60488 20.4712 10.5432 19.5329L19.7332 10.3429C20.1237 9.95241 20.7569 9.95241 21.1474 10.3429C21.5379 10.7335 21.5379 11.3666 21.1474 11.7571L11.9574 20.9471C10.644 22.2605 8.86269 22.9984 7.00529 22.9984C5.14789 22.9984 3.36656 22.2605 2.05318 20.9471C0.739802 19.6338 0.00195312 17.8524 0.00195312 15.995C0.00195312 14.1376 0.739802 12.3563 2.05318 11.0429L11.2432 1.85293C12.1813 0.914836 13.4536 0.387817 14.7803 0.387817C16.107 0.387817 17.3793 0.914836 18.3174 1.85293C19.2555 2.79103 19.7825 4.06337 19.7825 5.39004C19.7825 6.71671 19.2555 7.98905 18.3174 8.92715L9.1174 18.1171C8.55458 18.68 7.79124 18.9962 6.99529 18.9962C6.19934 18.9962 5.436 18.68 4.87318 18.1171C4.31037 17.5543 3.99418 16.791 3.99418 15.995C3.99418 15.1991 4.31037 14.4358 4.87318 13.8729L13.3636 5.39252C13.7544 5.00222 14.3875 5.0026 14.7778 5.39335C15.1681 5.78411 15.1677 6.41727 14.777 6.80756L6.2874 15.2871C6.09991 15.4749 5.99418 15.7297 5.99418 15.995C5.99418 16.2606 6.09965 16.5152 6.2874 16.7029C6.47514 16.8907 6.72978 16.9962 6.99529 16.9962C7.2608 16.9962 7.51544 16.8907 7.70318 16.7029L16.9032 7.51294C17.466 6.94995 17.7825 6.1861 17.7825 5.39004C17.7825 4.5938 17.4662 3.83017 16.9032 3.26715C16.3402 2.70412 15.5765 2.38782 14.7803 2.38782Z" fill="black"/>
</svg>
