<svg width="11" height="11" viewBox="0 0 11 11" fill="none" xmlns="http://www.w3.org/2000/svg">
<path fill-rule="evenodd" clip-rule="evenodd" d="M5.5 1C3.01472 1 1 3.01472 1 5.5C1 7.98528 3.01472 10 5.5 10C7.98528 10 10 7.98528 10 5.5C10 3.01472 7.98528 1 5.5 1ZM0 5.5C0 2.46243 2.46243 0 5.5 0C8.53757 0 11 2.46243 11 5.5C11 8.53757 8.53757 11 5.5 11C2.46243 11 0 8.53757 0 5.5Z" fill="#F9F9F9"/>
<path fill-rule="evenodd" clip-rule="evenodd" d="M5.5 2C5.77614 2 6 2.22386 6 2.5V5.19098L7.72361 6.05279C7.9706 6.17628 8.07071 6.47662 7.94721 6.72361C7.82372 6.9706 7.52338 7.07071 7.27639 6.94721L5.27639 5.94721C5.107 5.86252 5 5.68939 5 5.5V2.5C5 2.22386 5.22386 2 5.5 2Z" fill="#F9F9F9"/>
</svg>
