<svg width="28" height="28" viewBox="0 0 28 28" fill="none" xmlns="http://www.w3.org/2000/svg">
<path d="M21.9783 20.5641C21.5878 20.1736 20.9546 20.1736 20.5641 20.5641C20.1736 20.9546 20.1736 21.5878 20.5641 21.9783L21.9783 20.5641ZM26.2929 27.7071C26.6834 28.0976 27.3166 28.0976 27.7071 27.7071C28.0976 27.3166 28.0976 26.6834 27.7071 26.2929L26.2929 27.7071ZM23.7966 12.8983C23.7966 18.9173 18.9173 23.7966 12.8983 23.7966V25.7966C20.0218 25.7966 25.7966 20.0218 25.7966 12.8983H23.7966ZM12.8983 23.7966C6.87934 23.7966 2 18.9173 2 12.8983H0C0 20.0218 5.77477 25.7966 12.8983 25.7966V23.7966ZM2 12.8983C2 6.87934 6.87934 2 12.8983 2V0C5.77477 0 0 5.77477 0 12.8983H2ZM12.8983 2C18.9173 2 23.7966 6.87934 23.7966 12.8983H25.7966C25.7966 5.77477 20.0218 0 12.8983 0V2ZM20.5641 21.9783L26.2929 27.7071L27.7071 26.2929L21.9783 20.5641L20.5641 21.9783Z" fill="black"/>
</svg>
