<svg width="28" height="28" viewBox="0 0 28 28" fill="none" xmlns="http://www.w3.org/2000/svg">
<path d="M23.6595 5.59222C23.9415 5.31018 23.9415 4.85291 23.6595 4.57087C23.3775 4.28883 22.9202 4.28883 22.6381 4.57087L23.6595 5.59222ZM1.08789 13.6481C0.689028 13.6481 0.365686 13.9715 0.365686 14.3704C0.365686 14.7692 0.689028 15.0926 1.08789 15.0926V13.6481ZM13.1378 23.4269C13.1378 23.8258 13.4611 24.1491 13.86 24.1491C14.2589 24.1491 14.5822 23.8258 14.5822 23.4269H13.1378ZM14.3707 14.881L23.6595 5.59222L22.6381 4.57087L13.3493 13.8597L14.3707 14.881ZM1.08789 15.0926H13.86V13.6481H1.08789V15.0926ZM13.1378 14.3704V23.4269H14.5822V14.3704H13.1378Z" fill="#008CFF"/>
<path d="M1 14.4962V27H13.803L27 13.7023V1H14.3939L1 14.4962Z" stroke="black" stroke-width="1.44444" stroke-linecap="round"/>
</svg>
