<svg width="30" height="24" viewBox="0 0 30 24" fill="none" xmlns="http://www.w3.org/2000/svg">
<path d="M18.8908 22.6045L18.9564 22.7198L19.0242 22.6813L19.0236 22.6035L18.8908 22.6045ZM18.8463 16.7002L18.9791 16.6992L18.9786 16.6388L18.9327 16.5994L18.8463 16.7002ZM10.2924 9.36562L10.3788 9.26484L10.3572 9.24633L10.3299 9.23829L10.2924 9.36562ZM1.56543 6.79299L1.60296 6.66566L1.54264 6.64787L1.49067 6.68329L1.56543 6.79299ZM1.29406 6.97793L1.2193 6.86823L0.987738 7.02604L1.25652 7.10527L1.29406 6.97793ZM9.98678 9.54029L10.0732 9.4395L10.0516 9.42099L10.0243 9.41295L9.98678 9.54029ZM18.5416 16.8736L18.6743 16.8726L18.6739 16.8121L18.628 16.7728L18.5416 16.8736ZM18.5861 22.7778L18.4533 22.7788L18.455 23.005L18.6517 22.8932L18.5861 22.7778ZM28.7922 10.8943L28.8622 11.0071L29.017 10.9112L28.8783 10.7932L28.7922 10.8943ZM20.1356 3.52662L20.2216 3.42552L20.2001 3.40724L20.1731 3.39927L20.1356 3.52662ZM11.5545 1L11.592 0.872652L11.5305 0.85456L11.4781 0.891398L11.5545 1ZM11.1732 1.26803L11.0969 1.15943L10.8717 1.31773L11.1358 1.39539L11.1732 1.26803ZM11.2355 1.28634L11.1981 1.4137L11.2597 1.43182L11.3121 1.39478L11.2355 1.28634ZM11.3405 1.21219L11.378 1.08484L11.3164 1.06669L11.2639 1.10376L11.3405 1.21219ZM19.9234 3.74015L20.0094 3.63907L19.9879 3.62077L19.9609 3.6128L19.9234 3.74015ZM28.5227 11.0614L28.4366 11.1624L28.5103 11.2252L28.5926 11.1742L28.5227 11.0614ZM1 13.1323L0.867342 13.1273L0.855529 13.4378L1.08806 13.2317L1 13.1323ZM1.35278 12.8196L1.44084 12.919L1.48343 12.8812L1.48545 12.8243L1.35278 12.8196ZM1.56543 6.82918L1.6981 6.83389L1.70756 6.56741L1.48922 6.72047L1.56543 6.82918ZM1.23089 7.0637L1.15468 6.955L1.10073 6.99282L1.09823 7.05866L1.23089 7.0637ZM4.34274 14.9661L4.20999 14.9659L4.20973 15.1124L4.35563 15.0982L4.34274 14.9661ZM4.74579 14.9268L4.75868 15.0589L4.87831 15.0472L4.87854 14.927L4.74579 14.9268ZM4.75691 9.12842L4.88966 9.12867L4.88987 9.02035L4.7838 8.99841L4.75691 9.12842ZM4.35297 9.04488L4.37986 8.91488L4.2205 8.88192L4.22022 9.04465L4.35297 9.04488ZM14.633 9.01138L14.5002 9.01113L14.5 9.15772L14.6459 9.14351L14.633 9.01138ZM15.0365 8.97207L15.0494 9.10419L15.169 9.09254L15.1692 8.97232L15.0365 8.97207ZM15.0476 3.17327L15.1804 3.17352L15.1806 3.06522L15.0745 3.04327L15.0476 3.17327ZM14.6441 3.08973L14.671 2.95973L14.5117 2.92674L14.5114 3.08948L14.6441 3.08973ZM14.7495 20.5978L14.6168 20.5977L14.6167 20.6779L14.6876 20.7153L14.7495 20.5978ZM15.153 20.8104L15.0911 20.9279L15.2857 21.0304L15.2858 20.8105L15.153 20.8104ZM15.1557 15.3257L15.2885 15.3258L15.2885 15.2618L15.2385 15.2219L15.1557 15.3257ZM14.7522 15.0041L14.835 14.9002L14.6196 14.7286L14.6195 15.004L14.7522 15.0041ZM25.0393 14.64L24.9066 14.6399L24.9065 14.7201L24.9774 14.7574L25.0393 14.64ZM25.4428 14.8526L25.3809 14.9701L25.5755 15.0726L25.5756 14.8527L25.4428 14.8526ZM25.4459 9.36875L25.5787 9.36882L25.5787 9.30483L25.5287 9.26494L25.4459 9.36875ZM25.0425 9.04712L25.1252 8.94331L24.9099 8.77165L24.9097 9.04704L25.0425 9.04712ZM1.39193 8.01744L1.42809 7.8897L1.25918 7.84189V8.01744H1.39193ZM7.40477 9.71942L7.47166 9.60475L7.45712 9.59627L7.44092 9.59169L7.40477 9.71942ZM11.6417 12.1911L11.7275 12.0898L11.7186 12.0823L11.7086 12.0764L11.6417 12.1911ZM18.6835 18.1529H18.8163V18.0914L18.7693 18.0516L18.6835 18.1529ZM18.6835 18.4062L18.5975 18.5074L18.8163 18.6932V18.4062H18.6835ZM11.5598 12.3532L11.6458 12.2521L11.6367 12.2444L11.6264 12.2384L11.5598 12.3532ZM7.36295 9.92178L7.4295 9.80691L7.41521 9.79864L7.39934 9.79411L7.36295 9.92178ZM1.39193 8.2198H1.25918V8.32L1.35554 8.34747L1.39193 8.2198ZM4.1252 5.34296L4.16128 5.2152L4.07027 5.1895L4.01624 5.26711L4.1252 5.34296ZM9.92761 6.98151L9.99451 6.86684L9.97993 6.85834L9.96369 6.85375L9.92761 6.98151ZM14.1645 9.45318L14.2503 9.35186L14.2415 9.34436L14.2314 9.33851L14.1645 9.45318ZM21.2068 15.415L21.2844 15.5227L21.4222 15.4234L21.2926 15.3137L21.2068 15.415ZM14.0845 9.61489L14.1704 9.51371L14.1613 9.506L14.151 9.50002L14.0845 9.61489ZM9.88758 7.18342L9.95412 7.06855L9.93968 7.06019L9.92362 7.05566L9.88758 7.18342ZM4.00019 5.52254L3.89124 5.44669L3.78473 5.59969L3.96415 5.6503L4.00019 5.52254ZM8.00801 3.13708L8.04417 3.00935L7.87525 2.96153V3.13708H8.00801ZM14.0204 4.83906L14.0873 4.72439L14.0728 4.71591L14.0566 4.71133L14.0204 4.83906ZM18.2578 7.31074L18.3436 7.20942L18.3347 7.20192L18.3247 7.19606L18.2578 7.31074ZM25.2996 13.273H25.4323V13.2115L25.3854 13.1717L25.2996 13.273ZM25.2996 13.5263L25.2136 13.6275L25.4323 13.8134V13.5263H25.2996ZM18.1768 7.47334L18.2628 7.37218L18.2537 7.36446L18.2434 7.35847L18.1768 7.47334ZM13.9804 5.04187L14.0469 4.92701L14.0326 4.91874L14.0168 4.91421L13.9804 5.04187ZM8.00801 3.3381H7.87525V3.43828L7.97159 3.46576L8.00801 3.3381ZM11.6822 2.0605L11.7183 1.93277L11.5494 1.88495V2.0605H11.6822ZM17.695 3.76248L17.7619 3.64781L17.7474 3.63933L17.7312 3.63475L17.695 3.76248ZM21.9319 6.23415L22.0169 6.13213L22.0084 6.12506L21.9988 6.11949L21.9319 6.23415ZM28.8305 11.978L28.9631 11.9851L28.9666 11.9186L28.9154 11.876L28.8305 11.978ZM28.8127 12.3113L28.7267 12.4124L28.931 12.586L28.9453 12.3183L28.8127 12.3113ZM21.8514 6.39631L21.9374 6.29515L21.9283 6.28743L21.918 6.28146L21.8514 6.39631ZM17.6545 3.9635L17.7211 3.84865L17.7068 3.84035L17.6909 3.83582L17.6545 3.9635ZM11.6822 2.26331H11.5494V2.36354L11.6458 2.39099L11.6822 2.26331ZM1.02892 12.7991L1.09526 12.6841L0.896163 12.5692V12.7991H1.02892ZM7.79936 16.7056L7.92955 16.7316L7.94819 16.6382L7.86571 16.5906L7.79936 16.7056ZM7.75888 16.9084L7.69328 17.0238L7.85308 17.1146L7.88907 16.9344L7.75888 16.9084ZM1.02892 13.0827H0.896163V13.16L0.963311 13.1981L1.02892 13.0827ZM11.3192 6.84213L11.3855 6.72715L11.1864 6.61227V6.84213H11.3192ZM18.0896 10.7487L18.2198 10.7746L18.2384 10.6813L18.156 10.6337L18.0896 10.7487ZM18.0491 10.9515L17.9835 11.0669L18.1433 11.1577L18.1793 10.9774L18.0491 10.9515ZM11.3192 7.1258H11.1864V7.20303L11.2536 7.24121L11.3192 7.1258ZM11.3249 18.6327L11.3875 18.5156L11.1932 18.4119L11.1922 18.6321L11.3249 18.6327ZM18.6599 22.5495L18.7901 22.5755L18.8094 22.4788L18.7225 22.4324L18.6599 22.5495ZM18.6194 22.7523L18.5577 22.8698L18.7149 22.9525L18.7496 22.7783L18.6194 22.7523ZM11.3236 18.9168L11.1909 18.9162L11.1905 18.9968L11.2618 19.0343L11.3236 18.9168ZM21.6139 12.6744L21.6765 12.5574L21.4811 12.4527V12.6744H21.6139ZM28.8447 16.5475L28.9749 16.5734L28.9942 16.4769L28.9074 16.4304L28.8447 16.5475ZM28.8043 16.7503L28.7424 16.8677L28.8996 16.9506L28.9344 16.7762L28.8043 16.7503ZM21.6139 12.9603L21.4811 12.9618L21.482 13.0409L21.552 13.0778L21.6139 12.9603ZM7.38208 9.87711L7.44929 9.76263L7.24665 9.64366L7.24933 9.87863L7.38208 9.87711ZM7.45993 16.6855L7.32718 16.687L7.32792 16.7517L7.37937 16.791L7.45993 16.6855ZM7.7829 16.9321L7.70234 17.0376L7.91706 17.2015L7.91566 16.9314L7.7829 16.9321ZM7.74731 10.0915L7.88007 10.0908L7.87967 10.0153L7.81452 9.97705L7.74731 10.0915ZM17.6723 3.91883L17.7395 3.80435L17.5369 3.68538L17.5396 3.92035L17.6723 3.91883ZM17.7502 10.7272L17.6174 10.7287L17.6182 10.7934L17.6696 10.8327L17.7502 10.7272ZM18.0731 10.9738L17.9926 11.0793L18.2073 11.2432L18.2059 10.9731L18.0731 10.9738ZM18.0376 4.13326L18.1703 4.13256L18.1699 4.05702L18.1048 4.01877L18.0376 4.13326ZM11.2511 12.1428L11.3183 12.0284L11.1158 11.9095L11.1183 12.1443L11.2511 12.1428ZM11.3249 18.9168L11.1922 18.9183L11.1931 18.9975L11.2632 19.0343L11.3249 18.9168ZM11.6515 19.0884L11.5897 19.2059L11.7854 19.3087L11.7842 19.0877L11.6515 19.0884ZM11.6163 12.3573L11.7491 12.3566L11.7487 12.281L11.6835 12.2428L11.6163 12.3573ZM21.5413 6.18636L21.6088 6.07202L21.4061 5.95242L21.4086 6.18778L21.5413 6.18636ZM21.9399 13.1319L21.8781 13.2494L22.0738 13.3523L22.0727 13.1312L21.9399 13.1319ZM21.9048 6.40078L22.0375 6.40008L22.0372 6.32473L21.9723 6.28644L21.9048 6.40078ZM7.64499 12.1911L7.70999 12.0753L7.55081 11.986L7.51484 12.1649L7.64499 12.1911ZM11.3979 14.2982L11.5224 14.3444L11.5618 14.238L11.4629 14.1825L11.3979 14.2982ZM11.3374 14.4613L11.2731 14.5774L11.4081 14.6523L11.4619 14.5075L11.3374 14.4613ZM7.60451 12.3926L7.47436 12.3664L7.45523 12.4616L7.54016 12.5087L7.60451 12.3926ZM17.937 6.2346L18.002 6.11884L17.8424 6.02925L17.8068 6.20878L17.937 6.2346ZM21.6899 8.34131L21.8146 8.38697L21.8534 8.28086L21.7549 8.22554L21.6899 8.34131ZM21.6299 8.50525L21.5655 8.62136L21.7012 8.69654L21.7545 8.55091L21.6299 8.50525ZM17.897 6.43652L17.7668 6.41069L17.7479 6.50569L17.8326 6.55263L17.897 6.43652ZM1.54185 6.80907L1.47536 6.69417L1.3173 6.78564L1.45307 6.90777L1.54185 6.80907ZM11.5354 1.02591L11.5635 0.896164L11.5133 0.885299L11.4689 0.911008L11.5354 1.02591ZM11.8984 1.10453L11.9651 1.2193L12.2611 1.04725L11.9265 0.974786L11.8984 1.10453ZM1.75539 7.00116L1.6666 7.09986L1.7385 7.16454L1.82211 7.11593L1.75539 7.00116ZM9.85465 9.36205L9.7878 9.24736L9.63187 9.33825L9.76508 9.46003L9.85465 9.36205ZM19.8824 3.51679L19.9114 3.38724L19.8606 3.37587L19.8156 3.4021L19.8824 3.51679ZM20.2459 3.59809L20.313 3.71265L20.6041 3.54219L20.2749 3.46854L20.2459 3.59809ZM10.0682 9.55726L9.97862 9.65524L10.0508 9.72126L10.1353 9.67182L10.0682 9.55726ZM18.603 16.8289L18.5356 16.7145L18.4694 16.7535L18.4702 16.8303L18.603 16.8289ZM28.7589 10.8492L28.8296 10.7368L28.7612 10.6937L28.6915 10.7348L28.7589 10.8492ZM29 11.001L29.0673 11.1155L29.2552 11.0049L29.0708 10.8887L29 11.001ZM18.6061 17.1143L18.4734 17.1158L18.4759 17.345L18.6734 17.2288L18.6061 17.1143ZM18.7053 22.2819L18.6383 22.1673L18.5749 22.2044L18.5726 22.2778L18.7053 22.2819ZM28.633 16.4746L28.7037 16.3623L28.6355 16.3193L28.566 16.36L28.633 16.4746ZM28.8741 16.6265L28.9414 16.741L29.1294 16.6304L28.9449 16.5142L28.8741 16.6265ZM18.6951 22.6094L18.5624 22.6052L18.5549 22.8458L18.7623 22.7238L18.6951 22.6094ZM1.33854 12.5578L1.27123 12.4434L1.21307 12.4776L1.20643 12.5448L1.33854 12.5578ZM11.4762 6.59376L11.5876 6.52155L11.5184 6.41488L11.4089 6.47934L11.4762 6.59376ZM11.5865 6.76396L11.6541 6.8782L11.7731 6.80778L11.6979 6.69175L11.5865 6.76396ZM1.31007 12.846L1.17796 12.8329L1.1522 13.0937L1.37769 12.9602L1.31007 12.846ZM28.9466 11.0618L29.0793 11.064L29.0816 10.9321L28.9496 10.9291L28.9466 11.0618ZM28.8536 16.5609L28.9284 16.6705L28.9852 16.6318L28.9864 16.5631L28.8536 16.5609ZM28.7317 16.6439L28.599 16.6444L28.5999 16.8944L28.8065 16.7536L28.7317 16.6439ZM28.7104 11.0564L28.7134 10.9237L28.5771 10.9206L28.5776 11.0569L28.7104 11.0564ZM11.6933 1.16662L11.826 1.16923L11.8286 1.03693L11.6963 1.03391L11.6933 1.16662ZM11.5799 6.95649L11.6536 7.06687L11.7112 7.02837L11.7126 6.95909L11.5799 6.95649ZM11.4588 7.03735H11.3261V7.28572L11.5326 7.14773L11.4588 7.03735ZM11.4588 1.16126L11.4619 1.02855L11.3261 1.02544V1.16126H11.4588ZM25.4166 13.1162L25.5493 13.1194L25.5525 12.9865L25.4196 12.9835L25.4166 13.1162ZM25.2831 18.7104L25.3569 18.8208L25.4142 18.7825L25.4158 18.7136L25.2831 18.7104ZM25.1621 18.7913L25.0294 18.7909L25.0285 19.0402L25.2359 18.9017L25.1621 18.7913ZM25.1808 13.1109L25.1838 12.9782L25.0485 12.9751L25.0481 13.1104L25.1808 13.1109ZM8.16416 3.22062L8.29688 3.22323L8.29949 3.09067L8.16693 3.08789L8.16416 3.22062ZM8.05027 9.01138L8.12403 9.12176L8.18163 9.08326L8.183 9.01399L8.05027 9.01138ZM7.92927 9.09223H7.79651V9.3406L8.00302 9.20261L7.92927 9.09223ZM7.92927 3.2157L7.93204 3.08298L7.79651 3.08014V3.2157H7.92927ZM21.8874 15.1702L22.0202 15.1734L22.0234 15.0403L21.8902 15.0375L21.8874 15.1702ZM21.754 20.7148L21.828 20.825L21.885 20.7867L21.8867 20.718L21.754 20.7148ZM21.633 20.7962L21.5002 20.7957L21.4994 21.0458L21.707 20.9063L21.633 20.7962ZM21.6512 15.1653L21.654 15.0326L21.5189 15.0298L21.5185 15.1649L21.6512 15.1653ZM4.63502 5.27506L4.76775 5.27767L4.77035 5.14511L4.63779 5.14233L4.63502 5.27506ZM4.52113 11.0663L4.59517 11.1765L4.6525 11.1379L4.65386 11.0689L4.52113 11.0663ZM4.40013 11.1476H4.26737V11.3967L4.47416 11.2578L4.40013 11.1476ZM4.40013 5.27014L4.4029 5.13742L4.26737 5.13458V5.27014H4.40013ZM28.6308 16.6502L28.4994 16.6694L28.5518 17.028L28.7434 16.7204L28.6308 16.6502ZM28.7317 16.488L28.8444 16.5582L28.8692 16.5184L28.8635 16.4718L28.7317 16.488ZM28.1063 11.421L28.238 11.4047L28.2141 11.2108L28.0426 11.3045L28.1063 11.421ZM27.8838 11.5425L27.8202 11.426L27.7391 11.4703L27.7525 11.5617L27.8838 11.5425ZM11.3779 6.75324L11.2465 6.77245L11.299 7.13105L11.4906 6.82341L11.3779 6.75324ZM11.4789 6.59108L11.5916 6.66126L11.6164 6.6214L11.6106 6.57481L11.4789 6.59108ZM10.8534 1.52578L10.9851 1.50951L10.9612 1.31562L10.7897 1.40928L10.8534 1.52578ZM10.6309 1.64729L10.5673 1.53078L10.4862 1.57508L10.4996 1.6665L10.6309 1.64729ZM25.1016 18.7028L24.9703 18.7221L25.0227 19.0806L25.2143 18.773L25.1016 18.7028ZM25.2026 18.5407L25.3153 18.6109L25.3401 18.571L25.3344 18.5244L25.2026 18.5407ZM24.5767 13.4754L24.7084 13.4591L24.6845 13.2652L24.513 13.3589L24.5767 13.4754ZM24.3542 13.5969L24.2906 13.4804L24.2095 13.5247L24.2229 13.6161L24.3542 13.5969ZM7.84874 8.80768L7.71739 8.8269L7.76987 9.18545L7.96143 8.87785L7.84874 8.80768ZM7.94973 8.64552L8.06242 8.7157L8.08724 8.67584L8.08148 8.62924L7.94973 8.64552ZM7.3238 3.58022L7.45555 3.56394L7.43159 3.37007L7.26016 3.46372L7.3238 3.58022ZM7.10137 3.70173L7.03772 3.58522L6.95663 3.62952L6.97001 3.72096L7.10137 3.70173ZM21.572 20.7573L21.4407 20.7765L21.4931 21.1351L21.6847 20.8275L21.572 20.7573ZM21.673 20.5951L21.7857 20.6653L21.8105 20.6255L21.8048 20.5789L21.673 20.5951ZM20.8251 15.6513L20.7615 15.5348L20.6804 15.5791L20.6937 15.6706L20.8251 15.6513ZM4.09094 10.9452L3.95959 10.9644L4.01205 11.323L4.20363 11.0154L4.09094 10.9452ZM4.19193 10.783L4.30462 10.8532L4.32944 10.8134L4.32368 10.7668L4.19193 10.783ZM3.56644 5.71775L3.6982 5.70148L3.67425 5.50759L3.5028 5.60125L3.56644 5.71775ZM3.34401 5.83926L3.28037 5.72275L3.19928 5.76705L3.21265 5.85847L3.34401 5.83926ZM11.486 2.74889L11.6143 2.71492L11.5689 2.54338L11.4172 2.63536L11.486 2.74889ZM10.9966 3.04551L10.9278 2.93198L10.874 2.9646L10.8652 3.02692L10.9966 3.04551ZM10.9766 3.18711L10.8452 3.16853L10.8077 3.43323L11.0412 3.30307L10.9766 3.18711ZM11.5216 2.88335L11.5862 2.9993L11.6763 2.94909L11.6499 2.84938L11.5216 2.88335ZM7.9564 4.80333L8.08487 4.76986L8.03995 4.59745L7.88759 4.6898L7.9564 4.80333ZM7.46705 5.09995L7.39823 4.98642L7.34459 5.01893L7.33565 5.08102L7.46705 5.09995ZM7.44658 5.242L7.31519 5.22307L7.27694 5.48854L7.51122 5.35796L7.44658 5.242ZM7.99155 4.93824L8.05618 5.05419L8.14591 5.00418L8.12001 4.90477L7.99155 4.93824ZM4.42682 6.85821L4.55518 6.82435L4.50988 6.65263L4.35801 6.74469L4.42682 6.85821ZM3.93746 7.15483L3.86865 7.04131L3.8148 7.07395L3.80601 7.13631L3.93746 7.15483ZM3.91744 7.29689L3.78599 7.27836L3.74871 7.54293L3.98208 7.41284L3.91744 7.29689ZM4.46241 6.99312L4.52704 7.10908L4.61706 7.0589L4.59077 6.95926L4.46241 6.99312ZM12.7846 11.6157L12.7089 11.7248L12.7782 11.7729L12.8512 11.7305L12.7846 11.6157ZM21.8963 6.32841L21.963 6.44323L22.1501 6.33462L21.9685 6.21699L21.8963 6.32841ZM21.7184 6.21316L21.7906 6.10173L21.7224 6.05762L21.6521 6.09813L21.7184 6.21316ZM12.583 11.4759L12.5168 11.3609L12.3351 11.4655L12.5074 11.585L12.583 11.4759ZM16.1162 14.4506L16.0409 14.56L16.1098 14.6073L16.1823 14.5657L16.1162 14.4506ZM25.3579 9.14539L25.424 9.26052L25.6126 9.15222L25.43 9.03397L25.3579 9.14539ZM25.1799 9.03014L25.2521 8.91872L25.1843 8.87483L25.1142 8.9148L25.1799 9.03014ZM15.9129 14.3108L15.8471 14.1954L15.6632 14.3002L15.8376 14.4201L15.9129 14.3108ZM6.05148 8.29172L5.97664 8.40137L6.04551 8.44838L6.11776 8.40674L6.05148 8.29172ZM15.1188 3.06695L15.1851 3.18197L15.4579 3.02477L15.1549 2.93919L15.1188 3.06695ZM14.8625 2.99458L14.8986 2.86682L14.845 2.85168L14.7966 2.87935L14.8625 2.99458ZM5.84728 8.15235L5.78136 8.03712L5.59728 8.14243L5.77244 8.26199L5.84728 8.15235ZM3.38761 7.49523L3.31254 7.60472L3.38148 7.65199L3.4539 7.61024L3.38761 7.49523ZM12.3824 2.31066L12.4487 2.42568L12.7214 2.26847L12.4185 2.1829L12.3824 2.31066ZM12.1262 2.23829L12.1622 2.11054L12.1086 2.09539L12.0602 2.12307L12.1262 2.23829ZM3.1843 7.35585L3.11836 7.24064L2.93474 7.34572L3.10924 7.46535L3.1843 7.35585ZM19.0236 22.6035L18.9791 16.6992L18.7136 16.7012L18.7581 22.6055L19.0236 22.6035ZM18.9327 16.5994L10.3788 9.26484L10.206 9.4664L18.7599 16.801L18.9327 16.5994ZM10.3299 9.23829L1.60296 6.66566L1.52789 6.92033L10.2549 9.49296L10.3299 9.23829ZM1.49067 6.68329L1.2193 6.86823L1.36882 7.08763L1.64019 6.90269L1.49067 6.68329ZM1.25652 7.10527L9.94925 9.66762L10.0243 9.41295L1.33159 6.8506L1.25652 7.10527ZM9.90038 9.64108L18.4552 16.9743L18.628 16.7728L10.0732 9.4395L9.90038 9.64108ZM18.4088 16.8746L18.4533 22.7788L18.7188 22.7768L18.6743 16.8726L18.4088 16.8746ZM18.6517 22.8932L18.9564 22.7198L18.8252 22.4891L18.5204 22.6624L18.6517 22.8932ZM28.8783 10.7932L20.2216 3.42552L20.0495 3.62771L28.7062 10.9954L28.8783 10.7932ZM20.1731 3.39927L11.592 0.872652L11.517 1.12735L20.0981 3.65397L20.1731 3.39927ZM11.4781 0.891398L11.0969 1.15943L11.2496 1.37663L11.6308 1.1086L11.4781 0.891398ZM11.1358 1.39539L11.1981 1.4137L11.273 1.15898L11.2107 1.14067L11.1358 1.39539ZM11.3121 1.39478L11.4171 1.32062L11.2639 1.10376L11.1589 1.17791L11.3121 1.39478ZM11.303 1.33953L19.8858 3.86749L19.9609 3.6128L11.378 1.08484L11.303 1.33953ZM19.8373 3.84123L28.4366 11.1624L28.6087 10.9603L20.0094 3.63907L19.8373 3.84123ZM28.5926 11.1742L28.8622 11.0071L28.7223 10.7814L28.4527 10.9485L28.5926 11.1742ZM1.08806 13.2317L1.44084 12.919L1.26472 12.7203L0.911942 13.033L1.08806 13.2317ZM1.48545 12.8243L1.6981 6.83389L1.43276 6.82447L1.22011 12.8149L1.48545 12.8243ZM1.48922 6.72047L1.15468 6.955L1.30709 7.17241L1.64163 6.93788L1.48922 6.72047ZM1.09823 7.05866L0.867342 13.1273L1.13266 13.1374L1.36354 7.06875L1.09823 7.05866ZM4.35563 15.0982L4.75868 15.0589L4.7329 14.7946L4.32985 14.834L4.35563 15.0982ZM4.87854 14.927L4.88966 9.12867L4.62416 9.12816L4.61304 14.9265L4.87854 14.927ZM4.7838 8.99841L4.37986 8.91488L4.32609 9.17488L4.73003 9.25842L4.7838 8.99841ZM4.22022 9.04465L4.20999 14.9659L4.47549 14.9663L4.48572 9.04511L4.22022 9.04465ZM14.6459 9.14351L15.0494 9.10419L15.0236 8.83994L14.6201 8.87925L14.6459 9.14351ZM15.1692 8.97232L15.1804 3.17352L14.9148 3.17301L14.9037 8.97181L15.1692 8.97232ZM15.0745 3.04327L14.671 2.95973L14.6172 3.21973L15.0207 3.30326L15.0745 3.04327ZM14.5114 3.08948L14.5002 9.01113L14.7657 9.01163L14.7769 3.08998L14.5114 3.08948ZM14.6876 20.7153L15.0911 20.9279L15.2149 20.693L14.8114 20.4804L14.6876 20.7153ZM15.2858 20.8105L15.2885 15.3258L15.0229 15.3256L15.0203 20.8104L15.2858 20.8105ZM15.2385 15.2219L14.835 14.9002L14.6695 15.1079L15.073 15.4295L15.2385 15.2219ZM14.6195 15.004L14.6168 20.5977L14.8823 20.5979L14.885 15.0041L14.6195 15.004ZM24.9774 14.7574L25.3809 14.9701L25.5047 14.7352L25.1012 14.5225L24.9774 14.7574ZM25.5756 14.8527L25.5787 9.36882L25.3132 9.36867L25.3101 14.8525L25.5756 14.8527ZM25.5287 9.26494L25.1252 8.94331L24.9597 9.15092L25.3632 9.47256L25.5287 9.26494ZM24.9097 9.04704L24.9066 14.6399L25.1721 14.6401L25.1752 9.04719L24.9097 9.04704ZM1.35577 8.14517L7.36861 9.84716L7.44092 9.59169L1.42809 7.8897L1.35577 8.14517ZM7.33787 9.83409L11.5748 12.3058L11.7086 12.0764L7.47166 9.60475L7.33787 9.83409ZM11.5559 12.2924L18.5977 18.2543L18.7693 18.0516L11.7275 12.0898L11.5559 12.2924ZM18.5508 18.1529V18.4062H18.8163V18.1529H18.5508ZM18.7695 18.3051L11.6458 12.2521L11.4739 12.4544L18.5975 18.5074L18.7695 18.3051ZM11.6264 12.2384L7.4295 9.80691L7.2964 10.0367L11.4933 12.4681L11.6264 12.2384ZM7.39934 9.79411L1.42832 8.09213L1.35554 8.34747L7.32656 10.0495L7.39934 9.79411ZM1.52468 8.2198V8.01744H1.25918V8.2198H1.52468ZM4.08912 5.47072L9.89153 7.10926L9.96369 6.85375L4.16128 5.2152L4.08912 5.47072ZM9.86072 7.09618L14.0976 9.56785L14.2314 9.33851L9.99451 6.86684L9.86072 7.09618ZM14.0788 9.5545L21.121 15.5164L21.2926 15.3137L14.2503 9.35186L14.0788 9.5545ZM21.1292 15.3073L20.9699 15.4221L21.1252 15.6375L21.2844 15.5227L21.1292 15.3073ZM21.1335 15.4287L14.1704 9.51371L13.9985 9.71607L20.9616 15.631L21.1335 15.4287ZM14.151 9.50002L9.95412 7.06855L9.82103 7.29829L14.0179 9.72976L14.151 9.50002ZM9.92362 7.05566L4.03623 5.39477L3.96415 5.6503L9.85153 7.31119L9.92362 7.05566ZM4.10915 5.59838L4.23415 5.4188L4.01624 5.26711L3.89124 5.44669L4.10915 5.59838ZM7.97185 3.26482L13.9842 4.9668L14.0566 4.71133L8.04417 3.00935L7.97185 3.26482ZM13.9535 4.95374L18.1909 7.42541L18.3247 7.19606L14.0873 4.72439L13.9535 4.95374ZM18.172 7.41205L25.2138 13.3743L25.3854 13.1717L18.3436 7.20942L18.172 7.41205ZM25.1668 13.273V13.5263H25.4323V13.273H25.1668ZM25.3855 13.4252L18.2628 7.37218L18.0908 7.5745L25.2136 13.6275L25.3855 13.4252ZM18.2434 7.35847L14.0469 4.92701L13.9138 5.15674L18.1102 7.58821L18.2434 7.35847ZM14.0168 4.91421L8.04443 3.21044L7.97159 3.46576L13.9439 5.16953L14.0168 4.91421ZM8.14076 3.3381V3.13708H7.87525V3.3381H8.14076ZM11.646 2.18824L17.6589 3.89022L17.7312 3.63475L11.7183 1.93277L11.646 2.18824ZM17.6281 3.87715L21.865 6.34882L21.9988 6.11949L17.7619 3.64781L17.6281 3.87715ZM21.847 6.33617L28.7456 12.08L28.9154 11.876L22.0169 6.13213L21.847 6.33617ZM28.6979 11.9709L28.6801 12.3042L28.9453 12.3183L28.9631 11.9851L28.6979 11.9709ZM28.8987 12.2101L21.9374 6.29515L21.7655 6.49748L28.7267 12.4124L28.8987 12.2101ZM21.918 6.28146L17.7211 3.84865L17.5879 4.07836L21.7848 6.51116L21.918 6.28146ZM17.6909 3.83582L11.7185 2.13563L11.6458 2.39099L17.6182 4.09118L17.6909 3.83582ZM11.8149 2.26331V2.0605H11.5494V2.26331H11.8149ZM0.96257 12.9141L7.73302 16.8206L7.86571 16.5906L1.09526 12.6841L0.96257 12.9141ZM7.66918 16.6796L7.6287 16.8824L7.88907 16.9344L7.92955 16.7316L7.66918 16.6796ZM7.82449 16.793L1.09452 12.9673L0.963311 13.1981L7.69328 17.0238L7.82449 16.793ZM1.16167 13.0827V12.7991H0.896163V13.0827H1.16167ZM11.2528 6.95712L18.0233 10.8636L18.156 10.6337L11.3855 6.72715L11.2528 6.95712ZM17.9594 10.7227L17.9189 10.9255L18.1793 10.9774L18.2198 10.7746L17.9594 10.7227ZM18.1147 10.836L11.3848 7.01039L11.2536 7.24121L17.9835 11.0669L18.1147 10.836ZM11.4519 7.1258V6.84213H11.1864V7.1258H11.4519ZM11.2624 18.7498L18.5974 22.6666L18.7225 22.4324L11.3875 18.5156L11.2624 18.7498ZM18.5297 22.5235L18.4893 22.7263L18.7496 22.7783L18.7901 22.5755L18.5297 22.5235ZM18.6812 22.6348L11.3854 18.7993L11.2618 19.0343L18.5577 22.8698L18.6812 22.6348ZM11.4564 18.9174L11.4577 18.6333L11.1922 18.6321L11.1909 18.9162L11.4564 18.9174ZM21.5512 12.7915L28.7821 16.6645L28.9074 16.4304L21.6765 12.5574L21.5512 12.7915ZM28.7146 16.5215L28.6741 16.7243L28.9344 16.7762L28.9749 16.5734L28.7146 16.5215ZM28.8662 16.6328L21.6758 12.8429L21.552 13.0778L28.7424 16.8677L28.8662 16.6328ZM21.7466 12.9603V12.6744H21.4811V12.9603H21.7466ZM7.24933 9.87863L7.32718 16.687L7.59267 16.684L7.51482 9.87559L7.24933 9.87863ZM7.37937 16.791L7.70234 17.0376L7.86346 16.8266L7.54049 16.58L7.37937 16.791ZM7.91566 16.9314L7.88007 10.0908L7.61456 10.0922L7.65015 16.9328L7.91566 16.9314ZM7.81452 9.97705L7.44929 9.76263L7.31487 9.99159L7.6801 10.206L7.81452 9.97705ZM17.5396 3.92035L17.6174 10.7287L17.8829 10.7257L17.8051 3.91731L17.5396 3.92035ZM17.6696 10.8327L17.9926 11.0793L18.1537 10.8683L17.8307 10.6217L17.6696 10.8327ZM18.2059 10.9731L18.1703 4.13256L17.9048 4.13395L17.9404 10.9745L18.2059 10.9731ZM18.1048 4.01877L17.7395 3.80435L17.6051 4.03331L17.9703 4.24774L18.1048 4.01877ZM11.1183 12.1443L11.1922 18.9183L11.4577 18.9154L11.3838 12.1414L11.1183 12.1443ZM11.2632 19.0343L11.5897 19.2059L11.7132 18.9708L11.3867 18.7993L11.2632 19.0343ZM11.7842 19.0877L11.7491 12.3566L11.4836 12.358L11.5187 19.0891L11.7842 19.0877ZM11.6835 12.2428L11.3183 12.0284L11.1839 12.2573L11.5491 12.4718L11.6835 12.2428ZM21.4086 6.18778L21.4811 12.9618L21.7466 12.9589L21.6741 6.18493L21.4086 6.18778ZM21.552 13.0778L21.8781 13.2494L22.0017 13.0144L21.6757 12.8428L21.552 13.0778ZM22.0727 13.1312L22.0375 6.40008L21.772 6.40147L21.8072 13.1326L22.0727 13.1312ZM21.9723 6.28644L21.6088 6.07202L21.4739 6.30069L21.8373 6.51512L21.9723 6.28644ZM7.58 12.3068L11.3329 14.414L11.4629 14.1825L7.70999 12.0753L7.58 12.3068ZM11.2734 14.2521L11.2129 14.4151L11.4619 14.5075L11.5224 14.3444L11.2734 14.2521ZM11.4017 14.3452L7.66886 12.2764L7.54016 12.5087L11.2731 14.5774L11.4017 14.3452ZM7.73466 12.4187L7.77515 12.2172L7.51484 12.1649L7.47436 12.3664L7.73466 12.4187ZM17.872 6.35036L21.6249 8.45707L21.7549 8.22554L18.002 6.11884L17.872 6.35036ZM21.5653 8.29564L21.5052 8.45959L21.7545 8.55091L21.8146 8.38697L21.5653 8.29564ZM21.6942 8.38914L17.9613 6.3204L17.8326 6.55263L21.5655 8.62136L21.6942 8.38914ZM18.0272 6.46234L18.0672 6.26042L17.8068 6.20878L17.7668 6.41069L18.0272 6.46234ZM1.60834 6.92398L11.6019 1.14081L11.4689 0.911008L1.47536 6.69417L1.60834 6.92398ZM11.5073 1.15565L11.8703 1.23428L11.9265 0.974786L11.5635 0.896164L11.5073 1.15565ZM11.8317 0.989762L1.68867 6.88639L1.82211 7.11593L11.9651 1.2193L11.8317 0.989762ZM1.84417 6.90247L1.63063 6.71038L1.45307 6.90777L1.6666 7.09986L1.84417 6.90247ZM9.92151 9.47674L19.9493 3.63148L19.8156 3.4021L9.7878 9.24736L9.92151 9.47674ZM19.8534 3.64634L20.2169 3.72764L20.2749 3.46854L19.9114 3.38724L19.8534 3.64634ZM20.1788 3.48353L10.0011 9.4427L10.1353 9.67182L20.313 3.71265L20.1788 3.48353ZM10.1578 9.45928L9.94423 9.26407L9.76508 9.46003L9.97862 9.65524L10.1578 9.45928ZM18.6703 16.9433L28.8262 10.9636L28.6915 10.7348L18.5356 16.7145L18.6703 16.9433ZM28.6881 10.9615L28.9292 11.1134L29.0708 10.8887L28.8296 10.7368L28.6881 10.9615ZM28.9327 10.8866L18.5388 16.9999L18.6734 17.2288L29.0673 11.1155L28.9327 10.8866ZM18.7388 17.1129L18.7357 16.8274L18.4702 16.8303L18.4734 17.1158L18.7388 17.1129ZM18.7723 22.3965L28.7 16.5892L28.566 16.36L18.6383 22.1673L18.7723 22.3965ZM28.5622 16.587L28.8033 16.7388L28.9449 16.5142L28.7037 16.3623L28.5622 16.587ZM28.8068 16.5121L18.6278 22.4949L18.7623 22.7238L28.9414 16.741L28.8068 16.5121ZM18.8278 22.6135L18.838 22.2861L18.5726 22.2778L18.5624 22.6052L18.8278 22.6135ZM1.40586 12.6723L11.5435 6.70818L11.4089 6.47934L1.27123 12.4434L1.40586 12.6723ZM11.3648 6.66597L11.4751 6.83617L11.6979 6.69175L11.5876 6.52155L11.3648 6.66597ZM11.5189 6.64971L1.24246 12.7317L1.37769 12.9602L11.6541 6.8782L11.5189 6.64971ZM1.44218 12.859L1.47065 12.5709L1.20643 12.5448L1.17796 12.8329L1.44218 12.859ZM28.8139 11.0596L28.7209 16.5586L28.9864 16.5631L29.0793 11.064L28.8139 11.0596ZM28.7789 16.4512L28.657 16.5342L28.8065 16.7536L28.9284 16.6705L28.7789 16.4512ZM28.8645 16.6434L28.8431 11.0559L28.5776 11.0569L28.599 16.6444L28.8645 16.6434ZM28.7074 11.1892L28.9436 11.1945L28.9496 10.9291L28.7134 10.9237L28.7074 11.1892ZM11.5606 1.16402L11.4471 6.95389L11.7126 6.95909L11.826 1.16923L11.5606 1.16402ZM11.5061 6.84611L11.3851 6.92697L11.5326 7.14773L11.6536 7.06687L11.5061 6.84611ZM11.5916 7.03735V1.16126H11.3261V7.03735H11.5916ZM11.4558 1.29398L11.6903 1.29934L11.6963 1.03391L11.4619 1.02855L11.4558 1.29398ZM25.2839 13.1131L25.1504 18.7073L25.4158 18.7136L25.5493 13.1194L25.2839 13.1131ZM25.2094 18.6001L25.0884 18.6809L25.2359 18.9017L25.3569 18.8208L25.2094 18.6001ZM25.2949 18.7917L25.3136 13.1113L25.0481 13.1104L25.0294 18.7909L25.2949 18.7917ZM25.1778 13.2436L25.4136 13.249L25.4196 12.9835L25.1838 12.9782L25.1778 13.2436ZM8.03143 3.21801L7.91754 9.00877L8.183 9.01399L8.29688 3.22323L8.03143 3.21801ZM7.97651 8.901L7.85551 8.98185L8.00302 9.20261L8.12403 9.12176L7.97651 8.901ZM8.06202 9.09223V3.2157H7.79651V9.09223H8.06202ZM7.92649 3.34843L8.16138 3.35334L8.16693 3.08789L7.93204 3.08298L7.92649 3.34843ZM21.7547 15.167L21.6213 20.7117L21.8867 20.718L22.0202 15.1734L21.7547 15.167ZM21.6799 20.6047L21.5589 20.686L21.707 20.9063L21.828 20.825L21.6799 20.6047ZM21.7657 20.7966L21.784 15.1657L21.5185 15.1649L21.5002 20.7957L21.7657 20.7966ZM21.6485 15.298L21.8847 15.303L21.8902 15.0375L21.654 15.0326L21.6485 15.298ZM4.50229 5.27245L4.3884 11.0637L4.65386 11.0689L4.76775 5.27767L4.50229 5.27245ZM4.44709 10.9561L4.32609 11.0374L4.47416 11.2578L4.59517 11.1765L4.44709 10.9561ZM4.53288 11.1476V5.27014H4.26737V11.1476H4.53288ZM4.39735 5.40287L4.63224 5.40778L4.63779 5.14233L4.4029 5.13742L4.39735 5.40287ZM28.7434 16.7204L28.8444 16.5582L28.6191 16.4179L28.5181 16.58L28.7434 16.7204ZM28.8635 16.4718L28.238 11.4047L27.9745 11.4372L28.6 16.5043L28.8635 16.4718ZM28.0426 11.3045L27.8202 11.426L27.9475 11.659L28.1699 11.5375L28.0426 11.3045ZM27.7525 11.5617L28.4994 16.6694L28.7621 16.631L28.0152 11.5233L27.7525 11.5617ZM11.4906 6.82341L11.5916 6.66126L11.3662 6.5209L11.2652 6.68306L11.4906 6.82341ZM11.6106 6.57481L10.9851 1.50951L10.7216 1.54205L11.3471 6.60735L11.6106 6.57481ZM10.7897 1.40928L10.5673 1.53078L10.6946 1.76379L10.917 1.64229L10.7897 1.40928ZM10.4996 1.6665L11.2465 6.77245L11.5092 6.73402L10.7623 1.62807L10.4996 1.6665ZM25.2143 18.773L25.3153 18.6109L25.0899 18.4705L24.9889 18.6327L25.2143 18.773ZM25.3344 18.5244L24.7084 13.4591L24.4449 13.4917L25.0709 18.557L25.3344 18.5244ZM24.513 13.3589L24.2906 13.4804L24.4179 13.7134L24.6403 13.5919L24.513 13.3589ZM24.2229 13.6161L24.9703 18.7221L25.233 18.6836L24.4856 13.5777L24.2229 13.6161ZM7.96143 8.87785L8.06242 8.7157L7.83704 8.57534L7.73606 8.7375L7.96143 8.87785ZM8.08148 8.62924L7.45555 3.56394L7.19205 3.5965L7.81798 8.6618L8.08148 8.62924ZM7.26016 3.46372L7.03772 3.58522L7.16501 3.81823L7.38744 3.69673L7.26016 3.46372ZM6.97001 3.72096L7.71739 8.8269L7.9801 8.78845L7.23272 3.6825L6.97001 3.72096ZM21.6847 20.8275L21.7857 20.6653L21.5603 20.525L21.4593 20.6871L21.6847 20.8275ZM21.8048 20.5789L21.1793 15.5136L20.9158 15.5461L21.5413 20.6114L21.8048 20.5789ZM20.9839 15.4133L20.7615 15.5348L20.8887 15.7678L21.1112 15.6463L20.9839 15.4133ZM20.6937 15.6706L21.4407 20.7765L21.7034 20.7381L20.9565 15.6321L20.6937 15.6706ZM4.20363 11.0154L4.30462 10.8532L4.07924 10.7129L3.97826 10.875L4.20363 11.0154ZM4.32368 10.7668L3.6982 5.70148L3.43469 5.73402L4.06018 10.7993L4.32368 10.7668ZM3.5028 5.60125L3.28037 5.72275L3.40765 5.95576L3.63009 5.83426L3.5028 5.60125ZM3.21265 5.85847L3.95959 10.9644L4.2223 10.926L3.47537 5.82004L3.21265 5.85847ZM11.4172 2.63536L10.9278 2.93198L11.0654 3.15903L11.5548 2.86241L11.4172 2.63536ZM10.8652 3.02692L10.8452 3.16853L11.1081 3.2057L11.1281 3.06409L10.8652 3.02692ZM11.0412 3.30307L11.5862 2.9993L11.4569 2.76739L10.912 3.07116L11.0412 3.30307ZM11.6499 2.84938L11.6143 2.71492L11.3577 2.78286L11.3932 2.91732L11.6499 2.84938ZM7.88759 4.6898L7.39823 4.98642L7.53586 5.21347L8.02522 4.91685L7.88759 4.6898ZM7.33565 5.08102L7.31519 5.22307L7.57798 5.26093L7.59844 5.11887L7.33565 5.08102ZM7.51122 5.35796L8.05618 5.05419L7.92691 4.82228L7.38195 5.12604L7.51122 5.35796ZM8.12001 4.90477L8.08487 4.76986L7.82794 4.83679L7.86308 4.9717L8.12001 4.90477ZM4.35801 6.74469L3.86865 7.04131L4.00628 7.26836L4.49563 6.97174L4.35801 6.74469ZM3.80601 7.13631L3.78599 7.27836L4.0489 7.31541L4.06892 7.17336L3.80601 7.13631ZM3.98208 7.41284L4.52704 7.10908L4.39777 6.87717L3.85281 7.18093L3.98208 7.41284ZM4.59077 6.95926L4.55518 6.82435L4.29846 6.89208L4.33405 7.02698L4.59077 6.95926ZM12.8512 11.7305L21.963 6.44323L21.8297 6.21359L12.7179 11.5009L12.8512 11.7305ZM21.9685 6.21699L21.7906 6.10173L21.6462 6.32458L21.8242 6.43984L21.9685 6.21699ZM21.6521 6.09813L12.5168 11.3609L12.6493 11.5909L21.7847 6.32819L21.6521 6.09813ZM12.5074 11.585L12.7089 11.7248L12.8602 11.5067L12.6587 11.3668L12.5074 11.585ZM16.1823 14.5657L25.424 9.26052L25.2918 9.03026L16.0501 14.3354L16.1823 14.5657ZM25.43 9.03397L25.2521 8.91872L25.1077 9.14156L25.2857 9.25682L25.43 9.03397ZM25.1142 8.9148L15.8471 14.1954L15.9786 14.4261L25.2456 9.14548L25.1142 8.9148ZM15.8376 14.4201L16.0409 14.56L16.1914 14.3412L15.9881 14.2014L15.8376 14.4201ZM6.11776 8.40674L15.1851 3.18197L15.0525 2.95192L5.9852 8.1767L6.11776 8.40674ZM15.1549 2.93919L14.8986 2.86682L14.8265 3.12234L15.0827 3.1947L15.1549 2.93919ZM14.7966 2.87935L5.78136 8.03712L5.91321 8.26757L14.9285 3.10981L14.7966 2.87935ZM5.77244 8.26199L5.97664 8.40137L6.12632 8.18207L5.92212 8.0427L5.77244 8.26199ZM3.4539 7.61024L12.4487 2.42568L12.3161 2.19564L3.32131 7.38021L3.4539 7.61024ZM12.4185 2.1829L12.1622 2.11054L12.0901 2.36605L12.3463 2.43842L12.4185 2.1829ZM12.0602 2.12307L3.11836 7.24064L3.25024 7.47107L12.1921 2.35351L12.0602 2.12307ZM3.10924 7.46535L3.31254 7.60472L3.46267 7.38573L3.25937 7.24636L3.10924 7.46535Z" fill="#050E1A"/>
</svg>
