<svg width="17" height="15" viewBox="0 0 17 15" fill="none" xmlns="http://www.w3.org/2000/svg">
<path fill-rule="evenodd" clip-rule="evenodd" d="M0 0.75C0 0.335786 0.317132 0 0.708333 0H11.3333C11.7245 0 12.0417 0.335786 12.0417 0.75V10.5C12.0417 10.9142 11.7245 11.25 11.3333 11.25H0.708333C0.317132 11.25 0 10.9142 0 10.5V0.75ZM1.41667 1.5V9.75H10.625V1.5H1.41667Z" fill="#2B2B2B"/>
<path fill-rule="evenodd" clip-rule="evenodd" d="M10.625 4.5C10.625 4.08579 10.9421 3.75 11.3333 3.75H14.1667C14.3545 3.75 14.5347 3.82898 14.6675 3.96964L16.7925 6.21964C16.9254 6.36029 17 6.55109 17 6.75V10.5C17 10.9142 16.6829 11.25 16.2917 11.25H11.3333C10.9421 11.25 10.625 10.9142 10.625 10.5V4.5ZM12.0417 5.25V9.75H15.5833V7.06064L13.8733 5.25H12.0417Z" fill="#2B2B2B"/>
<path fill-rule="evenodd" clip-rule="evenodd" d="M3.89583 11.25C3.30903 11.25 2.83333 11.7537 2.83333 12.375C2.83333 12.9963 3.30903 13.5 3.89583 13.5C4.48264 13.5 4.95833 12.9963 4.95833 12.375C4.95833 11.7537 4.48264 11.25 3.89583 11.25ZM1.41667 12.375C1.41667 10.9253 2.52663 9.75 3.89583 9.75C5.26504 9.75 6.375 10.9253 6.375 12.375C6.375 13.8247 5.26504 15 3.89583 15C2.52663 15 1.41667 13.8247 1.41667 12.375Z" fill="#2B2B2B"/>
<path fill-rule="evenodd" clip-rule="evenodd" d="M13.1042 11.25C12.5174 11.25 12.0417 11.7537 12.0417 12.375C12.0417 12.9963 12.5174 13.5 13.1042 13.5C13.691 13.5 14.1667 12.9963 14.1667 12.375C14.1667 11.7537 13.691 11.25 13.1042 11.25ZM10.625 12.375C10.625 10.9253 11.735 9.75 13.1042 9.75C14.4734 9.75 15.5833 10.9253 15.5833 12.375C15.5833 13.8247 14.4734 15 13.1042 15C11.735 15 10.625 13.8247 10.625 12.375Z" fill="#2B2B2B"/>
</svg>
