<svg width="16" height="18" viewBox="0 0 16 18" fill="none" xmlns="http://www.w3.org/2000/svg">
<path d="M13.6 18H2.4C1.04 18 0 16.9364 0 15.5455V9.81818C0 8.42727 1.04 7.36364 2.4 7.36364H13.6C14.96 7.36364 16 8.42727 16 9.81818V15.5455C16 16.9364 14.96 18 13.6 18ZM2.4 9C1.92 9 1.6 9.32727 1.6 9.81818V15.5455C1.6 16.0364 1.92 16.3636 2.4 16.3636H13.6C14.08 16.3636 14.4 16.0364 14.4 15.5455V9.81818C14.4 9.32727 14.08 9 13.6 9H2.4Z" fill="#2B2B2B"/>
<path d="M4 9C3.52 9 3.2 8.67273 3.2 8.18182V4.90909C3.2 3.6 3.68 2.37277 4.64 1.47277C5.52 0.490949 6.72 0 8 0C10.24 0 12.24 1.6364 12.72 3.92731C12.8 4.3364 12.48 4.82727 12.08 4.90909C11.68 4.99091 11.2 4.74541 11.12 4.25451C10.8 2.69996 9.52 1.63636 8 1.63636C7.12 1.63636 6.32 1.9636 5.76 2.61814C5.12 3.19087 4.8 4.00909 4.8 4.90909V8.18182C4.8 8.67273 4.48 9 4 9Z" fill="#2B2B2B"/>
</svg>
