<svg width="19" height="19" viewBox="0 0 19 19" fill="none" xmlns="http://www.w3.org/2000/svg">
<path d="M15.7394 19C15.6561 19 15.5729 19 15.4896 19C12.8247 18.6696 10.1598 17.7609 7.91135 16.3565C5.82942 15.0348 3.99731 13.2174 2.66487 11.1522C1.16588 8.92174 0.249832 6.27823 0 3.63475C0 2.97388 0.166552 2.313 0.582939 1.81735C0.999326 1.3217 1.58227 0.991284 2.24849 0.908675C2.33176 0.908675 2.41504 0.908675 2.49832 0.908675H4.99664C6.2458 0.908675 7.32841 1.81735 7.49496 3.05648C7.57824 3.79996 7.74479 4.54347 7.99462 5.20434C8.32773 6.11303 8.0779 7.10435 7.41168 7.84783L6.82874 8.42605C7.82807 9.913 9.07724 11.2348 10.6595 12.2261L11.2424 11.6478C11.9087 10.9869 12.9913 10.7391 13.9073 11.0695C14.5735 11.3174 15.323 11.4826 16.0725 11.5652C17.3217 11.7304 18.2377 12.8043 18.2377 14.0435V16.5217C18.2377 17.1826 17.9879 17.8435 17.4883 18.2565C16.9886 18.6695 16.4056 19 15.7394 19ZM4.99664 2.56085H2.49832C2.24849 2.56085 1.99865 2.72609 1.8321 2.8913C1.74882 3.05652 1.66555 3.2217 1.66555 3.46952C1.91538 5.86518 2.74815 8.17823 4.08059 10.2434C5.32975 12.1434 6.91202 13.7956 8.8274 14.9522C10.9093 16.2739 13.2411 17.1 15.6562 17.3478C15.9893 17.3478 16.1558 17.2652 16.3224 17.1C16.4889 16.9347 16.5722 16.7696 16.5722 16.5217V14.0435C16.5722 13.6304 16.2391 13.3 15.8227 13.2174C14.9899 13.1348 14.1572 12.8869 13.3244 12.5565C12.9913 12.4739 12.6582 12.4739 12.4083 12.7217L11.3257 13.7956C11.0759 14.0434 10.6595 14.1261 10.3264 13.9608C8.0779 12.7217 6.2458 10.9043 4.99664 8.67391C4.91337 8.34348 4.99665 7.93042 5.24648 7.6826L6.32907 6.6087C6.49563 6.44348 6.57892 6.03043 6.49564 5.78261C6.16253 4.95652 5.99597 4.13043 5.82942 3.30435C5.82942 2.8913 5.41303 2.56085 4.99664 2.56085ZM14.9066 8.34346C14.4903 8.34346 14.1572 8.09564 14.0739 7.6826C13.824 6.36086 12.7414 5.36954 11.409 5.03911C10.9926 4.9565 10.6595 4.54345 10.7428 4.0478C10.8261 3.63475 11.2424 3.30433 11.7421 3.38694C13.7408 3.79998 15.323 5.28695 15.6562 7.26956C15.7394 7.6826 15.4896 8.17826 14.9899 8.26087C14.9899 8.26087 14.9899 8.34346 14.9066 8.34346ZM18.2377 8.26087C17.8214 8.26087 17.4882 7.93041 17.405 7.51737C17.0719 4.46085 14.6568 2.06522 11.4923 1.65217C11.0759 1.56957 10.7428 1.15649 10.7428 0.743448C10.7428 0.330405 11.2424 0 11.6588 0C15.5729 0.413043 18.5709 3.38695 18.9872 7.26956C19.0705 7.6826 18.7374 8.09562 18.2377 8.17823C18.321 8.26084 18.2377 8.26087 18.2377 8.26087Z" fill="#2B2B2B"/>
</svg>
