<svg width="27" height="27" viewBox="0 0 27 27" fill="none" xmlns="http://www.w3.org/2000/svg">
<path d="M15.7652 10.3672C15.4942 10.6382 15.4942 11.0776 15.7652 11.3486C16.0362 11.6196 16.4755 11.6196 16.7465 11.3486L15.7652 10.3672ZM25.5826 0.549859L15.7652 10.3672L16.7465 11.3486L26.5639 1.5312L25.5826 0.549859Z" fill="#008CFF"/>
<path d="M1.08398 13.0894H13.5788V16.4362" stroke="#008CFF" stroke-width="1.38782"/>
<path d="M15.7652 20.4078C15.4942 20.6787 15.4942 21.1181 15.7652 21.3891C16.0362 21.6601 16.4755 21.6601 16.7465 21.3891L15.7652 20.4078ZM25.5826 10.5904L15.7652 20.4078L16.7465 21.3891L26.5639 11.5717L25.5826 10.5904Z" fill="#008CFF"/>
<path d="M4.00527 20.0598L1 23.0206M1 23.0206V25.9813H13.7724L25.9813 13.9533V10.9925H21.0978V9.51216M1 23.0206H5.69574V16.3589H1V13.2131L13.3968 1H25.9813V4.33085L13.7724 16.3589H8.70102V23.0206H12.8333" stroke="black" stroke-width="1.38785" stroke-linecap="round"/>
</svg>
