<svg width="28" height="16" viewBox="0 0 28 16" fill="none" xmlns="http://www.w3.org/2000/svg">
<path fill-rule="evenodd" clip-rule="evenodd" d="M1.55007 7.8879C1.44212 8.67974 1.56755 8.20151 1.25534 8.30264C1.06822 7.91183 1.04081 8.05188 1.55007 7.8879ZM12.551 13.1015L22.3847 7.80112C23.1277 7.39403 25.1212 6.17405 25.8543 6.00815C26.0236 7.83143 26.3094 7.27089 26.8917 7.85855C24.3899 9.24124 21.8734 10.5426 19.349 11.9422C18.0988 12.6377 16.8551 13.2885 15.5706 13.9773C15.1066 14.2255 14.072 14.9105 13.6213 14.8706C12.7543 14.7956 12.5778 13.88 12.5517 13.1009L12.551 13.1015ZM11.5705 12.4073C11.9047 12.028 17.4994 9.13692 18.4216 8.63061L23.6898 5.78164C24.4667 5.34935 24.6812 5.07562 25.4845 5.69071C25.2035 6.04165 15.3746 11.2269 13.377 12.3266C12.5856 12.7643 12.3879 13.0508 11.5705 12.4073ZM10.77 12.2086C10.7323 12.3793 10.7014 12.5956 10.6514 12.7433C10.6377 12.7828 10.5924 12.8958 10.5757 12.9305C10.3909 13.3102 10.5493 13.0247 10.4139 13.1762C9.60442 12.8042 9.57083 12.5681 9.54855 11.5019L16.1286 7.91278C17.2578 7.32895 18.2534 6.74831 19.3778 6.15618C20.0975 5.77813 22.0752 4.58494 22.7617 4.41298L23.0876 5.84576C22.1215 6.21425 21.0293 6.90783 20.0516 7.43551C19.0522 7.97595 18.0186 8.52022 16.9775 9.0897C15.9363 9.65917 15.0507 10.1301 13.9904 10.7043C13.049 11.2148 11.7971 12.0261 10.7689 12.2079L10.77 12.2086ZM6.51113 9.80242C7.26714 9.54305 14.9181 5.29926 16.3746 4.52847C16.9795 4.20944 19.1485 2.9333 19.7095 2.80569C19.922 3.18853 19.9796 3.64252 20.0221 4.14212C19.4583 4.60377 12.1336 8.44525 10.8186 9.16403C10.1603 9.5239 8.42995 10.6593 7.78395 10.4772L7.55228 11.56C6.52792 11.2687 6.57727 10.8983 6.51113 9.80242ZM8.58623 10.7276C9.06602 10.355 9.75486 10.0704 10.331 9.75106C10.9537 9.40682 11.502 9.11745 12.087 8.80033L19.1101 5.00798C21.1321 3.94081 21.6804 3.20704 22.4838 4.16701L11.9527 9.82954C10.672 10.5442 9.50914 11.4413 8.86828 11.01C8.54133 10.7901 8.74045 10.9608 8.5852 10.7276H8.58623ZM5.54846 9.17775C5.56902 9.15319 5.60466 9.08683 5.617 9.10852L15.8462 3.5165C18.2671 2.22186 18.4885 1.67567 19.4395 2.46177L17.8287 3.42557C17.2341 3.74014 16.7088 4.03939 16.073 4.36959L9.13525 8.12016C6.75342 9.4317 6.53066 9.86878 5.54846 9.17743V9.17775ZM4.44699 9.91536C3.20844 9.56123 3.55903 8.24777 3.57171 8.22863C4.11182 7.78677 6.00494 6.8772 6.79694 6.45831C7.95804 5.84353 8.9471 5.31266 10.0386 4.69788C11.1302 4.0831 12.1854 3.53692 13.2879 2.94319C14.2635 2.41902 15.6896 1.52381 16.657 1.15405C16.9021 1.47979 16.9754 2.14689 17.034 2.55589L5.71022 8.67815C5.49499 8.78757 4.98744 8.88584 4.83014 9.01281C4.61629 9.18509 4.63102 9.60271 4.4463 9.91568L4.44699 9.91536ZM9.51257 3.69133C10.733 3.05677 11.8132 2.42476 13.0233 1.79053C15.3256 0.584259 15.5418 0.0358403 16.4768 0.880323C13.4266 2.64586 9.22024 4.7853 5.95559 6.57699L3.32325 7.93065C3.02818 7.93639 2.68924 7.67542 2.52302 7.49932L9.51257 3.69133ZM0 8.14504L1.7886 9.17584L2.14022 8.10229C3.88803 8.62104 1.98154 9.98778 4.91136 10.778L5.15468 9.70799C6.22496 9.9798 5.83256 10.4577 6.17767 11.3261C6.36822 11.8047 7.31786 12.2232 7.90424 12.4108L8.17326 11.3223C9.35287 11.6672 8.8436 11.9486 9.1774 12.9149C9.33402 13.3699 10.345 13.8191 10.8296 13.9996L11.2103 12.9621C12.9876 13.6286 11.0136 14.7143 13.7433 15.5556C13.7656 15.5556 27.7944 8.1661 28 7.75837C27.6593 7.53505 26.9414 7.24281 26.7388 7.02746C26.3619 6.6274 26.5613 5.98167 26.2614 5.53024C26.0849 5.2648 25.2491 4.84368 24.9872 4.84591C24.5935 4.84815 24.1702 5.31266 23.6154 5.39944C23.5242 5.03063 23.4814 4.69692 23.394 4.32365C23.2552 3.73376 23.2264 3.81639 22.7226 3.52958C21.5776 2.88003 21.749 3.45269 20.6804 3.77173C20.41 3.35156 20.4991 3.1394 20.3624 2.63054C20.2126 2.07255 20.152 2.16124 19.6427 1.88273C18.531 1.27656 18.6704 1.85082 17.6149 2.17975C17.2016 1.06313 17.5775 0.523004 16.2783 0.0718907C15.6152 -0.158452 15.4935 0.222156 14.9976 0.408471C14.2365 0.695602 14.6669 0.173343 13.7464 0.65317L4.60943 5.58352C3.74581 6.04867 0.440724 7.70828 0 8.14504Z" fill="black"/>
</svg>
