<svg width="18" height="20" viewBox="0 0 18 20" fill="none" xmlns="http://www.w3.org/2000/svg">
<path fill-rule="evenodd" clip-rule="evenodd" d="M8.44747 0.191498C8.77247 -0.0638326 9.22756 -0.0638326 9.55256 0.191498L17.6526 6.55513C17.8718 6.72736 18 6.9922 18 7.27274V17.2727C18 17.996 17.7156 18.6898 17.2092 19.2012C16.7029 19.7127 16.0161 20 15.3 20H2.7C1.98391 20 1.29717 19.7127 0.790823 19.2012C0.284475 18.6898 0 17.996 0 17.2727V7.27274C0 6.9922 0.128242 6.72736 0.34747 6.55513L8.44747 0.191498ZM1.8 7.71735V17.2727C1.8 17.5138 1.89483 17.7451 2.06362 17.9155C2.2324 18.086 2.46131 18.1818 2.7 18.1818H15.3C15.5387 18.1818 15.7676 18.086 15.9364 17.9155C16.1052 17.7451 16.2 17.5138 16.2 17.2727V7.71735L9 2.06078L1.8 7.71735Z" fill="#2B2B2B"/>
<path fill-rule="evenodd" clip-rule="evenodd" d="M5.4 10C5.4 9.49793 5.80294 9.09092 6.3 9.09092H11.7C12.1971 9.09092 12.6 9.49793 12.6 10V19.0909C12.6 19.593 12.1971 20 11.7 20C11.2029 20 10.8 19.593 10.8 19.0909V10.9091H7.2V19.0909C7.2 19.593 6.79706 20 6.3 20C5.80294 20 5.4 19.593 5.4 19.0909V10Z" fill="#2B2B2B"/>
</svg>
