<svg width="28" height="28" viewBox="0 0 28 28" fill="none" xmlns="http://www.w3.org/2000/svg">
<path d="M10.1254 25.5893L25.8423 9.625C26.5679 8.71884 27.0004 7.57759 27.0004 6.33758C27.0004 3.38971 24.556 1 21.5406 1C20.005 1 18.6174 1.61979 17.6254 2.61745L2.41113 17.875" stroke="black" stroke-width="1.44643"/>
<circle cx="6.1875" cy="21.8125" r="5.46429" stroke="#008CFF" stroke-width="1.44643"/>
<path d="M22.957 3.31345L21.6173 4.75089C20.9744 4.91161 19.4959 5.13661 18.7244 4.75089" stroke="black" stroke-width="1.44643" stroke-linecap="round"/>
<path d="M19.4229 6.82077L18.0831 8.25822C17.4403 8.41893 15.9617 8.64393 15.1903 8.25822" stroke="black" stroke-width="1.44643" stroke-linecap="round"/>
<path d="M16.167 10.0766L14.8273 11.5141C14.1844 11.6748 12.7058 11.8998 11.9344 11.5141" stroke="black" stroke-width="1.44643" stroke-linecap="round"/>
<path d="M12.9111 13.332L11.5714 14.7694C10.9285 14.9302 9.44996 15.1552 8.67853 14.7694" stroke="black" stroke-width="1.44643" stroke-linecap="round"/>
<path d="M25.2774 6.56885L23.8399 7.90859C23.6792 8.55145 23.4542 10.03 23.8399 10.8014" stroke="black" stroke-width="1.44643" stroke-linecap="round"/>
<path d="M21.7705 10.104L20.3331 11.4437C20.1724 12.0866 19.9474 13.5652 20.3331 14.3366" stroke="black" stroke-width="1.44643" stroke-linecap="round"/>
<path d="M18.5147 13.3594L17.0772 14.6991C16.9165 15.342 16.6915 16.8205 17.0772 17.592" stroke="black" stroke-width="1.44643" stroke-linecap="round"/>
<path d="M15.2598 16.6147L13.8223 17.9545C13.6616 18.5973 13.4366 20.0759 13.8223 20.8473" stroke="black" stroke-width="1.44643" stroke-linecap="round"/>
</svg>
