<svg width="28" height="27" viewBox="0 0 28 27" fill="none" xmlns="http://www.w3.org/2000/svg">
<path d="M22.163 20.7361C21.9111 21.0359 21.95 21.4832 22.2498 21.7351C22.5497 21.987 22.997 21.9482 23.2489 21.6483L22.163 20.7361ZM27 26.2909C27.3916 26.2909 27.7091 25.9734 27.7091 25.5818C27.7091 25.1902 27.3916 24.8727 27 24.8727V26.2909ZM13.2909 24.8727C6.89445 24.8727 1.70909 19.6874 1.70909 13.2909H0.290909C0.290909 20.4706 6.11121 26.2909 13.2909 26.2909V24.8727ZM1.70909 13.2909C1.70909 6.89445 6.89445 1.70909 13.2909 1.70909V0.290909C6.11121 0.290909 0.290909 6.11121 0.290909 13.2909H1.70909ZM13.2909 1.70909C19.6874 1.70909 24.8727 6.89445 24.8727 13.2909H26.2909C26.2909 6.11121 20.4706 0.290909 13.2909 0.290909V1.70909ZM24.8727 13.2909C24.8727 16.1266 23.8545 18.7226 22.163 20.7361L23.2489 21.6483C25.147 19.3889 26.2909 16.4726 26.2909 13.2909H24.8727ZM13.2909 26.2909H27V24.8727H13.2909V26.2909Z" fill="black"/>
<circle cx="13.2905" cy="13.2905" r="8.74545" stroke="#008CFF" stroke-width="1.41818"/>
<path d="M15.4574 17.4939C14.8084 17.8292 14.0717 18.0185 13.2907 18.0185C10.6799 18.0185 8.56348 15.902 8.56348 13.2912C8.56348 10.6804 10.6799 8.56396 13.2907 8.56396C15.9016 8.56396 18.018 10.6804 18.018 13.2912C18.018 14.2349 17.7415 15.1139 17.2651 15.8518" stroke="black" stroke-width="1.41818" stroke-linecap="round"/>
</svg>
