<svg width="20" height="12" viewBox="0 0 20 12" fill="none" xmlns="http://www.w3.org/2000/svg">
<path fill-rule="evenodd" clip-rule="evenodd" d="M19.7559 0.25105C20.0814 0.585783 20.0814 1.12857 19.7559 1.4633L11.8392 9.60611C11.5138 9.94084 10.9862 9.94084 10.6607 9.60611L7.08333 5.92644L1.42259 11.749C1.09715 12.0837 0.569514 12.0837 0.244078 11.749C-0.0813592 11.4142 -0.0813592 10.8714 0.244078 10.5367L6.49407 4.10817C6.81951 3.77343 7.34715 3.77343 7.67258 4.10817L11.25 7.78783L18.5774 0.25105C18.9028 -0.0836833 19.4305 -0.0836833 19.7559 0.25105Z" fill="#2B2B2B"/>
<path fill-rule="evenodd" clip-rule="evenodd" d="M13.3333 0.857177C13.3333 0.383793 13.7064 3.99263e-05 14.1667 3.99263e-05H19.1667C19.6269 3.99263e-05 20 0.383793 20 0.857177V6C20 6.47338 19.6269 6.85714 19.1667 6.85714C18.7064 6.85714 18.3333 6.47338 18.3333 6V1.71431H14.1667C13.7064 1.71431 13.3333 1.33056 13.3333 0.857177Z" fill="#2B2B2B"/>
</svg>
