<svg width="29" height="35" viewBox="0 0 29 35" fill="none" xmlns="http://www.w3.org/2000/svg">
<path d="M14.7549 19.1756L19.6673 14.2632" stroke="#008CFF" stroke-width="1.47371" stroke-linecap="round"/>
<path d="M7.80739 20.4999V21.2368L7.81305 21.2368L7.80739 20.4999ZM4.28613 20.4999V19.7631H3.54928V20.4999H4.28613ZM4.28613 29.6626H3.54928V30.3994H4.28613V29.6626ZM9.68539 30.3994C10.0923 30.3994 10.4222 30.0695 10.4222 29.6626C10.4222 29.2556 10.0923 28.9257 9.68539 28.9257V30.3994ZM7.80739 19.7631H4.28613V21.2368H7.80739V19.7631ZM3.54928 20.4999V29.6626H5.02299V20.4999H3.54928ZM4.28613 30.3994H9.68539V28.9257H4.28613V30.3994ZM7.81305 21.2368C8.58713 21.2308 9.73132 20.9976 10.703 20.2959C11.7117 19.5675 12.4871 18.3644 12.4871 16.5571H11.0134C11.0134 17.8799 10.4744 18.6432 9.84026 19.1011C9.16914 19.5858 8.34192 19.759 7.80172 19.7631L7.81305 21.2368Z" fill="#008CFF"/>
<path d="M16.4935 1V0.263145H16.1881L15.9723 0.479174L16.4935 1ZM1 16.506L0.478755 15.9852L0.263145 16.201V16.506H1ZM1 33.4216H0.263145V34.1585H1V33.4216ZM10.6248 33.4216V34.1585H10.9302L11.146 33.9425L10.6248 33.4216ZM26.353 17.6807L26.8743 18.2015L27.0699 18.0058L27.0883 17.7297L26.353 17.6807ZM19.78 14.1566H19.0432V14.8935H19.78V14.1566ZM20.5169 8.98794C20.5169 8.58099 20.187 8.25108 19.78 8.25108C19.3731 8.25108 19.0432 8.58099 19.0432 8.98794H20.5169ZM27.5268 1L28.0441 1.52473C28.257 1.31483 28.322 0.997073 28.2086 0.720442C28.0951 0.44381 27.8258 0.263145 27.5268 0.263145V1ZM11.7985 16.506V17.2429H12.1007L12.3158 17.0307L11.7985 16.506ZM15.9723 0.479174L0.478755 15.9852L1.52125 17.0268L17.0148 1.52083L15.9723 0.479174ZM0.263145 16.506V33.4216H1.73686V16.506H0.263145ZM1 34.1585H10.6248V32.6848H1V34.1585ZM11.146 33.9425L26.8743 18.2015L25.8318 17.1599L10.1035 32.9008L11.146 33.9425ZM27.0883 17.7297C27.1357 17.0172 26.9849 15.9584 26.352 15.0553C25.6896 14.11 24.5565 13.4198 22.8318 13.4198V14.8935C24.1119 14.8935 24.7786 15.3779 25.1451 15.901C25.5412 16.4663 25.6486 17.1695 25.6178 17.6317L27.0883 17.7297ZM22.8318 13.4198H19.78V14.8935H22.8318V13.4198ZM20.5169 14.1566V8.98794H19.0432V14.1566H20.5169ZM16.4935 1.73686H27.5268V0.263145H16.4935V1.73686ZM27.0095 0.47527L11.2812 15.9813L12.3158 17.0307L28.0441 1.52473L27.0095 0.47527ZM1 17.2429H11.7985V15.7691H1V17.2429Z" fill="black"/>
</svg>
