<svg width="14" height="18" viewBox="0 0 14 18" fill="none" xmlns="http://www.w3.org/2000/svg">
<path fill-rule="evenodd" clip-rule="evenodd" d="M2.72222 13.9091C2.4128 13.9091 2.11605 14.0384 1.89726 14.2685C1.67847 14.4987 1.55556 14.8109 1.55556 15.1364C1.55556 15.5882 1.20733 15.9545 0.777778 15.9545C0.348223 15.9545 0 15.5882 0 15.1364C0 14.3769 0.286797 13.6485 0.797312 13.1115C1.30783 12.5744 2.00024 12.2727 2.72222 12.2727H13.2222C13.6518 12.2727 14 12.639 14 13.0909C14 13.5428 13.6518 13.9091 13.2222 13.9091H2.72222Z" fill="#2B2B2B"/>
<path fill-rule="evenodd" clip-rule="evenodd" d="M2.72222 1.63636C2.4128 1.63636 2.11605 1.76566 1.89726 1.99582C1.67847 2.22598 1.55556 2.53814 1.55556 2.86364V15.1364C1.55556 15.4619 1.67847 15.774 1.89726 16.0042C2.11605 16.2343 2.4128 16.3636 2.72222 16.3636H12.4444V1.63636H2.72222ZM2.72222 0H13.2222C13.6518 0 14 0.366312 14 0.818182V17.1818C14 17.6337 13.6518 18 13.2222 18H2.72222C2.00024 18 1.30783 17.6983 0.797312 17.1613C0.286797 16.6242 0 15.8958 0 15.1364V2.86364C0 2.10415 0.286797 1.37577 0.797312 0.838737C1.30783 0.301701 2.00024 0 2.72222 0Z" fill="#2B2B2B"/>
</svg>
