<svg width="16" height="20" viewBox="0 0 16 20" fill="none" xmlns="http://www.w3.org/2000/svg">
<path fill-rule="evenodd" clip-rule="evenodd" d="M0.781047 0.798811C1.28114 0.287349 1.95942 0 2.66667 0H9.77778C10.0135 0 10.2396 0.0957921 10.4063 0.26628L15.7397 5.72083C15.9064 5.89131 16 6.12253 16 6.36364V17.2727C16 17.996 15.7191 18.6897 15.219 19.2012C14.7189 19.7127 14.0406 20 13.3333 20H2.66667C1.95942 20 1.28114 19.7127 0.781047 19.2012C0.28095 18.6897 0 17.996 0 17.2727V2.72727C0 2.00396 0.280949 1.31027 0.781047 0.798811ZM2.66667 1.81818C2.43092 1.81818 2.20483 1.91397 2.03813 2.08446C1.87143 2.25495 1.77778 2.48617 1.77778 2.72727V17.2727C1.77778 17.5138 1.87143 17.7451 2.03813 17.9155C2.20483 18.086 2.43092 18.1818 2.66667 18.1818H13.3333C13.5691 18.1818 13.7952 18.086 13.9619 17.9155C14.1286 17.7451 14.2222 17.5138 14.2222 17.2727V6.7402L9.40959 1.81818H2.66667Z" fill="#2B2B2B"/>
<path fill-rule="evenodd" clip-rule="evenodd" d="M9.77778 0C10.2687 0 10.6667 0.407014 10.6667 0.909091V5.45455H15.1111C15.602 5.45455 16 5.86156 16 6.36364C16 6.86571 15.602 7.27273 15.1111 7.27273H9.77778C9.28686 7.27273 8.88889 6.86571 8.88889 6.36364V0.909091C8.88889 0.407014 9.28686 0 9.77778 0Z" fill="#2B2B2B"/>
<path fill-rule="evenodd" clip-rule="evenodd" d="M3.55556 10.9091C3.55556 10.407 3.95352 10 4.44444 10H11.5556C12.0465 10 12.4444 10.407 12.4444 10.9091C12.4444 11.4112 12.0465 11.8182 11.5556 11.8182H4.44444C3.95352 11.8182 3.55556 11.4112 3.55556 10.9091Z" fill="#2B2B2B"/>
<path fill-rule="evenodd" clip-rule="evenodd" d="M3.55556 14.5455C3.55556 14.0434 3.95352 13.6364 4.44444 13.6364H11.5556C12.0465 13.6364 12.4444 14.0434 12.4444 14.5455C12.4444 15.0475 12.0465 15.4545 11.5556 15.4545H4.44444C3.95352 15.4545 3.55556 15.0475 3.55556 14.5455Z" fill="#2B2B2B"/>
<path fill-rule="evenodd" clip-rule="evenodd" d="M3.55556 7.27273C3.55556 6.77065 3.95352 6.36364 4.44444 6.36364H6.22222C6.71314 6.36364 7.11111 6.77065 7.11111 7.27273C7.11111 7.7748 6.71314 8.18182 6.22222 8.18182H4.44444C3.95352 8.18182 3.55556 7.7748 3.55556 7.27273Z" fill="#2B2B2B"/>
</svg>
