<svg width="54" height="55" viewBox="0 0 54 55" fill="none" xmlns="http://www.w3.org/2000/svg">
<path d="M25.4845 18C25.4845 17.7324 25.2676 17.5155 25 17.5155C24.7324 17.5155 24.5155 17.7324 24.5155 18H25.4845ZM24.5155 34C24.5155 34.2676 24.7324 34.4845 25 34.4845C25.2676 34.4845 25.4845 34.2676 25.4845 34H24.5155ZM17 25.5155C16.7324 25.5155 16.5155 25.7324 16.5155 26C16.5155 26.2676 16.7324 26.4845 17 26.4845V25.5155ZM33 26.4845C33.2676 26.4845 33.4845 26.2676 33.4845 26C33.4845 25.7324 33.2676 25.5155 33 25.5155V26.4845ZM41.8882 41.9827C41.7008 41.7917 41.3941 41.7888 41.2031 41.9762C41.0121 42.1636 41.0091 42.4703 41.1965 42.6613L41.8882 41.9827ZM52.6542 54.3393C52.8416 54.5303 53.1483 54.5332 53.3393 54.3458C53.5303 54.1584 53.5332 53.8517 53.3458 53.6607L52.6542 54.3393ZM24.5155 18V26H25.4845V18H24.5155ZM24.5155 26V34H25.4845V26H24.5155ZM17 26.4845H25V25.5155H17V26.4845ZM25 26.4845H33V25.5155H25V26.4845ZM48.1087 25.2542C48.1087 38.3906 37.6629 49.024 24.7966 49.024V49.993C38.2153 49.993 49.0777 38.9083 49.0777 25.2542H48.1087ZM24.7966 49.024C11.9303 49.024 1.48449 38.3906 1.48449 25.2542H0.515513C0.515513 38.9083 11.3779 49.993 24.7966 49.993V49.024ZM1.48449 25.2542C1.48449 12.1178 11.9303 1.48449 24.7966 1.48449V0.515513C11.3779 0.515513 0.515513 11.6002 0.515513 25.2542H1.48449ZM24.7966 1.48449C37.6629 1.48449 48.1087 12.1178 48.1087 25.2542H49.0777C49.0777 11.6002 38.2153 0.515513 24.7966 0.515513V1.48449ZM41.1965 42.6613L52.6542 54.3393L53.3458 53.6607L41.8882 41.9827L41.1965 42.6613Z" fill="white"/>
</svg>
