<svg width="68" height="68" viewBox="0 0 68 68" fill="none" xmlns="http://www.w3.org/2000/svg">
<path d="M28.6652 33.668L33.199 38.2012C33.4112 38.4139 33.6996 38.5333 34 38.5333C34.3004 38.5333 34.5888 38.4139 34.801 38.2012L39.3348 33.668C39.547 33.4553 39.6668 33.1673 39.6668 32.8664V15.8664H41.5558C42.791 15.8405 43.8499 14.9782 44.1259 13.7741L48.557 3.13873C48.8491 2.43939 48.7723 1.63992 48.3515 1.00958C47.9313 0.378724 47.2237 5.31597e-07 46.4657 5.31597e-07H21.5343C20.7763 -0.000518267 20.0682 0.378724 19.6479 1.00958C19.2272 1.64044 19.1504 2.43991 19.4425 3.13925L23.8741 13.7741C24.3991 15.0431 25.6385 15.8695 27.0118 15.8664H28.3332V32.8664C28.3332 33.1673 28.453 33.4553 28.6652 33.668ZM37.4002 32.3974L34 35.7971L30.5998 32.3974V15.8664H37.4002V32.3974ZM25.9659 12.902L21.5302 2.26663H46.4657L42.0341 12.9025C41.947 13.1412 41.8354 13.3694 41.701 13.5853C41.6538 13.5982 41.6046 13.6029 41.5558 13.5998H27.0118C26.5542 13.6003 26.1412 13.3248 25.9659 12.902Z" fill="#008CFF"/>
<path d="M4.83209 18.8609L2.4285 21.2656C2.00308 21.6905 1.76392 22.2668 1.76392 22.8681C1.76392 23.4694 2.00308 24.0458 2.4285 24.4707L31.1954 53.2381C31.9393 53.9821 32.9479 54.4002 34 54.4002C35.0521 54.4002 36.0607 53.9821 36.8046 53.2381L65.5715 24.4707C65.9969 24.0458 66.2361 23.4694 66.2361 22.8681C66.2361 22.2668 65.9969 21.6905 65.5715 21.2656L63.1679 18.8609C62.2823 17.9769 60.8478 17.9769 59.9628 18.8609L34 44.8232L8.03723 18.8609C7.15216 17.9769 5.71768 17.9769 4.83209 18.8609ZM34.801 47.2278L61.5653 20.4635L63.9689 22.8681L35.2021 51.635C34.5292 52.2773 33.4708 52.2773 32.7979 51.635L4.03107 22.8681L6.43466 20.4635L33.199 47.2278C33.6415 47.6698 34.3585 47.6698 34.801 47.2278Z" fill="#008CFF"/>
<path d="M65.7334 39.6668H53.8466C53.1188 39.6679 52.4355 40.017 52.008 40.6064L37.9532 60.0665H30.0457L15.9904 40.6053C15.5634 40.0165 14.8807 39.6679 14.1534 39.6668H2.26663C1.01529 39.6679 0.0015564 40.6821 0 41.9335V65.7334C0.0015564 66.9847 1.01529 67.9984 2.26663 68H65.7334C66.9847 67.9984 67.9984 66.9847 68 65.7334V41.9335C67.9984 40.6821 66.9847 39.6679 65.7334 39.6668ZM65.7334 65.7334H2.26663V41.9335H14.1544L28.2092 61.3947C28.6367 61.9835 29.3194 62.3321 30.0468 62.3332H37.9532C38.6811 62.3321 39.3644 61.983 39.7919 61.3936L53.8466 41.9335H65.7334V65.7334Z" fill="#008CFF"/>
<path d="M14.7334 5.31597e-07C14.1072 5.31597e-07 13.5998 0.507386 13.5998 1.13358V15.1754L12.3049 13.0172C12.0984 12.667 11.7197 12.4543 11.3124 12.46C10.9057 12.4662 10.5332 12.6898 10.3371 13.0457C10.1404 13.4021 10.1498 13.8364 10.3615 14.1834L13.7617 19.8503C13.7741 19.8716 13.7928 19.8866 13.8068 19.9068C13.8307 19.94 13.8556 19.9717 13.8825 20.0023C13.9318 20.0588 13.9858 20.1107 14.0449 20.1564C14.0745 20.1792 14.102 20.202 14.1331 20.2212C14.2141 20.2721 14.3007 20.3125 14.392 20.3411C14.406 20.3457 14.4169 20.3561 14.4319 20.3597L14.4418 20.3613C14.5316 20.3852 14.6244 20.3976 14.7173 20.3987L14.7334 20.4002H14.7344C14.7443 20.4002 14.7546 20.3961 14.7645 20.3961C14.8527 20.3945 14.9398 20.3831 15.0255 20.3613C15.0509 20.3546 15.0742 20.34 15.0996 20.3312C15.1697 20.3089 15.2376 20.2798 15.302 20.2446L15.3165 20.2383C15.3279 20.2316 15.3331 20.2207 15.3435 20.214C15.4436 20.1481 15.5328 20.0671 15.607 19.9732C15.6273 19.9483 15.648 19.926 15.6656 19.8996C15.6776 19.8819 15.6942 19.8684 15.7051 19.8498L19.1053 14.1834C19.317 13.8358 19.3263 13.4016 19.1297 13.0452C18.933 12.6893 18.5611 12.4657 18.1538 12.46C17.7471 12.4538 17.3683 12.6665 17.1619 13.0167L15.8664 15.1754V1.13358C15.8664 0.507386 15.359 5.31597e-07 14.7334 5.31597e-07Z" fill="#008CFF"/>
<path d="M53.2666 5.31597e-07C52.641 5.31597e-07 52.1336 0.507386 52.1336 1.13358V15.1754L50.8381 13.0172C50.5139 12.4854 49.8218 12.3152 49.2874 12.6359C48.7536 12.956 48.5782 13.6475 48.8947 14.1834L52.2949 19.8503C52.3074 19.8716 52.326 19.8866 52.3395 19.9068C52.3634 19.94 52.3883 19.9717 52.4153 20.0023C52.4646 20.0588 52.5185 20.1107 52.5782 20.1564C52.6072 20.1792 52.6347 20.202 52.6659 20.2212C52.7468 20.2721 52.8334 20.3125 52.9247 20.3411C52.9388 20.3457 52.9496 20.3561 52.9647 20.3597L52.9745 20.3613C53.0643 20.3852 53.1572 20.3976 53.25 20.3987L53.2666 20.4002H53.2677C53.2775 20.4002 53.2879 20.3961 53.2978 20.3961C53.386 20.3945 53.4736 20.3831 53.5587 20.3613C53.5841 20.3546 53.6075 20.34 53.6329 20.3312C53.7029 20.3089 53.7709 20.2798 53.8352 20.2446L53.8498 20.2383C53.8612 20.2316 53.8664 20.2207 53.8767 20.214C53.9769 20.1481 54.0661 20.0671 54.1403 19.9732C54.1605 19.9483 54.1813 19.926 54.1989 19.8996C54.2108 19.8819 54.2274 19.8684 54.2383 19.8498L57.6385 14.1834C57.8502 13.8358 57.8596 13.4016 57.6629 13.0452C57.4668 12.6893 57.0943 12.4657 56.6876 12.46C56.2803 12.4538 55.9016 12.6665 55.6951 13.0167L54.4002 15.1754V1.13358C54.4002 0.507386 53.8928 5.31597e-07 53.2666 5.31597e-07Z" fill="#008CFF"/>
</svg>
