<svg width="58" height="68" viewBox="0 0 58 68" fill="none" xmlns="http://www.w3.org/2000/svg">
<path d="M28.9976 11.1059C28.9976 9.78922 27.0057 9.78714 27.0057 11.1059V11.9396C27.0057 13.2563 28.9976 13.2584 28.9976 11.9396V11.1059Z" fill="#008CFF"/>
<path d="M27.0057 19.4586V20.2918C27.0057 21.6085 28.9981 21.6106 28.9981 20.2918V19.4586C28.9976 18.1419 27.0057 18.1393 27.0057 19.4586Z" fill="#008CFF"/>
<path d="M32.5947 14.7028H31.7614C30.4446 14.7028 30.4425 16.6949 31.7614 16.6949H32.5947C33.9115 16.6949 33.9135 14.7028 32.5947 14.7028Z" fill="#008CFF"/>
<path d="M24.2419 14.7028H23.4086C22.0913 14.7028 22.0897 16.6949 23.4086 16.6949H24.2419C25.5592 16.6949 25.5608 14.7028 24.2419 14.7028Z" fill="#008CFF"/>
<path d="M29.9558 19.0617L31.1346 20.2404C32.0654 21.1706 33.4756 19.7642 32.5433 18.8314L31.3645 17.6526C30.4332 16.7219 29.0235 18.1289 29.9558 19.0617Z" fill="#008CFF"/>
<path d="M26.0474 12.3365L24.8686 11.1578C23.9378 10.2271 22.5276 11.6335 23.46 12.5663L24.6388 13.7451C25.5628 14.6685 26.9808 13.2698 26.0474 12.3365Z" fill="#008CFF"/>
<path d="M30.6599 14.0366C31.3297 14.0366 31.5269 13.4841 32.5433 12.5663C32.9324 12.1772 32.9324 11.5469 32.5433 11.1578C32.1542 10.7692 31.5238 10.7692 31.1346 11.1578L29.9558 12.3365C29.3265 12.9658 29.7805 14.0366 30.6599 14.0366Z" fill="#008CFF"/>
<path d="M24.1646 20.532C24.8339 20.532 25.031 19.9795 26.0474 19.0617C26.9782 18.131 25.5717 16.7204 24.6388 17.6526L23.46 18.8314C22.8306 19.4607 23.2851 20.532 24.1646 20.532Z" fill="#008CFF"/>
<path d="M35.6833 33.3458H36.2156C37.5034 33.3458 38.5504 32.2989 38.5504 31.0112V29.4154C38.5504 28.1282 37.5034 27.0808 36.2156 27.0808H35.7699V24.8821H37.6009C39.392 24.8821 40.8489 23.4253 40.8489 21.6344V17.3336C40.8489 16.0169 38.8565 16.0143 38.8565 17.3336V21.6344C38.8565 22.3265 38.2936 22.8899 37.6009 22.8899H18.4024C17.7097 22.8899 17.1468 22.3265 17.1468 21.6344V7.78561H38.8565V13.3326C38.8565 14.6493 40.8489 14.6514 40.8489 13.3326V7.78561H46.2183C49.6743 7.78561 52.4859 4.97424 52.4859 1.51852C52.4859 0.681183 51.8046 0 50.9672 0H5.03604C4.19863 0 3.5174 0.681183 3.5174 1.51852C3.5174 4.97424 6.3295 7.78613 9.78548 7.78613H15.1549V21.6344C15.1549 23.4253 16.6118 24.8821 18.4024 24.8821H20.2333V27.0813H19.7877C18.5004 27.0813 17.4529 28.1282 17.4529 29.4154V31.0117C17.4529 32.2989 18.5004 33.3458 19.7877 33.3458H20.32C20.4668 34.1811 20.7989 34.9722 21.3011 35.6726L26.4552 42.8637C26.6047 43.0722 26.7925 43.245 27.0057 43.3763V67.0044C27.0057 68.3206 28.9981 68.3232 28.9981 67.0044V43.3757C29.2108 43.245 29.3991 43.0717 29.548 42.8637L34.7027 35.6726C35.2049 34.9717 35.537 34.1811 35.6833 33.3458ZM5.53568 1.99219H50.4676C50.2315 4.12756 48.4156 5.79395 46.2183 5.79395H9.78548C7.58768 5.79395 5.77175 4.12756 5.53568 1.99219ZM22.2257 24.8821H33.7776V27.0808H22.2257V24.8821ZM19.4452 31.0112V29.4154C19.4452 29.2265 19.5988 29.073 19.7877 29.073H36.2156C36.4045 29.073 36.5581 29.2265 36.5581 29.4154V31.0112C36.5581 31.2006 36.4045 31.3536 36.2156 31.3536H19.7877C19.5988 31.3536 19.4452 31.2006 19.4452 31.0112ZM28.0019 41.602L22.9199 34.5121C22.6636 34.1546 22.4758 33.7614 22.3606 33.3458H33.6427C33.5275 33.7608 33.3392 34.1546 33.0834 34.5121L28.0019 41.602Z" fill="#008CFF"/>
<path d="M57.7142 59.4263H33.1358C31.9767 59.4263 31.034 60.369 31.034 61.5275V65.8989C31.034 67.0573 31.9767 68 33.1358 68H57.7142V66.0078H33.1358C33.0756 66.0078 33.0263 65.959 33.0263 65.8989V61.5275C33.0263 61.4673 33.0756 61.418 33.1358 61.418H57.7142V59.4263Z" fill="#008CFF"/>
<path d="M22.8675 59.4263H0.663313V61.418H22.8675C22.9282 61.418 22.977 61.4673 22.977 61.5275V65.8989C22.977 65.959 22.9282 66.0078 22.8675 66.0078H0.289062V68H22.8675C24.0266 68 24.9693 67.0573 24.9693 65.8989V61.5275C24.9693 60.369 24.0266 59.4263 22.8675 59.4263Z" fill="#008CFF"/>
</svg>
