<svg width="68" height="68" viewBox="0 0 68 68" fill="none" xmlns="http://www.w3.org/2000/svg">
<path d="M53.7419 6.58065H40.5806V15.3548H53.7419V6.58065ZM51.5484 13.1613H42.7742V8.77419H51.5484V13.1613Z" fill="#008CFF"/>
<path d="M48.2581 17.5484H46.0645V19.7419H48.2581V17.5484Z" fill="#008CFF"/>
<path d="M52.6452 17.5484H50.4516V19.7419H52.6452V17.5484Z" fill="#008CFF"/>
<path d="M43.871 17.5484H41.6774V19.7419H43.871V17.5484Z" fill="#008CFF"/>
<path d="M67.4889 62.5139L57.9854 48.2581H59.2258C61.0399 48.2581 62.5161 46.7818 62.5161 44.9677V29.6217C62.5161 26.4235 60.5441 23.6333 57.6662 22.4948C57.9525 22.0057 58.129 21.4452 58.129 20.8387V5.48387C58.129 2.46006 55.669 0 52.6452 0H41.6774C38.6536 0 36.1936 2.46006 36.1936 5.48387V20.8387C36.1936 21.4452 36.3701 22.0068 36.6575 22.4948C33.7785 23.6344 31.8065 26.4235 31.8065 29.6217V39.2854L30.5616 42.6053L24.4888 39.8436L27.2505 45.9165L21.0043 48.2581L27.2494 50.5997L26.3204 52.6452H17.5484V26.3226C18.7581 26.3226 19.7419 25.3388 19.7419 24.129V21.9355H24.129C24.129 23.1452 25.1128 24.129 26.3226 24.129H28.5161C29.7259 24.129 30.7097 23.1452 30.7097 21.9355V15.3548C30.7097 14.1451 29.7259 13.1613 28.5161 13.1613H26.3226C25.1128 13.1613 24.129 14.1451 24.129 15.3548H19.7419V13.1613C19.7419 11.9515 18.7581 10.9677 17.5484 10.9677V0H2.19355V10.9677C0.983806 10.9677 0 11.9515 0 13.1613V24.129C0 25.3388 0.983806 26.3226 2.19355 26.3226V68H17.5484V61.4194H51.5484V68H60.3226V62.8485L62.3297 65.8591C62.7037 66.4195 63.2608 66.844 63.9946 67.0908C64.3148 67.1972 64.6428 67.2498 64.9663 67.2498C65.5926 67.2498 66.2079 67.0535 66.7365 66.6729C67.5394 66.0927 68 65.1923 68 64.2019C68 63.5997 67.8234 63.0163 67.4889 62.5139ZM26.3226 15.3548H28.5161L28.5183 21.9355H26.3226V15.3548ZM19.7419 17.5484H24.129V19.7419H19.7419V17.5484ZM60.3226 44.9677C60.3226 45.5732 59.8312 46.0645 59.2258 46.0645H49.3548C48.1451 46.0645 47.1613 45.0807 47.1613 43.871C47.1613 42.6612 48.1451 41.6774 49.3548 41.6774H55.9355V37.2903H60.3226V44.9677ZM47.1613 28.5161C49.5808 28.5161 51.5484 26.5485 51.5484 24.129H53.7419V39.4839H52.1352L50.6381 37.2377C50.2641 36.6772 49.7069 36.2528 48.9732 36.006C48.1319 35.7274 47.2534 35.8382 46.5021 36.2736L42.4781 33.8596C41.8924 33.5086 41.2431 33.3079 40.5806 33.2476V24.129H42.7742C42.7742 26.5485 44.7418 28.5161 47.1613 28.5161ZM44.9677 24.129H49.3548C49.3548 25.3388 48.371 26.3226 47.1613 26.3226C45.9515 26.3226 44.9677 25.3388 44.9677 24.129ZM49.4996 39.4839H49.3548C48.7395 39.4839 48.1539 39.6133 47.6219 39.8436L47.3039 39.3665C47.2106 39.2261 47.1613 39.0627 47.1613 38.8949C47.1613 38.6185 47.2896 38.3674 47.5145 38.205C47.7382 38.0416 48.019 37.9988 48.3732 38.1195C48.552 38.1798 48.7088 38.2983 48.8119 38.4551L49.4996 39.4839ZM41.3495 35.7406L45.1158 37.9999C45.0281 38.2862 44.9677 38.5834 44.9677 38.8949C44.9677 39.497 45.1443 40.0805 45.4788 40.5828L45.8945 41.2058C45.5392 41.6665 45.2748 42.1951 45.1235 42.7742H39.9851L41.3177 39.8436L36.7299 41.9297L37.9462 37.2037C38.1184 36.425 38.6975 35.7845 39.4521 35.5333C40.0904 35.3216 40.7803 35.3995 41.3495 35.7406ZM38.5571 45.9165L38.9881 44.9677H45.1235C45.6137 46.8553 47.3159 48.2581 49.3548 48.2581H50.5964L53.5215 52.6452H39.4861L38.556 50.5997L44.8021 48.2581L38.5571 45.9165ZM60.3226 29.6217V35.0968H55.9355V24.2475C58.4844 24.7674 60.3226 27.0092 60.3226 29.6217ZM38.3871 5.48387C38.3871 3.66981 39.8634 2.19355 41.6774 2.19355H52.6452C54.4592 2.19355 55.9355 3.66981 55.9355 5.48387V20.8387C55.9355 21.4441 55.4441 21.9355 54.8387 21.9355H39.4839C38.8785 21.9355 38.3871 21.4441 38.3871 20.8387V5.48387ZM34 29.6217C34 27.0103 35.8393 24.7794 38.3871 24.2574V33.603C38.1326 33.7148 37.8892 33.8454 37.6621 34H34V29.6217ZM34 36.1936H35.9588C35.9007 36.3559 35.8503 36.5215 35.8119 36.6915L34.6789 41.095L34 39.2854V36.1936ZM4.3871 2.19355H15.3548V10.9677H4.3871V2.19355ZM15.3548 65.8064H4.3871V26.3226H15.3548V65.8064ZM2.19355 24.129V13.1613H17.5484L17.5506 24.129H2.19355ZM17.5484 59.2258V54.8387H25.3223L24.4888 56.6725L30.5616 53.9108L32.5545 59.2258H17.5484ZM31.7911 50.9419L28.9077 52.2525L30.2183 49.3691L27.2537 48.2581L30.2194 47.1459L28.9077 44.2625L31.7911 45.5732L32.8407 42.7742H32.9657L34.0154 45.5743L36.8988 44.2636L35.5881 47.147L38.5527 48.2581L35.587 49.3702L36.8977 52.2536L34.0143 50.943L32.9032 53.9076L31.7911 50.9419ZM58.129 65.8064H53.7419V59.2258H33.252L35.2448 53.9108L41.3177 56.6725L40.4841 54.8387H54.9835L58.129 59.5581V65.8064ZM65.4533 64.8917C65.2285 65.0541 64.9477 65.0957 64.5945 64.9773C64.4157 64.917 64.2589 64.7985 64.1558 64.6417L53.2319 48.2581H55.3476L65.6628 63.7292C65.756 63.8706 65.8054 64.033 65.8054 64.2019C65.8065 64.4783 65.6781 64.7305 65.4533 64.8917Z" fill="#008CFF"/>
</svg>
