<svg width="53" height="68" viewBox="0 0 53 68" fill="none" xmlns="http://www.w3.org/2000/svg">
<path d="M47.3765 47.6093H38.3793C37.7584 47.6093 37.2549 48.117 37.2549 48.7424C37.2549 49.3677 37.7584 49.8754 38.3793 49.8754H47.3765C47.9979 49.8754 48.5014 49.3677 48.5014 48.7424C48.5014 48.117 47.9979 47.6093 47.3765 47.6093Z" fill="white"/>
<path d="M47.3765 52.141H38.3793C37.7584 52.141 37.2549 52.6481 37.2549 53.2735C37.2549 53.8994 37.7584 54.4066 38.3793 54.4066H47.3765C47.9979 54.4066 48.5014 53.8994 48.5014 53.2735C48.5014 52.6481 47.9979 52.141 47.3765 52.141Z" fill="white"/>
<path d="M3.33464 32.7283C3.71665 32.8315 4.11101 32.8839 4.5064 32.8844C6.42569 32.8849 8.12979 31.6471 8.73523 29.813L10.7956 28.6146L11.1112 32.1579C11.2837 34.1808 12.7782 35.8376 14.7613 36.2032V44.2112C14.7608 44.6307 14.8767 45.0419 15.0955 45.3987L16.1936 47.6119C16.2142 47.6539 16.2379 47.6944 16.2636 47.7327C16.6806 48.3633 17.3829 48.7424 18.1356 48.7424C18.8877 48.7424 19.59 48.3633 20.007 47.7327C20.0332 47.6944 20.0564 47.6539 20.077 47.6119L21.1756 45.3987C21.3939 45.0419 21.5098 44.6307 21.5092 44.2112V36.2032C23.4924 35.8376 24.988 34.1808 25.1599 32.1574L25.4755 28.6146L27.5359 29.813C28.1413 31.6482 29.8454 32.8854 31.7647 32.8849C32.1601 32.8844 32.5545 32.832 32.9365 32.7288C35.28 32.1034 36.7066 29.717 36.1593 27.3384C35.6115 24.9598 33.2876 23.4493 30.9101 23.9268L30.7294 23.8205H39.5042V32.5691L33.0775 43.3566C32.867 43.7093 32.7558 44.1132 32.7558 44.5249V57.8047H27.1328V54.4066C27.1312 53.1558 26.1252 52.142 24.8835 52.141H11.3871C10.1459 52.142 9.13937 53.1558 9.13783 54.4066V57.8047H6.88853C5.64675 57.8062 4.64077 58.82 4.63923 60.0702V65.7344C4.64077 66.9852 5.64675 67.9984 6.88853 68H50.7507C51.9925 67.9984 52.9985 66.9852 53 65.7344V13.6252C52.9985 12.375 51.9925 11.3612 50.7507 11.3596H21.5092V7.52853C23.1042 5.70684 22.9894 2.94242 21.2493 1.26126C19.5086 -0.42042 16.762 -0.42042 15.0213 1.26126C13.2812 2.94242 13.1664 5.70684 14.7613 7.52853V11.3596H11.3871C10.1459 11.3612 9.13937 12.375 9.13783 13.6252V21.555C9.13783 21.6099 9.16048 21.6597 9.16409 21.7136L5.36102 23.9253C2.98507 23.4513 0.66369 24.9619 0.116938 27.3384C-0.430328 29.7155 0.993698 32.1009 3.33464 32.7283ZM19.1899 44.3326L18.1356 46.4576L17.0812 44.3326C17.0601 44.2906 17.0369 44.2501 17.0106 44.2112V36.2815H19.2599V44.2112L20.1959 44.8397L19.1899 44.3326ZM22.9194 31.9541C22.8195 33.125 21.8434 34.0221 20.6773 34.0159H15.5938C14.4272 34.0221 13.4516 33.1255 13.3507 31.9551L12.9424 27.3664L17.247 24.8628C17.8333 24.9837 18.4383 24.9837 19.0252 24.8628L23.3292 27.3664L22.9194 31.9541ZM18.1356 9.09405C18.5155 9.08939 18.8934 9.03546 19.2599 8.9333V16.052C18.5253 15.8374 17.7453 15.8374 17.0106 16.052V8.9333C17.3772 9.03546 17.7551 9.08939 18.1356 9.09405ZM18.1356 18.1569C19.3778 18.1569 20.3849 19.1712 20.3849 20.4224C20.3849 21.6737 19.3778 22.688 18.1356 22.688C16.8933 22.688 15.8857 21.6737 15.8857 20.4224C15.8873 19.1717 16.8938 18.1579 18.1356 18.1569ZM33.9445 27.7652C34.1798 28.6499 33.8632 29.591 33.1414 30.149C32.4196 30.707 31.4352 30.7718 30.647 30.3139C29.7656 29.8011 29.3357 28.7562 29.5988 27.7652C29.8624 26.7748 30.7536 26.0861 31.7714 26.0861C32.7897 26.0861 33.6809 26.7748 33.9445 27.7652ZM27.8752 26.0861C27.6893 26.4206 27.5472 26.7774 27.4514 27.1476L21.3404 23.5934C21.8712 23.0427 22.2542 22.365 22.4529 21.6245L28.5769 25.1854C28.3055 25.4545 28.0698 25.7574 27.8752 26.0861ZM35.0056 44.5255L41.4317 33.7379C41.6423 33.3853 41.754 32.9814 41.7535 32.5696V23.8205H50.7507V57.8047H35.0056V44.5255ZM11.3871 54.4066H24.8835V57.8047H11.3871V54.4066ZM6.88853 65.7344V60.0702H50.7507V65.7344H6.88853ZM50.7507 13.6252V21.555H26.8331L22.3731 18.9611C22.1847 18.4078 21.8913 17.8971 21.5092 17.4568V13.6252H50.7507ZM18.1356 2.29733C19.3778 2.29733 20.3849 3.31163 20.3849 4.56291C20.3849 5.81418 19.3778 6.82848 18.1356 6.82848C16.8933 6.82848 15.8857 5.81418 15.8857 4.56291C15.8873 3.31215 16.8938 2.29889 18.1356 2.29733ZM11.3871 13.6252H14.7613V17.4568C14.3793 17.8971 14.0859 18.4078 13.8975 18.9611L11.3871 20.4209V13.6252ZM13.8177 21.6245C14.0164 22.365 14.3994 23.0427 14.9297 23.5934L8.81915 27.1471C8.6369 26.3988 8.24666 25.7185 7.69424 25.1854L13.8177 21.6245ZM2.32608 27.7652C2.60358 26.7198 3.57558 26.0177 4.64695 26.0882C5.71883 26.1587 6.59198 26.9817 6.73202 28.054C6.87257 29.1264 6.24138 30.1495 5.22407 30.4975C4.20728 30.8449 3.08804 30.4207 2.55107 29.4837C2.25143 28.9641 2.17009 28.3449 2.32608 27.7652Z" fill="white"/>
<path d="M15.8857 28.3517C15.2648 28.3517 14.7613 28.8588 14.7613 29.4847V30.6173C14.7613 31.2432 15.2648 31.7503 15.8857 31.7503C16.5071 31.7503 17.0106 31.2432 17.0106 30.6173V29.4847C17.0106 28.8588 16.5071 28.3517 15.8857 28.3517Z" fill="white"/>
<path d="M20.3849 31.7503C21.0057 31.7503 21.5093 31.2432 21.5093 30.6173V29.4847C21.5093 28.8588 21.0057 28.3517 20.3849 28.3517C19.7635 28.3517 19.2599 28.8588 19.2599 29.4847V30.6173C19.2599 31.2432 19.7635 31.7503 20.3849 31.7503Z" fill="white"/>
<path d="M46.2521 38.547C44.8873 38.547 43.6573 39.3752 43.1348 40.6451C42.6127 41.9151 42.901 43.3769 43.8664 44.3486C44.8312 45.3204 46.2825 45.6113 47.5433 45.0855C48.8041 44.5592 49.6258 43.3198 49.6258 41.9456C49.6242 40.0695 48.1148 38.5491 46.2521 38.547ZM46.2521 43.0782C45.6307 43.0782 45.1272 42.571 45.1272 41.9456C45.1272 41.3197 45.6307 40.8126 46.2521 40.8126C46.873 40.8126 47.3765 41.3197 47.3765 41.9456C47.376 42.571 46.873 43.0777 46.2521 43.0782Z" fill="white"/>
<path d="M46.2521 30.6173C44.8873 30.6173 43.6573 31.4454 43.1348 32.7153C42.6127 33.9853 42.901 35.4471 43.8664 36.4189C44.8312 37.3906 46.2825 37.6816 47.5433 37.1557C48.8041 36.6294 49.6258 35.3906 49.6258 34.0159C49.6242 32.1397 48.1148 30.6193 46.2521 30.6173ZM46.2521 35.1489C45.6307 35.1489 45.1272 34.6418 45.1272 34.0159C45.1272 33.3905 45.6307 32.8834 46.2521 32.8834C46.873 32.8834 47.3765 33.3905 47.3765 34.0159C47.376 34.6413 46.873 35.1484 46.2521 35.1489Z" fill="white"/>
</svg>
