<svg width="63" height="68" viewBox="0 0 63 68" fill="none" xmlns="http://www.w3.org/2000/svg">
<path d="M52.6908 38.5336C52.6908 39.1598 52.178 39.6672 51.5456 39.6672C50.9127 39.6672 50.3999 39.1598 50.3999 38.5336C50.3999 37.9079 50.9127 37.4005 51.5456 37.4005C52.178 37.4005 52.6908 37.9079 52.6908 38.5336Z" fill="white"/>
<path d="M63 45.3334C63 45.9596 62.4872 46.467 61.8543 46.467C61.2219 46.467 60.7091 45.9596 60.7091 45.3334C60.7091 44.7078 61.2219 44.2004 61.8543 44.2004C62.4872 44.2004 63 44.7078 63 45.3334Z" fill="white"/>
<path d="M63 40.8002C63 41.4264 62.4872 41.9338 61.8543 41.9338C61.2219 41.9338 60.7091 41.4264 60.7091 40.8002C60.7091 40.1745 61.2219 39.6672 61.8543 39.6672C62.4872 39.6672 63 40.1745 63 40.8002Z" fill="white"/>
<path d="M63 36.267C63 36.8932 62.4872 37.4006 61.8543 37.4006C61.2219 37.4006 60.7091 36.8932 60.7091 36.267C60.7091 35.6413 61.2219 35.1339 61.8543 35.1339C62.4872 35.1339 63 35.6413 63 36.267Z" fill="white"/>
<path d="M63 31.7338C63 32.3594 62.4872 32.8673 61.8543 32.8673C61.2219 32.8673 60.7091 32.3594 60.7091 31.7338C60.7091 31.1081 61.2219 30.6002 61.8543 30.6002C62.4872 30.6002 63 31.1081 63 31.7338Z" fill="white"/>
<path d="M59.5634 43.0668C59.5634 43.693 59.0506 44.2004 58.4182 44.2004C57.7853 44.2004 57.2725 43.693 57.2725 43.0668C57.2725 42.4411 57.7853 41.9338 58.4182 41.9338C59.0506 41.9338 59.5634 42.4411 59.5634 43.0668Z" fill="white"/>
<path d="M59.5634 38.5336C59.5634 39.1598 59.0506 39.6672 58.4182 39.6672C57.7853 39.6672 57.2725 39.1598 57.2725 38.5336C57.2725 37.9079 57.7853 37.4005 58.4182 37.4005C59.0506 37.4005 59.5634 37.9079 59.5634 38.5336Z" fill="white"/>
<path d="M59.5634 34.0004C59.5634 34.6266 59.0506 35.1339 58.4182 35.1339C57.7853 35.1339 57.2725 34.6266 57.2725 34.0004C57.2725 33.3747 57.7853 32.8673 58.4182 32.8673C59.0506 32.8673 59.5634 33.3747 59.5634 34.0004Z" fill="white"/>
<path d="M56.1274 40.8002C56.1274 41.4264 55.6145 41.9338 54.9816 41.9338C54.3493 41.9338 53.8365 41.4264 53.8365 40.8002C53.8365 40.1745 54.3493 39.6672 54.9816 39.6672C55.6145 39.6672 56.1274 40.1745 56.1274 40.8002Z" fill="white"/>
<path d="M56.1274 36.267C56.1274 36.8932 55.6145 37.4006 54.9816 37.4006C54.3493 37.4006 53.8365 36.8932 53.8365 36.267C53.8365 35.6413 54.3493 35.1339 54.9816 35.1339C55.6145 35.1339 56.1274 35.6413 56.1274 36.267Z" fill="white"/>
<path d="M1.08647 40.4604C1.7613 40.8759 2.60603 40.9133 3.31547 40.5595C3.37473 40.5294 3.43188 40.4951 3.48536 40.4557L6.10501 38.5336H12.5996V39.786C12.5529 40.3924 12.0186 40.8464 11.4056 40.8002C9.53005 40.8344 8.0257 42.3441 8.01783 44.2004V46.467C8.01993 48.344 9.55732 49.8651 11.4544 49.8671H11.7077L10.196 58.9336H9.63754C9.02982 58.932 8.44675 59.1712 8.01783 59.5976L6.39812 61.2002C5.9671 61.624 5.72538 62.2015 5.72695 62.8027V65.7334C5.72853 66.9847 6.7531 67.999 8.01783 68H28.6363C29.901 67.999 30.9261 66.9847 30.9271 65.7334V63.0341C30.9303 62.1745 30.439 61.3885 29.6608 61.0067L25.9537 59.1727C25.6905 59.0477 25.4058 58.974 25.1147 58.9549L26.661 49.683C27.8424 49.2659 28.6321 48.1608 28.6363 46.9204V46.0136C28.6415 45.64 28.9462 45.3386 29.3237 45.3334H30.9271V53.2668C30.9271 53.5672 31.0477 53.8556 31.2627 54.0683L36.9902 59.7346C37.4396 60.1642 38.1537 60.1579 38.5957 59.7211C39.0378 59.2838 39.0435 58.5767 38.6099 58.132L33.218 52.7978V45.3334H38.9455C39.8421 45.3319 40.6549 44.812 41.0256 44.0043L44.0831 43.2479C45.1034 42.9968 45.8192 42.0894 45.8181 41.0487V39.6672H48.109C48.7414 39.6672 49.2542 39.1598 49.2542 38.5336C49.2542 37.9079 48.7414 37.4005 48.109 37.4005H45.8181V36.0185C45.8192 34.9783 45.1034 34.0714 44.0831 33.8198L41.0256 33.0639C40.6554 32.2557 39.8421 31.7358 38.9455 31.7338H36.4915C35.9724 29.7374 34.1561 28.3398 32.0723 28.3336C31.2491 28.3377 30.4426 28.5639 29.739 28.9873L27.8555 24.4919C30.1118 22.9848 30.9838 20.1149 29.9419 17.6262L25.0408 5.9186C26.2835 4.81253 26.5404 2.98171 25.648 1.58304C24.7561 0.184372 22.9749 -0.374368 21.4312 0.260116L5.55811 6.76579C4.04275 7.38678 3.18281 8.98103 3.50372 10.5722C3.82462 12.1633 5.23774 13.3088 6.87737 13.3067C6.93505 13.3067 6.99221 13.2932 7.04936 13.2901L11.951 24.9998C12.9902 27.4874 15.6565 28.9063 18.3271 28.3932L19.7276 31.7338H6.10501L3.48536 29.8111C3.43188 29.7722 3.37473 29.7374 3.31547 29.7079C2.60498 29.3566 1.76183 29.394 1.08594 29.807C0.410583 30.2199 -0.000506465 30.9499 1.78836e-05 31.7353V38.532C-0.0031282 39.3185 0.40901 40.0495 1.08647 40.4604ZM14.03 49.8671H24.3083L22.7961 58.9336H12.5183L14.03 49.8671ZM28.6363 63.0341V65.7334H8.01783V62.8027L9.63754 61.2002H24.9296L28.6363 63.0341ZM43.5272 41.0487L41.2364 41.6152V35.452L43.5272 36.0185V41.0487ZM38.9455 43.0668H33.218V37.2392C34.8215 36.8257 36.0736 35.5868 36.4915 34.0004H38.9455V43.0668ZM32.0723 30.6002C33.3376 30.6002 34.3637 31.6155 34.3637 32.8673C34.3637 34.1187 33.3376 35.1339 32.0723 35.1339C30.8076 35.1339 29.7814 34.1187 29.7814 32.8673C29.783 31.616 30.8081 30.6018 32.0723 30.6002ZM5.81504 10.3408C5.69864 10.0627 5.69864 9.75092 5.81504 9.47285C5.93145 9.1953 6.1543 8.97481 6.43535 8.85964L22.309 2.35449C22.8915 2.12103 23.5559 2.39651 23.7965 2.97133C24.0372 3.54615 23.7645 4.20502 23.1862 4.44834H23.1851L7.31153 10.954C6.72689 11.1932 6.05729 10.9187 5.81504 10.3408ZM14.0678 24.1319L9.2469 12.6147L23.0042 6.9759L27.8262 18.4941C28.5524 20.2269 27.7218 22.2144 25.9705 22.934L25.9647 22.935L18.5536 25.972L18.5494 25.9752C16.7975 26.6854 14.7945 25.8621 14.0678 24.1319ZM20.4895 27.6337L25.7833 25.4641L28.0186 30.7999C27.8618 31.0967 27.7396 31.41 27.6536 31.7338H22.2083L20.4895 27.6337ZM27.6536 34.0004C28.0715 35.5868 29.3237 36.8257 30.9271 37.2392V43.0668H29.3237C27.6793 43.0689 26.3475 44.3871 26.3454 46.0136V46.9204C26.3401 47.2939 26.0355 47.5954 25.658 47.6H11.4544C10.822 47.5995 10.3098 47.0926 10.3087 46.467V44.2004C10.3113 43.582 10.8126 43.0787 11.4376 43.0668C12.3353 43.085 13.2036 42.7498 13.8512 42.1345C14.4988 41.5187 14.8726 40.6741 14.8905 39.786V34.0004H27.6536ZM12.5996 34.0004V36.267H6.87266V34.0004H12.5996ZM2.2909 31.7566L4.58178 33.4375V36.8299L2.2909 38.5113V31.7566Z" fill="white"/>
<path d="M18.3014 22.3971L14.7945 14.0206C14.5491 13.4473 13.8827 13.177 13.3012 13.4152C12.7197 13.6538 12.4418 14.3111 12.6782 14.8885L16.1851 23.2651C16.3398 23.6422 16.6869 23.9084 17.0943 23.9623C17.5023 24.0163 17.9076 23.8503 18.1572 23.5265C18.4068 23.2028 18.4619 22.7722 18.3014 22.3971Z" fill="white"/>
</svg>
